<?xml version="1.0" encoding="UTF-8" standalone="no"?>
<svg xmlns="http://www.w3.org/2000/svg"
     width="554.99" height="536.40"
     viewBox="0 0 554.99 536.40">
  <path d="M 554.99 126.33 L 554.99 126.52 L 554.99 126.69 L 554.99 126.87 L 554.99 126.97 L 554.99 127.84 L 554.99 128.31 L 554.99 128.74 L 554.99 129.35 L 554.99 129.43 L 554.99 129.50 L 554.99 129.95 L 554.99 129.96 L 554.99 130.14 L 554.99 130.30 L 554.99 130.35 L 554.99 130.50 L 554.99 130.59 L 554.99 132.03 L 554.99 132.51 L 554.99 132.97 L 554.99 133.38 L 554.99 133.40 L 554.99 133.50 L 554.99 133.50 L 554.99 133.63 L 554.99 133.79 L 554.99 134.11 L 554.99 134.22 L 554.99 134.27 L 554.99 134.86 L 554.99 135.22 L 554.99 135.81 L 554.99 135.92 L 554.99 136.27 L 554.99 136.42 L 554.99 136.57 L 554.99 136.66 L 554.99 136.67 L 554.99 136.80 L 554.99 137.57 L 554.99 138.90 L 554.99 138.96 L 554.99 139.32 L 554.99 139.36 L 554.99 139.36 L 554.99 139.52 L 554.99 139.94 L 554.99 140.13 L 554.99 140.44 L 554.99 140.77 L 554.99 140.90 L 554.99 141.64 L 554.99 141.85 L 554.99 141.86 L 554.99 142.65 L 554.99 143.35 L 554.99 143.62 L 554.99 143.64 L 554.99 145.12 L 554.99 145.16 L 554.99 145.35 L 554.99 145.45 L 554.99 146.15 L 554.99 146.52 L 554.99 146.68 L 554.99 146.73 L 554.99 147.05 L 554.99 147.47 L 554.99 148.18 L 554.99 148.20 L 554.99 148.23 L 554.99 148.31 L 554.99 148.57 L 554.99 148.68 L 554.99 148.69 L 554.99 149.23 L 554.99 149.24 L 554.99 149.53 L 554.99 149.74 L 554.99 149.77 L 554.99 149.80 L 554.99 149.96 L 554.99 150.03 L 554.99 150.83 L 554.99 151.04 L 554.99 151.46 L 554.99 151.68 L 554.99 152.44 L 554.99 152.46 L 554.99 152.55 L 554.99 152.94 L 554.99 153.02 L 554.99 153.10 L 554.99 153.33 L 554.99 153.34 L 554.99 154.06 L 554.99 154.52 L 554.99 154.69 L 554.99 154.75 L 554.99 155.07 L 554.99 155.80 L 554.99 155.86 L 554.99 156.28 L 554.99 156.54 L 554.99 156.62 L 554.99 157.01 L 554.99 157.18 L 554.99 157.58 L 554.99 158.17 L 554.99 158.61 L 554.99 158.78 L 554.99 158.87 L 554.99 159.64 L 554.99 159.79 L 554.99 159.87 L 554.99 160.02 L 554.99 160.82 L 554.99 160.93 L 554.99 161.15 L 554.99 161.41 L 554.99 161.49 L 554.99 162.01 L 554.99 162.02 L 554.99 162.06 L 554.99 162.11 L 554.99 162.25 L 554.99 162.26 L 554.99 162.27 L 554.99 163.00 L 554.99 163.10 L 554.99 163.12 L 554.99 163.35 L 554.99 163.78 L 554.99 164.03 L 554.99 164.13 L 554.99 164.19 L 554.99 165.51 L 554.99 165.60 L 554.99 165.66 L 554.99 165.78 L 554.99 165.89 L 554.99 166.11 L 554.99 166.72 L 554.99 167.44 L 554.99 167.83 L 554.99 167.93 L 554.99 168.00 L 554.99 168.26 L 554.99 168.46 L 554.99 168.91 L 554.99 169.04 L 554.99 169.39 L 554.99 169.73 L 554.99 169.81 L 554.99 170.81 L 554.99 170.86 L 554.99 170.95 L 554.99 171.05 L 554.99 171.09 L 554.99 171.11 L 554.99 171.48 L 554.99 172.13 L 554.99 172.31 L 554.99 172.41 L 554.99 172.51 L 554.99 172.69 L 554.99 172.78 L 554.99 172.82 L 554.99 173.10 L 554.99 173.21 L 554.99 173.24 L 554.99 173.77 L 554.99 173.89 L 554.99 173.99 L 554.99 174.12 L 554.99 175.06 L 554.99 175.19 L 554.99 175.73 L 554.99 176.24 L 554.99 176.58 L 554.99 176.71 L 554.99 176.97 L 554.99 177.09 L 554.99 177.44 L 554.99 177.82 L 554.99 178.14 L 554.99 178.23 L 554.99 178.87 L 554.99 179.20 L 554.99 179.26 L 554.99 179.94 L 554.99 180.33 L 554.99 181.41 L 554.99 181.50 L 554.99 181.58 L 554.99 181.90 L 554.99 182.02 L 554.99 182.55 L 554.99 182.58 L 554.99 182.59 L 554.99 182.66 L 554.99 182.89 L 554.99 183.43 L 554.99 184.12 L 554.99 184.48 L 554.99 184.95 L 554.99 185.41 L 554.99 185.70 L 554.99 185.90 L 554.99 186.10 L 554.99 186.18 L 554.99 186.34 L 554.99 186.46 L 554.99 186.98 L 554.99 187.46 L 554.99 187.90 L 554.99 188.18 L 554.99 188.85 L 554.99 188.99 L 554.99 189.01 L 554.99 189.56 L 554.99 189.68 L 554.99 189.81 L 554.99 190.03 L 554.99 190.40 L 554.99 190.42 L 554.99 190.53 L 554.99 190.69 L 554.99 190.87 L 554.99 190.96 L 554.99 190.98 L 554.99 191.05 L 554.99 191.56 L 554.99 191.75 L 554.99 192.29 L 554.99 192.31 L 554.99 192.97 L 554.99 193.32 L 554.99 193.44 L 554.99 193.50 L 554.99 193.52 L 554.99 193.66 L 554.99 193.99 L 554.99 194.07 L 554.99 194.31 L 554.99 194.40 L 554.99 194.54 L 554.99 194.72 L 554.99 194.78 L 554.99 194.81 L 554.99 195.04 L 554.99 195.79 L 554.99 196.06 L 554.99 196.12 L 554.99 196.35 L 554.99 196.38 L 554.99 196.40 L 554.99 196.65 L 554.99 197.34 L 554.99 197.34 L 554.99 197.45 L 554.99 197.52 L 554.99 197.53 L 554.99 198.95 L 554.99 198.99 L 554.99 200.27 L 554.99 200.39 L 554.99 200.84 L 554.99 200.90 L 554.99 201.14 L 554.99 201.14 L 554.99 202.22 L 554.99 202.51 L 554.99 203.46 L 554.99 204.00 L 554.99 204.08 L 554.99 204.15 L 554.99 204.24 L 554.99 204.30 L 554.99 204.72 L 554.99 204.85 L 554.99 204.95 L 554.99 205.21 L 554.99 205.58 L 554.99 205.64 L 554.99 205.65 L 554.99 205.94 L 554.99 206.30 L 554.99 207.00 L 554.99 207.19 L 554.99 207.25 L 554.99 207.46 L 554.99 207.73 L 554.99 207.92 L 554.99 208.34 L 554.99 208.85 L 554.99 209.18 L 554.99 209.57 L 554.99 210.19 L 554.99 210.26 L 554.99 210.49 L 554.99 210.55 L 554.99 211.03 L 554.99 211.35 L 554.99 211.53 L 554.99 211.74 L 554.99 211.81 L 554.99 211.88 L 554.99 212.16 L 554.99 212.17 L 554.99 212.28 L 554.99 212.49 L 554.99 212.53 L 554.99 212.97 L 554.99 213.08 L 554.99 214.06 L 554.99 214.33 L 554.99 214.53 L 554.99 214.78 L 554.99 214.80 L 554.99 215.22 L 554.99 215.42 L 554.99 215.47 L 554.99 215.98 L 554.99 216.99 L 554.99 217.05 L 554.99 217.36 L 554.99 217.70 L 554.99 217.75 L 554.99 218.21 L 554.99 218.33 L 554.99 218.43 L 554.99 218.51 L 554.99 218.58 L 554.99 218.75 L 554.99 218.96 L 554.99 219.94 L 554.99 220.20 L 554.99 220.46 L 554.99 220.61 L 554.99 221.05 L 554.99 221.22 L 554.99 221.29 L 554.99 221.83 L 554.99 222.21 L 554.99 222.48 L 554.99 222.73 L 554.99 223.22 L 554.99 224.01 L 554.99 224.65 L 554.99 225.26 L 554.99 225.63 L 554.99 225.75 L 554.99 226.64 L 554.99 226.81 L 554.99 226.89 L 554.99 227.80 L 554.99 227.82 L 554.99 227.84 L 554.99 228.23 L 554.99 228.86 L 554.99 228.88 L 554.99 229.30 L 554.99 229.34 L 554.99 229.52 L 554.99 230.11 L 554.99 230.29 L 554.99 230.31 L 554.99 230.33 L 554.99 230.68 L 554.99 230.87 L 554.99 230.88 L 554.99 230.97 L 554.99 231.19 L 554.99 231.43 L 554.99 231.57 L 554.99 232.16 L 554.99 232.21 L 554.99 232.87 L 554.99 232.99 L 554.99 233.19 L 554.99 233.24 L 554.99 233.40 L 554.99 233.44 L 554.99 233.57 L 554.99 234.07 L 554.99 234.13 L 554.99 234.77 L 554.99 235.60 L 554.99 235.73 L 554.99 237.56 L 554.99 237.97 L 554.99 238.02 L 554.99 238.86 L 554.99 238.95 L 554.99 239.06 L 554.99 239.18 L 554.99 239.35 L 554.99 240.29 L 554.99 240.30 L 554.99 240.50 L 554.99 240.54 L 554.99 240.81 L 554.99 240.83 L 554.99 241.38 L 554.99 241.59 L 554.99 242.21 L 554.99 242.30 L 554.99 242.32 L 554.99 242.37 L 554.99 242.66 L 554.99 242.87 L 554.99 243.02 L 554.99 243.46 L 554.99 243.52 L 554.99 243.82 L 554.99 244.53 L 554.99 244.57 L 554.99 244.79 L 554.99 245.86 L 554.99 246.02 L 554.99 246.33 L 554.99 246.48 L 554.99 247.20 L 554.99 247.51 L 554.99 247.63 L 554.99 248.26 L 554.99 249.00 L 554.99 249.41 L 554.99 249.45 L 554.99 250.01 L 554.99 250.38 L 554.99 250.71 L 554.99 250.72 L 554.99 251.21 L 554.99 251.32 L 554.99 251.32 L 554.99 251.33 L 554.99 251.59 L 554.99 252.30 L 554.99 252.31 L 554.99 252.41 L 554.99 252.51 L 554.99 253.45 L 554.99 254.76 L 554.99 254.78 L 554.99 254.85 L 554.99 254.94 L 554.99 256.07 L 554.99 256.13 L 554.99 256.39 L 554.99 256.45 L 554.99 256.56 L 554.99 256.79 L 554.99 256.83 L 554.99 257.86 L 554.99 258.78 L 554.99 259.06 L 554.99 259.32 L 554.99 259.59 L 554.99 259.93 L 554.99 259.94 L 554.99 260.12 L 554.99 260.25 L 554.99 260.25 L 554.99 260.42 L 554.99 261.28 L 554.99 261.42 L 554.99 261.52 L 554.99 261.75 L 554.99 261.80 L 554.99 262.67 L 554.99 263.13 L 554.99 263.57 L 554.99 263.57 L 554.99 263.83 L 554.99 263.92 L 554.99 264.13 L 554.99 264.14 L 554.99 264.48 L 554.99 264.78 L 554.99 264.96 L 554.99 265.75 L 554.99 265.78 L 554.99 265.83 L 554.99 265.96 L 554.99 266.27 L 554.99 266.53 L 554.99 266.70 L 554.99 268.36 L 554.99 268.83 L 554.99 268.86 L 554.99 269.04 L 554.99 269.34 L 554.99 269.47 L 554.99 269.85 L 554.99 269.89 L 554.99 269.91 L 554.99 269.98 L 554.99 270.53 L 554.99 270.54 L 554.99 270.72 L 554.99 271.10 L 554.99 271.11 L 554.99 271.26 L 554.99 271.27 L 554.99 271.32 L 554.99 271.53 L 554.99 271.88 L 554.99 272.18 L 554.99 272.50 L 554.99 272.57 L 554.99 272.75 L 554.99 272.88 L 554.99 273.19 L 554.99 273.58 L 554.99 273.86 L 554.99 274.08 L 554.99 275.01 L 554.99 275.11 L 554.99 275.39 L 554.99 275.65 L 554.99 276.01 L 554.99 276.07 L 554.99 276.40 L 554.99 276.48 L 554.99 276.84 L 554.99 277.34 L 554.99 277.71 L 554.99 277.75 L 554.99 278.39 L 554.99 278.88 L 554.99 279.22 L 554.99 279.50 L 554.99 279.55 L 554.99 279.76 L 554.99 280.04 L 554.99 280.22 L 554.99 280.26 L 554.99 280.86 L 554.99 280.94 L 554.99 281.11 L 554.99 281.11 L 554.99 281.29 L 554.99 281.31 L 554.99 281.33 L 554.99 281.53 L 554.99 281.88 L 554.99 281.92 L 554.99 282.13 L 554.99 282.38 L 554.99 282.65 L 554.99 284.23 L 554.99 284.33 L 554.99 284.45 L 554.99 285.20 L 554.99 285.33 L 554.99 286.16 L 554.99 286.17 L 554.99 286.29 L 554.99 286.39 L 554.99 286.65 L 554.99 287.30 L 554.99 287.38 L 554.99 287.70 L 554.99 287.70 L 554.99 287.80 L 554.99 287.90 L 554.99 288.10 L 554.99 288.30 L 554.99 288.40 L 554.99 288.69 L 554.99 289.09 L 554.99 289.25 L 554.99 289.38 L 554.99 289.75 L 554.99 290.01 L 554.99 290.41 L 554.99 290.42 L 554.99 290.48 L 554.99 290.64 L 554.99 292.95 L 554.99 293.60 L 554.99 293.87 L 554.99 294.26 L 554.99 294.29 L 554.99 294.30 L 554.99 294.35 L 554.99 294.81 L 554.99 295.30 L 554.99 295.47 L 554.99 296.37 L 554.99 296.49 L 554.99 296.87 L 554.99 297.36 L 554.99 297.61 L 554.99 297.80 L 554.99 297.94 L 554.99 298.14 L 554.99 298.22 L 554.99 298.24 L 554.99 298.32 L 554.99 298.40 L 554.99 298.47 L 554.99 299.44 L 554.99 299.57 L 554.99 299.78 L 554.99 299.98 L 554.99 300.71 L 554.99 301.48 L 554.99 301.53 L 554.99 301.78 L 554.99 301.90 L 554.99 302.07 L 554.99 302.15 L 554.99 302.86 L 554.99 303.11 L 554.99 303.13 L 554.99 303.26 L 554.99 303.57 L 554.99 303.76 L 554.99 304.42 L 554.99 304.62 L 554.99 304.72 L 554.99 305.50 L 554.99 305.56 L 554.99 305.76 L 554.99 305.82 L 554.99 306.35 L 554.99 306.41 L 554.99 307.28 L 554.99 307.56 L 554.99 308.02 L 554.99 308.31 L 554.99 308.52 L 554.99 308.67 L 554.99 308.67 L 554.99 308.88 L 554.99 309.08 L 554.99 309.26 L 554.99 309.55 L 554.99 309.80 L 554.99 310.34 L 554.99 310.50 L 554.99 310.73 L 554.99 310.88 L 554.99 311.64 L 554.99 311.74 L 554.99 312.00 L 554.99 312.15 L 554.99 312.44 L 554.99 312.50 L 554.99 312.65 L 554.99 313.07 L 554.99 313.10 L 554.99 313.29 L 554.99 314.04 L 554.99 314.61 L 554.99 314.74 L 554.99 315.40 L 554.99 316.29 L 554.99 317.27 L 554.99 317.42 L 554.99 317.80 L 554.99 317.82 L 554.99 317.89 L 554.99 318.78 L 554.99 318.88 L 554.99 319.18 L 554.99 319.28 L 554.99 319.32 L 554.99 319.35 L 554.99 319.41 L 554.99 319.71 L 554.99 320.07 L 554.99 320.09 L 554.99 320.31 L 554.99 321.08 L 554.99 322.30 L 554.99 323.37 L 554.99 323.51 L 554.99 323.60 L 554.99 323.71 L 554.99 324.45 L 554.99 325.31 L 554.99 325.77 L 554.99 325.92 L 554.99 326.17 L 554.99 326.38 L 554.99 326.41 L 554.99 326.42 L 554.99 326.44 L 554.99 326.50 L 554.99 327.48 L 554.99 327.59 L 554.99 327.74 L 554.99 327.88 L 554.99 328.14 L 554.99 328.28 L 554.99 328.36 L 554.99 328.53 L 554.99 329.10 L 554.99 329.11 L 554.99 329.37 L 554.99 329.41 L 554.99 329.56 L 554.99 331.04 L 554.99 331.23 L 554.99 331.24 L 554.99 331.29 L 554.99 331.30 L 554.99 331.61 L 554.99 332.08 L 554.99 332.53 L 554.99 332.61 L 554.99 332.64 L 554.99 332.65 L 554.99 332.83 L 554.99 332.87 L 554.99 333.08 L 554.99 333.28 L 554.99 334.14 L 554.99 334.22 L 554.99 334.40 L 554.99 334.42 L 554.99 334.58 L 554.99 334.59 L 554.99 334.65 L 554.99 334.96 L 554.99 335.34 L 554.99 335.45 L 554.99 335.54 L 554.99 335.64 L 554.99 335.99 L 554.99 336.38 L 554.99 336.46 L 554.99 336.96 L 554.99 337.34 L 554.99 337.37 L 554.99 337.38 L 554.99 337.57 L 554.99 337.97 L 554.99 338.24 L 554.99 338.45 L 554.99 338.71 L 554.99 339.51 L 554.99 340.22 L 554.99 340.24 L 554.99 340.88 L 554.99 340.94 L 554.99 341.20 L 554.99 341.84 L 554.99 342.22 L 554.99 342.30 L 554.99 342.58 L 554.99 343.10 L 554.99 343.13 L 554.99 343.30 L 554.99 343.51 L 554.99 343.58 L 554.99 343.86 L 554.99 343.95 L 554.99 343.96 L 554.99 344.25 L 554.99 344.72 L 554.99 344.88 L 554.99 345.44 L 554.99 345.76 L 554.99 345.88 L 554.99 346.28 L 554.99 346.35 L 554.99 346.59 L 554.99 346.82 L 554.99 346.89 L 554.99 347.28 L 554.99 347.64 L 554.99 348.91 L 554.99 349.33 L 554.99 349.59 L 554.99 351.00 L 554.99 351.32 L 554.99 351.33 L 554.99 351.67 L 554.99 351.93 L 554.99 352.14 L 554.99 352.15 L 554.99 352.45 L 554.99 352.50 L 554.99 352.79 L 554.99 353.81 L 554.99 354.09 L 554.99 354.69 L 554.99 354.71 L 554.99 355.64 L 554.99 356.32 L 554.99 356.46 L 554.99 356.46 L 554.99 357.09 L 554.99 357.36 L 554.99 357.82 L 554.99 358.01 L 554.99 358.22 L 554.99 358.52 L 554.99 358.62 L 554.99 358.82 L 554.99 359.38 L 554.99 359.77 L 554.99 359.85 L 554.99 359.91 L 554.99 360.39 L 554.99 360.97 L 554.99 361.44 L 554.99 361.51 L 554.99 361.61 L 554.99 361.77 L 554.99 361.81 L 554.99 361.96 L 554.99 362.59 L 554.99 362.67 L 554.99 363.30 L 554.99 363.34 L 554.99 363.74 L 554.99 363.86 L 554.99 364.27 L 554.99 364.43 L 554.99 364.59 L 554.99 364.88 L 554.99 365.08 L 554.99 365.46 L 554.99 365.83 L 554.99 365.89 L 554.99 366.24 L 554.99 366.46 L 554.99 366.57 L 554.99 368.22 L 554.99 368.33 L 554.99 368.39 L 554.99 369.03 L 554.99 369.06 L 554.99 369.80 L 554.99 370.21 L 554.99 370.38 L 554.99 370.47 L 554.99 370.70 L 554.99 370.90 L 554.99 371.30 L 554.99 371.49 L 554.99 371.92 L 554.99 372.12 L 554.99 372.70 L 554.99 372.98 L 554.99 373.53 L 554.99 374.10 L 554.99 374.31 L 554.99 374.36 L 554.99 374.66 L 554.99 374.80 L 554.99 374.83 L 554.99 375.25 L 554.99 376.00 L 554.99 376.47 L 554.99 376.64 L 554.99 376.73 L 554.99 377.37 L 554.99 377.41 L 554.99 377.67 L 554.99 377.86 L 554.99 378.45 L 554.99 378.93 L 554.99 379.11 L 554.99 379.26 L 554.99 379.32 L 554.99 379.58 L 554.99 379.77 L 554.99 379.94 L 554.99 380.21 L 554.99 380.34 L 554.99 381.46 L 554.99 382.70 L 554.99 382.79 L 554.99 382.87 L 554.99 383.11 L 554.99 383.32 L 554.99 383.68 L 554.99 383.74 L 554.99 385.06 L 554.99 385.07 L 554.99 385.22 L 554.99 385.62 L 554.99 385.71 L 554.99 386.21 L 554.99 386.38 L 554.99 386.80 L 554.99 387.12 L 554.99 387.29 L 554.99 388.07 L 554.99 388.09 L 554.99 388.55 L 554.99 388.56 L 554.99 388.60 L 554.99 389.28 L 554.99 389.51 L 554.99 389.52 L 554.99 389.68 L 554.99 389.77 L 554.99 389.87 L 554.99 389.94 L 554.99 390.00 L 554.99 390.01 L 554.99 390.05 L 554.99 390.36 L 554.99 390.46 L 554.99 390.75 L 554.99 391.08 L 554.99 391.08 L 554.99 391.16 L 554.99 391.33 L 554.99 391.35 L 554.99 391.36 L 554.99 391.63 L 554.99 391.76 L 554.99 391.83 L 554.99 392.74 L 554.99 393.04 L 554.99 393.39 L 554.99 393.51 L 554.99 395.44 L 554.99 395.78 L 554.99 396.02 L 554.99 396.25 L 554.99 396.33 L 554.99 396.64 L 554.99 396.89 L 554.99 397.16 L 554.99 397.57 L 554.99 397.82 L 554.99 398.08 L 554.99 398.23 L 554.99 398.85 L 554.99 398.93 L 554.99 398.93 L 554.99 399.36 L 554.99 399.39 L 554.99 399.59 L 554.99 399.62 L 554.99 399.79 L 554.99 400.45 L 554.99 400.65 L 554.99 401.21 L 554.99 402.39 L 554.99 402.69 L 554.99 402.78 L 554.99 403.07 L 554.99 403.17 L 554.99 403.29 L 554.97 403.60 L 554.64 403.63 L 554.42 403.63 L 553.69 403.63 L 553.65 403.63 L 553.65 403.63 L 553.57 403.63 L 553.53 403.63 L 553.45 403.63 L 553.42 403.63 L 553.40 403.63 L 553.32 403.63 L 553.26 403.63 L 553.05 403.63 L 552.84 403.63 L 552.70 403.63 L 552.39 403.63 L 551.98 403.63 L 551.88 403.63 L 551.42 403.63 L 551.39 403.63 L 551.05 403.63 L 549.53 403.63 L 549.47 403.63 L 549.36 403.63 L 549.22 403.63 L 549.00 403.63 L 548.92 403.63 L 548.78 403.63 L 548.61 403.63 L 548.21 403.63 L 548.15 403.63 L 547.91 403.63 L 547.58 403.63 L 547.55 403.63 L 547.47 403.63 L 547.47 403.63 L 546.99 403.63 L 546.78 403.63 L 546.36 403.63 L 546.18 403.63 L 545.91 403.63 L 545.67 403.63 L 545.56 403.63 L 545.55 403.63 L 545.46 403.63 L 545.45 403.63 L 545.36 403.63 L 544.84 403.63 L 544.23 403.63 L 543.96 403.63 L 543.54 403.63 L 543.40 403.63 L 543.17 403.63 L 543.16 403.63 L 542.79 403.63 L 542.68 403.63 L 542.34 403.63 L 541.66 403.63 L 541.28 403.63 L 540.99 403.63 L 540.97 403.63 L 540.83 403.63 L 540.50 403.63 L 540.48 403.63 L 539.53 403.63 L 539.38 403.63 L 538.88 403.63 L 538.75 403.63 L 538.64 403.63 L 538.50 403.63 L 538.27 403.63 L 538.21 403.63 L 538.17 403.63 L 537.97 403.63 L 537.78 403.63 L 537.10 403.63 L 536.62 403.63 L 536.18 403.63 L 536.06 403.63 L 535.90 403.63 L 535.49 403.63 L 534.85 403.63 L 534.64 403.63 L 534.21 403.63 L 534.00 403.63 L 533.95 403.63 L 533.93 403.63 L 533.62 403.63 L 533.13 403.63 L 532.94 403.63 L 532.56 403.63 L 531.75 403.63 L 531.57 403.63 L 531.28 403.63 L 531.22 403.63 L 530.72 403.63 L 530.31 403.63 L 530.20 403.63 L 529.84 403.63 L 529.70 403.63 L 529.34 403.63 L 528.43 403.63 L 528.42 403.63 L 527.84 403.63 L 527.73 403.63 L 527.43 403.63 L 527.12 403.63 L 526.58 403.63 L 526.23 403.63 L 526.01 403.63 L 525.89 403.63 L 525.24 403.63 L 524.95 403.63 L 524.55 403.63 L 524.49 403.63 L 524.39 403.63 L 524.23 403.63 L 524.02 403.63 L 523.79 403.63 L 523.72 403.63 L 523.46 403.63 L 523.40 403.63 L 523.05 403.63 L 523.04 403.63 L 523.02 403.63 L 522.83 403.63 L 522.69 403.63 L 522.08 403.63 L 521.42 403.63 L 521.41 403.63 L 521.38 403.63 L 521.06 403.63 L 520.83 403.63 L 520.78 403.63 L 520.62 403.63 L 520.56 403.63 L 520.26 403.63 L 519.92 403.63 L 519.75 403.63 L 519.74 403.63 L 519.42 403.63 L 518.97 403.63 L 518.79 403.63 L 518.05 403.63 L 517.75 403.63 L 517.28 403.63 L 516.76 403.63 L 516.74 403.63 L 516.65 403.63 L 516.43 403.63 L 516.41 403.63 L 515.81 403.63 L 515.08 403.63 L 514.94 403.63 L 514.50 403.63 L 514.15 403.63 L 513.72 403.63 L 513.39 403.63 L 512.95 403.63 L 512.67 403.63 L 512.63 403.63 L 512.18 403.63 L 512.06 403.63 L 511.92 403.63 L 511.45 403.63 L 511.10 403.63 L 510.89 403.63 L 510.59 403.63 L 510.13 403.63 L 509.47 403.63 L 508.81 403.63 L 508.33 403.63 L 507.42 403.63 L 507.33 403.63 L 507.26 403.63 L 506.86 403.63 L 506.44 403.63 L 506.43 403.63 L 506.41 403.63 L 506.30 403.63 L 506.27 403.63 L 506.25 403.63 L 505.30 403.63 L 504.87 403.63 L 504.83 403.63 L 504.53 403.63 L 504.25 403.63 L 503.41 403.63 L 503.36 403.63 L 503.32 403.63 L 503.27 403.63 L 503.12 403.63 L 503.10 403.63 L 501.93 403.63 L 501.69 403.63 L 501.37 403.63 L 500.97 403.63 L 500.90 403.63 L 500.68 403.63 L 499.99 403.63 L 499.77 403.63 L 499.77 403.63 L 499.44 403.63 L 499.39 403.63 L 498.61 403.63 L 498.06 403.63 L 497.64 403.63 L 497.33 403.63 L 497.18 403.63 L 497.07 403.63 L 496.83 403.63 L 496.08 403.63 L 495.80 403.63 L 495.45 403.63 L 495.43 403.63 L 494.99 403.63 L 494.88 403.63 L 494.79 403.63 L 494.62 403.63 L 494.51 403.63 L 494.18 403.63 L 494.17 403.63 L 494.17 403.63 L 493.94 403.63 L 493.61 403.63 L 493.40 403.63 L 493.36 403.63 L 493.15 403.63 L 492.83 403.63 L 492.63 403.63 L 492.38 403.63 L 492.21 403.63 L 492.07 403.63 L 491.73 403.63 L 491.70 403.63 L 491.63 403.63 L 490.42 403.63 L 490.25 403.63 L 489.69 403.63 L 489.55 403.63 L 489.33 403.63 L 489.21 403.63 L 488.92 403.63 L 488.92 403.63 L 488.41 403.63 L 487.91 403.63 L 487.25 403.63 L 486.34 403.63 L 486.15 403.63 L 485.42 403.63 L 485.40 403.63 L 484.78 403.63 L 484.18 403.63 L 483.89 403.63 L 483.73 403.63 L 483.69 403.63 L 483.26 403.63 L 482.36 403.63 L 480.79 403.63 L 480.26 403.63 L 480.26 403.63 L 480.07 403.63 L 479.87 403.63 L 479.86 403.63 L 478.76 403.63 L 478.38 403.63 L 477.57 403.63 L 477.52 403.63 L 477.26 403.63 L 476.76 403.63 L 476.50 403.63 L 476.45 403.63 L 476.32 403.63 L 476.20 403.63 L 476.09 403.63 L 475.19 403.63 L 475.05 403.63 L 474.74 403.63 L 474.67 403.63 L 474.57 403.63 L 474.33 403.63 L 474.23 403.63 L 474.17 403.63 L 473.73 403.63 L 473.64 403.63 L 473.34 403.63 L 472.84 403.63 L 472.83 403.63 L 472.83 403.63 L 472.64 403.63 L 472.56 403.63 L 472.05 403.63 L 471.99 403.63 L 471.77 403.63 L 471.53 403.63 L 471.53 403.63 L 471.23 403.63 L 470.96 403.63 L 470.52 403.63 L 470.29 403.63 L 470.23 403.63 L 470.00 403.63 L 469.97 403.63 L 469.61 403.63 L 469.29 403.63 L 468.42 403.63 L 468.03 403.63 L 467.95 403.63 L 467.61 403.63 L 467.60 403.63 L 467.21 403.63 L 467.08 403.63 L 466.83 403.63 L 466.81 403.63 L 466.17 403.63 L 465.95 403.63 L 465.55 403.63 L 465.00 403.63 L 464.53 403.63 L 464.44 403.63 L 464.14 403.63 L 464.11 403.63 L 464.11 403.63 L 463.63 403.63 L 463.26 403.63 L 461.94 403.63 L 461.69 403.63 L 461.64 403.63 L 460.60 403.63 L 460.32 403.63 L 459.58 403.63 L 459.49 403.63 L 458.97 403.63 L 458.93 403.63 L 458.62 403.63 L 458.62 403.63 L 458.61 403.63 L 458.36 403.63 L 458.30 403.63 L 457.83 403.63 L 457.41 403.63 L 456.67 403.63 L 456.33 403.63 L 456.26 403.63 L 456.08 403.63 L 456.00 403.63 L 455.78 403.63 L 455.61 403.63 L 455.55 403.63 L 455.39 403.63 L 455.23 403.63 L 455.08 403.63 L 454.45 403.63 L 454.06 403.63 L 453.93 403.63 L 453.62 403.63 L 453.36 403.63 L 453.31 403.63 L 453.04 403.63 L 452.90 403.63 L 452.56 403.63 L 451.99 403.63 L 451.32 403.63 L 451.29 403.63 L 451.06 403.63 L 451.02 403.63 L 450.98 403.63 L 450.64 403.63 L 450.62 403.63 L 450.25 403.63 L 449.96 403.63 L 449.55 403.63 L 449.54 403.63 L 449.12 403.63 L 448.60 403.63 L 448.53 403.63 L 448.35 403.63 L 448.21 403.63 L 448.11 403.63 L 448.07 403.63 L 447.94 403.63 L 447.63 403.63 L 447.42 403.63 L 447.31 403.63 L 446.83 403.63 L 446.65 403.63 L 446.52 403.63 L 446.30 403.63 L 446.15 403.63 L 445.54 403.63 L 445.21 403.63 L 445.12 403.63 L 444.99 403.63 L 444.57 403.63 L 444.55 403.63 L 444.52 403.63 L 444.47 403.63 L 444.37 403.63 L 444.24 403.63 L 444.14 403.63 L 443.66 403.63 L 443.60 403.63 L 443.03 403.63 L 443.01 403.63 L 442.60 403.63 L 442.57 403.63 L 442.17 403.63 L 441.57 403.63 L 441.41 403.63 L 441.37 403.63 L 440.86 403.63 L 440.75 403.63 L 440.22 403.63 L 440.04 403.63 L 440.03 403.63 L 438.74 403.63 L 437.52 403.63 L 437.49 403.63 L 437.47 403.63 L 437.05 403.63 L 437.04 403.63 L 436.95 403.63 L 435.29 403.63 L 434.63 403.63 L 434.63 403.63 L 434.45 403.63 L 434.39 403.63 L 433.94 403.63 L 433.78 403.63 L 433.05 403.63 L 432.82 403.63 L 431.94 403.63 L 431.89 403.63 L 431.64 403.63 L 431.06 403.63 L 430.77 403.63 L 430.41 403.63 L 429.78 403.63 L 429.23 403.63 L 428.73 403.63 L 428.51 403.63 L 428.22 403.63 L 428.17 403.63 L 427.61 403.63 L 427.59 403.63 L 427.35 403.63 L 427.24 403.63 L 426.81 403.63 L 426.47 403.63 L 426.26 403.63 L 426.16 403.63 L 425.57 403.63 L 425.39 403.63 L 423.76 403.63 L 423.36 403.63 L 423.17 403.63 L 422.74 403.63 L 422.18 403.63 L 422.06 403.63 L 421.98 403.63 L 421.12 403.63 L 420.95 403.63 L 420.56 403.63 L 420.54 403.63 L 420.48 403.63 L 420.18 403.63 L 419.08 403.63 L 418.53 403.63 L 418.05 403.63 L 418.02 403.63 L 417.99 403.63 L 417.96 403.63 L 417.80 403.63 L 417.79 403.63 L 417.67 403.63 L 417.64 403.63 L 417.06 403.63 L 416.77 403.63 L 416.58 403.63 L 416.00 403.63 L 415.46 403.63 L 415.42 403.63 L 415.32 403.63 L 415.04 403.63 L 414.62 403.63 L 414.49 403.63 L 414.18 403.63 L 413.31 403.63 L 412.97 403.63 L 412.92 403.63 L 412.79 403.63 L 412.48 403.63 L 411.65 403.63 L 410.17 403.63 L 409.94 403.63 L 409.89 403.63 L 409.58 403.63 L 409.53 403.63 L 409.50 403.63 L 409.48 403.63 L 408.63 403.63 L 407.97 403.63 L 407.55 403.63 L 407.54 403.63 L 407.53 403.63 L 407.02 403.63 L 406.68 403.63 L 406.64 403.63 L 406.63 403.63 L 405.69 403.63 L 405.13 403.63 L 405.09 403.63 L 404.77 403.63 L 404.72 403.63 L 404.34 403.63 L 404.22 403.63 L 404.20 403.63 L 404.16 403.63 L 404.15 403.63 L 404.10 403.63 L 403.94 403.63 L 403.63 403.63 L 403.35 403.63 L 403.18 403.63 L 403.06 403.63 L 402.85 403.63 L 402.70 403.63 L 402.68 403.63 L 402.58 403.63 L 402.51 403.63 L 402.16 403.63 L 402.06 403.63 L 401.94 403.63 L 401.65 403.63 L 401.12 403.63 L 400.83 403.63 L 400.26 403.63 L 400.23 403.63 L 399.65 403.63 L 399.35 403.63 L 398.90 403.63 L 398.72 403.63 L 333.76 463.10 L 333.68 463.24 L 333.07 464.07 L 332.51 464.83 L 332.26 465.15 L 332.16 465.30 L 332.11 465.36 L 332.02 465.47 L 331.82 465.76 L 331.36 466.37 L 331.34 466.40 L 331.29 466.46 L 331.07 466.76 L 331.03 466.81 L 330.98 466.88 L 330.95 466.92 L 330.31 467.78 L 330.08 468.09 L 329.47 468.92 L 328.48 470.24 L 327.41 471.69 L 326.47 472.94 L 325.84 473.79 L 325.02 474.89 L 324.73 475.28 L 324.16 476.06 L 323.81 476.53 L 319.63 482.14 L 319.49 482.33 L 319.43 482.41 L 318.01 484.33 L 317.91 484.47 L 317.87 484.52 L 316.43 486.45 L 315.54 487.65 L 314.06 489.64 L 314.00 489.72 L 313.79 490.00 L 313.08 490.96 L 312.89 491.22 L 312.57 491.65 L 312.46 491.79 L 312.41 491.86 L 312.37 491.92 L 310.59 494.31 L 309.92 495.21 L 308.64 496.93 L 308.63 496.94 L 306.19 500.22 L 304.26 502.82 L 304.13 503.00 L 303.39 503.99 L 303.12 504.36 L 302.77 504.83 L 302.71 504.91 L 302.61 505.04 L 301.69 506.28 L 300.68 507.63 L 299.91 508.68 L 298.84 510.11 L 298.80 510.16 L 295.50 514.60 L 293.91 516.74 L 292.03 519.27 L 290.63 521.16 L 290.31 521.59 L 290.30 521.60 L 289.26 522.99 L 288.54 523.97 L 288.33 524.25 L 288.32 524.26 L 287.79 524.97 L 287.65 525.17 L 287.62 525.21 L 287.61 525.22 L 287.37 525.54 L 287.31 525.61 L 287.23 525.73 L 287.16 525.82 L 286.64 526.53 L 286.54 526.66 L 286.38 526.87 L 286.20 527.12 L 286.19 527.13 L 286.11 527.23 L 285.93 527.47 L 285.90 527.52 L 285.69 527.80 L 285.46 528.10 L 285.12 528.57 L 285.11 528.58 L 285.03 528.69 L 284.99 528.74 L 284.92 528.83 L 284.79 529.01 L 284.77 529.03 L 284.62 529.24 L 284.59 529.28 L 284.55 529.33 L 284.47 529.43 L 284.35 529.60 L 284.14 529.89 L 283.61 530.59 L 283.58 530.63 L 283.47 530.78 L 282.84 531.64 L 282.79 531.71 L 282.78 531.72 L 282.68 531.85 L 282.48 532.12 L 282.01 532.75 L 281.82 533.01 L 281.74 533.12 L 281.71 533.15 L 281.29 533.72 L 280.86 534.30 L 280.79 534.39 L 280.72 534.49 L 280.36 534.97 L 280.23 535.14 L 280.14 535.27 L 279.34 536.35 L 279.31 536.38 L 278.88 536.40 L 278.87 536.40 L 278.75 536.40 L 278.62 536.40 L 278.39 536.40 L 277.95 536.40 L 277.83 536.40 L 277.37 536.40 L 277.03 536.40 L 276.91 536.40 L 276.84 536.40 L 276.21 536.40 L 275.75 536.40 L 275.06 536.40 L 275.03 536.40 L 274.98 536.40 L 273.59 536.40 L 273.06 536.40 L 272.59 536.40 L 272.32 536.40 L 272.18 536.40 L 271.90 536.40 L 271.65 536.40 L 271.65 536.40 L 271.46 536.40 L 271.41 536.40 L 271.37 536.40 L 271.24 536.40 L 270.93 536.40 L 270.74 536.40 L 270.59 536.40 L 270.47 536.40 L 270.16 536.40 L 270.05 536.40 L 269.86 536.40 L 269.59 536.40 L 269.23 536.40 L 269.16 536.40 L 268.71 536.40 L 268.37 536.40 L 267.84 536.40 L 267.77 536.40 L 267.40 536.40 L 267.26 536.40 L 267.22 536.40 L 266.98 536.40 L 266.29 536.40 L 266.23 536.40 L 266.19 536.40 L 265.99 536.40 L 265.48 536.40 L 265.37 536.40 L 265.30 536.40 L 265.20 536.40 L 265.13 536.40 L 264.84 536.40 L 264.32 536.40 L 263.74 536.40 L 263.43 536.40 L 263.42 536.40 L 262.94 536.40 L 262.68 536.40 L 262.68 536.40 L 262.32 536.40 L 261.51 536.40 L 261.44 536.40 L 261.13 536.40 L 261.06 536.40 L 261.05 536.40 L 260.54 536.40 L 259.71 536.40 L 259.67 536.40 L 259.33 536.40 L 259.28 536.40 L 258.76 536.40 L 258.52 536.40 L 257.89 536.40 L 257.84 536.40 L 257.74 536.40 L 256.68 536.40 L 256.57 536.40 L 256.13 536.40 L 255.67 536.40 L 254.48 536.40 L 254.37 536.40 L 254.29 536.40 L 254.06 536.40 L 253.93 536.40 L 253.88 536.40 L 253.78 536.40 L 253.55 536.40 L 253.06 536.40 L 252.37 536.40 L 251.79 536.40 L 251.73 536.40 L 250.87 536.40 L 250.67 536.40 L 250.57 536.40 L 250.43 536.40 L 250.43 536.40 L 250.16 536.40 L 249.86 536.40 L 249.21 536.40 L 248.68 536.40 L 248.61 536.40 L 248.38 536.40 L 248.15 536.40 L 248.09 536.40 L 248.07 536.40 L 247.99 536.40 L 247.69 536.40 L 247.65 536.40 L 247.45 536.40 L 247.31 536.40 L 247.15 536.40 L 246.58 536.40 L 246.41 536.40 L 245.28 536.40 L 244.08 536.40 L 243.99 536.40 L 243.71 536.40 L 243.49 536.40 L 243.35 536.40 L 243.33 536.40 L 243.17 536.40 L 243.15 536.40 L 242.77 536.40 L 242.66 536.40 L 242.07 536.40 L 242.06 536.40 L 242.05 536.40 L 242.00 536.40 L 241.96 536.40 L 241.83 536.40 L 241.56 536.40 L 241.43 536.40 L 240.95 536.40 L 240.57 536.40 L 240.57 536.40 L 240.48 536.40 L 239.86 536.40 L 239.84 536.40 L 239.74 536.40 L 239.48 536.40 L 239.38 536.40 L 238.82 536.40 L 237.88 536.40 L 237.77 536.40 L 237.62 536.40 L 237.48 536.40 L 237.10 536.40 L 236.60 536.40 L 236.41 536.40 L 236.37 536.40 L 236.18 536.40 L 235.18 536.40 L 235.16 536.40 L 235.11 536.40 L 235.07 536.40 L 234.91 536.40 L 234.62 536.40 L 234.51 536.40 L 234.00 536.40 L 233.79 536.40 L 233.20 536.40 L 232.23 536.40 L 232.15 536.40 L 231.41 536.40 L 230.80 536.40 L 230.79 536.40 L 230.71 536.40 L 230.25 536.40 L 230.22 536.40 L 229.96 536.40 L 229.85 536.40 L 229.37 536.40 L 229.22 536.40 L 228.85 536.40 L 228.43 536.40 L 228.37 536.40 L 227.87 536.40 L 227.81 536.40 L 227.60 536.40 L 227.29 536.40 L 227.09 536.40 L 226.97 536.40 L 226.55 536.40 L 226.30 536.40 L 226.17 536.40 L 225.77 536.40 L 225.70 536.40 L 225.54 536.40 L 225.36 536.40 L 225.08 536.40 L 224.90 536.40 L 224.76 536.40 L 224.22 536.40 L 223.17 536.40 L 222.88 536.40 L 222.63 536.40 L 222.25 536.40 L 222.15 536.40 L 221.97 536.40 L 221.61 536.40 L 221.60 536.40 L 220.75 536.40 L 220.58 536.40 L 220.37 536.40 L 220.21 536.40 L 219.91 536.40 L 219.84 536.40 L 219.76 536.40 L 219.70 536.40 L 219.69 536.40 L 219.54 536.40 L 219.08 536.40 L 219.04 536.40 L 218.21 536.40 L 217.05 536.40 L 216.25 536.40 L 215.94 536.40 L 215.72 536.40 L 215.70 536.40 L 215.31 536.40 L 214.08 536.40 L 213.75 536.40 L 213.60 536.40 L 213.58 536.40 L 213.48 536.40 L 213.39 536.40 L 212.82 536.40 L 212.78 536.40 L 212.20 536.40 L 212.11 536.40 L 212.08 536.40 L 211.93 536.40 L 211.68 536.40 L 211.66 536.40 L 211.22 536.40 L 210.94 536.40 L 210.74 536.40 L 210.48 536.40 L 210.45 536.40 L 210.03 536.40 L 210.01 536.40 L 209.86 536.40 L 209.86 536.40 L 209.66 536.40 L 209.27 536.40 L 209.04 536.40 L 208.63 536.40 L 208.38 536.40 L 208.11 536.40 L 208.07 536.40 L 207.86 536.40 L 207.83 536.40 L 207.80 536.40 L 207.74 536.40 L 206.58 536.40 L 206.53 536.40 L 205.86 536.40 L 205.55 536.40 L 203.95 536.40 L 203.57 536.40 L 203.33 536.40 L 202.79 536.40 L 202.78 536.40 L 202.44 536.40 L 201.48 536.40 L 201.08 536.40 L 200.76 536.40 L 200.36 536.40 L 200.22 536.40 L 199.88 536.40 L 199.72 536.40 L 199.51 536.40 L 199.25 536.40 L 199.21 536.40 L 198.54 536.40 L 198.53 536.40 L 197.84 536.40 L 197.52 536.40 L 196.91 536.40 L 196.64 536.40 L 196.63 536.40 L 196.60 536.40 L 196.05 536.40 L 194.96 536.40 L 194.69 536.40 L 194.45 536.40 L 193.84 536.40 L 193.71 536.40 L 192.82 536.40 L 191.84 536.40 L 191.70 536.40 L 191.13 536.40 L 191.06 536.40 L 191.06 536.40 L 190.96 536.40 L 190.92 536.40 L 189.50 536.40 L 189.39 536.40 L 189.34 536.40 L 189.20 536.40 L 188.38 536.40 L 187.87 536.40 L 187.58 536.40 L 187.21 536.40 L 186.76 536.40 L 186.21 536.40 L 185.75 536.40 L 185.66 536.40 L 185.37 536.40 L 185.34 536.40 L 184.95 536.40 L 184.26 536.40 L 184.00 536.40 L 183.83 536.40 L 183.79 536.40 L 183.45 536.40 L 183.12 536.40 L 183.06 536.40 L 182.59 536.40 L 182.38 536.40 L 182.00 536.40 L 181.57 536.40 L 181.41 536.40 L 181.29 536.40 L 181.08 536.40 L 180.72 536.40 L 180.54 536.40 L 180.20 536.40 L 179.63 536.40 L 179.43 536.40 L 178.85 536.40 L 178.73 536.40 L 178.62 536.40 L 178.28 536.40 L 177.87 536.40 L 177.47 536.40 L 177.16 536.40 L 177.13 536.40 L 176.49 536.40 L 176.43 536.40 L 176.16 536.40 L 175.97 536.40 L 175.76 536.40 L 175.67 536.40 L 175.56 536.40 L 175.38 536.40 L 175.19 536.40 L 174.75 536.40 L 174.42 536.40 L 171.27 536.40 L 170.52 536.40 L 169.96 536.40 L 169.89 536.40 L 169.82 536.40 L 169.33 536.40 L 169.06 536.40 L 169.02 536.40 L 168.40 536.40 L 168.38 536.40 L 167.59 536.40 L 167.45 536.40 L 167.16 536.40 L 166.83 536.40 L 166.55 536.40 L 166.51 536.40 L 166.19 536.40 L 166.08 536.40 L 165.92 536.40 L 165.90 536.40 L 165.68 536.40 L 165.14 536.40 L 164.79 536.40 L 164.55 536.40 L 164.00 536.40 L 163.97 536.40 L 163.80 536.40 L 163.76 536.40 L 162.90 536.40 L 162.83 536.40 L 161.51 536.40 L 161.20 536.40 L 160.94 536.40 L 160.12 536.40 L 159.49 536.40 L 159.01 536.40 L 158.99 536.40 L 158.84 536.40 L 158.58 536.40 L 158.42 536.40 L 158.34 536.40 L 158.28 536.40 L 158.21 536.40 L 157.97 536.40 L 157.75 536.40 L 157.71 536.40 L 157.57 536.40 L 157.44 536.40 L 157.16 536.40 L 157.01 536.40 L 156.92 536.40 L 156.42 536.40 L 156.42 536.40 L 156.30 536.40 L 156.19 536.40 L 155.99 536.40 L 155.34 536.40 L 154.97 536.40 L 154.09 536.40 L 153.50 536.40 L 152.21 536.40 L 152.14 536.40 L 152.07 536.40 L 152.05 536.40 L 151.86 536.40 L 151.55 536.40 L 151.17 536.40 L 151.15 536.40 L 150.29 536.40 L 149.66 536.40 L 149.38 536.40 L 149.30 536.40 L 148.25 536.40 L 148.20 536.40 L 147.60 536.40 L 147.36 536.40 L 147.17 536.40 L 146.90 536.40 L 146.86 536.40 L 145.96 536.40 L 145.48 536.40 L 145.09 536.40 L 144.90 536.40 L 143.81 536.40 L 143.39 536.40 L 143.22 536.40 L 143.12 536.40 L 143.06 536.40 L 143.04 536.40 L 142.97 536.40 L 142.73 536.40 L 142.41 536.40 L 141.32 536.40 L 141.26 536.40 L 141.06 536.40 L 141.03 536.40 L 140.51 536.40 L 140.17 536.40 L 139.84 536.40 L 139.76 536.40 L 139.26 536.40 L 139.15 536.40 L 138.88 536.40 L 138.31 536.40 L 137.41 536.40 L 136.33 536.40 L 135.58 536.40 L 135.52 536.40 L 135.41 536.40 L 135.01 536.40 L 134.69 536.40 L 134.36 536.40 L 134.16 536.40 L 134.15 536.40 L 133.74 536.40 L 133.67 536.40 L 133.24 536.40 L 133.20 536.40 L 133.14 536.40 L 132.91 536.40 L 132.86 536.40 L 132.54 536.40 L 131.87 536.40 L 131.84 536.40 L 131.37 536.40 L 130.85 536.40 L 130.82 536.40 L 130.67 536.40 L 130.62 536.40 L 130.08 536.40 L 129.94 536.40 L 129.55 536.40 L 129.51 536.40 L 129.46 536.40 L 128.59 536.40 L 128.07 536.40 L 127.58 536.40 L 126.87 536.40 L 126.18 536.40 L 124.56 536.40 L 124.09 536.40 L 123.79 536.40 L 123.73 536.40 L 123.57 536.40 L 123.13 536.40 L 123.06 536.40 L 122.81 536.40 L 122.58 536.40 L 121.90 536.40 L 121.49 536.40 L 121.41 536.40 L 121.27 536.40 L 120.76 536.40 L 120.34 536.40 L 120.04 536.40 L 119.99 536.40 L 119.98 536.40 L 119.52 536.40 L 119.40 536.40 L 119.33 536.40 L 118.71 536.40 L 118.53 536.40 L 118.51 536.40 L 118.45 536.40 L 118.41 536.40 L 118.09 536.40 L 117.65 536.40 L 117.52 536.40 L 117.34 536.40 L 117.30 536.40 L 117.30 536.40 L 116.15 536.40 L 116.02 536.40 L 115.85 536.40 L 115.53 536.40 L 114.45 536.40 L 113.76 536.40 L 113.64 536.40 L 113.62 536.40 L 113.32 536.40 L 113.30 536.40 L 112.59 536.40 L 112.59 536.40 L 112.13 536.40 L 111.02 536.40 L 110.95 536.40 L 110.42 536.40 L 110.17 536.40 L 110.05 536.40 L 109.96 536.40 L 109.91 536.40 L 109.88 536.40 L 109.86 536.40 L 109.66 536.40 L 109.56 536.40 L 109.25 536.40 L 109.02 536.40 L 108.41 536.40 L 108.28 536.40 L 107.98 536.40 L 107.84 536.40 L 107.72 536.40 L 106.51 536.40 L 106.48 536.40 L 104.99 536.40 L 103.93 536.40 L 102.69 536.40 L 102.41 536.40 L 102.36 536.40 L 102.24 536.40 L 102.18 536.40 L 102.06 536.40 L 101.39 536.40 L 101.34 536.40 L 101.04 536.40 L 100.80 536.40 L 100.73 536.40 L 100.41 536.40 L 99.88 536.40 L 99.87 536.40 L 99.76 536.40 L 99.06 536.40 L 98.99 536.40 L 98.91 536.40 L 98.89 536.40 L 98.56 536.40 L 98.47 536.40 L 98.41 536.40 L 98.03 536.40 L 96.68 536.40 L 96.63 536.40 L 96.62 536.40 L 96.48 536.40 L 95.68 536.40 L 95.58 536.40 L 95.46 536.40 L 95.19 536.40 L 94.87 536.40 L 94.68 536.40 L 94.06 536.40 L 93.41 536.40 L 93.07 536.40 L 93.03 536.40 L 93.00 536.40 L 92.90 536.40 L 92.66 536.40 L 92.48 536.40 L 92.14 536.40 L 92.13 536.40 L 92.00 536.40 L 91.78 536.40 L 91.37 536.40 L 91.07 536.40 L 91.07 536.40 L 90.77 536.40 L 90.68 536.40 L 90.42 536.40 L 89.61 536.40 L 89.53 536.40 L 89.43 536.40 L 89.33 536.40 L 89.23 536.40 L 88.93 536.40 L 88.59 536.40 L 88.12 536.40 L 87.92 536.40 L 87.60 536.40 L 87.57 536.40 L 87.56 536.40 L 87.12 536.40 L 87.09 536.40 L 87.05 536.40 L 86.74 536.40 L 86.47 536.40 L 86.23 536.40 L 85.16 536.40 L 84.86 536.40 L 84.38 536.40 L 83.92 536.40 L 83.68 536.40 L 83.13 536.40 L 82.80 536.40 L 82.67 536.40 L 82.52 536.40 L 82.27 536.40 L 82.19 536.40 L 81.89 536.40 L 81.85 536.40 L 81.57 536.40 L 81.57 536.40 L 80.85 536.40 L 80.53 536.40 L 80.47 536.40 L 79.80 536.40 L 79.77 536.40 L 79.67 536.40 L 79.09 536.40 L 78.78 536.40 L 78.76 536.40 L 78.71 536.40 L 78.70 536.40 L 78.29 536.40 L 77.93 536.40 L 77.54 536.40 L 76.59 536.40 L 76.59 536.40 L 76.54 536.40 L 76.22 536.40 L 74.73 536.40 L 74.31 536.40 L 73.98 536.40 L 73.49 536.40 L 73.42 536.40 L 73.15 536.40 L 73.15 536.40 L 72.91 536.40 L 72.75 536.40 L 72.63 536.40 L 71.80 536.40 L 71.00 536.40 L 70.79 536.40 L 70.75 536.40 L 70.67 536.40 L 70.58 536.40 L 70.21 536.40 L 69.83 536.40 L 69.82 536.40 L 69.73 536.40 L 68.33 536.40 L 68.01 536.40 L 67.73 536.40 L 66.80 536.40 L 66.39 536.40 L 65.97 536.40 L 65.70 536.40 L 65.64 536.40 L 65.42 536.40 L 64.47 536.40 L 64.09 536.40 L 64.03 536.40 L 63.97 536.40 L 63.81 536.40 L 63.69 536.40 L 63.28 536.40 L 62.68 536.40 L 62.33 536.40 L 61.89 536.40 L 61.64 536.40 L 61.27 536.40 L 60.66 536.40 L 60.61 536.40 L 60.61 536.40 L 60.31 536.40 L 60.22 536.40 L 60.17 536.40 L 60.14 536.40 L 59.79 536.40 L 59.74 536.40 L 59.38 536.40 L 59.15 536.40 L 58.74 536.40 L 58.57 536.40 L 58.51 536.40 L 58.20 536.40 L 57.24 536.40 L 57.17 536.40 L 56.88 536.40 L 56.05 536.40 L 55.98 536.40 L 55.66 536.40 L 55.61 536.40 L 54.79 536.40 L 54.65 536.40 L 54.12 536.40 L 53.92 536.40 L 53.17 536.40 L 53.13 536.40 L 52.76 536.40 L 52.40 536.40 L 52.20 536.40 L 51.99 536.40 L 51.91 536.40 L 50.70 536.40 L 50.42 536.40 L 50.11 536.40 L 49.91 536.40 L 49.30 536.40 L 49.23 536.40 L 49.17 536.40 L 48.74 536.40 L 48.38 536.40 L 48.16 536.40 L 47.80 536.40 L 46.88 536.40 L 46.64 536.40 L 46.46 536.40 L 46.43 536.40 L 46.30 536.40 L 45.54 536.40 L 45.47 536.40 L 45.38 536.40 L 45.13 536.40 L 44.75 536.40 L 44.66 536.40 L 43.73 536.40 L 43.27 536.40 L 43.16 536.40 L 43.15 536.40 L 43.02 536.40 L 42.92 536.40 L 42.78 536.40 L 42.02 536.40 L 41.46 536.40 L 41.42 536.40 L 41.33 536.40 L 41.16 536.40 L 40.47 536.40 L 40.38 536.40 L 40.16 536.40 L 39.93 536.40 L 39.89 536.40 L 39.78 536.40 L 39.52 536.40 L 39.51 536.40 L 39.51 536.40 L 38.96 536.40 L 38.77 536.40 L 38.59 536.40 L 37.95 536.40 L 37.06 536.40 L 36.85 536.40 L 36.58 536.40 L 36.49 536.40 L 35.98 536.40 L 35.51 536.40 L 35.36 536.40 L 35.19 536.40 L 35.09 536.40 L 34.99 536.40 L 34.80 536.40 L 34.74 536.40 L 34.66 536.40 L 34.62 536.40 L 34.39 536.40 L 33.49 536.40 L 32.46 536.40 L 31.45 536.40 L 31.37 536.40 L 28.68 536.40 L 28.51 536.40 L 28.42 536.40 L 28.41 536.40 L 28.19 536.40 L 27.85 536.40 L 27.85 536.40 L 27.66 536.40 L 27.30 536.40 L 26.57 536.40 L 26.32 536.40 L 26.07 536.40 L 25.79 536.40 L 25.19 536.40 L 24.74 536.40 L 24.62 536.40 L 24.39 536.40 L 24.27 536.40 L 23.56 536.40 L 23.44 536.40 L 23.13 536.40 L 23.13 536.40 L 23.08 536.40 L 22.59 536.40 L 21.48 536.40 L 20.96 536.40 L 20.56 536.40 L 20.55 536.40 L 20.54 536.40 L 20.43 536.40 L 19.79 536.40 L 19.17 536.40 L 18.92 536.40 L 18.83 536.40 L 18.70 536.40 L 18.59 536.40 L 18.51 536.40 L 18.36 536.40 L 18.05 536.40 L 17.74 536.40 L 17.59 536.40 L 17.47 536.40 L 17.26 536.40 L 17.08 536.40 L 16.68 536.40 L 16.14 536.40 L 15.83 536.40 L 15.78 536.40 L 15.72 536.40 L 15.58 536.40 L 15.38 536.40 L 15.06 536.40 L 14.88 536.40 L 14.51 536.40 L 14.39 536.40 L 14.36 536.40 L 14.29 536.40 L 13.77 536.40 L 13.62 536.40 L 13.60 536.40 L 12.68 536.40 L 12.28 536.40 L 12.21 536.40 L 11.88 536.40 L 11.71 536.40 L 11.11 536.40 L 11.03 536.40 L 10.92 536.40 L 10.86 536.40 L 9.87 536.40 L 9.30 536.40 L 8.98 536.40 L 8.88 536.40 L 8.66 536.40 L 8.43 536.40 L 7.25 536.40 L 6.84 536.40 L 6.67 536.40 L 6.09 536.40 L 4.52 536.40 L 4.17 536.40 L 4.07 536.40 L 3.94 536.40 L 3.32 536.40 L 2.19 536.40 L 2.09 536.40 L 1.69 536.40 L 1.69 536.40 L 1.46 536.40 L 0.81 536.40 L 0.32 536.40 L 0.01 536.39 L 0.00 536.17 L 0.00 535.88 L 0.00 535.68 L 0.00 535.46 L 0.00 535.36 L 0.00 535.36 L 0.00 534.89 L 0.00 534.72 L 0.00 534.28 L 0.00 534.18 L 0.00 533.80 L 0.00 533.27 L 0.00 532.78 L 0.00 532.57 L 0.00 532.05 L 0.00 531.85 L 0.00 531.73 L 0.00 530.70 L 0.00 529.16 L 0.00 528.95 L 0.00 528.35 L 0.00 528.23 L 0.00 528.19 L 0.00 528.01 L 0.00 527.45 L 0.00 527.27 L 0.00 526.70 L 0.00 526.16 L 0.00 525.50 L 0.00 525.32 L 0.00 524.68 L 0.00 524.30 L 0.00 524.24 L 0.00 524.21 L 0.00 523.97 L 0.00 523.67 L 0.00 523.30 L 0.00 523.16 L 0.00 523.12 L 0.00 522.48 L 0.00 522.34 L 0.00 521.03 L 0.00 521.01 L 0.00 520.77 L 0.00 520.04 L 0.00 519.22 L 0.00 519.16 L 0.00 519.04 L 0.00 518.97 L 0.00 518.45 L 0.00 517.94 L 0.00 517.78 L 0.00 516.88 L 0.00 516.23 L 0.00 516.17 L 0.00 515.68 L 0.00 513.81 L 0.00 513.29 L 0.00 512.55 L 0.00 512.45 L 0.00 512.35 L 0.00 512.25 L 0.00 511.97 L 0.00 511.83 L 0.00 511.68 L 0.00 511.56 L 0.00 511.42 L 0.00 511.25 L 0.00 511.06 L 0.00 511.03 L 0.00 510.97 L 0.00 510.90 L 0.00 510.87 L 0.00 510.63 L 0.00 510.34 L 0.00 510.16 L 0.00 508.72 L 0.00 508.64 L 0.00 508.16 L 0.00 508.00 L 0.00 507.32 L 0.00 507.21 L 0.00 507.18 L 0.00 506.56 L 0.00 506.04 L 0.00 505.98 L 0.00 505.88 L 0.00 505.74 L 0.00 505.06 L 0.00 504.78 L 0.00 504.28 L 0.00 504.16 L 0.00 504.14 L 0.00 503.52 L 0.00 503.42 L 0.00 503.16 L 0.00 502.84 L 0.00 502.52 L 0.00 502.39 L 0.00 502.31 L 0.00 502.16 L 0.00 502.01 L 0.00 501.57 L 0.00 501.30 L 0.00 500.67 L 0.00 500.62 L 0.00 500.42 L 0.00 500.12 L 0.00 499.97 L 0.00 498.38 L 0.00 497.99 L 0.00 497.68 L 0.00 497.36 L 0.00 497.06 L 0.00 496.99 L 0.00 496.52 L 0.00 496.41 L 0.00 496.37 L 0.00 496.28 L 0.00 496.02 L 0.00 495.79 L 0.00 495.69 L 0.00 495.57 L 0.00 495.41 L 0.00 495.25 L 0.00 495.24 L 0.00 495.18 L 0.00 495.05 L 0.00 494.99 L 0.00 494.93 L 0.00 494.89 L 0.00 494.40 L 0.00 494.21 L 0.00 494.20 L 0.00 492.82 L 0.00 492.59 L 0.00 492.57 L 0.00 491.79 L 0.00 491.49 L 0.00 490.90 L 0.00 490.70 L 0.00 490.38 L 0.00 490.35 L 0.00 490.26 L 0.00 489.77 L 0.00 489.63 L 0.00 489.59 L 0.00 489.48 L 0.00 489.03 L 0.00 488.89 L 0.00 488.30 L 0.00 487.58 L 0.00 487.48 L 0.00 486.98 L 0.00 486.90 L 0.00 486.44 L 0.00 486.42 L 0.00 486.22 L 0.00 485.96 L 0.00 485.76 L 0.00 485.71 L 0.00 485.58 L 0.00 485.46 L 0.00 485.37 L 0.00 485.19 L 0.00 485.02 L 0.00 484.57 L 0.00 484.32 L 0.00 483.74 L 0.00 483.65 L 0.00 483.22 L 0.00 483.12 L 0.00 483.08 L 0.00 483.08 L 0.00 483.05 L 0.00 482.90 L 0.00 482.81 L 0.00 482.79 L 0.00 482.70 L 0.00 482.45 L 0.00 482.22 L 0.00 481.56 L 0.00 481.38 L 0.00 480.94 L 0.00 480.93 L 0.00 480.80 L 0.00 480.66 L 0.00 480.53 L 0.00 479.86 L 0.00 479.72 L 0.00 479.54 L 0.00 478.40 L 0.00 478.08 L 0.00 478.04 L 0.00 477.97 L 0.00 477.78 L 0.00 477.66 L 0.00 477.63 L 0.00 477.16 L 0.00 477.16 L 0.00 476.95 L 0.00 476.87 L 0.00 476.63 L 0.00 476.57 L 0.00 476.38 L 0.00 475.96 L 0.00 475.56 L 0.00 475.42 L 0.00 475.29 L 0.00 475.26 L 0.00 475.08 L 0.00 474.80 L 0.00 474.76 L 0.00 474.65 L 0.00 474.48 L 0.00 474.12 L 0.00 473.76 L 0.00 473.19 L 0.00 472.74 L 0.00 472.58 L 0.00 472.51 L 0.00 472.45 L 0.00 471.99 L 0.00 471.90 L 0.00 471.76 L 0.00 471.68 L 0.00 471.29 L 0.00 471.27 L 0.00 471.14 L 0.00 470.89 L 0.00 470.86 L 0.00 470.73 L 0.00 470.32 L 0.00 470.20 L 0.00 470.06 L 0.00 469.88 L 0.00 469.81 L 0.00 469.03 L 0.00 468.57 L 0.00 467.27 L 0.00 466.92 L 0.00 466.78 L 0.00 466.74 L 0.00 466.37 L 0.00 466.28 L 0.00 466.19 L 0.00 465.57 L 0.00 465.43 L 0.00 465.08 L 0.00 464.52 L 0.00 464.11 L 0.00 463.26 L 0.00 462.94 L 0.00 462.60 L 0.00 462.43 L 0.00 462.36 L 0.00 462.30 L 0.00 462.17 L 0.00 461.92 L 0.00 461.58 L 0.00 461.35 L 0.00 460.85 L 0.00 460.74 L 0.00 460.69 L 0.00 460.56 L 0.00 460.18 L 0.00 460.14 L 0.00 459.86 L 0.00 459.76 L 0.00 459.66 L 0.00 459.03 L 0.00 459.00 L 0.00 458.71 L 0.00 458.56 L 0.00 458.34 L 0.00 457.80 L 0.00 457.34 L 0.00 457.29 L 0.00 457.06 L 0.00 456.62 L 0.00 456.40 L 0.00 456.13 L 0.00 455.91 L 0.00 454.94 L 0.00 454.89 L 0.00 454.73 L 0.00 454.57 L 0.00 454.55 L 0.00 454.37 L 0.00 454.32 L 0.00 453.84 L 0.00 453.23 L 0.00 452.71 L 0.00 452.30 L 0.00 452.23 L 0.00 452.02 L 0.00 451.58 L 0.00 451.22 L 0.00 451.16 L 0.00 451.14 L 0.00 451.08 L 0.00 450.97 L 0.00 450.96 L 0.00 450.66 L 0.00 450.44 L 0.00 450.33 L 0.00 450.27 L 0.00 449.32 L 0.00 448.65 L 0.00 448.45 L 0.00 448.04 L 0.00 447.94 L 0.00 447.83 L 0.00 447.77 L 0.00 447.36 L 0.00 446.60 L 0.00 446.45 L 0.00 446.43 L 0.00 446.16 L 0.00 445.83 L 0.00 445.61 L 0.00 444.89 L 0.00 444.79 L 0.00 444.60 L 0.00 443.86 L 0.00 443.82 L 0.00 442.75 L 0.00 442.52 L 0.00 442.02 L 0.00 441.34 L 0.00 441.27 L 0.00 441.13 L 0.00 440.84 L 0.00 440.84 L 0.00 440.56 L 0.00 440.52 L 0.00 439.98 L 0.00 439.67 L 0.00 439.59 L 0.00 438.28 L 0.00 438.26 L 0.00 438.17 L 0.00 437.99 L 0.00 437.93 L 0.00 437.90 L 0.00 437.53 L 0.00 437.46 L 0.00 437.26 L 0.00 436.55 L 0.00 435.98 L 0.00 435.92 L 0.00 435.83 L 0.00 435.70 L 0.00 435.33 L 0.00 434.68 L 0.00 434.61 L 0.00 434.45 L 0.00 433.99 L 0.00 433.73 L 0.00 433.48 L 0.00 433.40 L 0.00 433.18 L 0.00 432.92 L 0.00 432.41 L 0.00 432.12 L 0.00 431.92 L 0.00 431.69 L 0.00 431.48 L 0.00 431.40 L 0.00 431.24 L 0.00 431.17 L 0.00 430.95 L 0.00 430.80 L 0.00 430.71 L 0.00 430.13 L 0.00 430.08 L 0.00 430.06 L 0.00 430.05 L 0.00 430.03 L 0.00 429.56 L 0.00 429.13 L 0.00 429.11 L 0.00 428.98 L 0.00 428.34 L 0.00 428.19 L 0.00 427.13 L 0.00 426.90 L 0.00 426.89 L 0.00 426.32 L 0.00 425.93 L 0.00 425.75 L 0.00 425.11 L 0.00 424.46 L 0.00 424.41 L 0.00 424.39 L 0.00 424.12 L 0.00 423.04 L 0.00 422.54 L 0.00 422.44 L 0.00 422.36 L 0.00 421.94 L 0.00 421.77 L 0.00 421.39 L 0.00 421.01 L 0.00 420.76 L 0.00 420.46 L 0.00 420.28 L 0.00 419.96 L 0.00 419.70 L 0.00 418.93 L 0.00 417.90 L 0.00 417.54 L 0.00 417.39 L 0.00 417.01 L 0.00 416.75 L 0.00 415.54 L 0.00 413.29 L 0.00 413.28 L 0.00 413.13 L 0.00 413.09 L 0.00 412.84 L 0.00 412.60 L 0.00 412.04 L 0.00 412.00 L 0.00 411.22 L 0.00 411.17 L 0.00 411.06 L 0.00 410.88 L 0.00 410.86 L 0.00 410.59 L 0.00 410.04 L 0.00 409.89 L 0.00 409.60 L 0.00 409.13 L 0.00 408.07 L 0.00 408.06 L 0.00 407.63 L 0.00 407.08 L 0.00 406.40 L 0.00 405.00 L 0.00 403.97 L 0.00 403.72 L 0.00 403.58 L 0.00 403.12 L 0.00 402.58 L 0.00 401.77 L 0.00 401.74 L 0.00 401.49 L 0.00 401.17 L 0.00 401.10 L 0.00 400.88 L 0.00 400.77 L 0.00 400.62 L 0.00 400.45 L 0.00 400.24 L 0.00 400.19 L 0.00 400.17 L 0.00 399.91 L 0.00 399.80 L 0.00 399.75 L 0.00 398.87 L 0.00 398.79 L 0.00 398.62 L 0.00 398.59 L 0.00 398.45 L 0.00 398.37 L 0.00 398.28 L 0.00 397.72 L 0.00 397.60 L 0.00 397.48 L 0.00 397.29 L 0.00 397.28 L 0.00 396.73 L 0.00 396.18 L 0.00 396.06 L 0.00 395.81 L 0.00 395.42 L 0.00 395.42 L 0.00 395.33 L 0.00 394.87 L 0.00 394.82 L 0.00 394.36 L 0.00 394.00 L 0.00 393.20 L 0.00 392.92 L 0.00 392.83 L 0.00 392.53 L 0.00 392.46 L 0.00 391.86 L 0.00 391.64 L 0.00 390.95 L 0.00 390.91 L 0.00 390.77 L 0.00 390.45 L 0.00 390.32 L 0.00 390.07 L 0.00 389.90 L 0.00 389.31 L 0.00 389.26 L 0.00 389.24 L 0.00 388.84 L 0.00 388.70 L 0.00 388.47 L 0.00 388.45 L 0.00 388.29 L 0.00 388.08 L 0.00 386.79 L 0.00 386.79 L 0.00 386.73 L 0.00 386.25 L 0.00 386.22 L 0.00 385.78 L 0.00 385.68 L 0.00 385.57 L 0.00 385.43 L 0.00 384.87 L 0.00 384.57 L 0.00 384.23 L 0.00 384.12 L 0.00 383.81 L 0.00 383.33 L 0.00 383.09 L 0.00 382.24 L 0.00 382.09 L 0.00 381.58 L 0.00 381.30 L 0.00 380.43 L 0.00 380.12 L 0.00 380.05 L 0.00 379.80 L 0.00 379.70 L 0.00 378.93 L 0.00 378.18 L 0.00 377.92 L 0.00 377.58 L 0.00 377.25 L 0.00 376.83 L 0.00 376.10 L 0.00 375.90 L 0.00 375.88 L 0.00 375.80 L 0.00 375.59 L 0.00 374.85 L 0.00 374.83 L 0.00 374.31 L 0.00 373.91 L 0.00 373.80 L 0.00 372.85 L 0.00 372.85 L 0.00 372.81 L 0.00 372.77 L 0.00 371.79 L 0.00 371.35 L 0.00 370.43 L 0.00 370.28 L 0.00 369.71 L 0.00 369.40 L 0.00 369.13 L 0.00 369.13 L 0.00 368.98 L 0.00 368.94 L 0.00 368.91 L 0.00 368.77 L 0.00 368.64 L 0.00 365.56 L 0.00 365.29 L 0.00 365.27 L 0.00 365.07 L 0.00 365.03 L 0.00 364.61 L 0.00 364.54 L 0.00 364.45 L 0.00 364.22 L 0.00 363.45 L 0.00 363.29 L 0.00 363.29 L 0.00 363.09 L 0.00 363.04 L 0.00 363.00 L 0.00 362.40 L 0.00 362.34 L 0.00 361.39 L 0.00 361.38 L 0.00 361.24 L 0.00 360.47 L 0.00 360.34 L 0.00 359.74 L 0.00 359.61 L 0.00 359.55 L 0.00 358.39 L 0.00 357.18 L 0.00 356.73 L 0.00 356.65 L 0.00 356.35 L 0.00 356.00 L 0.00 355.65 L 0.00 355.13 L 0.00 355.04 L 0.00 354.88 L 0.00 354.75 L 0.00 354.19 L 0.00 353.40 L 0.00 353.40 L 0.00 352.77 L 0.00 352.16 L 0.00 352.14 L 0.00 351.79 L 0.00 351.15 L 0.00 351.12 L 0.00 350.98 L 0.00 350.67 L 0.00 350.00 L 0.00 349.97 L 0.00 349.80 L 0.00 349.74 L 0.00 349.73 L 0.00 349.59 L 0.00 349.01 L 0.00 348.60 L 0.00 348.59 L 0.00 348.40 L 0.00 348.27 L 0.00 347.56 L 0.00 347.09 L 0.00 347.06 L 0.00 346.62 L 0.00 346.48 L 0.00 346.47 L 0.00 346.36 L 0.00 345.97 L 0.00 345.79 L 0.00 345.49 L 0.00 345.16 L 0.00 344.86 L 0.00 344.85 L 0.00 344.59 L 0.00 344.50 L 0.00 344.01 L 0.00 343.35 L 0.00 342.99 L 0.00 342.91 L 0.00 341.86 L 0.00 341.42 L 0.00 341.25 L 0.00 341.17 L 0.00 341.09 L 0.00 341.05 L 0.00 340.54 L 0.00 340.47 L 0.00 340.03 L 0.00 339.65 L 0.00 339.50 L 0.00 339.41 L 0.00 339.30 L 0.00 339.20 L 0.00 338.94 L 0.00 338.73 L 0.00 338.42 L 0.00 338.41 L 0.00 338.35 L 0.00 338.13 L 0.00 337.87 L 0.00 337.40 L 0.00 337.01 L 0.00 336.96 L 0.00 336.94 L 0.00 336.25 L 0.00 336.09 L 0.00 336.05 L 0.00 335.14 L 0.00 334.85 L 0.00 334.40 L 0.00 334.07 L 0.00 333.94 L 0.00 333.85 L 0.00 333.69 L 0.00 333.64 L 0.00 333.54 L 0.00 333.50 L 0.00 332.54 L 0.00 332.50 L 0.00 332.41 L 0.00 332.26 L 0.00 332.25 L 0.00 331.17 L 0.00 331.09 L 0.00 330.99 L 0.00 330.54 L 0.00 330.50 L 0.00 330.49 L 0.00 330.45 L 0.00 329.85 L 0.00 329.78 L 0.00 329.57 L 0.00 329.20 L 0.00 328.92 L 0.00 328.60 L 0.00 328.58 L 0.00 328.06 L 0.00 328.04 L 0.00 327.99 L 0.00 327.49 L 0.00 327.12 L 0.00 326.82 L 0.00 326.67 L 0.00 326.55 L 0.00 326.33 L 0.00 325.92 L 0.00 325.00 L 0.00 324.82 L 0.00 323.69 L 0.00 323.40 L 0.00 323.23 L 0.00 323.15 L 0.00 322.92 L 0.00 322.85 L 0.00 322.80 L 0.00 322.41 L 0.00 322.31 L 0.00 321.76 L 0.00 321.72 L 0.00 321.36 L 0.00 321.31 L 0.00 321.24 L 0.00 320.97 L 0.00 320.93 L 0.00 320.49 L 0.00 319.91 L 0.00 319.50 L 0.00 319.42 L 0.00 317.58 L 0.00 317.18 L 0.00 317.08 L 0.00 316.02 L 0.00 315.25 L 0.00 314.86 L 0.00 314.84 L 0.00 314.51 L 0.00 314.49 L 0.00 313.46 L 0.00 313.36 L 0.00 313.09 L 0.00 312.31 L 0.00 312.19 L 0.00 312.16 L 0.00 312.14 L 0.00 311.93 L 0.00 311.44 L 0.00 310.78 L 0.00 310.69 L 0.00 310.21 L 0.00 309.73 L 0.00 309.65 L 0.00 309.61 L 0.00 309.31 L 0.00 309.12 L 0.00 308.74 L 0.00 308.18 L 0.00 307.94 L 0.00 307.82 L 0.00 307.48 L 0.00 307.40 L 0.00 307.18 L 0.00 306.38 L 0.00 306.02 L 0.00 305.93 L 0.00 305.63 L 0.00 305.46 L 0.00 304.72 L 0.00 304.62 L 0.00 304.09 L 0.00 304.04 L 0.00 303.92 L 0.00 303.44 L 0.00 303.35 L 0.00 302.77 L 0.00 302.73 L 0.00 302.34 L 0.00 302.25 L 0.00 301.31 L 0.00 301.23 L 0.00 300.50 L 0.00 300.11 L 0.00 299.93 L 0.00 299.82 L 0.00 298.87 L 0.00 298.87 L 0.00 298.21 L 0.00 298.09 L 0.00 297.78 L 0.00 297.66 L 0.00 297.62 L 0.00 296.16 L 0.00 295.93 L 0.00 295.75 L 0.00 295.39 L 0.00 295.12 L 0.00 294.08 L 0.00 294.07 L 0.00 293.84 L 0.00 293.82 L 0.00 293.36 L 0.00 293.16 L 0.00 293.11 L 0.00 292.91 L 0.00 292.80 L 0.00 292.50 L 0.00 291.81 L 0.00 291.34 L 0.00 291.32 L 0.00 289.74 L 0.00 289.62 L 0.00 289.22 L 0.00 289.02 L 0.00 288.78 L 0.00 288.78 L 0.00 288.72 L 0.00 288.21 L 0.00 287.99 L 0.00 287.96 L 0.00 287.67 L 0.00 287.39 L 0.00 287.28 L 0.00 287.10 L 0.00 286.79 L 0.00 286.23 L 0.00 286.13 L 0.00 285.07 L 0.00 284.97 L 0.00 284.79 L 0.00 284.29 L 0.00 284.15 L 0.00 283.93 L 0.00 283.87 L 0.00 283.84 L 0.00 283.66 L 0.00 283.52 L 0.00 283.49 L 0.00 282.95 L 0.00 282.67 L 0.00 282.23 L 0.00 280.92 L 0.00 280.81 L 0.00 280.78 L 0.00 280.64 L 0.00 280.63 L 0.00 280.07 L 0.00 279.99 L 0.00 279.77 L 0.00 279.24 L 0.00 278.99 L 0.00 278.82 L 0.00 278.62 L 0.00 278.20 L 0.00 277.19 L 0.00 277.12 L 0.00 277.05 L 0.00 276.43 L 0.00 276.40 L 0.00 275.96 L 0.00 275.73 L 0.00 275.55 L 0.00 275.44 L 0.00 275.36 L 0.00 274.89 L 0.00 274.81 L 0.00 274.14 L 0.00 273.99 L 0.00 273.86 L 0.00 273.11 L 0.00 272.86 L 0.00 272.11 L 0.00 271.80 L 0.00 270.71 L 0.00 270.38 L 0.00 269.89 L 0.00 269.77 L 0.00 269.34 L 0.00 268.94 L 0.00 268.83 L 0.00 268.28 L 0.00 268.28 L 0.00 268.16 L 0.00 267.85 L 0.00 267.61 L 0.00 266.96 L 0.00 266.84 L 0.00 266.77 L 0.00 266.55 L 0.00 266.52 L 0.00 266.06 L 0.00 265.87 L 0.00 265.81 L 0.00 265.30 L 0.00 265.17 L 0.00 264.92 L 0.00 264.86 L 0.00 264.79 L 0.00 264.64 L 0.00 264.62 L 0.00 264.52 L 0.00 264.51 L 0.00 264.32 L 0.00 264.17 L 0.00 264.07 L 0.00 263.62 L 0.00 263.43 L 0.00 263.27 L 0.00 263.12 L 0.00 263.12 L 0.00 263.07 L 0.00 263.07 L 0.00 262.34 L 0.00 262.25 L 0.00 262.18 L 0.00 261.88 L 0.00 261.63 L 0.00 261.30 L 0.00 261.09 L 0.00 260.96 L 0.00 260.64 L 0.00 260.04 L 0.00 259.95 L 0.00 259.73 L 0.00 259.58 L 0.00 259.56 L 0.00 259.38 L 0.00 258.56 L 0.00 258.30 L 0.00 258.10 L 0.00 257.42 L 0.00 256.71 L 0.00 256.57 L 0.00 256.48 L 0.00 256.44 L 0.00 256.02 L 0.00 255.95 L 0.00 255.55 L 0.00 254.97 L 0.00 254.84 L 0.00 254.66 L 0.00 254.36 L 0.00 254.23 L 0.00 254.06 L 0.00 253.85 L 0.00 253.44 L 0.00 252.87 L 0.00 252.18 L 0.00 252.09 L 0.00 251.90 L 0.00 251.12 L 0.00 251.12 L 0.00 250.73 L 0.00 250.60 L 0.00 250.48 L 0.00 250.35 L 0.00 249.87 L 0.00 248.79 L 0.00 248.15 L 0.00 247.92 L 0.00 247.90 L 0.00 247.08 L 0.00 246.48 L 0.00 246.47 L 0.00 246.41 L 0.00 246.03 L 0.00 245.88 L 0.00 245.30 L 0.00 245.02 L 0.00 244.27 L 0.00 244.08 L 0.00 244.07 L 0.00 243.96 L 0.00 243.08 L 0.00 242.55 L 0.00 242.53 L 0.00 242.46 L 0.00 241.17 L 0.00 241.16 L 0.00 241.01 L 0.00 240.83 L 0.00 240.76 L 0.00 240.75 L 0.00 240.12 L 0.00 239.81 L 0.00 239.64 L 0.00 239.50 L 0.00 239.35 L 0.00 238.16 L 0.00 237.93 L 0.00 237.86 L 0.00 237.20 L 0.00 237.02 L 0.00 236.50 L 0.00 236.19 L 0.00 235.89 L 0.00 234.58 L 0.00 234.51 L 0.00 234.46 L 0.00 233.80 L 0.00 233.67 L 0.00 233.28 L 0.00 232.58 L 0.00 232.57 L 0.00 231.91 L 0.00 231.33 L 0.00 231.07 L 0.00 230.75 L 0.00 230.05 L 0.00 230.00 L 0.00 229.85 L 0.00 229.65 L 0.00 229.42 L 0.00 229.32 L 0.00 229.19 L 0.00 229.11 L 0.00 228.76 L 0.00 227.81 L 0.00 227.78 L 0.00 227.58 L 0.00 227.48 L 0.00 227.39 L 0.00 227.35 L 0.00 227.09 L 0.00 225.94 L 0.00 225.91 L 0.00 225.34 L 0.00 225.09 L 0.00 224.88 L 0.00 224.48 L 0.00 224.16 L 0.00 223.98 L 0.00 223.73 L 0.00 223.29 L 0.00 223.12 L 0.00 222.57 L 0.00 222.52 L 0.00 222.15 L 0.00 222.09 L 0.00 221.82 L 0.00 221.61 L 0.00 221.60 L 0.00 221.42 L 0.00 221.23 L 0.00 221.10 L 0.00 221.08 L 0.00 220.98 L 0.00 220.63 L 0.00 220.58 L 0.00 220.32 L 0.00 219.42 L 0.00 219.14 L 0.00 218.77 L 0.00 218.40 L 0.00 218.15 L 0.00 217.63 L 0.00 217.15 L 0.00 216.88 L 0.00 216.49 L 0.00 215.90 L 0.00 215.74 L 0.00 214.39 L 0.00 214.28 L 0.00 213.70 L 0.00 213.36 L 0.00 213.19 L 0.00 213.01 L 0.00 212.11 L 0.00 211.81 L 0.00 211.49 L 0.00 210.73 L 0.00 210.48 L 0.00 210.45 L 0.00 209.93 L 0.00 209.52 L 0.00 209.07 L 0.00 208.80 L 0.00 208.39 L 0.00 208.17 L 0.00 208.07 L 0.00 208.05 L 0.00 206.77 L 0.00 206.59 L 0.00 206.58 L 0.00 206.29 L 0.00 206.07 L 0.00 205.97 L 0.00 205.49 L 0.00 205.48 L 0.00 205.35 L 0.00 204.59 L 0.00 204.32 L 0.00 204.18 L 0.00 202.89 L 0.00 202.73 L 0.00 202.53 L 0.00 202.30 L 0.00 201.69 L 0.00 200.68 L 0.00 200.41 L 0.00 200.41 L 0.00 200.35 L 0.00 200.04 L 0.00 199.80 L 0.00 199.61 L 0.00 199.47 L 0.00 198.97 L 0.00 198.77 L 0.00 198.74 L 0.00 197.63 L 0.00 196.09 L 0.00 196.00 L 0.00 195.99 L 0.00 195.90 L 0.00 195.41 L 0.00 194.23 L 0.00 194.02 L 0.00 193.63 L 0.00 192.56 L 0.00 192.49 L 0.00 192.05 L 0.00 192.00 L 0.00 190.54 L 0.00 190.39 L 0.00 190.36 L 0.00 190.25 L 0.00 189.92 L 0.00 189.78 L 0.00 189.41 L 0.00 189.39 L 0.00 188.99 L 0.00 188.74 L 0.00 188.21 L 0.00 187.83 L 0.00 187.82 L 0.00 187.61 L 0.00 187.47 L 0.00 187.44 L 0.00 187.36 L 0.00 187.31 L 0.00 186.85 L 0.00 186.73 L 0.00 186.46 L 0.00 186.10 L 0.00 186.07 L 0.00 185.94 L 0.00 185.67 L 0.00 185.34 L 0.00 185.33 L 0.00 185.14 L 0.00 184.67 L 0.00 184.66 L 0.00 183.94 L 0.00 183.89 L 0.00 183.35 L 0.00 183.09 L 0.00 183.01 L 0.00 182.69 L 0.00 182.57 L 0.00 182.55 L 0.00 182.50 L 0.00 179.56 L 0.00 179.54 L 0.00 179.17 L 0.00 178.71 L 0.00 178.59 L 0.00 178.51 L 0.00 177.14 L 0.00 176.66 L 0.00 176.54 L 0.00 176.40 L 0.00 176.04 L 0.00 175.90 L 0.00 175.80 L 0.00 175.35 L 0.00 175.14 L 0.00 174.78 L 0.00 174.73 L 0.00 174.67 L 0.00 174.66 L 0.00 174.46 L 0.00 174.46 L 0.00 174.12 L 0.00 173.28 L 0.00 172.93 L 0.00 172.10 L 0.00 171.72 L 0.00 171.63 L 0.00 171.61 L 0.00 171.25 L 0.00 171.07 L 0.00 170.59 L 0.00 170.06 L 0.00 169.88 L 0.00 169.69 L 0.00 169.50 L 0.00 169.47 L 0.00 168.56 L 0.00 167.85 L 0.00 166.30 L 0.00 165.89 L 0.00 165.79 L 0.00 165.01 L 0.00 164.56 L 0.00 164.44 L 0.00 163.65 L 0.00 163.52 L 0.00 162.60 L 0.00 162.36 L 0.00 161.95 L 0.00 161.88 L 0.00 161.88 L 0.00 161.73 L 0.00 161.60 L 0.00 161.48 L 0.00 161.35 L 0.00 161.23 L 0.00 161.10 L 0.00 160.69 L 0.00 159.41 L 0.00 159.20 L 0.00 158.97 L 0.00 158.50 L 0.00 158.37 L 0.00 158.21 L 0.00 158.15 L 0.00 158.10 L 0.00 158.01 L 0.00 157.91 L 0.00 157.45 L 0.00 157.22 L 0.00 157.15 L 0.00 156.78 L 0.00 156.36 L 0.00 156.21 L 0.00 156.19 L 0.00 156.16 L 0.00 155.93 L 0.00 155.78 L 0.00 155.35 L 0.00 155.25 L 0.00 155.21 L 0.00 155.13 L 0.00 155.13 L 0.00 155.07 L 0.00 154.80 L 0.00 154.75 L 0.00 154.32 L 0.00 153.20 L 0.00 153.10 L 0.00 153.07 L 0.00 153.07 L 0.00 152.38 L 0.00 152.37 L 0.00 151.91 L 0.00 151.22 L 0.00 150.76 L 0.00 150.61 L 0.00 150.54 L 0.00 149.81 L 0.00 149.67 L 0.00 149.59 L 0.00 149.40 L 0.00 148.55 L 0.00 147.98 L 0.00 147.15 L 0.00 146.04 L 0.00 145.86 L 0.00 145.20 L 0.00 144.97 L 0.00 142.26 L 0.00 142.10 L 0.00 141.79 L 0.00 141.38 L 0.00 141.22 L 0.00 141.16 L 0.00 141.06 L 0.00 139.59 L 0.00 139.24 L 0.00 138.93 L 0.00 138.62 L 0.00 137.91 L 0.00 137.44 L 0.00 137.42 L 0.00 137.29 L 0.00 137.01 L 0.00 136.88 L 0.00 135.46 L 0.00 135.38 L 0.00 134.93 L 0.00 134.43 L 0.00 134.40 L 0.00 134.09 L 0.00 133.97 L 0.00 132.18 L 0.00 132.08 L 0.00 131.59 L 0.00 131.06 L 0.00 131.00 L 0.00 130.60 L 0.00 130.53 L 0.00 130.44 L 0.00 130.44 L 0.00 130.43 L 0.00 130.15 L 0.00 129.98 L 0.00 129.47 L 0.00 129.34 L 0.00 129.07 L 0.00 128.81 L 0.00 128.71 L 0.00 128.63 L 0.00 128.43 L 0.00 128.07 L 0.00 127.64 L 0.00 127.64 L 0.00 127.41 L 0.00 127.33 L 0.00 126.08 L 0.00 125.69 L 0.00 125.66 L 0.00 125.50 L 0.00 125.07 L 0.00 125.03 L 0.00 124.98 L 0.00 124.81 L 0.00 124.68 L 0.00 124.49 L 0.00 124.38 L 0.00 124.16 L 0.00 123.31 L 0.00 123.24 L 0.00 123.12 L 0.00 123.07 L 0.00 122.79 L 0.00 122.44 L 0.00 122.40 L 0.00 122.16 L 0.00 122.13 L 0.00 121.35 L 0.00 121.13 L 0.00 120.97 L 0.00 120.38 L 0.00 119.97 L 0.00 118.65 L 0.00 118.52 L 0.00 117.39 L 0.00 117.35 L 0.00 116.56 L 0.00 116.55 L 0.00 115.86 L 0.00 115.65 L 0.00 115.26 L 0.00 114.89 L 0.00 114.88 L 0.00 114.51 L 0.39 114.29 L 0.55 114.29 L 1.51 114.29 L 1.59 114.29 L 2.01 114.29 L 2.86 114.29 L 3.23 114.29 L 3.55 114.29 L 4.08 114.29 L 4.14 114.29 L 4.41 114.29 L 4.48 114.29 L 4.61 114.29 L 4.99 114.29 L 5.38 114.29 L 5.39 114.29 L 6.43 114.29 L 6.72 114.29 L 7.55 114.29 L 8.41 114.29 L 8.78 114.29 L 8.95 114.29 L 8.96 114.29 L 8.98 114.29 L 9.08 114.29 L 9.87 114.29 L 10.45 114.29 L 10.80 114.29 L 11.54 114.29 L 11.64 114.29 L 11.81 114.29 L 12.40 114.29 L 12.80 114.29 L 13.57 114.29 L 13.68 114.29 L 14.76 114.29 L 15.65 114.29 L 15.99 114.29 L 16.22 114.29 L 16.45 114.29 L 16.57 114.29 L 16.88 114.29 L 17.28 114.29 L 17.57 114.29 L 17.98 114.29 L 18.18 114.29 L 18.74 114.29 L 19.30 114.29 L 19.61 114.29 L 19.71 114.29 L 20.04 114.29 L 20.23 114.29 L 20.86 114.29 L 20.90 114.29 L 21.29 114.29 L 21.43 114.29 L 21.43 114.29 L 21.48 114.29 L 21.50 114.29 L 21.68 114.29 L 21.90 114.29 L 21.93 114.29 L 22.03 114.29 L 22.31 114.29 L 22.87 114.29 L 24.62 114.29 L 25.19 114.29 L 25.52 114.29 L 25.62 114.29 L 25.66 114.29 L 25.81 114.29 L 26.35 114.29 L 26.73 114.29 L 26.89 114.29 L 26.97 114.29 L 27.54 114.29 L 28.27 114.29 L 28.67 114.29 L 28.69 114.29 L 28.86 114.29 L 29.11 114.29 L 29.60 114.29 L 29.61 114.29 L 29.72 114.29 L 29.87 114.29 L 29.98 114.29 L 30.22 114.29 L 30.40 114.29 L 30.42 114.29 L 30.44 114.29 L 30.48 114.29 L 30.76 114.29 L 31.09 114.29 L 31.29 114.29 L 31.48 114.29 L 31.49 114.29 L 31.87 114.29 L 31.87 114.29 L 32.05 114.29 L 33.09 114.29 L 33.47 114.29 L 33.70 114.29 L 34.12 114.29 L 35.16 114.29 L 36.56 114.29 L 36.63 114.29 L 36.76 114.29 L 36.88 114.29 L 37.02 114.29 L 37.05 114.29 L 37.28 114.29 L 37.29 114.29 L 37.33 114.29 L 37.85 114.29 L 38.35 114.29 L 38.52 114.29 L 38.72 114.29 L 38.79 114.29 L 39.12 114.29 L 39.39 114.29 L 39.63 114.29 L 39.77 114.29 L 39.91 114.29 L 39.97 114.29 L 40.51 114.29 L 40.67 114.29 L 40.97 114.29 L 41.41 114.29 L 41.84 114.29 L 42.17 114.29 L 42.38 114.29 L 42.79 114.29 L 42.88 114.29 L 43.22 114.29 L 43.47 114.29 L 43.71 114.29 L 43.72 114.29 L 43.92 114.29 L 44.18 114.29 L 44.41 114.29 L 44.86 114.29 L 45.44 114.29 L 45.89 114.29 L 45.97 114.29 L 46.37 114.29 L 46.47 114.29 L 47.28 114.29 L 47.51 114.29 L 47.67 114.29 L 47.83 114.29 L 48.01 114.29 L 48.20 114.29 L 48.31 114.29 L 48.46 114.29 L 48.50 114.29 L 49.19 114.29 L 49.49 114.29 L 49.58 114.29 L 50.05 114.29 L 50.96 114.29 L 50.97 114.29 L 51.29 114.29 L 51.54 114.29 L 51.83 114.29 L 52.17 114.29 L 52.36 114.29 L 52.68 114.29 L 53.12 114.29 L 53.41 114.29 L 53.48 114.29 L 53.75 114.29 L 54.24 114.29 L 54.27 114.29 L 55.00 114.29 L 55.33 114.29 L 55.35 114.29 L 56.32 114.29 L 56.35 114.29 L 56.36 114.29 L 56.59 114.29 L 56.64 114.29 L 57.07 114.29 L 57.07 114.29 L 57.27 114.29 L 57.34 114.29 L 58.72 114.29 L 58.74 114.29 L 58.75 114.29 L 58.77 114.29 L 59.07 114.29 L 59.35 114.29 L 59.94 114.29 L 60.13 114.29 L 60.31 114.29 L 60.40 114.29 L 60.67 114.29 L 61.01 114.29 L 61.48 114.29 L 61.89 114.29 L 61.94 114.29 L 61.99 114.29 L 62.08 114.29 L 62.13 114.29 L 62.30 114.29 L 62.63 114.29 L 62.74 114.29 L 62.93 114.29 L 63.32 114.29 L 63.34 114.29 L 63.72 114.29 L 63.76 114.29 L 63.78 114.29 L 63.85 114.29 L 64.56 114.29 L 64.78 114.29 L 65.20 114.29 L 66.07 114.29 L 66.23 114.29 L 66.34 114.29 L 66.39 114.29 L 66.47 114.29 L 66.62 114.29 L 66.88 114.29 L 66.90 114.29 L 67.23 114.29 L 67.44 114.29 L 67.50 114.29 L 67.56 114.29 L 68.30 114.29 L 68.63 114.29 L 68.95 114.29 L 69.08 114.29 L 69.33 114.29 L 69.62 114.29 L 69.63 114.29 L 69.74 114.29 L 70.03 114.29 L 70.09 114.29 L 70.27 114.29 L 71.24 114.29 L 71.25 114.29 L 71.94 114.29 L 72.32 114.29 L 72.66 114.29 L 72.87 114.29 L 72.94 114.29 L 73.32 114.29 L 73.36 114.29 L 73.58 114.29 L 73.60 114.29 L 73.92 114.29 L 73.93 114.29 L 74.06 114.29 L 74.20 114.29 L 74.34 114.29 L 74.73 114.29 L 75.18 114.29 L 75.41 114.29 L 75.55 114.29 L 76.54 114.29 L 76.60 114.29 L 76.84 114.29 L 77.24 114.29 L 77.41 114.29 L 78.49 114.29 L 78.69 114.29 L 78.94 114.29 L 79.01 114.29 L 79.09 114.29 L 79.88 114.29 L 79.89 114.29 L 79.94 114.29 L 80.20 114.29 L 80.72 114.29 L 81.01 114.29 L 81.45 114.29 L 81.46 114.29 L 82.69 114.29 L 83.70 114.29 L 83.93 114.29 L 84.90 114.29 L 84.93 114.29 L 85.40 114.29 L 85.94 114.29 L 86.63 114.29 L 86.78 114.29 L 86.92 114.29 L 87.69 114.29 L 88.09 114.29 L 88.79 114.29 L 88.80 114.29 L 89.15 114.29 L 89.35 114.29 L 89.39 114.29 L 89.63 114.29 L 89.92 114.29 L 89.93 114.29 L 90.46 114.29 L 90.57 114.29 L 91.83 114.29 L 91.85 114.29 L 91.94 114.29 L 92.07 114.29 L 92.12 114.29 L 92.40 114.29 L 92.43 114.29 L 92.75 114.29 L 93.21 114.29 L 93.26 114.29 L 93.58 114.29 L 93.59 114.29 L 93.82 114.29 L 93.87 114.29 L 94.26 114.29 L 94.57 114.29 L 95.11 114.29 L 95.36 114.29 L 95.44 114.29 L 95.69 114.29 L 95.80 114.29 L 95.87 114.29 L 96.06 114.29 L 96.67 114.29 L 97.54 114.29 L 97.72 114.29 L 98.07 114.29 L 98.08 114.29 L 98.08 114.29 L 98.11 114.29 L 98.36 114.29 L 98.37 114.29 L 98.72 114.29 L 98.87 114.29 L 99.09 114.29 L 99.16 114.29 L 99.19 114.29 L 99.60 114.29 L 100.43 114.29 L 100.45 114.29 L 100.62 114.29 L 100.73 114.29 L 100.91 114.29 L 101.38 114.29 L 101.42 114.29 L 101.45 114.29 L 101.55 114.29 L 101.74 114.29 L 101.90 114.29 L 102.15 114.29 L 102.64 114.29 L 103.49 114.29 L 103.80 114.29 L 103.92 114.29 L 104.33 114.29 L 104.33 114.29 L 104.88 114.29 L 105.21 114.29 L 105.55 114.29 L 106.45 114.29 L 107.17 114.29 L 107.43 114.29 L 107.43 114.29 L 107.69 114.29 L 107.78 114.29 L 107.85 114.29 L 108.58 114.29 L 109.27 114.29 L 109.43 114.29 L 109.74 114.29 L 110.02 114.29 L 110.06 114.29 L 111.26 114.29 L 111.52 114.29 L 112.55 114.29 L 112.64 114.29 L 113.30 114.29 L 113.35 114.29 L 113.78 114.29 L 113.93 114.29 L 114.65 114.29 L 114.69 114.29 L 115.15 114.29 L 115.56 114.29 L 115.70 114.29 L 116.32 114.29 L 116.39 114.29 L 116.45 114.29 L 117.36 114.29 L 117.56 114.29 L 117.62 114.29 L 117.93 114.29 L 118.03 114.29 L 118.47 114.29 L 118.53 114.29 L 118.72 114.29 L 118.99 114.29 L 119.00 114.29 L 119.63 114.29 L 120.07 114.29 L 120.09 114.29 L 120.36 114.29 L 120.42 114.29 L 120.84 114.29 L 121.34 114.29 L 121.86 114.29 L 121.93 114.29 L 122.19 114.29 L 122.84 114.29 L 122.85 114.29 L 122.89 114.29 L 123.06 114.29 L 123.07 114.29 L 123.13 114.29 L 123.22 114.29 L 123.28 114.29 L 123.51 114.29 L 123.77 114.29 L 124.22 114.29 L 124.23 114.29 L 124.40 114.29 L 124.41 114.29 L 124.42 114.29 L 124.77 114.29 L 124.80 114.29 L 124.83 114.29 L 124.98 114.29 L 125.00 114.29 L 125.27 114.29 L 126.30 114.29 L 126.31 114.29 L 126.52 114.29 L 126.72 114.29 L 126.90 114.29 L 127.07 114.29 L 127.93 114.29 L 128.26 114.29 L 128.30 114.29 L 128.36 114.29 L 128.39 114.29 L 129.05 114.29 L 129.08 114.29 L 129.23 114.29 L 129.61 114.29 L 129.74 114.29 L 130.97 114.29 L 131.21 114.29 L 131.37 114.29 L 131.67 114.29 L 131.69 114.29 L 131.73 114.29 L 131.87 114.29 L 132.06 114.29 L 132.62 114.29 L 132.67 114.29 L 133.19 114.29 L 134.32 114.29 L 134.34 114.29 L 134.60 114.29 L 135.12 114.29 L 135.51 114.29 L 136.73 114.29 L 136.78 114.29 L 136.81 114.29 L 137.49 114.29 L 137.79 114.29 L 137.87 114.29 L 138.00 114.29 L 138.24 114.29 L 138.65 114.29 L 139.36 114.29 L 139.82 114.29 L 139.96 114.29 L 140.15 114.29 L 140.19 114.29 L 140.55 114.29 L 140.61 114.29 L 140.91 114.29 L 140.95 114.29 L 141.67 114.29 L 141.74 114.29 L 141.93 114.29 L 142.33 114.29 L 142.64 114.29 L 142.65 114.29 L 142.88 114.29 L 143.17 114.29 L 143.62 114.29 L 144.16 114.29 L 144.36 114.29 L 144.47 114.29 L 145.20 114.29 L 145.64 114.29 L 145.64 114.29 L 145.64 114.29 L 145.70 114.29 L 145.71 114.29 L 145.89 114.29 L 146.77 114.29 L 147.27 114.29 L 147.47 114.29 L 147.67 114.29 L 147.71 114.29 L 148.08 114.29 L 148.84 114.29 L 149.06 114.29 L 149.59 114.29 L 150.11 114.29 L 150.21 114.29 L 150.27 114.29 L 150.33 114.29 L 151.02 114.29 L 151.14 114.29 L 151.32 114.29 L 151.60 114.29 L 152.20 114.29 L 152.60 114.29 L 152.94 114.29 L 153.16 114.29 L 153.40 114.29 L 153.64 114.29 L 153.73 114.29 L 153.88 114.29 L 155.04 114.29 L 155.66 114.29 L 155.99 114.29 L 156.00 114.29 L 156.20 114.29 L 156.48 114.29 L 156.55 114.29 L 157.35 114.29 L 158.29 114.29 L 158.76 114.29 L 159.15 114.29 L 159.79 114.29 L 160.05 114.29 L 160.19 114.29 L 160.32 114.29 L 160.68 114.29 L 161.33 114.29 L 161.71 114.29 L 163.07 114.29 L 164.28 114.29 L 166.59 114.29 L 167.11 114.29 L 167.46 114.29 L 168.29 114.29 L 169.01 114.29 L 169.13 114.29 L 169.57 114.29 L 170.19 114.29 L 171.51 114.29 L 172.48 114.29 L 173.03 114.29 L 173.73 114.29 L 174.92 114.29 L 175.57 114.29 L 176.30 114.29 L 177.13 114.29 L 177.94 114.29 L 179.60 114.29 L 187.78 114.29 L 188.39 114.29 L 188.99 114.29 L 189.17 114.29 L 189.60 114.29 L 189.68 114.29 L 190.90 114.29 L 191.18 114.29 L 192.00 114.29 L 193.92 114.29 L 194.57 114.29 L 194.99 114.29 L 196.64 114.29 L 199.58 114.29 L 200.04 114.29 L 202.23 114.29 L 202.24 114.29 L 207.48 114.29 L 209.94 114.29 L 212.41 114.29 L 213.97 114.29 L 215.85 114.29 L 215.98 114.29 L 216.11 114.29 L 216.89 114.29 L 218.49 114.29 L 218.49 114.29 L 218.54 114.29 L 218.97 114.29 L 219.48 114.29 L 220.99 114.29 L 221.28 114.29 L 221.95 114.29 L 223.69 114.29 L 225.46 114.29 L 226.16 114.29 L 226.29 114.29 L 226.70 114.29 L 228.03 114.29 L 229.74 114.29 L 230.75 114.29 L 232.07 114.29 L 232.33 114.29 L 232.33 114.29 L 232.67 114.29 L 235.54 114.29 L 239.14 114.29 L 239.36 114.29 L 240.84 114.29 L 241.66 114.29 L 242.22 114.29 L 242.26 114.29 L 242.62 114.29 L 243.26 114.29 L 243.92 114.29 L 244.29 114.29 L 244.89 114.29 L 245.15 114.29 L 245.20 114.29 L 245.21 114.29 L 247.62 114.29 L 247.73 114.29 L 247.76 114.29 L 248.54 114.29 L 249.31 114.29 L 250.34 114.29 L 252.51 114.29 L 255.04 114.29 L 255.55 114.29 L 256.19 114.29 L 256.40 114.29 L 256.53 114.29 L 258.71 114.29 L 259.12 114.29 L 259.43 114.29 L 259.57 114.29 L 260.14 114.29 L 262.34 114.29 L 262.69 114.29 L 263.38 114.29 L 263.39 114.29 L 264.78 114.29 L 264.98 114.29 L 265.74 114.29 L 265.74 114.29 L 268.39 114.29 L 269.40 114.29 L 269.46 114.29 L 269.87 114.29 L 270.53 114.29 L 272.00 114.29 L 273.47 114.29 L 276.98 114.29 L 277.00 114.29 L 277.33 114.29 L 277.42 114.29 L 279.59 114.29 L 279.94 114.29 L 280.07 114.29 L 280.90 114.29 L 281.18 114.29 L 281.57 114.29 L 281.94 114.29 L 282.90 114.29 L 284.12 114.29 L 284.14 114.29 L 284.21 114.29 L 284.34 114.29 L 285.00 114.29 L 285.17 114.29 L 285.36 114.29 L 285.72 114.29 L 285.76 114.29 L 286.15 114.29 L 286.36 114.29 L 286.71 114.29 L 287.05 114.29 L 287.30 114.29 L 287.61 114.29 L 287.63 114.29 L 288.17 114.29 L 288.48 114.29 L 288.53 114.29 L 288.65 114.29 L 288.73 114.29 L 289.02 114.29 L 289.03 114.29 L 289.06 114.29 L 289.30 114.29 L 289.69 114.29 L 289.72 114.29 L 289.75 114.29 L 289.85 114.29 L 290.20 114.29 L 290.25 114.29 L 290.75 114.29 L 291.07 114.29 L 291.86 114.29 L 292.08 114.29 L 292.44 114.29 L 292.82 114.29 L 292.95 114.29 L 292.95 114.29 L 293.42 114.29 L 293.56 114.29 L 293.60 114.29 L 293.82 114.29 L 293.86 114.29 L 294.30 114.29 L 294.31 114.29 L 294.45 114.29 L 294.78 114.29 L 295.96 114.29 L 296.27 114.29 L 296.42 114.29 L 296.96 114.29 L 296.97 114.29 L 297.02 114.29 L 297.54 114.29 L 298.00 114.29 L 298.67 114.29 L 299.05 114.29 L 299.11 114.29 L 299.19 114.29 L 299.25 114.29 L 299.30 114.29 L 299.84 114.29 L 300.06 114.29 L 300.10 114.29 L 300.43 114.29 L 300.79 114.29 L 300.80 114.29 L 300.94 114.29 L 300.95 114.29 L 301.11 114.29 L 301.29 114.29 L 301.86 114.29 L 302.02 114.29 L 302.31 114.29 L 302.38 114.29 L 302.58 114.29 L 302.59 114.29 L 302.66 114.29 L 303.05 114.29 L 303.13 114.29 L 303.41 114.29 L 303.58 114.29 L 303.89 114.29 L 304.75 114.29 L 304.79 114.29 L 304.82 114.29 L 305.23 114.29 L 305.47 114.29 L 305.59 114.29 L 305.91 114.29 L 306.03 114.29 L 306.37 114.29 L 306.38 114.29 L 306.47 114.29 L 306.81 114.29 L 307.04 114.29 L 307.11 114.29 L 307.23 114.29 L 307.45 114.29 L 308.45 114.29 L 309.17 114.29 L 355.33 94.69 L 355.49 94.52 L 356.30 93.69 L 356.72 93.26 L 357.09 92.87 L 357.42 92.54 L 357.46 92.50 L 357.78 92.17 L 357.81 92.14 L 357.97 91.97 L 358.07 91.88 L 358.41 91.52 L 358.57 91.36 L 358.66 91.27 L 358.70 91.22 L 358.85 91.07 L 359.16 90.75 L 359.17 90.74 L 359.70 90.20 L 359.95 89.94 L 360.33 89.55 L 360.56 89.31 L 360.81 89.05 L 360.98 88.88 L 361.03 88.83 L 361.18 88.67 L 361.82 88.02 L 361.93 87.91 L 362.01 87.82 L 362.64 87.17 L 363.11 86.69 L 363.17 86.63 L 363.28 86.51 L 363.61 86.18 L 363.61 86.17 L 363.78 86.00 L 363.85 85.93 L 363.88 85.90 L 363.97 85.81 L 364.20 85.57 L 364.34 85.42 L 364.52 85.24 L 364.62 85.14 L 364.68 85.07 L 365.10 84.65 L 365.15 84.59 L 365.31 84.43 L 365.48 84.26 L 365.68 84.05 L 365.72 84.01 L 365.80 83.93 L 366.43 83.28 L 366.60 83.10 L 366.85 82.85 L 366.95 82.75 L 367.32 82.36 L 367.32 82.36 L 367.34 82.35 L 367.57 82.10 L 367.69 81.99 L 367.73 81.94 L 367.74 81.93 L 368.13 81.53 L 368.29 81.37 L 368.32 81.34 L 368.37 81.28 L 368.74 80.91 L 369.63 79.99 L 369.80 79.81 L 370.06 79.55 L 370.72 78.87 L 370.83 78.75 L 370.93 78.65 L 371.00 78.58 L 371.02 78.56 L 371.08 78.50 L 371.26 78.31 L 371.70 77.86 L 372.09 77.46 L 372.17 77.38 L 372.94 76.59 L 373.09 76.44 L 373.10 76.42 L 373.27 76.25 L 374.94 74.53 L 375.73 73.72 L 377.16 72.25 L 377.56 71.84 L 377.61 71.78 L 377.69 71.71 L 378.58 70.79 L 379.46 69.89 L 379.49 69.86 L 380.10 69.22 L 380.83 68.47 L 381.82 67.46 L 383.25 65.99 L 383.45 65.78 L 383.96 65.26 L 384.00 65.22 L 384.26 64.96 L 384.38 64.83 L 384.73 64.46 L 384.91 64.28 L 385.13 64.06 L 386.23 62.93 L 386.38 62.78 L 388.02 61.09 L 388.33 60.77 L 390.21 58.83 L 390.75 58.28 L 392.52 56.46 L 393.32 55.64 L 393.39 55.57 L 393.50 55.45 L 394.31 54.62 L 395.77 53.12 L 397.14 51.72 L 397.48 51.36 L 397.81 51.02 L 398.37 50.45 L 398.50 50.31 L 399.08 49.72 L 401.18 47.56 L 401.18 47.56 L 401.68 47.05 L 403.72 44.95 L 404.45 44.20 L 404.81 43.83 L 404.88 43.76 L 407.04 41.53 L 407.13 41.45 L 408.44 40.10 L 409.94 38.55 L 411.23 37.23 L 411.80 36.65 L 412.03 36.41 L 412.78 35.64 L 413.81 34.58 L 417.60 30.69 L 419.01 29.23 L 419.07 29.17 L 419.12 29.12 L 419.68 28.54 L 421.24 26.94 L 422.86 25.28 L 423.08 25.05 L 424.08 24.02 L 424.59 23.49 L 426.21 21.83 L 426.39 21.64 L 429.02 18.95 L 430.20 17.73 L 430.21 17.72 L 431.63 16.26 L 432.07 15.81 L 432.42 15.45 L 432.68 15.18 L 432.98 14.87 L 433.26 14.58 L 433.32 14.52 L 433.68 14.15 L 433.84 13.98 L 433.98 13.85 L 435.42 12.36 L 437.10 10.64 L 437.90 9.81 L 438.76 8.93 L 438.80 8.89 L 439.17 8.51 L 439.47 8.20 L 439.54 8.13 L 439.67 7.99 L 439.68 7.98 L 439.92 7.74 L 440.08 7.57 L 440.21 7.44 L 441.19 6.44 L 441.36 6.26 L 441.78 5.83 L 441.91 5.70 L 442.13 5.47 L 442.19 5.40 L 442.28 5.32 L 442.32 5.28 L 442.32 5.27 L 442.77 4.81 L 442.88 4.70 L 443.13 4.44 L 443.23 4.34 L 443.46 4.10 L 443.59 3.97 L 444.13 3.42 L 444.31 3.23 L 444.38 3.15 L 444.43 3.10 L 444.49 3.04 L 444.52 3.01 L 444.72 2.81 L 445.14 2.38 L 445.53 1.97 L 445.55 1.95 L 445.74 1.75 L 445.83 1.67 L 446.15 1.33 L 446.62 0.86 L 447.21 0.25 L 447.23 0.23 L 447.29 0.17 L 447.60 0.00 L 447.83 0.07 L 448.36 0.59 L 448.50 0.72 L 448.68 0.90 L 449.17 1.37 L 449.36 1.56 L 449.99 2.17 L 450.14 2.32 L 450.24 2.41 L 450.76 2.92 L 450.87 3.04 L 451.06 3.22 L 451.56 3.70 L 451.64 3.78 L 452.01 4.14 L 453.11 5.21 L 453.17 5.27 L 453.30 5.40 L 453.48 5.57 L 453.67 5.76 L 453.92 6.00 L 454.00 6.08 L 454.42 6.48 L 454.58 6.64 L 454.71 6.77 L 455.70 7.73 L 456.12 8.14 L 456.16 8.18 L 456.28 8.30 L 456.74 8.74 L 457.39 9.37 L 457.70 9.68 L 457.94 9.91 L 458.14 10.10 L 458.18 10.14 L 458.32 10.28 L 459.31 11.24 L 459.54 11.47 L 460.48 12.38 L 461.09 12.98 L 461.28 13.15 L 462.52 14.37 L 462.53 14.38 L 462.58 14.43 L 464.43 16.23 L 464.80 16.58 L 464.86 16.64 L 464.97 16.75 L 465.07 16.85 L 465.77 17.53 L 465.86 17.62 L 465.95 17.70 L 466.59 18.32 L 466.92 18.65 L 467.72 19.42 L 472.07 23.66 L 472.73 24.30 L 473.02 24.58 L 473.65 25.20 L 475.08 26.59 L 475.53 27.02 L 475.81 27.29 L 475.96 27.45 L 476.40 27.86 L 477.22 28.66 L 477.58 29.02 L 477.69 29.12 L 477.83 29.26 L 478.95 30.35 L 479.13 30.53 L 479.49 30.88 L 480.39 31.75 L 480.54 31.89 L 480.68 32.04 L 482.95 34.24 L 483.04 34.33 L 483.06 34.34 L 483.36 34.64 L 483.90 35.17 L 483.97 35.23 L 484.71 35.95 L 484.96 36.20 L 486.49 37.69 L 491.05 42.12 L 493.77 44.77 L 494.19 45.18 L 497.27 48.17 L 498.25 49.13 L 498.77 49.63 L 499.52 50.36 L 499.98 50.81 L 501.24 52.03 L 501.30 52.10 L 501.35 52.14 L 502.19 52.96 L 502.36 53.13 L 502.73 53.49 L 503.53 54.27 L 503.57 54.31 L 503.65 54.38 L 503.94 54.66 L 503.95 54.67 L 504.39 55.10 L 505.72 56.39 L 505.77 56.44 L 506.29 56.95 L 507.52 58.15 L 507.68 58.30 L 508.02 58.63 L 508.73 59.32 L 509.01 59.59 L 509.19 59.77 L 509.57 60.14 L 510.07 60.62 L 510.20 60.75 L 510.76 61.30 L 511.29 61.82 L 511.54 62.06 L 511.78 62.29 L 512.01 62.52 L 512.51 63.00 L 513.10 63.57 L 513.42 63.88 L 513.48 63.94 L 515.21 65.62 L 515.98 66.38 L 516.64 67.01 L 516.78 67.15 L 517.24 67.60 L 517.68 68.03 L 518.20 68.54 L 518.93 69.25 L 519.55 69.85 L 520.46 70.73 L 520.70 70.97 L 520.96 71.22 L 521.01 71.27 L 522.70 72.92 L 522.71 72.92 L 523.46 73.65 L 523.73 73.92 L 524.69 74.84 L 524.76 74.92 L 524.82 74.98 L 524.92 75.08 L 524.99 75.14 L 525.32 75.46 L 525.74 75.87 L 525.77 75.90 L 526.04 76.16 L 527.98 78.05 L 528.47 78.52 L 528.64 78.69 L 528.78 78.83 L 528.92 78.97 L 529.30 79.33 L 529.80 79.82 L 530.07 80.09 L 530.13 80.14 L 530.28 80.29 L 530.57 80.57 L 530.81 80.80 L 530.86 80.85 L 530.93 80.92 L 531.01 81.00 L 531.36 81.34 L 531.44 81.41 L 531.74 81.71 L 531.89 81.86 L 532.26 82.22 L 532.99 82.93 L 533.13 83.06 L 533.18 83.11 L 533.50 83.42 L 533.62 83.54 L 534.29 84.19 L 534.38 84.27 L 534.79 84.68 L 535.21 85.09 L 535.68 85.54 L 536.16 86.00 L 536.18 86.03 L 536.44 86.28 L 536.66 86.49 L 536.82 86.65 L 537.23 87.05 L 537.59 87.39 L 537.90 87.70 L 537.97 87.76 L 537.99 87.79 L 538.20 88.00 L 538.26 88.05 L 538.54 88.32 L 538.75 88.53 L 539.43 89.19 L 540.02 89.77 L 540.17 89.91 L 540.55 90.28 L 540.91 90.63 L 541.18 90.89 L 541.27 90.98 L 541.44 91.14 L 541.59 91.30 L 541.82 91.51 L 541.89 91.59 L 541.92 91.62 L 542.20 91.89 L 542.55 92.23 L 542.56 92.23 L 542.88 92.54 L 542.98 92.64 L 543.59 93.24 L 543.89 93.53 L 543.92 93.56 L 543.99 93.63 L 544.09 93.72 L 544.13 93.76 L 544.65 94.27 L 544.78 94.39 L 544.95 94.56 L 544.97 94.58 L 545.35 94.95 L 545.43 95.02 L 545.55 95.14 L 545.61 95.20 L 545.89 95.48 L 546.20 95.78 L 546.50 96.07 L 546.75 96.31 L 546.89 96.45 L 546.99 96.55 L 547.49 97.04 L 547.56 97.10 L 547.83 97.36 L 547.88 97.41 L 548.10 97.63 L 548.21 97.74 L 548.72 98.23 L 548.97 98.47 L 549.28 98.77 L 549.75 99.23 L 551.22 100.66 L 551.72 101.15 L 552.30 101.71 L 552.70 102.10 L 552.93 102.32 L 553.82 103.19 L 554.02 103.38 L 554.70 104.05 L 554.78 104.12 L 554.99 104.34 L 554.99 104.51 L 554.99 105.67 L 554.99 105.77 L 554.99 105.83 L 554.99 106.03 L 554.99 106.35 L 554.99 107.32 L 554.99 107.97 L 554.99 108.24 L 554.99 108.62 L 554.99 109.10 L 554.99 109.35 L 554.99 109.53 L 554.99 109.57 L 554.99 111.04 L 554.99 111.08 L 554.99 111.15 L 554.99 111.17 L 554.99 111.40 L 554.99 111.49 L 554.99 111.55 L 554.99 111.86 L 554.99 112.10 L 554.99 112.23 L 554.99 112.37 L 554.99 112.51 L 554.99 112.99 L 554.99 113.00 L 554.99 113.24 L 554.99 113.89 L 554.99 113.94 L 554.99 114.01 L 554.99 114.64 L 554.99 114.94 L 554.99 115.32 L 554.99 115.41 L 554.99 115.88 L 554.99 116.34 L 554.99 116.40 L 554.99 116.48 L 554.99 116.89 L 554.99 117.06 L 554.99 117.17 L 554.99 117.22 L 554.99 117.36 L 554.99 117.43 L 554.99 117.96 L 554.99 118.09 L 554.99 118.50 L 554.99 119.08 L 554.99 119.12 L 554.99 119.35 L 554.99 119.36 L 554.99 119.41 L 554.99 119.87 L 554.99 119.92 L 554.99 120.00 L 554.99 120.21 L 554.99 120.23 L 554.99 120.24 L 554.99 120.27 L 554.99 120.29 L 554.99 120.30 L 554.99 120.82 L 554.99 121.07 L 554.99 121.49 L 554.99 121.52 L 554.99 121.99 L 554.99 122.08 L 554.99 122.22 L 554.99 122.34 L 554.99 122.48 L 554.99 122.49 L 554.99 122.91 L 554.99 123.06 L 554.99 123.07 L 554.99 123.13 L 554.99 123.20 L 554.99 123.74 L 554.99 124.24 L 554.99 124.60 L 554.99 124.91 L 554.99 125.01 L 554.99 125.02 L 554.99 125.27 L 554.99 125.54 L 554.99 126.09 L 554.99 126.25 L 554.99 126.32 L 554.99 126.33 Z"
        fill="none"
        stroke="black"
        stroke-width="2"/>
</svg>
