<?xml version="1.0" encoding="UTF-8" standalone="no"?>
<svg xmlns="http://www.w3.org/2000/svg"
     width="345.35" height="402.92"
     viewBox="0 0 345.35 402.92">
  <path d="M 345.35 254.15 L 345.35 254.73 L 345.35 254.76 L 345.35 255.03 L 345.35 255.09 L 345.35 255.43 L 345.35 255.56 L 345.35 255.66 L 345.35 255.82 L 345.35 255.85 L 345.35 255.88 L 345.35 256.99 L 345.35 257.09 L 345.35 257.14 L 345.35 257.50 L 345.35 257.65 L 345.35 257.74 L 345.35 257.93 L 345.35 258.13 L 345.35 258.25 L 345.35 258.34 L 345.35 258.76 L 345.35 258.86 L 345.35 258.96 L 345.35 259.44 L 345.35 259.49 L 345.35 259.83 L 345.35 259.94 L 345.35 259.98 L 345.35 260.03 L 345.35 260.17 L 345.35 260.50 L 345.35 260.54 L 345.35 260.61 L 345.35 260.92 L 345.35 261.09 L 345.35 261.26 L 345.35 261.28 L 345.35 261.62 L 345.35 261.64 L 345.35 261.71 L 345.35 261.85 L 345.35 262.07 L 345.35 262.43 L 345.35 262.47 L 345.35 262.97 L 345.35 263.16 L 345.35 263.17 L 345.35 263.29 L 345.35 263.50 L 345.35 263.58 L 345.35 263.77 L 345.35 264.89 L 345.35 265.31 L 345.35 265.41 L 345.35 265.46 L 345.35 265.51 L 345.35 266.03 L 345.35 266.17 L 345.35 266.21 L 345.35 266.30 L 345.35 266.54 L 345.35 266.58 L 345.35 266.92 L 345.35 266.95 L 345.35 267.09 L 345.35 267.55 L 345.35 267.70 L 345.35 267.85 L 345.35 267.85 L 345.35 268.21 L 345.35 268.69 L 345.35 268.75 L 345.35 268.83 L 345.35 269.12 L 345.35 269.26 L 345.35 269.41 L 345.35 269.87 L 345.35 269.90 L 345.35 269.97 L 345.35 270.27 L 345.35 270.50 L 345.35 270.87 L 345.35 271.03 L 345.35 271.46 L 345.35 271.80 L 345.35 271.95 L 345.35 272.69 L 345.35 272.74 L 345.35 272.98 L 345.35 273.60 L 345.35 273.75 L 345.35 273.95 L 345.35 273.96 L 345.35 274.22 L 345.35 274.31 L 345.35 274.32 L 345.35 274.61 L 345.35 274.65 L 345.35 274.73 L 345.35 274.82 L 345.35 275.60 L 345.35 275.71 L 345.35 275.99 L 345.35 276.25 L 345.35 276.30 L 345.35 276.74 L 345.35 276.81 L 345.35 276.86 L 345.35 276.95 L 345.35 277.24 L 345.35 277.29 L 345.35 277.62 L 345.35 277.90 L 345.35 278.34 L 345.35 278.45 L 345.35 278.60 L 345.35 278.68 L 345.35 278.87 L 345.35 279.11 L 345.35 279.15 L 345.35 279.46 L 345.35 279.48 L 345.35 279.68 L 345.35 280.11 L 345.35 280.31 L 345.35 280.59 L 345.35 280.69 L 345.35 280.84 L 345.35 281.63 L 345.35 281.81 L 345.35 281.95 L 345.35 282.07 L 345.35 282.21 L 345.35 282.53 L 345.35 282.74 L 345.35 283.27 L 345.35 283.31 L 345.35 284.44 L 345.35 284.45 L 345.35 284.46 L 345.35 284.92 L 345.35 284.92 L 345.35 285.31 L 345.35 285.38 L 345.35 285.45 L 345.35 285.52 L 345.35 285.59 L 345.35 285.98 L 345.35 286.02 L 345.35 286.27 L 345.35 286.70 L 345.35 286.93 L 345.35 287.33 L 345.35 287.68 L 345.35 287.71 L 345.35 287.84 L 345.35 287.97 L 345.35 288.20 L 345.35 288.26 L 345.35 288.40 L 345.35 288.42 L 345.35 288.43 L 345.35 288.43 L 345.35 288.65 L 345.35 288.74 L 345.35 288.96 L 345.35 289.19 L 345.35 289.49 L 345.35 289.55 L 345.35 289.65 L 345.35 289.66 L 345.35 290.14 L 345.35 290.24 L 345.35 290.29 L 345.35 290.43 L 345.35 290.78 L 345.35 290.90 L 345.35 291.06 L 345.35 291.25 L 345.35 291.27 L 345.35 291.45 L 345.35 292.52 L 345.35 292.65 L 345.35 292.66 L 345.35 292.86 L 345.35 293.00 L 345.35 293.16 L 345.35 293.30 L 345.35 293.33 L 345.35 293.46 L 345.35 293.55 L 345.35 293.82 L 345.35 293.83 L 345.35 294.16 L 345.35 294.28 L 345.35 294.32 L 345.35 294.47 L 345.35 294.56 L 345.35 294.65 L 345.35 295.04 L 345.35 295.10 L 345.35 295.11 L 345.35 295.16 L 345.35 295.24 L 345.35 295.40 L 345.35 295.60 L 345.35 295.79 L 345.35 295.82 L 345.35 296.68 L 345.35 296.69 L 345.35 296.80 L 345.35 297.10 L 345.35 297.43 L 345.35 297.45 L 345.35 297.47 L 345.35 297.49 L 345.35 297.53 L 345.35 297.64 L 345.35 297.66 L 345.35 298.11 L 345.35 298.22 L 345.35 298.23 L 345.35 298.54 L 345.35 298.56 L 345.35 298.59 L 345.35 298.86 L 345.35 298.87 L 345.35 299.13 L 345.35 299.39 L 345.35 300.10 L 345.35 300.38 L 345.35 300.39 L 345.35 300.83 L 345.35 300.92 L 345.35 301.84 L 345.35 302.28 L 345.35 302.65 L 345.35 302.67 L 345.35 302.75 L 345.35 303.06 L 345.35 303.43 L 345.35 303.52 L 345.35 303.53 L 345.35 304.02 L 345.35 304.51 L 345.35 304.53 L 345.35 304.61 L 345.35 304.69 L 345.35 304.75 L 345.35 304.93 L 345.35 305.31 L 345.35 305.43 L 345.35 305.82 L 345.35 306.21 L 345.35 306.29 L 345.35 306.49 L 345.35 306.60 L 345.35 306.78 L 345.35 306.98 L 345.35 307.11 L 345.35 307.16 L 345.35 307.18 L 345.35 307.27 L 345.35 307.29 L 345.35 307.60 L 345.35 307.67 L 345.35 307.82 L 345.35 307.86 L 345.35 307.90 L 345.35 308.10 L 345.35 308.19 L 345.35 308.25 L 345.35 308.54 L 345.35 308.71 L 345.35 308.76 L 345.35 308.77 L 345.35 308.83 L 345.35 309.24 L 345.35 309.40 L 345.35 309.64 L 345.35 309.64 L 345.35 309.83 L 345.35 309.86 L 345.35 309.91 L 345.35 310.02 L 345.35 310.07 L 345.35 310.63 L 345.35 310.73 L 345.35 310.75 L 345.35 310.89 L 345.35 311.83 L 345.35 311.84 L 345.35 311.92 L 345.35 311.96 L 345.35 311.96 L 345.35 312.30 L 345.35 312.55 L 345.35 312.66 L 345.35 312.99 L 345.35 313.18 L 345.35 313.34 L 345.35 313.47 L 345.35 313.56 L 345.35 313.82 L 345.35 314.12 L 345.35 314.22 L 345.35 314.39 L 345.35 314.83 L 345.35 315.57 L 345.35 315.90 L 345.35 316.04 L 345.35 316.35 L 345.35 316.36 L 345.35 316.39 L 345.35 316.43 L 345.35 316.57 L 345.35 316.82 L 345.35 317.00 L 345.35 317.09 L 345.35 317.13 L 345.35 317.35 L 345.35 317.48 L 345.35 317.80 L 345.35 317.82 L 345.35 317.97 L 345.35 318.09 L 345.35 318.30 L 345.35 318.30 L 345.35 318.57 L 345.35 318.67 L 345.35 318.73 L 345.35 319.08 L 345.35 319.96 L 345.35 320.16 L 345.35 320.28 L 345.35 320.43 L 345.35 320.63 L 345.35 320.94 L 345.35 321.20 L 345.35 321.21 L 345.35 321.28 L 345.35 321.42 L 345.35 321.75 L 345.35 321.82 L 345.35 322.13 L 345.35 322.44 L 345.35 322.93 L 345.35 323.14 L 345.35 323.40 L 345.35 323.66 L 345.35 323.74 L 345.35 323.76 L 345.35 323.77 L 345.35 324.05 L 345.35 324.12 L 345.35 324.44 L 345.35 324.45 L 345.35 324.66 L 345.35 324.79 L 345.35 324.85 L 345.35 324.88 L 345.35 324.91 L 345.35 325.46 L 345.35 326.10 L 345.35 326.23 L 345.35 326.36 L 345.35 326.37 L 345.35 326.57 L 345.35 326.68 L 345.35 326.78 L 345.35 326.83 L 345.35 327.05 L 345.35 327.14 L 345.35 327.21 L 345.35 327.28 L 345.35 327.45 L 345.35 327.53 L 345.35 327.75 L 345.35 327.92 L 345.35 328.04 L 345.35 328.05 L 345.35 328.10 L 345.35 328.38 L 345.35 328.42 L 345.35 328.54 L 345.35 328.55 L 345.35 329.49 L 345.35 329.62 L 345.35 330.30 L 345.35 330.30 L 345.35 330.32 L 345.35 330.40 L 345.35 330.43 L 345.35 330.45 L 345.35 330.47 L 345.35 330.67 L 345.35 330.78 L 345.35 331.55 L 345.35 331.82 L 345.35 331.99 L 345.35 332.19 L 345.35 332.36 L 345.35 332.53 L 345.35 332.59 L 345.35 332.87 L 345.35 332.88 L 345.35 332.91 L 345.35 333.28 L 345.35 333.79 L 345.35 334.53 L 345.35 334.57 L 345.35 334.59 L 345.35 334.59 L 345.35 334.71 L 345.35 334.75 L 345.35 335.05 L 345.35 335.20 L 345.35 335.31 L 345.35 335.34 L 345.35 335.45 L 345.35 335.74 L 345.35 335.80 L 345.35 335.85 L 345.35 335.86 L 345.35 335.90 L 345.35 335.95 L 345.35 336.37 L 345.35 337.13 L 345.35 337.19 L 345.35 337.29 L 345.35 337.39 L 345.35 337.53 L 345.35 337.63 L 345.35 337.70 L 345.35 337.79 L 345.35 337.86 L 345.35 338.31 L 345.35 338.54 L 345.35 339.37 L 345.35 339.45 L 345.35 339.49 L 345.35 339.51 L 345.35 339.54 L 345.35 339.63 L 345.35 339.70 L 345.35 339.83 L 345.35 339.92 L 345.35 340.02 L 345.35 340.25 L 345.35 340.35 L 345.35 340.46 L 345.35 340.71 L 345.35 341.20 L 345.35 341.22 L 345.35 341.23 L 345.35 341.28 L 345.35 341.33 L 345.35 341.78 L 345.35 341.97 L 345.35 342.13 L 345.35 342.32 L 345.35 342.47 L 345.35 342.72 L 345.35 342.74 L 345.35 343.07 L 345.35 343.14 L 345.35 343.29 L 345.35 343.35 L 345.35 343.43 L 345.35 343.56 L 345.35 343.76 L 345.35 344.16 L 345.35 344.17 L 345.35 344.18 L 345.35 344.26 L 345.35 344.32 L 345.35 344.37 L 345.35 344.46 L 345.35 344.71 L 345.35 344.90 L 345.35 344.94 L 345.35 344.94 L 345.35 345.15 L 345.35 345.21 L 345.35 345.54 L 345.35 345.79 L 345.35 346.21 L 345.35 346.39 L 345.35 346.63 L 345.35 347.45 L 345.35 347.80 L 345.35 348.13 L 345.35 348.43 L 345.35 348.45 L 345.35 348.96 L 345.35 349.05 L 345.35 349.08 L 345.35 349.27 L 345.35 349.35 L 345.35 349.71 L 345.35 349.88 L 345.35 350.26 L 345.35 350.34 L 345.35 350.44 L 345.35 350.57 L 345.35 350.78 L 345.35 350.88 L 345.35 351.23 L 345.35 351.46 L 345.35 351.90 L 345.35 352.17 L 345.35 352.17 L 345.35 352.23 L 345.35 352.34 L 345.35 352.47 L 345.35 352.87 L 345.35 352.87 L 345.35 352.96 L 345.35 353.02 L 345.35 353.16 L 345.35 353.42 L 345.35 353.55 L 345.35 354.01 L 345.35 354.03 L 345.35 354.07 L 345.35 354.20 L 345.35 354.64 L 345.35 354.74 L 345.35 354.84 L 345.35 354.97 L 345.35 355.01 L 345.35 355.08 L 345.35 355.14 L 345.35 355.49 L 345.35 355.52 L 345.35 355.79 L 345.35 355.79 L 345.35 355.98 L 345.35 356.05 L 345.35 356.54 L 345.35 356.67 L 345.35 356.98 L 345.35 357.15 L 345.35 357.16 L 345.35 357.35 L 345.35 357.44 L 345.35 357.60 L 345.35 357.87 L 345.35 358.43 L 345.35 359.00 L 345.35 359.20 L 345.35 359.24 L 345.35 359.26 L 345.35 359.33 L 345.35 359.33 L 345.35 359.42 L 345.35 359.44 L 345.35 359.52 L 345.35 359.70 L 345.35 360.60 L 345.35 360.74 L 345.35 361.06 L 345.35 361.45 L 345.35 361.71 L 345.35 361.74 L 345.35 361.78 L 345.35 361.91 L 345.35 361.95 L 345.35 362.35 L 345.35 362.50 L 345.35 363.01 L 345.35 363.12 L 345.35 363.41 L 345.35 363.48 L 345.35 363.49 L 345.35 363.54 L 345.35 363.69 L 345.35 363.77 L 345.35 363.81 L 345.35 364.00 L 345.35 364.57 L 345.35 364.70 L 345.35 364.71 L 345.35 364.72 L 345.35 364.75 L 345.35 365.00 L 345.35 365.05 L 345.35 365.09 L 345.35 365.11 L 345.35 365.11 L 345.35 365.47 L 345.35 365.55 L 345.35 365.59 L 345.35 365.70 L 345.35 366.30 L 345.35 366.48 L 345.35 366.51 L 345.35 366.59 L 345.35 367.52 L 345.35 367.54 L 345.35 367.59 L 345.35 368.17 L 345.35 368.64 L 345.35 368.85 L 345.35 369.10 L 345.35 369.23 L 345.35 370.00 L 345.35 370.09 L 345.35 370.23 L 345.35 370.23 L 345.35 370.41 L 345.35 370.62 L 345.35 370.69 L 345.35 371.14 L 345.35 371.19 L 345.35 371.43 L 345.35 371.70 L 345.35 371.82 L 345.35 372.49 L 345.35 372.50 L 345.35 373.28 L 345.35 373.31 L 345.35 373.88 L 345.35 374.18 L 345.35 374.60 L 345.35 374.62 L 345.35 374.67 L 345.35 374.73 L 345.35 374.83 L 345.35 374.90 L 345.35 375.26 L 345.35 376.10 L 345.35 376.24 L 345.35 376.36 L 345.35 376.75 L 345.35 376.87 L 345.35 376.89 L 345.35 376.95 L 345.35 376.95 L 345.35 377.00 L 345.35 377.02 L 345.35 377.40 L 345.35 377.41 L 345.35 377.48 L 345.35 377.54 L 345.35 377.58 L 345.35 377.67 L 345.35 377.88 L 345.35 378.12 L 345.35 378.43 L 345.35 378.67 L 345.35 378.82 L 345.35 378.99 L 345.35 379.17 L 345.35 379.30 L 345.35 379.32 L 345.35 379.74 L 345.35 379.80 L 345.35 380.00 L 345.35 380.08 L 345.35 380.22 L 345.35 380.29 L 345.35 380.53 L 345.35 380.86 L 345.35 380.86 L 345.35 381.62 L 345.35 381.64 L 345.35 381.66 L 345.35 381.77 L 345.35 381.84 L 345.35 382.55 L 345.35 382.61 L 345.35 383.19 L 345.35 383.29 L 345.35 383.30 L 345.35 383.55 L 345.35 383.66 L 345.35 383.67 L 345.35 383.93 L 345.35 384.76 L 345.35 384.92 L 345.35 385.01 L 345.35 385.67 L 345.35 385.71 L 345.35 385.82 L 345.35 386.16 L 345.35 386.23 L 345.35 386.64 L 345.35 386.70 L 345.35 387.03 L 345.35 387.35 L 345.35 387.54 L 345.35 387.57 L 345.35 387.72 L 345.35 388.04 L 345.35 388.42 L 345.35 388.63 L 345.35 388.68 L 345.35 388.87 L 345.35 388.99 L 345.35 389.07 L 345.35 389.20 L 345.35 389.28 L 345.35 389.35 L 345.35 389.47 L 345.35 389.49 L 345.35 389.75 L 345.35 390.09 L 345.35 390.35 L 345.35 391.14 L 345.35 391.22 L 345.35 392.01 L 345.35 392.21 L 345.35 392.44 L 345.35 392.78 L 345.35 392.98 L 345.35 393.00 L 345.35 393.00 L 345.35 393.13 L 345.35 393.14 L 345.35 393.57 L 345.35 393.98 L 345.35 394.08 L 345.35 394.13 L 345.35 394.89 L 345.35 395.26 L 345.35 395.29 L 345.35 395.47 L 345.35 395.74 L 345.35 395.75 L 345.35 395.80 L 345.35 396.05 L 345.35 396.06 L 345.35 396.10 L 345.35 396.20 L 345.35 396.52 L 345.35 396.54 L 345.35 396.70 L 345.35 396.77 L 345.35 396.83 L 345.35 396.93 L 345.35 396.99 L 345.35 397.02 L 345.35 397.03 L 345.35 397.03 L 345.35 397.48 L 345.35 397.49 L 345.35 397.92 L 345.35 398.95 L 345.35 398.96 L 345.35 398.97 L 345.35 399.01 L 345.35 399.19 L 345.35 399.42 L 345.35 399.45 L 345.35 399.87 L 345.35 400.96 L 345.35 402.05 L 345.35 402.15 L 345.35 402.29 L 345.35 402.38 L 345.35 402.65 L 345.25 402.83 L 345.15 402.92 L 345.03 402.92 L 344.97 402.92 L 344.72 402.92 L 344.61 402.92 L 343.94 402.92 L 343.93 402.92 L 343.84 402.92 L 343.53 402.92 L 343.34 402.92 L 342.96 402.92 L 342.87 402.92 L 342.78 402.92 L 342.69 402.92 L 342.44 402.92 L 342.32 402.92 L 342.08 402.92 L 341.93 402.92 L 341.58 402.92 L 341.17 402.92 L 341.07 402.92 L 340.78 402.92 L 340.74 402.92 L 340.67 402.92 L 340.00 402.92 L 339.99 402.92 L 339.83 402.92 L 339.65 402.92 L 339.63 402.92 L 339.60 402.92 L 339.58 402.92 L 339.57 402.92 L 339.53 402.92 L 339.46 402.92 L 339.26 402.92 L 339.16 402.92 L 339.16 402.92 L 339.15 402.92 L 338.46 402.92 L 338.34 402.92 L 337.65 402.92 L 336.29 402.92 L 336.18 402.92 L 336.14 402.92 L 335.44 402.92 L 335.08 402.92 L 334.53 402.92 L 334.13 402.92 L 334.05 402.92 L 333.94 402.92 L 333.69 402.92 L 333.16 402.92 L 333.16 402.92 L 332.93 402.92 L 332.85 402.92 L 332.69 402.92 L 332.59 402.92 L 332.38 402.92 L 332.25 402.92 L 331.82 402.92 L 331.81 402.92 L 331.73 402.92 L 331.68 402.92 L 331.50 402.92 L 331.08 402.92 L 330.39 402.92 L 330.35 402.92 L 330.20 402.92 L 330.16 402.92 L 330.12 402.92 L 329.98 402.92 L 329.47 402.92 L 329.03 402.92 L 328.84 402.92 L 328.75 402.92 L 328.74 402.92 L 328.33 402.92 L 328.13 402.92 L 327.73 402.92 L 327.64 402.92 L 327.55 402.92 L 327.04 402.92 L 326.95 402.92 L 326.82 402.92 L 326.66 402.92 L 326.59 402.92 L 326.53 402.92 L 326.52 402.92 L 326.51 402.92 L 326.37 402.92 L 326.28 402.92 L 326.16 402.92 L 325.96 402.92 L 325.93 402.92 L 325.37 402.92 L 325.17 402.92 L 324.97 402.92 L 324.09 402.92 L 323.93 402.92 L 323.92 402.92 L 323.35 402.92 L 323.34 402.92 L 323.29 402.92 L 323.15 402.92 L 323.00 402.92 L 322.94 402.92 L 322.93 402.92 L 322.77 402.92 L 322.42 402.92 L 322.13 402.92 L 321.93 402.92 L 321.81 402.92 L 321.34 402.92 L 321.02 402.92 L 320.95 402.92 L 320.27 402.92 L 320.24 402.92 L 320.13 402.92 L 319.91 402.92 L 319.85 402.92 L 319.69 402.92 L 319.57 402.92 L 319.38 402.92 L 319.36 402.92 L 319.27 402.92 L 319.27 402.92 L 318.63 402.92 L 318.29 402.92 L 318.29 402.92 L 318.08 402.92 L 318.00 402.92 L 317.89 402.92 L 317.79 402.92 L 317.79 402.92 L 317.72 402.92 L 316.90 402.92 L 316.37 402.92 L 316.14 402.92 L 315.90 402.92 L 315.57 402.92 L 315.48 402.92 L 315.45 402.92 L 315.30 402.92 L 315.09 402.92 L 315.01 402.92 L 314.92 402.92 L 314.87 402.92 L 314.64 402.92 L 314.01 402.92 L 313.96 402.92 L 313.88 402.92 L 313.76 402.92 L 313.56 402.92 L 313.35 402.92 L 313.12 402.92 L 312.57 402.92 L 312.52 402.92 L 312.48 402.92 L 312.36 402.92 L 311.99 402.92 L 311.95 402.92 L 311.94 402.92 L 311.82 402.92 L 311.61 402.92 L 311.55 402.92 L 311.42 402.92 L 311.02 402.92 L 310.83 402.92 L 310.82 402.92 L 310.46 402.92 L 310.32 402.92 L 310.19 402.92 L 309.97 402.92 L 309.36 402.92 L 309.29 402.92 L 308.62 402.92 L 308.33 402.92 L 308.13 402.92 L 307.53 402.92 L 307.42 402.92 L 307.29 402.92 L 307.16 402.92 L 307.06 402.92 L 307.00 402.92 L 306.99 402.92 L 306.68 402.92 L 306.39 402.92 L 306.22 402.92 L 305.86 402.92 L 305.84 402.92 L 305.72 402.92 L 305.47 402.92 L 305.42 402.92 L 304.97 402.92 L 304.55 402.92 L 304.19 402.92 L 304.03 402.92 L 302.85 402.92 L 302.58 402.92 L 302.49 402.92 L 302.34 402.92 L 302.22 402.92 L 302.10 402.92 L 302.07 402.92 L 301.76 402.92 L 301.63 402.92 L 301.43 402.92 L 301.34 402.92 L 301.33 402.92 L 300.54 402.92 L 300.54 402.92 L 300.38 402.92 L 300.31 402.92 L 299.84 402.92 L 299.68 402.92 L 299.57 402.92 L 299.37 402.92 L 298.93 402.92 L 298.79 402.92 L 298.79 402.92 L 298.52 402.92 L 298.40 402.92 L 298.30 402.92 L 297.95 402.92 L 297.47 402.92 L 297.12 402.92 L 296.95 402.92 L 296.93 402.92 L 296.92 402.92 L 296.78 402.92 L 296.68 402.92 L 296.67 402.92 L 296.49 402.92 L 296.45 402.92 L 296.35 402.92 L 295.88 402.92 L 295.78 402.92 L 295.12 402.92 L 294.97 402.92 L 294.90 402.92 L 294.73 402.92 L 294.59 402.92 L 293.31 402.92 L 292.76 402.92 L 292.66 402.92 L 292.51 402.92 L 292.23 402.92 L 292.16 402.92 L 292.16 402.92 L 291.85 402.92 L 291.67 402.92 L 291.06 402.92 L 290.99 402.92 L 290.68 402.92 L 290.65 402.92 L 290.23 402.92 L 290.10 402.92 L 289.97 402.92 L 289.93 402.92 L 289.74 402.92 L 289.46 402.92 L 289.25 402.92 L 289.22 402.92 L 289.19 402.92 L 289.15 402.92 L 289.13 402.92 L 288.52 402.92 L 288.07 402.92 L 288.01 402.92 L 287.64 402.92 L 287.49 402.92 L 287.27 402.92 L 287.22 402.92 L 286.84 402.92 L 286.47 402.92 L 286.39 402.92 L 286.10 402.92 L 286.02 402.92 L 285.78 402.92 L 285.64 402.92 L 285.60 402.92 L 285.35 402.92 L 284.91 402.92 L 284.69 402.92 L 284.67 402.92 L 284.54 402.92 L 283.94 402.92 L 283.73 402.92 L 283.28 402.92 L 283.25 402.92 L 283.22 402.92 L 283.12 402.92 L 282.98 402.92 L 282.92 402.92 L 282.87 402.92 L 282.81 402.92 L 282.53 402.92 L 282.47 402.92 L 282.27 402.92 L 282.07 402.92 L 281.92 402.92 L 281.31 402.92 L 281.28 402.92 L 281.16 402.92 L 281.03 402.92 L 280.97 402.92 L 280.93 402.92 L 280.55 402.92 L 280.48 402.92 L 280.47 402.92 L 280.40 402.92 L 279.07 402.92 L 278.89 402.92 L 278.54 402.92 L 278.54 402.92 L 278.33 402.92 L 278.25 402.92 L 278.24 402.92 L 278.13 402.92 L 277.67 402.92 L 277.67 402.92 L 277.61 402.92 L 277.34 402.92 L 277.18 402.92 L 276.87 402.92 L 276.78 402.92 L 276.61 402.92 L 276.44 402.92 L 276.17 402.92 L 276.16 402.92 L 275.56 402.92 L 275.50 402.92 L 275.34 402.92 L 275.31 402.92 L 275.31 402.92 L 275.13 402.92 L 275.13 402.92 L 274.92 402.92 L 274.64 402.92 L 274.56 402.92 L 273.97 402.92 L 273.70 402.92 L 273.69 402.92 L 273.58 402.92 L 273.51 402.92 L 273.47 402.92 L 273.32 402.92 L 272.88 402.92 L 272.77 402.92 L 272.65 402.92 L 271.29 402.92 L 271.12 402.92 L 271.02 402.92 L 270.95 402.92 L 270.90 402.92 L 270.18 402.92 L 270.16 402.92 L 269.78 402.92 L 269.68 402.92 L 269.68 402.92 L 269.46 402.92 L 269.23 402.92 L 269.12 402.92 L 268.67 402.92 L 268.40 402.92 L 268.34 402.92 L 268.04 402.92 L 267.94 402.92 L 267.86 402.92 L 267.70 402.92 L 267.70 402.92 L 267.19 402.92 L 267.01 402.92 L 266.88 402.92 L 266.64 402.92 L 266.60 402.92 L 266.51 402.92 L 266.49 402.92 L 266.41 402.92 L 266.37 402.92 L 266.26 402.92 L 266.01 402.92 L 265.82 402.92 L 265.78 402.92 L 265.73 402.92 L 265.60 402.92 L 265.17 402.92 L 265.11 402.92 L 265.10 402.92 L 265.03 402.92 L 264.61 402.92 L 264.53 402.92 L 264.38 402.92 L 264.16 402.92 L 263.05 402.92 L 262.79 402.92 L 262.69 402.92 L 262.55 402.92 L 262.46 402.92 L 262.41 402.92 L 262.27 402.92 L 262.06 402.92 L 262.06 402.92 L 261.85 402.92 L 261.73 402.92 L 261.71 402.92 L 261.25 402.92 L 260.84 402.92 L 260.65 402.92 L 260.57 402.92 L 259.60 402.92 L 259.59 402.92 L 259.53 402.92 L 259.52 402.92 L 259.50 402.92 L 259.48 402.92 L 259.21 402.92 L 259.04 402.92 L 258.81 402.92 L 258.66 402.92 L 258.51 402.92 L 258.42 402.92 L 258.04 402.92 L 257.73 402.92 L 257.67 402.92 L 257.56 402.92 L 257.45 402.92 L 257.41 402.92 L 257.07 402.92 L 257.03 402.92 L 256.45 402.92 L 256.43 402.92 L 256.34 402.92 L 256.32 402.92 L 256.12 402.92 L 256.08 402.92 L 255.89 402.92 L 255.42 402.92 L 255.21 402.92 L 255.21 402.92 L 255.21 402.92 L 254.67 402.92 L 254.47 402.92 L 254.43 402.92 L 254.43 402.92 L 253.93 402.92 L 253.69 402.92 L 253.57 402.92 L 253.15 402.92 L 253.14 402.92 L 252.94 402.92 L 252.92 402.92 L 252.89 402.92 L 252.51 402.92 L 252.49 402.92 L 252.40 402.92 L 252.29 402.92 L 251.91 402.92 L 251.85 402.92 L 251.56 402.92 L 251.54 402.92 L 251.39 402.92 L 251.14 402.92 L 251.01 402.92 L 250.84 402.92 L 250.59 402.92 L 250.25 402.92 L 250.23 402.92 L 250.03 402.92 L 249.80 402.92 L 249.75 402.92 L 249.74 402.92 L 249.66 402.92 L 249.63 402.92 L 249.53 402.92 L 249.16 402.92 L 248.84 402.92 L 248.76 402.92 L 248.60 402.92 L 248.23 402.92 L 248.02 402.92 L 247.89 402.92 L 247.75 402.92 L 247.66 402.92 L 247.65 402.92 L 247.62 402.92 L 247.47 402.92 L 247.40 402.92 L 246.97 402.92 L 246.94 402.92 L 246.94 402.92 L 246.87 402.92 L 246.79 402.92 L 246.65 402.92 L 246.11 402.92 L 246.11 402.92 L 245.99 402.92 L 245.80 402.92 L 245.44 402.92 L 245.29 402.92 L 245.11 402.92 L 244.82 402.92 L 244.57 402.92 L 244.10 402.92 L 243.79 402.92 L 243.74 402.92 L 243.71 402.92 L 243.16 402.92 L 243.05 402.92 L 242.97 402.92 L 242.86 402.92 L 242.68 402.92 L 242.04 402.92 L 242.00 402.92 L 241.92 402.92 L 241.79 402.92 L 241.77 402.92 L 241.72 402.92 L 241.19 402.92 L 241.00 402.92 L 240.39 402.92 L 240.20 402.92 L 240.14 402.92 L 240.08 402.92 L 239.63 402.92 L 239.47 402.92 L 239.27 402.92 L 238.84 402.92 L 238.62 402.92 L 238.46 402.92 L 238.40 402.92 L 237.99 402.92 L 237.87 402.92 L 237.46 402.92 L 237.42 402.92 L 237.41 402.92 L 236.62 402.92 L 236.34 402.92 L 236.24 402.92 L 236.12 402.92 L 235.73 402.92 L 235.29 402.92 L 234.92 402.92 L 234.79 402.92 L 234.75 402.92 L 234.60 402.92 L 234.40 402.92 L 234.17 402.92 L 234.11 402.92 L 234.09 402.92 L 233.77 402.92 L 233.29 402.92 L 233.08 402.92 L 232.87 402.92 L 232.53 402.92 L 232.49 402.92 L 232.35 402.92 L 232.16 402.92 L 231.93 402.92 L 231.93 402.92 L 231.85 402.92 L 231.70 402.92 L 231.37 402.92 L 231.22 402.92 L 231.17 402.92 L 231.15 402.92 L 230.94 402.92 L 230.02 402.92 L 229.76 402.92 L 229.45 402.92 L 229.44 402.92 L 229.10 402.92 L 229.01 402.92 L 228.68 402.92 L 228.55 402.92 L 228.39 402.92 L 227.83 402.92 L 227.80 402.92 L 227.51 402.92 L 227.49 402.92 L 227.43 402.92 L 227.25 402.92 L 227.21 402.92 L 226.92 402.92 L 226.91 402.92 L 226.87 402.92 L 226.84 402.92 L 226.81 402.92 L 226.80 402.92 L 226.79 402.92 L 226.58 402.92 L 226.57 402.92 L 226.21 402.92 L 226.10 402.92 L 226.09 402.92 L 225.76 402.92 L 225.76 402.92 L 225.72 402.92 L 225.62 402.92 L 225.39 402.92 L 225.35 402.92 L 225.26 402.92 L 225.10 402.92 L 225.08 402.92 L 225.06 402.92 L 225.01 402.92 L 224.81 402.92 L 224.62 402.92 L 224.50 402.92 L 224.38 402.92 L 223.82 402.92 L 223.43 402.92 L 223.09 402.92 L 222.79 402.92 L 221.68 402.92 L 221.47 402.92 L 220.81 402.92 L 220.53 402.92 L 220.36 402.92 L 220.19 402.92 L 219.91 402.92 L 219.88 402.92 L 219.74 402.92 L 219.55 402.92 L 219.48 402.92 L 219.07 402.92 L 218.99 402.92 L 218.68 402.92 L 218.61 402.92 L 218.29 402.92 L 218.03 402.92 L 217.98 402.92 L 217.57 402.92 L 217.56 402.92 L 217.49 402.92 L 217.45 402.92 L 217.32 402.92 L 217.13 402.92 L 217.02 402.92 L 216.87 402.92 L 216.68 402.92 L 216.65 402.92 L 216.24 402.92 L 216.20 402.92 L 216.01 402.92 L 215.98 402.92 L 215.78 402.92 L 215.78 402.92 L 215.35 402.92 L 215.31 402.92 L 215.28 402.92 L 214.97 402.92 L 214.95 402.92 L 214.90 402.92 L 214.87 402.92 L 214.77 402.92 L 214.62 402.92 L 214.39 402.92 L 214.29 402.92 L 214.11 402.92 L 214.09 402.92 L 213.73 402.92 L 213.62 402.92 L 213.56 402.92 L 213.47 402.92 L 213.44 402.92 L 212.76 402.92 L 212.62 402.92 L 211.83 402.92 L 211.72 402.92 L 211.55 402.92 L 211.40 402.92 L 210.93 402.92 L 210.70 402.92 L 210.64 402.92 L 210.61 402.92 L 210.55 402.92 L 210.40 402.92 L 210.33 402.92 L 210.20 402.92 L 209.75 402.92 L 209.73 402.92 L 209.39 402.92 L 209.33 402.92 L 209.15 402.92 L 209.07 402.92 L 209.00 402.92 L 208.91 402.92 L 208.90 402.92 L 208.49 402.92 L 208.47 402.92 L 208.47 402.92 L 208.42 402.92 L 208.23 402.92 L 207.86 402.92 L 207.74 402.92 L 207.73 402.92 L 207.59 402.92 L 207.49 402.92 L 207.33 402.92 L 207.14 402.92 L 207.10 402.92 L 206.88 402.92 L 206.83 402.92 L 206.20 402.92 L 206.20 402.92 L 206.00 402.92 L 205.85 402.92 L 205.49 402.92 L 205.31 402.92 L 205.27 402.92 L 205.01 402.92 L 204.89 402.92 L 204.68 402.92 L 204.17 402.92 L 204.13 402.92 L 204.05 402.92 L 203.47 402.92 L 203.41 402.92 L 203.27 402.92 L 203.27 402.92 L 203.13 402.92 L 202.93 402.92 L 202.65 402.92 L 202.26 402.92 L 202.23 402.92 L 202.17 402.92 L 202.10 402.92 L 201.98 402.92 L 201.35 402.92 L 201.19 402.92 L 201.11 402.92 L 201.10 402.92 L 201.06 402.92 L 200.98 402.92 L 199.85 402.92 L 199.78 402.92 L 199.75 402.92 L 199.50 402.92 L 199.17 402.92 L 199.11 402.92 L 199.05 402.92 L 198.74 402.92 L 198.25 402.92 L 197.94 402.92 L 197.33 402.92 L 197.31 402.92 L 197.11 402.92 L 196.85 402.92 L 196.81 402.92 L 196.80 402.92 L 196.77 402.92 L 196.73 402.92 L 196.28 402.92 L 196.20 402.92 L 196.09 402.92 L 195.84 402.92 L 195.83 402.92 L 195.68 402.92 L 195.43 402.92 L 195.35 402.92 L 194.94 402.92 L 194.87 402.92 L 194.82 402.92 L 193.66 402.92 L 193.55 402.92 L 193.40 402.92 L 193.36 402.92 L 193.31 402.92 L 192.89 402.92 L 192.88 402.92 L 192.76 402.92 L 192.56 402.92 L 192.50 402.92 L 192.20 402.92 L 192.14 402.92 L 192.02 402.92 L 191.77 402.92 L 191.66 402.92 L 191.14 402.92 L 191.00 402.92 L 190.98 402.92 L 190.90 402.92 L 190.69 402.92 L 190.65 402.92 L 190.45 402.92 L 190.37 402.92 L 190.04 402.92 L 189.91 402.92 L 189.81 402.92 L 189.79 402.92 L 189.04 402.92 L 188.85 402.92 L 188.74 402.92 L 188.65 402.92 L 188.52 402.92 L 188.45 402.92 L 188.39 402.92 L 188.02 402.92 L 187.96 402.92 L 187.46 402.92 L 187.19 402.92 L 187.02 402.92 L 187.00 402.92 L 186.83 402.92 L 186.69 402.92 L 186.60 402.92 L 186.56 402.92 L 186.50 402.92 L 186.34 402.92 L 186.24 402.92 L 186.17 402.92 L 185.90 402.92 L 185.82 402.92 L 185.79 402.92 L 185.69 402.92 L 185.65 402.92 L 185.21 402.92 L 185.19 402.92 L 185.15 402.92 L 184.87 402.92 L 184.49 402.92 L 184.24 402.92 L 184.03 402.92 L 183.95 402.92 L 183.43 402.92 L 183.33 402.92 L 183.25 402.92 L 183.18 402.92 L 182.72 402.92 L 182.26 402.92 L 182.24 402.92 L 182.14 402.92 L 181.63 402.92 L 181.18 402.92 L 180.76 402.92 L 180.74 402.92 L 180.46 402.92 L 180.32 402.92 L 180.09 402.92 L 179.75 402.92 L 179.57 402.92 L 179.55 402.92 L 179.15 402.92 L 178.81 402.92 L 178.73 402.92 L 178.65 402.92 L 178.59 402.92 L 178.51 402.92 L 178.41 402.92 L 178.40 402.92 L 178.35 402.92 L 177.95 402.92 L 177.92 402.92 L 177.85 402.92 L 177.80 402.92 L 177.59 402.92 L 177.51 402.92 L 177.31 402.92 L 177.17 402.92 L 176.93 402.92 L 176.92 402.92 L 176.68 402.92 L 176.67 402.92 L 176.52 402.92 L 176.28 402.92 L 175.82 402.92 L 174.70 402.92 L 174.23 402.92 L 173.81 402.92 L 173.81 402.92 L 173.76 402.92 L 173.54 402.92 L 173.34 402.92 L 173.28 402.92 L 172.96 402.92 L 172.56 402.92 L 172.53 402.92 L 172.47 402.92 L 171.28 402.92 L 171.07 402.92 L 170.85 402.92 L 170.77 402.92 L 170.21 402.92 L 170.00 402.92 L 169.98 402.92 L 169.88 402.92 L 169.70 402.92 L 169.67 402.92 L 169.60 402.92 L 169.11 402.92 L 168.96 402.92 L 168.95 402.92 L 168.95 402.92 L 168.84 402.92 L 168.81 402.92 L 168.41 402.92 L 168.13 402.92 L 168.09 402.92 L 168.03 402.92 L 168.00 402.92 L 167.96 402.92 L 167.73 402.92 L 167.57 402.92 L 167.47 402.92 L 167.40 402.92 L 167.30 402.92 L 166.94 402.92 L 166.78 402.92 L 166.71 402.92 L 165.82 402.92 L 165.82 402.92 L 165.67 402.92 L 165.55 402.92 L 165.54 402.92 L 165.43 402.92 L 165.41 402.92 L 165.40 402.92 L 165.37 402.92 L 165.32 402.92 L 165.10 402.92 L 164.76 402.92 L 164.62 402.92 L 164.55 402.92 L 164.43 402.92 L 163.64 402.92 L 163.54 402.92 L 163.23 402.92 L 162.61 402.92 L 162.03 402.92 L 161.32 402.92 L 161.27 402.92 L 161.21 402.92 L 160.80 402.92 L 160.80 402.92 L 160.79 402.92 L 160.70 402.92 L 160.30 402.92 L 160.13 402.92 L 160.05 402.92 L 159.54 402.92 L 159.31 402.92 L 158.42 402.92 L 158.20 402.92 L 157.71 402.92 L 157.48 402.92 L 157.27 402.92 L 157.17 402.92 L 157.08 402.92 L 157.01 402.92 L 156.98 402.92 L 156.63 402.92 L 156.23 402.92 L 156.19 402.92 L 155.91 402.92 L 155.69 402.92 L 155.55 402.92 L 155.32 402.92 L 155.27 402.92 L 154.96 402.92 L 154.70 402.92 L 154.56 402.92 L 154.09 402.92 L 152.92 402.92 L 151.88 402.92 L 151.34 402.92 L 151.05 402.92 L 150.61 402.92 L 149.96 402.92 L 148.09 402.92 L 147.75 402.92 L 147.45 402.92 L 147.42 402.92 L 147.00 402.92 L 146.96 402.92 L 146.51 402.92 L 146.39 402.92 L 145.32 402.92 L 145.06 402.92 L 144.01 402.92 L 143.17 402.92 L 142.88 402.92 L 142.09 402.92 L 140.59 402.92 L 140.39 402.92 L 140.21 402.92 L 139.29 402.92 L 139.16 402.92 L 137.28 402.92 L 137.21 402.92 L 136.81 402.92 L 136.47 402.92 L 135.87 402.92 L 135.62 402.92 L 135.31 402.92 L 135.06 402.92 L 134.89 402.92 L 134.24 402.92 L 133.26 402.92 L 132.40 402.92 L 132.07 402.92 L 131.63 402.92 L 131.62 402.92 L 130.88 402.92 L 130.46 402.92 L 130.37 402.92 L 130.03 402.92 L 129.97 402.92 L 129.63 402.92 L 129.41 402.92 L 129.17 402.92 L 128.51 402.92 L 128.48 402.92 L 127.51 402.92 L 127.41 402.92 L 127.35 402.92 L 127.01 402.92 L 126.69 402.92 L 126.46 402.92 L 126.34 402.92 L 126.00 402.92 L 125.77 402.92 L 124.53 402.92 L 124.17 402.92 L 124.10 402.92 L 123.51 402.92 L 123.15 402.92 L 122.90 402.92 L 122.74 402.92 L 122.35 402.92 L 122.00 402.92 L 121.92 402.92 L 121.61 402.92 L 121.41 402.92 L 120.57 402.92 L 120.22 402.92 L 119.64 402.92 L 119.35 402.92 L 118.75 402.92 L 118.51 402.92 L 118.11 402.92 L 117.68 402.92 L 117.59 402.92 L 117.05 402.92 L 116.38 402.92 L 116.24 402.92 L 116.05 402.92 L 115.60 402.92 L 115.26 402.92 L 114.37 402.92 L 113.49 402.92 L 112.17 402.92 L 111.57 402.92 L 111.16 402.92 L 109.83 402.92 L 109.64 402.92 L 109.48 402.92 L 109.20 402.92 L 108.93 402.92 L 108.66 402.92 L 108.64 402.92 L 107.79 402.92 L 107.57 402.92 L 107.14 402.92 L 106.08 402.92 L 105.77 402.92 L 105.63 402.92 L 104.82 402.92 L 104.54 402.92 L 103.81 402.92 L 103.54 402.92 L 103.45 402.92 L 102.58 402.92 L 102.36 402.92 L 102.22 402.92 L 102.11 402.92 L 101.84 402.92 L 101.65 402.92 L 101.28 402.92 L 101.27 402.92 L 100.94 402.92 L 100.76 402.92 L 100.20 402.92 L 99.23 402.92 L 99.20 402.92 L 98.15 402.92 L 98.08 402.92 L 96.54 402.92 L 96.22 402.92 L 95.92 402.92 L 95.52 402.92 L 95.46 402.92 L 95.18 402.92 L 94.87 402.92 L 94.39 402.92 L 93.96 402.92 L 93.53 402.92 L 93.42 402.92 L 93.34 402.92 L 92.76 402.92 L 92.21 402.92 L 91.85 402.92 L 91.85 402.92 L 90.56 402.92 L 89.50 402.92 L 89.07 402.92 L 88.95 402.92 L 88.67 402.92 L 88.31 402.92 L 88.28 402.92 L 88.05 402.92 L 87.86 402.92 L 87.77 402.92 L 87.72 402.92 L 87.61 402.92 L 87.12 402.92 L 86.19 402.92 L 85.92 402.92 L 85.79 402.92 L 84.91 402.92 L 84.83 402.92 L 84.80 402.92 L 84.73 402.92 L 83.83 402.92 L 83.70 402.92 L 83.48 402.92 L 83.29 402.92 L 83.28 402.92 L 82.76 402.92 L 82.55 402.92 L 82.49 402.92 L 82.25 402.92 L 82.15 402.92 L 81.62 402.92 L 81.50 402.92 L 81.25 402.92 L 80.82 402.92 L 80.08 402.92 L 79.78 402.92 L 79.18 402.92 L 78.76 402.92 L 78.47 402.92 L 78.24 402.92 L 78.23 402.92 L 78.04 402.92 L 78.03 402.92 L 77.97 402.92 L 77.33 402.92 L 77.00 402.92 L 76.84 402.92 L 76.54 402.92 L 75.53 402.92 L 75.04 402.92 L 74.61 402.92 L 73.62 402.92 L 73.28 402.92 L 73.06 402.92 L 72.61 402.92 L 72.05 402.92 L 71.97 402.92 L 71.63 402.92 L 71.58 402.92 L 69.65 402.92 L 67.82 402.92 L 67.42 402.92 L 66.97 402.92 L 66.92 402.92 L 65.89 402.92 L 65.54 402.92 L 65.45 402.92 L 65.09 402.92 L 65.05 402.92 L 64.19 402.92 L 64.17 402.92 L 64.00 402.92 L 63.59 402.92 L 63.13 402.92 L 62.70 402.92 L 62.13 402.92 L 62.09 402.92 L 61.61 402.92 L 61.50 402.92 L 61.43 402.92 L 61.09 402.92 L 60.88 402.92 L 60.64 402.92 L 60.58 402.92 L 60.20 402.92 L 59.52 402.92 L 58.56 402.92 L 57.74 402.92 L 56.93 402.92 L 55.68 402.92 L 55.58 402.92 L 55.32 402.92 L 55.14 402.92 L 54.12 402.92 L 53.39 402.92 L 52.93 402.92 L 52.80 402.92 L 52.44 402.92 L 52.08 402.92 L 51.39 402.92 L 50.66 402.92 L 50.60 402.92 L 50.49 402.92 L 48.42 402.92 L 48.30 402.92 L 48.23 402.92 L 47.78 402.92 L 46.81 402.92 L 45.92 402.92 L 45.44 402.92 L 45.26 402.92 L 44.99 402.92 L 44.43 402.92 L 43.80 402.92 L 43.25 402.92 L 43.15 402.92 L 43.13 402.92 L 42.56 402.92 L 42.29 402.92 L 40.22 402.92 L 39.05 402.92 L 38.81 402.92 L 38.63 402.92 L 38.57 402.92 L 38.51 402.92 L 37.89 402.92 L 37.39 402.92 L 37.35 402.92 L 37.26 402.92 L 36.95 402.92 L 36.06 402.92 L 35.54 402.92 L 35.06 402.92 L 35.00 402.92 L 34.84 402.92 L 34.68 402.92 L 34.36 402.92 L 34.34 402.92 L 33.81 402.92 L 33.32 402.92 L 33.30 402.92 L 32.66 402.92 L 32.19 402.92 L 31.10 402.92 L 30.87 402.92 L 30.76 402.92 L 30.60 402.92 L 30.38 402.92 L 30.07 402.92 L 29.45 402.92 L 29.29 402.92 L 28.59 402.92 L 26.91 402.92 L 26.90 402.92 L 26.64 402.92 L 25.53 402.92 L 25.32 402.92 L 25.07 402.92 L 23.63 402.92 L 22.97 402.92 L 22.75 402.92 L 22.53 402.92 L 22.41 402.92 L 21.67 402.92 L 21.45 402.92 L 21.39 402.92 L 21.29 402.92 L 21.28 402.92 L 21.08 402.92 L 21.06 402.92 L 20.98 402.92 L 20.76 402.92 L 20.75 402.92 L 20.73 402.92 L 20.69 402.92 L 20.36 402.92 L 20.27 402.92 L 20.25 402.92 L 20.19 402.92 L 20.10 402.92 L 19.96 402.92 L 19.86 402.92 L 19.43 402.92 L 19.17 402.92 L 19.06 402.92 L 18.77 402.92 L 18.47 402.92 L 18.46 402.92 L 18.33 402.92 L 18.32 402.92 L 17.94 402.92 L 17.85 402.92 L 17.66 402.92 L 17.54 402.92 L 17.50 402.92 L 17.30 402.92 L 17.14 402.92 L 16.29 402.92 L 16.09 402.92 L 15.70 402.92 L 15.45 402.92 L 15.40 402.92 L 15.15 402.92 L 15.13 402.92 L 14.77 402.92 L 14.47 402.92 L 14.42 402.92 L 14.08 402.92 L 14.07 402.92 L 14.02 402.92 L 13.87 402.92 L 13.76 402.92 L 13.22 402.92 L 13.22 402.92 L 13.07 402.92 L 12.87 402.92 L 11.29 402.92 L 11.25 402.92 L 11.14 402.92 L 10.86 402.92 L 10.83 402.92 L 10.77 402.92 L 10.54 402.92 L 10.51 402.92 L 10.44 402.92 L 10.36 402.92 L 9.48 402.92 L 8.10 402.92 L 8.10 402.92 L 7.73 402.92 L 7.63 402.92 L 7.58 402.92 L 7.32 402.92 L 7.04 402.92 L 6.68 402.92 L 6.57 402.92 L 6.47 402.92 L 6.37 402.92 L 6.33 402.92 L 6.19 402.92 L 6.07 402.92 L 5.99 402.92 L 5.99 402.92 L 5.62 402.92 L 5.43 402.92 L 5.16 402.92 L 4.98 402.92 L 4.86 402.92 L 4.79 402.92 L 4.71 402.92 L 4.59 402.92 L 4.34 402.92 L 3.86 402.92 L 3.54 402.92 L 3.46 402.92 L 3.17 402.92 L 2.64 402.92 L 2.56 402.92 L 1.84 402.92 L 1.84 402.92 L 1.35 402.92 L 0.93 402.92 L 0.74 402.92 L 0.30 402.92 L 0.15 402.92 L 0.00 402.92 L 0.00 402.90 L 0.00 402.81 L 0.00 402.71 L 0.00 402.52 L 0.00 402.36 L 0.00 401.94 L 0.00 401.81 L 0.00 401.61 L 0.00 401.52 L 0.00 401.23 L 0.00 401.15 L 0.00 401.06 L 0.00 400.78 L 0.00 400.74 L 0.00 400.56 L 0.00 400.28 L 0.00 399.87 L 0.00 399.84 L 0.00 399.63 L 0.00 399.42 L 0.00 399.39 L 0.00 399.16 L 0.00 399.13 L 0.00 398.84 L 0.00 398.78 L 0.00 398.75 L 0.00 398.68 L 0.00 398.42 L 0.00 398.42 L 0.00 398.04 L 0.00 397.65 L 0.00 397.52 L 0.00 397.50 L 0.00 397.34 L 0.00 397.29 L 0.00 397.16 L 0.00 396.33 L 0.00 396.28 L 0.00 396.24 L 0.00 396.02 L 0.00 395.79 L 0.00 395.73 L 0.00 395.71 L 0.00 395.38 L 0.00 395.02 L 0.00 394.99 L 0.00 394.92 L 0.00 394.41 L 0.00 394.05 L 0.00 393.84 L 0.00 393.59 L 0.00 393.44 L 0.00 393.25 L 0.00 393.15 L 0.00 393.02 L 0.00 392.87 L 0.00 392.81 L 0.00 392.76 L 0.00 392.12 L 0.00 392.09 L 0.00 392.08 L 0.00 392.01 L 0.00 391.99 L 0.00 391.93 L 0.00 391.20 L 0.00 390.84 L 0.00 390.76 L 0.00 390.56 L 0.00 390.56 L 0.00 390.28 L 0.00 390.00 L 0.00 389.94 L 0.00 389.91 L 0.00 389.90 L 0.00 389.75 L 0.00 389.70 L 0.00 389.53 L 0.00 389.37 L 0.00 388.92 L 0.00 388.72 L 0.00 388.70 L 0.00 388.64 L 0.00 388.10 L 0.00 387.81 L 0.00 387.33 L 0.00 386.48 L 0.00 386.27 L 0.00 386.20 L 0.00 386.19 L 0.00 386.15 L 0.00 386.06 L 0.00 385.97 L 0.00 385.83 L 0.00 385.42 L 0.00 385.10 L 0.00 384.97 L 0.00 384.97 L 0.00 384.90 L 0.00 384.64 L 0.00 384.61 L 0.00 384.51 L 0.00 384.33 L 0.00 383.57 L 0.00 383.52 L 0.00 383.50 L 0.00 383.34 L 0.00 383.32 L 0.00 383.31 L 0.00 383.14 L 0.00 382.47 L 0.00 382.32 L 0.00 382.29 L 0.00 382.19 L 0.00 381.87 L 0.00 381.79 L 0.00 381.74 L 0.00 381.74 L 0.00 381.62 L 0.00 381.48 L 0.00 381.15 L 0.00 381.08 L 0.00 381.04 L 0.00 380.95 L 0.00 380.90 L 0.00 380.76 L 0.00 380.58 L 0.00 380.53 L 0.00 380.48 L 0.00 380.26 L 0.00 380.14 L 0.00 380.12 L 0.00 379.99 L 0.00 379.75 L 0.00 379.73 L 0.00 379.68 L 0.00 379.48 L 0.00 379.03 L 0.00 378.87 L 0.00 378.77 L 0.00 378.51 L 0.00 378.42 L 0.00 378.33 L 0.00 378.18 L 0.00 377.69 L 0.00 377.54 L 0.00 377.54 L 0.00 377.40 L 0.00 377.39 L 0.00 377.37 L 0.00 377.37 L 0.00 377.30 L 0.00 377.21 L 0.00 377.08 L 0.00 376.96 L 0.00 376.68 L 0.00 376.56 L 0.00 376.34 L 0.00 376.30 L 0.00 376.10 L 0.00 376.09 L 0.00 375.44 L 0.00 374.93 L 0.00 374.52 L 0.00 374.37 L 0.00 374.31 L 0.00 374.14 L 0.00 374.09 L 0.00 374.09 L 0.00 373.46 L 0.00 373.45 L 0.00 373.27 L 0.00 373.26 L 0.00 373.19 L 0.00 372.95 L 0.00 372.36 L 0.00 372.27 L 0.00 371.99 L 0.00 371.75 L 0.00 371.57 L 0.00 371.53 L 0.00 371.40 L 0.00 371.36 L 0.00 371.12 L 0.00 371.02 L 0.00 371.00 L 0.00 370.96 L 0.00 370.81 L 0.00 370.80 L 0.00 370.79 L 0.00 370.34 L 0.00 370.21 L 0.00 370.19 L 0.00 369.99 L 0.00 369.85 L 0.00 369.72 L 0.00 369.72 L 0.00 369.51 L 0.00 369.09 L 0.00 368.10 L 0.00 368.03 L 0.00 367.48 L 0.00 367.18 L 0.00 366.89 L 0.00 366.71 L 0.00 366.61 L 0.00 365.95 L 0.00 365.47 L 0.00 364.80 L 0.00 364.36 L 0.00 364.32 L 0.00 363.75 L 0.00 363.43 L 0.00 363.43 L 0.00 362.94 L 0.00 362.87 L 0.00 362.61 L 0.00 362.38 L 0.00 362.35 L 0.00 362.14 L 0.00 362.09 L 0.00 361.51 L 0.00 361.25 L 0.00 361.18 L 0.00 361.15 L 0.00 360.98 L 0.00 360.40 L 0.00 360.15 L 0.00 360.03 L 0.00 359.76 L 0.00 359.76 L 0.00 359.57 L 0.00 359.57 L 0.00 359.51 L 0.00 359.40 L 0.00 358.52 L 0.00 358.43 L 0.00 358.43 L 0.00 358.02 L 0.00 357.90 L 0.00 357.57 L 0.00 357.50 L 0.00 357.41 L 0.00 357.23 L 0.00 357.19 L 0.00 357.18 L 0.00 357.15 L 0.00 357.05 L 0.00 357.05 L 0.00 356.80 L 0.00 356.41 L 0.00 356.00 L 0.00 355.88 L 0.00 355.86 L 0.00 355.49 L 0.00 355.39 L 0.00 355.24 L 0.00 355.24 L 0.00 355.09 L 0.00 355.06 L 0.00 354.85 L 0.00 354.67 L 0.00 354.65 L 0.00 354.47 L 0.00 354.27 L 0.00 354.26 L 0.00 354.11 L 0.00 353.43 L 0.00 353.39 L 0.00 353.00 L 0.00 352.83 L 0.00 352.75 L 0.00 352.39 L 0.00 352.30 L 0.00 351.31 L 0.00 351.18 L 0.00 351.14 L 0.00 350.98 L 0.00 350.80 L 0.00 350.62 L 0.00 350.60 L 0.00 350.56 L 0.00 350.27 L 0.00 350.25 L 0.00 349.99 L 0.00 349.86 L 0.00 349.82 L 0.00 349.69 L 0.00 349.55 L 0.00 349.49 L 0.00 348.87 L 0.00 348.53 L 0.00 348.33 L 0.00 348.17 L 0.00 347.68 L 0.00 347.65 L 0.00 347.60 L 0.00 347.49 L 0.00 346.73 L 0.00 346.63 L 0.00 346.43 L 0.00 346.41 L 0.00 346.36 L 0.00 345.96 L 0.00 345.86 L 0.00 345.84 L 0.00 345.50 L 0.00 345.38 L 0.00 345.32 L 0.00 344.09 L 0.00 343.62 L 0.00 342.32 L 0.00 342.01 L 0.00 341.88 L 0.00 341.57 L 0.00 341.28 L 0.00 341.23 L 0.00 341.19 L 0.00 340.63 L 0.00 340.61 L 0.00 340.51 L 0.00 340.17 L 0.00 340.12 L 0.00 339.98 L 0.00 339.94 L 0.00 339.52 L 0.00 339.36 L 0.00 338.99 L 0.00 338.77 L 0.00 338.65 L 0.00 337.94 L 0.00 337.94 L 0.00 337.40 L 0.00 337.14 L 0.00 336.78 L 0.00 336.22 L 0.00 336.08 L 0.00 335.86 L 0.00 335.81 L 0.00 335.71 L 0.00 335.43 L 0.00 335.31 L 0.00 335.03 L 0.00 334.91 L 0.00 334.90 L 0.00 334.53 L 0.00 334.51 L 0.00 334.27 L 0.00 334.16 L 0.00 333.42 L 0.00 333.37 L 0.00 332.77 L 0.00 332.60 L 0.00 332.53 L 0.00 332.35 L 0.00 332.33 L 0.00 331.92 L 0.00 331.07 L 0.00 330.20 L 0.00 330.13 L 0.00 330.12 L 0.00 330.09 L 0.00 329.27 L 0.00 329.18 L 0.00 328.80 L 0.00 328.77 L 0.00 328.28 L 0.00 328.27 L 0.00 328.20 L 0.00 328.07 L 0.00 327.97 L 0.00 327.86 L 0.00 327.78 L 0.00 327.73 L 0.00 327.19 L 0.00 327.16 L 0.00 327.04 L 0.00 326.85 L 0.00 326.21 L 0.00 326.20 L 0.00 325.93 L 0.00 325.92 L 0.00 325.63 L 0.00 325.61 L 0.00 325.46 L 0.00 325.45 L 0.00 325.21 L 0.00 325.16 L 0.00 325.12 L 0.00 324.91 L 0.00 324.81 L 0.00 324.44 L 0.00 324.24 L 0.00 324.20 L 0.00 324.19 L 0.00 324.14 L 0.00 323.81 L 0.00 323.70 L 0.00 323.52 L 0.00 323.46 L 0.00 323.39 L 0.00 322.98 L 0.00 322.75 L 0.00 322.64 L 0.00 322.42 L 0.00 321.95 L 0.00 321.75 L 0.00 321.57 L 0.00 321.14 L 0.00 321.09 L 0.00 320.77 L 0.00 320.53 L 0.00 320.29 L 0.00 320.08 L 0.00 319.62 L 0.00 319.28 L 0.00 318.86 L 0.00 318.00 L 0.00 317.94 L 0.00 317.69 L 0.00 317.60 L 0.00 317.46 L 0.00 317.20 L 0.00 317.07 L 0.00 316.12 L 0.00 316.04 L 0.00 316.00 L 0.00 315.85 L 0.00 315.14 L 0.00 315.07 L 0.00 314.87 L 0.00 314.78 L 0.00 314.72 L 0.00 314.01 L 0.00 313.78 L 0.00 313.46 L 0.00 313.42 L 0.00 313.26 L 0.00 313.12 L 0.00 313.04 L 0.00 312.80 L 0.00 312.29 L 0.00 312.26 L 0.00 311.97 L 0.00 311.65 L 0.00 311.49 L 0.00 311.38 L 0.00 311.17 L 0.00 310.99 L 0.00 310.88 L 0.00 310.83 L 0.00 310.77 L 0.00 310.20 L 0.00 310.18 L 0.00 309.99 L 0.00 309.90 L 0.00 309.30 L 0.00 308.91 L 0.00 308.77 L 0.00 308.68 L 0.00 308.64 L 0.00 308.62 L 0.00 308.51 L 0.00 308.45 L 0.00 308.14 L 0.00 307.99 L 0.00 307.96 L 0.00 307.56 L 0.00 307.47 L 0.00 307.09 L 0.00 306.98 L 0.00 306.92 L 0.00 306.64 L 0.00 306.49 L 0.00 306.46 L 0.00 306.39 L 0.00 306.10 L 0.00 306.00 L 0.00 305.81 L 0.00 305.63 L 0.00 305.43 L 0.00 305.34 L 0.00 305.11 L 0.00 304.80 L 0.00 304.75 L 0.00 304.73 L 0.00 304.59 L 0.00 304.38 L 0.00 304.14 L 0.00 304.07 L 0.00 303.80 L 0.00 303.65 L 0.00 303.40 L 0.00 303.37 L 0.00 303.35 L 0.00 303.35 L 0.00 303.20 L 0.00 303.17 L 0.00 303.14 L 0.00 302.89 L 0.00 302.49 L 0.00 302.37 L 0.00 302.33 L 0.00 302.29 L 0.00 302.22 L 0.00 302.12 L 0.00 301.97 L 0.00 301.91 L 0.00 301.81 L 0.00 301.65 L 0.00 301.50 L 0.00 301.42 L 0.00 301.29 L 0.00 301.25 L 0.00 301.23 L 0.00 301.22 L 0.00 300.63 L 0.00 300.43 L 0.00 299.88 L 0.00 299.51 L 0.00 299.48 L 0.00 299.02 L 0.00 298.49 L 0.00 298.28 L 0.00 298.13 L 0.00 298.10 L 0.00 298.07 L 0.00 297.75 L 0.00 297.66 L 0.00 297.58 L 0.00 297.38 L 0.00 297.35 L 0.00 297.29 L 0.00 297.26 L 0.00 296.99 L 0.00 296.96 L 0.00 296.92 L 0.00 296.89 L 0.00 296.63 L 0.00 296.51 L 0.00 296.38 L 0.00 296.33 L 0.00 296.03 L 0.00 295.78 L 0.00 295.61 L 0.00 295.47 L 0.00 295.17 L 0.00 294.98 L 0.00 294.72 L 0.00 294.66 L 0.00 294.41 L 0.00 294.32 L 0.00 294.00 L 0.00 293.95 L 0.00 293.50 L 0.00 293.45 L 0.00 293.43 L 0.00 293.13 L 0.00 292.96 L 0.00 292.91 L 0.00 292.56 L 0.00 292.53 L 0.00 292.27 L 0.00 292.04 L 0.00 291.76 L 0.00 291.26 L 0.00 291.25 L 0.00 290.86 L 0.00 290.74 L 0.00 290.49 L 0.00 290.17 L 0.00 290.09 L 0.00 289.95 L 0.00 289.82 L 0.00 289.72 L 0.00 289.68 L 0.00 289.02 L 0.00 288.57 L 0.00 288.52 L 0.00 288.51 L 0.00 288.32 L 0.00 288.22 L 0.00 288.11 L 0.00 288.08 L 0.00 287.96 L 0.00 287.94 L 0.00 287.74 L 0.00 287.41 L 0.00 287.26 L 0.00 287.21 L 0.00 286.89 L 0.00 285.82 L 0.00 285.64 L 0.00 285.27 L 0.00 285.03 L 0.00 284.95 L 0.00 284.57 L 0.00 284.50 L 0.00 284.37 L 0.00 283.67 L 0.00 283.63 L 0.00 283.54 L 0.00 283.52 L 0.00 283.47 L 0.00 283.40 L 0.00 283.17 L 0.00 282.89 L 0.00 282.21 L 0.00 282.17 L 0.00 282.15 L 0.00 281.84 L 0.00 281.75 L 0.00 281.74 L 0.00 281.51 L 0.00 281.49 L 0.00 281.43 L 0.00 281.07 L 0.00 280.79 L 0.00 280.68 L 0.00 280.56 L 0.00 280.51 L 0.00 279.95 L 0.00 279.89 L 0.00 279.86 L 0.00 279.76 L 0.00 279.66 L 0.00 279.25 L 0.00 279.09 L 0.00 279.08 L 0.00 278.90 L 0.00 278.80 L 0.00 278.77 L 0.00 278.43 L 0.00 277.95 L 0.00 277.55 L 0.00 277.26 L 0.00 277.21 L 0.00 277.13 L 0.00 276.67 L 0.00 276.61 L 0.00 276.38 L 0.00 276.22 L 0.00 276.11 L 0.00 275.82 L 0.00 275.49 L 0.00 275.34 L 0.00 275.29 L 0.00 275.09 L 0.00 274.47 L 0.00 274.35 L 0.00 273.97 L 0.00 273.35 L 0.00 272.39 L 0.00 272.31 L 0.00 271.88 L 0.00 271.83 L 0.00 271.52 L 0.00 271.50 L 0.00 271.26 L 0.00 271.13 L 0.00 270.58 L 0.00 270.15 L 0.00 269.81 L 0.00 269.73 L 0.00 269.50 L 0.00 269.41 L 0.00 269.37 L 0.00 269.35 L 0.00 269.23 L 0.00 269.21 L 0.00 268.84 L 0.00 268.75 L 0.00 268.51 L 0.00 268.24 L 0.00 268.22 L 0.00 268.20 L 0.00 268.17 L 0.00 268.11 L 0.00 268.07 L 0.00 267.88 L 0.00 267.68 L 0.00 267.50 L 0.00 267.42 L 0.00 267.40 L 0.00 266.56 L 0.00 266.42 L 0.00 266.39 L 0.00 266.24 L 0.00 266.23 L 0.00 266.09 L 0.00 265.39 L 0.00 264.96 L 0.00 264.68 L 0.00 264.33 L 0.00 264.10 L 0.00 264.09 L 0.00 264.02 L 0.00 263.96 L 0.00 263.92 L 0.00 263.78 L 0.00 263.45 L 0.00 262.89 L 0.00 262.81 L 0.00 262.73 L 0.00 262.59 L 0.00 262.42 L 0.00 262.34 L 0.00 262.31 L 0.00 262.12 L 0.00 262.02 L 0.00 261.67 L 0.00 261.59 L 0.00 261.55 L 0.00 261.51 L 0.00 261.16 L 0.00 260.83 L 0.00 260.81 L 0.00 260.74 L 0.00 260.33 L 0.00 260.26 L 0.00 260.15 L 0.00 260.02 L 0.00 259.56 L 0.00 259.46 L 0.00 259.45 L 0.00 259.42 L 0.00 259.41 L 0.00 259.37 L 0.00 258.91 L 0.00 258.88 L 0.00 258.57 L 0.00 258.31 L 0.00 258.30 L 0.00 258.02 L 0.00 258.01 L 0.00 257.95 L 0.00 257.95 L 0.00 257.87 L 0.00 257.82 L 0.00 257.69 L 0.00 257.64 L 0.00 257.57 L 0.00 257.49 L 0.00 257.26 L 0.00 257.23 L 0.00 255.87 L 0.00 255.86 L 0.00 255.72 L 0.00 255.49 L 0.00 255.47 L 0.00 255.43 L 0.00 255.33 L 0.00 254.96 L 0.00 254.79 L 0.00 253.97 L 0.00 253.54 L 0.00 253.43 L 0.00 253.18 L 0.00 253.06 L 0.00 253.00 L 0.00 252.91 L 0.00 252.30 L 0.00 252.07 L 0.00 251.91 L 0.00 251.77 L 0.00 251.39 L 0.00 251.25 L 0.00 251.25 L 0.00 251.13 L 0.00 251.10 L 0.00 250.83 L 0.00 250.53 L 0.00 250.35 L 0.00 250.24 L 0.00 250.16 L 0.00 249.91 L 0.00 248.97 L 0.00 248.25 L 0.00 247.67 L 0.00 247.65 L 0.00 247.61 L 0.00 247.33 L 0.00 247.07 L 0.00 247.05 L 0.00 246.83 L 0.00 246.74 L 0.00 246.55 L 0.00 246.50 L 0.00 246.40 L 0.00 246.29 L 0.00 246.13 L 0.00 245.97 L 0.00 245.93 L 0.00 245.83 L 0.00 245.79 L 0.00 245.26 L 0.00 245.25 L 0.00 245.06 L 0.00 244.95 L 0.00 244.72 L 0.00 244.29 L 0.00 244.28 L 0.00 244.22 L 0.00 244.18 L 0.00 244.18 L 0.00 244.09 L 0.00 244.04 L 0.00 243.85 L 0.00 243.80 L 0.00 243.60 L 0.00 243.47 L 0.00 243.38 L 0.00 243.38 L 0.00 242.94 L 0.00 242.94 L 0.00 242.88 L 0.00 242.81 L 0.00 242.41 L 0.00 242.29 L 0.00 242.13 L 0.00 241.66 L 0.00 241.36 L 0.00 241.28 L 0.00 240.87 L 0.00 240.74 L 0.00 240.73 L 0.00 240.41 L 0.00 240.11 L 0.00 240.04 L 0.00 239.82 L 0.00 239.70 L 0.00 239.05 L 0.00 238.51 L 0.00 238.22 L 0.00 237.75 L 0.00 237.65 L 0.00 237.38 L 0.00 236.95 L 0.00 236.69 L 0.00 236.53 L 0.00 236.38 L 0.00 236.05 L 0.00 235.73 L 0.00 235.61 L 0.00 234.13 L 0.00 234.05 L 0.00 233.84 L 0.00 233.51 L 0.00 233.17 L 0.00 233.02 L 0.00 232.82 L 0.00 232.49 L 0.00 232.41 L 0.00 232.31 L 0.00 232.29 L 0.00 232.25 L 0.00 232.20 L 0.00 232.12 L 0.00 231.96 L 0.00 231.67 L 0.00 231.38 L 0.00 231.09 L 0.00 230.89 L 0.00 230.19 L 0.00 230.15 L 0.00 229.76 L 0.00 229.69 L 0.00 229.49 L 0.00 229.27 L 0.00 228.62 L 0.00 228.60 L 0.00 228.54 L 0.00 228.42 L 0.00 228.29 L 0.00 228.28 L 0.00 228.13 L 0.00 228.01 L 0.00 228.01 L 0.00 227.99 L 0.00 227.63 L 0.00 227.11 L 0.00 227.06 L 0.00 227.06 L 0.00 226.76 L 0.00 226.61 L 0.00 226.33 L 0.00 226.21 L 0.00 226.06 L 0.00 226.04 L 0.00 225.92 L 0.00 225.81 L 0.00 225.62 L 0.00 225.46 L 0.00 225.24 L 0.00 224.98 L 0.00 224.85 L 0.00 224.84 L 0.00 224.71 L 0.00 224.43 L 0.00 224.15 L 0.00 224.00 L 0.00 223.91 L 0.00 223.78 L 0.00 223.27 L 0.00 223.14 L 0.00 223.01 L 0.00 222.73 L 0.00 222.50 L 0.00 222.19 L 0.00 222.10 L 0.00 221.74 L 0.00 221.35 L 0.00 221.32 L 0.00 221.27 L 0.00 220.78 L 0.00 220.76 L 0.00 220.55 L 0.00 220.18 L 0.00 220.02 L 0.00 219.83 L 0.00 219.60 L 0.00 218.78 L 0.00 218.77 L 0.00 218.73 L 0.00 218.29 L 0.00 218.24 L 0.00 218.18 L 0.00 218.12 L 0.00 218.04 L 0.00 217.40 L 0.00 217.03 L 0.00 216.90 L 0.00 216.54 L 0.00 216.27 L 0.00 216.22 L 0.00 216.10 L 0.00 215.35 L 0.00 214.82 L 0.00 214.71 L 0.00 214.18 L 0.00 214.08 L 0.00 213.97 L 0.00 213.96 L 0.00 213.95 L 0.00 213.72 L 0.00 213.50 L 0.00 213.49 L 0.00 213.41 L 0.00 213.33 L 0.00 213.28 L 0.00 213.08 L 0.00 212.87 L 0.00 212.83 L 0.00 212.75 L 0.00 212.47 L 0.00 212.44 L 0.00 211.99 L 0.00 211.98 L 0.00 211.79 L 0.00 211.32 L 0.00 210.86 L 0.00 210.74 L 0.00 210.34 L 0.00 210.16 L 0.00 210.11 L 0.00 209.78 L 0.00 209.47 L 0.00 209.37 L 0.00 209.35 L 0.00 209.08 L 0.00 209.05 L 0.00 209.05 L 0.00 208.82 L 0.00 208.44 L 0.00 208.44 L 0.00 208.25 L 0.00 207.77 L 0.00 207.50 L 0.00 207.40 L 0.00 206.99 L 0.00 206.52 L 0.00 206.48 L 0.00 206.35 L 0.00 206.19 L 0.00 206.14 L 0.00 205.97 L 0.00 205.84 L 0.00 205.66 L 0.00 205.55 L 0.00 205.54 L 0.00 205.45 L 0.00 205.13 L 0.00 204.70 L 0.00 204.47 L 0.00 204.39 L 0.00 203.99 L 0.00 203.99 L 0.00 203.55 L 0.00 203.28 L 0.00 202.95 L 0.00 202.74 L 0.00 202.61 L 0.00 202.33 L 0.00 202.30 L 0.00 202.06 L 0.00 201.78 L 0.00 201.57 L 0.00 201.41 L 0.00 201.21 L 0.00 201.21 L 0.00 200.33 L 0.00 200.18 L 0.00 200.11 L 0.00 199.67 L 0.00 199.16 L 0.00 198.94 L 0.00 198.77 L 0.00 198.47 L 0.00 198.18 L 0.00 197.21 L 0.00 197.13 L 0.00 196.85 L 0.00 196.58 L 0.00 196.49 L 0.00 196.47 L 0.00 196.19 L 0.00 195.97 L 0.00 195.52 L 0.00 195.03 L 0.00 195.03 L 0.00 195.03 L 0.00 194.90 L 0.00 194.55 L 0.00 194.54 L 0.00 194.26 L 0.00 194.14 L 0.00 193.95 L 0.00 193.73 L 0.00 193.56 L 0.00 193.52 L 0.00 193.21 L 0.00 192.79 L 0.00 192.68 L 0.00 192.57 L 0.00 192.49 L 0.00 191.92 L 0.00 191.81 L 0.00 191.62 L 0.00 191.51 L 0.00 191.39 L 0.00 190.81 L 0.00 190.53 L 0.00 190.48 L 0.00 190.31 L 0.00 190.29 L 0.00 190.18 L 0.00 189.96 L 0.00 189.95 L 0.00 189.34 L 0.00 189.31 L 0.00 189.17 L 0.00 188.93 L 0.00 188.90 L 0.00 188.63 L 0.00 188.39 L 0.00 188.33 L 0.00 187.95 L 0.00 187.83 L 0.00 187.44 L 0.00 187.08 L 0.00 186.48 L 0.00 186.25 L 0.00 185.91 L 0.00 185.91 L 0.00 185.52 L 0.00 185.39 L 0.00 185.22 L 0.00 185.06 L 0.00 184.94 L 0.00 184.93 L 0.00 184.83 L 0.00 184.63 L 0.00 184.50 L 0.00 184.46 L 0.00 184.36 L 0.00 184.05 L 0.00 184.04 L 0.00 184.03 L 0.00 183.91 L 0.00 183.89 L 0.00 183.46 L 0.00 183.39 L 0.00 183.17 L 0.00 182.81 L 0.00 182.69 L 0.00 182.41 L 0.00 182.40 L 0.00 182.21 L 0.00 182.06 L 0.00 181.98 L 0.00 181.81 L 0.00 181.79 L 0.00 181.67 L 0.00 181.24 L 0.00 181.14 L 0.00 180.85 L 0.00 179.90 L 0.00 179.90 L 0.00 179.79 L 0.00 179.75 L 0.00 179.42 L 0.00 178.99 L 0.00 177.81 L 0.00 177.80 L 0.00 177.74 L 0.00 177.73 L 0.00 177.44 L 0.00 177.37 L 0.00 176.78 L 0.00 176.49 L 0.00 176.41 L 0.00 176.39 L 0.00 175.64 L 0.00 175.19 L 0.00 175.03 L 0.00 174.72 L 0.00 174.54 L 0.00 174.38 L 0.00 174.36 L 0.00 173.96 L 0.00 173.26 L 0.00 172.82 L 0.00 172.57 L 0.00 172.22 L 0.00 172.06 L 0.00 172.03 L 0.00 171.93 L 0.00 171.73 L 0.00 171.56 L 0.00 171.40 L 0.00 171.39 L 0.00 171.39 L 0.00 171.17 L 0.00 170.73 L 0.00 170.73 L 0.00 170.62 L 0.00 169.88 L 0.00 169.41 L 0.00 169.19 L 0.00 168.73 L 0.00 168.60 L 0.00 168.18 L 0.00 168.08 L 0.00 167.99 L 0.00 167.80 L 0.00 167.80 L 0.00 167.75 L 0.00 167.62 L 0.00 167.20 L 0.00 167.20 L 0.00 167.19 L 0.00 167.12 L 0.00 166.99 L 0.00 166.77 L 0.00 166.76 L 0.00 166.48 L 0.00 166.28 L 0.00 166.21 L 0.00 165.82 L 0.00 165.77 L 0.00 165.73 L 0.00 165.66 L 0.00 165.64 L 0.00 165.57 L 0.00 165.40 L 0.00 165.06 L 0.00 165.04 L 0.00 164.53 L 0.00 164.26 L 0.00 164.08 L 0.00 164.04 L 0.00 163.93 L 0.00 163.84 L 0.00 163.05 L 0.00 163.03 L 0.00 162.89 L 0.00 162.26 L 0.00 162.14 L 0.00 162.07 L 0.00 161.94 L 0.00 161.53 L 0.00 161.01 L 0.00 160.95 L 0.00 160.93 L 0.00 160.60 L 0.00 160.51 L 0.00 160.38 L 0.00 159.79 L 0.00 159.73 L 0.00 159.67 L 0.00 159.47 L 0.00 159.46 L 0.00 159.29 L 0.00 159.17 L 0.00 159.13 L 0.00 158.45 L 0.00 158.29 L 0.00 158.24 L 0.00 158.08 L 0.00 158.07 L 0.00 158.00 L 0.00 157.93 L 0.00 157.86 L 0.00 157.79 L 0.00 157.46 L 0.00 157.27 L 0.00 156.81 L 0.00 156.69 L 0.00 156.47 L 0.00 156.26 L 0.00 156.24 L 0.00 156.05 L 0.00 155.62 L 0.00 155.45 L 0.00 155.34 L 0.00 154.92 L 0.00 154.72 L 0.00 154.62 L 0.00 154.43 L 0.00 153.56 L 0.00 153.46 L 0.00 153.28 L 0.00 153.27 L 0.00 152.96 L 0.00 152.96 L 0.00 152.70 L 0.00 152.66 L 0.00 152.35 L 0.00 151.54 L 0.00 151.54 L 0.00 151.50 L 0.00 151.50 L 0.00 151.23 L 0.00 151.14 L 0.00 151.08 L 0.00 151.00 L 0.00 150.31 L 0.00 150.23 L 0.00 150.12 L 0.00 149.87 L 0.00 149.74 L 0.00 149.54 L 0.00 149.51 L 0.00 149.05 L 0.00 148.82 L 0.00 148.71 L 0.00 148.62 L 0.00 148.39 L 0.00 148.34 L 0.00 148.30 L 0.00 148.00 L 0.00 147.92 L 0.00 147.90 L 0.00 147.56 L 0.00 147.03 L 0.00 146.61 L 0.00 146.54 L 0.00 146.50 L 0.00 146.40 L 0.00 146.33 L 0.00 146.20 L 0.00 146.02 L 0.00 145.76 L 0.00 145.74 L 0.00 145.71 L 0.00 145.55 L 0.00 145.48 L 0.00 145.40 L 0.00 144.60 L 0.00 144.59 L 0.00 144.39 L 0.00 144.36 L 0.00 144.15 L 0.00 143.71 L 0.00 143.55 L 0.00 143.54 L 0.00 143.00 L 0.00 142.96 L 0.00 142.85 L 0.00 142.83 L 0.00 142.66 L 0.00 142.46 L 0.00 142.46 L 0.00 142.13 L 0.00 141.82 L 0.00 140.16 L 0.00 140.00 L 0.00 139.91 L 0.00 139.90 L 0.00 139.71 L 0.00 139.68 L 0.00 139.68 L 0.00 139.67 L 0.00 138.91 L 0.00 138.74 L 0.00 138.66 L 0.00 138.61 L 0.00 137.86 L 0.00 137.65 L 0.00 137.46 L 0.00 137.38 L 0.00 137.18 L 0.00 137.16 L 0.00 137.15 L 0.00 136.95 L 0.00 136.76 L 0.00 136.71 L 0.00 136.48 L 0.00 136.45 L 0.00 136.44 L 0.00 136.35 L 0.00 136.27 L 0.00 136.22 L 0.00 135.93 L 0.00 135.67 L 0.00 135.48 L 0.00 135.31 L 0.00 135.01 L 0.00 134.89 L 0.00 134.20 L 0.00 134.11 L 0.00 133.16 L 0.00 133.09 L 0.00 132.63 L 0.00 132.55 L 0.00 131.79 L 0.00 131.75 L 0.00 131.68 L 0.00 131.62 L 0.00 131.14 L 0.00 131.01 L 0.00 130.92 L 0.00 130.30 L 0.00 130.17 L 0.00 130.04 L 0.00 129.80 L 0.00 129.70 L 0.00 129.60 L 0.00 129.25 L 0.00 129.13 L 0.00 129.11 L 0.00 128.98 L 0.00 128.81 L 0.00 128.71 L 0.00 128.55 L 0.00 128.53 L 0.00 128.44 L 0.00 128.30 L 0.00 128.12 L 0.00 127.99 L 0.00 127.98 L 0.00 127.82 L 0.00 127.71 L 0.00 127.62 L 0.00 127.53 L 0.00 127.51 L 0.00 127.47 L 0.00 127.42 L 0.00 127.30 L 0.00 127.03 L 0.00 126.41 L 0.00 125.92 L 0.00 125.64 L 0.00 125.53 L 0.00 125.40 L 0.00 125.28 L 0.00 125.27 L 0.00 125.19 L 0.00 125.13 L 0.00 124.84 L 0.00 124.81 L 0.00 124.75 L 0.00 124.74 L 0.00 124.52 L 0.00 124.12 L 0.00 124.11 L 0.00 124.11 L 0.00 123.77 L 0.00 123.38 L 0.00 123.37 L 0.00 123.32 L 0.00 123.26 L 0.00 122.68 L 0.00 122.66 L 0.00 122.64 L 0.00 122.64 L 0.00 122.63 L 0.00 122.60 L 0.00 122.58 L 0.00 122.06 L 0.00 121.86 L 0.00 121.85 L 0.00 121.73 L 0.00 121.26 L 0.00 121.19 L 0.00 120.98 L 0.00 120.93 L 0.00 120.91 L 0.00 120.12 L 0.00 119.92 L 0.00 119.81 L 0.00 119.61 L 0.00 119.59 L 0.00 119.48 L 0.00 119.34 L 0.00 118.98 L 0.00 118.86 L 0.00 118.42 L 0.00 117.34 L 0.00 117.26 L 0.00 117.21 L 0.00 117.15 L 0.00 116.32 L 0.00 116.25 L 0.00 115.95 L 0.00 115.66 L 0.00 115.53 L 0.00 115.33 L 0.00 115.21 L 0.00 114.79 L 0.00 114.75 L 0.00 114.73 L 0.00 114.47 L 0.00 114.18 L 0.00 113.61 L 0.00 112.96 L 0.00 112.94 L 0.00 112.79 L 0.00 112.68 L 0.00 112.61 L 0.00 112.56 L 0.00 112.36 L 0.00 112.04 L 0.00 111.86 L 0.00 111.71 L 0.00 111.56 L 0.00 111.47 L 0.00 110.74 L 0.00 110.70 L 0.00 110.35 L 0.00 110.11 L 0.00 109.97 L 0.00 109.74 L 0.00 109.33 L 0.00 109.24 L 0.00 108.82 L 0.00 108.27 L 0.00 108.24 L 0.00 107.96 L 0.00 107.38 L 0.00 107.28 L 0.00 107.25 L 0.00 107.21 L 0.00 106.99 L 0.00 106.65 L 0.00 106.39 L 0.00 106.33 L 0.00 106.16 L 0.00 105.90 L 0.00 105.68 L 0.00 105.62 L 0.00 105.52 L 0.00 105.42 L 0.00 105.24 L 0.00 104.97 L 0.00 104.80 L 0.00 104.66 L 0.00 104.33 L 0.00 104.21 L 0.00 104.14 L 0.00 103.62 L 0.00 103.54 L 0.00 103.44 L 0.00 103.08 L 0.00 103.06 L 0.00 103.06 L 0.00 102.98 L 0.00 102.74 L 0.00 102.46 L 0.00 102.46 L 0.00 102.41 L 0.00 102.14 L 0.00 101.92 L 0.00 101.87 L 0.00 101.84 L 0.00 101.79 L 0.00 101.47 L 0.00 101.46 L 0.00 101.20 L 0.00 101.02 L 0.00 100.49 L 0.00 100.28 L 0.00 99.92 L 0.00 99.85 L 0.00 99.74 L 0.00 99.55 L 0.00 99.52 L 0.00 99.06 L 0.00 99.00 L 0.00 98.85 L 0.00 98.85 L 0.00 98.61 L 0.00 98.60 L 0.00 98.55 L 0.00 98.37 L 0.00 98.36 L 0.00 98.36 L 0.00 98.32 L 0.00 97.97 L 0.00 97.65 L 0.00 97.61 L 0.00 97.56 L 0.00 97.45 L 0.00 97.08 L 0.00 97.04 L 0.00 97.02 L 0.00 96.89 L 0.00 96.52 L 0.00 96.25 L 0.00 95.93 L 0.00 95.84 L 0.00 95.38 L 0.00 95.27 L 0.00 95.26 L 0.00 95.09 L 0.00 94.83 L 0.00 94.51 L 0.00 94.47 L 0.00 94.43 L 0.00 94.28 L 0.00 94.01 L 0.00 93.73 L 0.00 93.63 L 0.00 93.48 L 0.00 93.37 L 0.00 93.28 L 0.00 93.24 L 0.00 92.75 L 0.00 92.50 L 0.00 92.50 L 0.00 92.42 L 0.00 92.26 L 0.00 92.24 L 0.00 91.90 L 0.00 91.82 L 0.00 91.63 L 0.00 91.35 L 0.00 90.86 L 0.00 90.56 L 0.00 89.64 L 0.00 89.61 L 0.00 89.08 L 0.00 88.97 L 0.00 88.89 L 0.00 88.67 L 0.00 88.62 L 0.00 88.32 L 0.00 88.02 L 0.00 87.93 L 0.00 87.56 L 0.00 87.34 L 0.00 87.23 L 0.00 86.79 L 0.00 86.27 L 0.00 85.73 L 0.00 85.20 L 0.00 85.18 L 0.00 85.17 L 0.00 85.11 L 0.00 85.10 L 0.00 84.16 L 0.00 83.41 L 0.00 83.36 L 0.00 83.33 L 0.00 83.31 L 0.00 83.26 L 0.00 83.20 L 0.00 83.11 L 0.00 82.84 L 0.00 82.75 L 0.00 82.56 L 0.00 82.41 L 0.00 82.15 L 0.00 82.15 L 0.00 82.09 L 0.00 81.98 L 0.00 81.82 L 0.00 81.52 L 0.00 81.51 L 0.00 81.19 L 0.00 81.09 L 0.00 81.07 L 0.00 80.62 L 0.00 80.54 L 0.00 80.47 L 0.00 80.44 L 0.00 80.13 L 0.00 80.06 L 0.00 79.86 L 0.00 79.75 L 0.00 79.64 L 0.00 79.34 L 0.00 78.51 L 0.00 78.26 L 0.00 78.23 L 0.00 77.74 L 0.00 77.55 L 0.00 77.14 L 0.00 76.97 L 0.00 76.86 L 0.00 76.81 L 0.00 75.55 L 0.00 75.54 L 0.00 75.07 L 0.00 74.95 L 0.00 74.64 L 0.00 74.64 L 0.00 74.07 L 0.00 73.07 L 0.00 72.99 L 0.00 72.97 L 0.00 72.95 L 0.00 72.33 L 0.00 72.23 L 0.00 72.23 L 0.00 72.12 L 0.00 72.08 L 0.00 72.03 L 0.00 72.01 L 0.00 71.91 L 0.00 71.89 L 0.00 71.55 L 0.00 70.92 L 0.00 70.75 L 0.00 70.74 L 0.00 70.66 L 0.00 70.51 L 0.00 70.11 L 0.00 69.97 L 0.00 69.89 L 0.00 69.18 L 0.00 68.69 L 0.00 68.64 L 0.00 68.33 L 0.00 68.30 L 0.00 68.25 L 0.00 68.24 L 0.00 68.24 L 0.00 67.91 L 0.00 67.88 L 0.00 67.73 L 0.00 67.65 L 0.00 67.40 L 0.00 67.37 L 0.00 67.19 L 0.00 67.14 L 0.00 67.03 L 0.00 66.60 L 0.00 66.36 L 0.00 66.27 L 0.00 65.98 L 0.00 65.86 L 0.00 65.60 L 0.00 65.57 L 0.00 65.53 L 0.00 65.53 L 0.00 64.85 L 0.00 64.36 L 0.00 64.21 L 0.00 64.13 L 0.00 63.64 L 0.00 63.63 L 0.00 62.90 L 0.00 62.61 L 0.00 62.41 L 0.00 62.26 L 0.00 62.15 L 0.00 61.75 L 0.00 61.63 L 0.00 61.33 L 0.00 61.18 L 0.00 61.13 L 0.00 60.59 L 0.00 60.41 L 0.00 60.31 L 0.00 60.04 L 0.00 59.99 L 0.00 59.56 L 0.00 59.50 L 0.00 59.42 L 0.00 59.40 L 0.00 59.31 L 0.00 59.27 L 0.00 59.10 L 0.00 58.77 L 0.00 58.71 L 0.00 58.17 L 0.00 57.79 L 0.00 57.77 L 0.00 57.65 L 0.00 57.41 L 0.00 57.36 L 0.00 56.84 L 0.00 56.42 L 0.00 56.10 L 0.00 54.90 L 0.00 54.86 L 0.00 54.44 L 0.00 54.26 L 0.00 54.01 L 0.00 53.92 L 0.00 53.46 L 0.00 53.44 L 0.00 52.87 L 0.00 52.74 L 0.00 52.32 L 0.00 52.22 L 0.00 52.04 L 0.00 51.76 L 0.00 51.73 L 0.00 51.72 L 0.00 51.67 L 0.00 51.45 L 0.00 51.34 L 0.00 51.19 L 0.00 50.85 L 0.00 50.76 L 0.00 50.62 L 0.00 50.57 L 0.00 50.57 L 0.00 50.49 L 0.00 50.34 L 0.00 50.08 L 0.00 49.85 L 0.00 49.30 L 0.00 49.26 L 0.00 48.70 L 0.00 48.61 L 0.00 48.30 L 0.00 48.27 L 0.00 47.63 L 0.00 47.52 L 0.00 47.48 L 0.00 47.41 L 0.00 47.22 L 0.00 46.75 L 0.00 46.74 L 0.00 46.68 L 0.00 46.52 L 0.00 45.28 L 0.00 45.23 L 0.00 45.05 L 0.00 44.91 L 0.00 44.56 L 0.00 44.54 L 0.00 44.46 L 0.00 44.28 L 0.00 43.88 L 0.00 43.83 L 0.00 43.76 L 0.00 43.20 L 0.00 43.11 L 0.00 43.08 L 0.00 42.90 L 0.00 42.45 L 0.00 42.28 L 0.00 42.16 L 0.00 41.98 L 0.00 41.95 L 0.00 41.91 L 0.00 41.89 L 0.00 41.47 L 0.00 40.86 L 0.00 40.49 L 0.00 40.30 L 0.00 40.22 L 0.00 40.01 L 0.00 39.80 L 0.00 39.40 L 0.00 39.16 L 0.00 38.73 L 0.00 38.45 L 0.00 38.37 L 0.00 37.76 L 0.00 37.71 L 0.00 37.68 L 0.00 37.63 L 0.00 37.57 L 0.00 37.49 L 0.00 37.41 L 0.00 37.35 L 0.00 37.15 L 0.00 36.82 L 0.00 36.81 L 0.00 36.57 L 0.00 36.46 L 0.00 36.00 L 0.00 35.95 L 0.00 35.91 L 0.00 35.80 L 0.00 35.76 L 0.00 35.72 L 0.00 35.63 L 0.00 35.54 L 0.00 34.88 L 0.00 34.77 L 0.00 33.66 L 0.00 33.50 L 0.00 33.15 L 0.00 32.87 L 0.00 32.31 L 0.00 32.30 L 0.00 32.30 L 0.00 31.62 L 0.00 31.46 L 0.00 31.45 L 0.00 31.24 L 0.00 30.80 L 0.00 30.70 L 0.00 30.19 L 0.00 30.12 L 0.00 30.12 L 0.00 30.08 L 0.00 29.81 L 0.00 29.59 L 0.00 29.12 L 0.00 28.97 L 0.00 28.80 L 0.00 28.68 L 0.00 28.67 L 0.00 28.50 L 0.00 28.36 L 0.00 28.32 L 0.00 28.18 L 0.00 28.11 L 0.00 28.09 L 0.00 28.06 L 0.00 27.76 L 0.00 27.52 L 0.00 27.18 L 0.00 27.02 L 0.00 26.89 L 0.00 26.56 L 0.00 26.41 L 0.00 26.40 L 0.00 25.77 L 0.00 25.56 L 0.00 25.51 L 0.00 25.24 L 0.00 25.06 L 0.00 24.38 L 0.00 24.37 L 0.00 24.18 L 0.00 24.17 L 0.00 23.61 L 0.00 23.48 L 0.00 23.18 L 0.00 23.18 L 0.00 23.04 L 0.00 22.99 L 0.00 22.93 L 0.00 22.60 L 0.00 22.40 L 0.00 22.28 L 0.00 22.04 L 0.00 21.95 L 0.00 21.58 L 0.00 21.58 L 0.00 21.50 L 0.00 21.48 L 0.00 21.38 L 0.00 21.28 L 0.00 21.26 L 0.00 21.20 L 0.00 21.00 L 0.00 20.99 L 0.00 20.94 L 0.00 20.94 L 0.00 20.89 L 0.00 20.69 L 0.00 20.65 L 0.00 20.47 L 0.00 20.31 L 0.00 19.84 L 0.00 19.80 L 0.00 19.75 L 0.00 19.74 L 0.00 19.63 L 0.00 18.66 L 0.00 18.16 L 0.00 17.91 L 0.00 17.75 L 0.00 17.33 L 0.00 17.28 L 0.00 17.18 L 0.00 17.13 L 0.00 17.08 L 0.00 16.63 L 0.00 16.51 L 0.00 16.46 L 0.00 16.13 L 0.00 15.97 L 0.00 15.91 L 0.00 15.69 L 0.00 15.34 L 0.00 15.31 L 0.00 15.28 L 0.00 15.20 L 0.00 15.20 L 0.00 15.13 L 0.00 15.04 L 0.00 15.02 L 0.00 14.86 L 0.00 14.24 L 0.00 14.04 L 0.00 13.66 L 0.00 13.65 L 0.00 13.63 L 0.00 13.55 L 0.00 13.35 L 0.00 13.32 L 0.00 13.32 L 0.00 12.73 L 0.00 12.72 L 0.00 12.52 L 0.00 12.36 L 0.00 12.29 L 0.00 12.06 L 0.00 12.03 L 0.00 11.68 L 0.00 11.26 L 0.00 11.20 L 0.00 10.78 L 0.00 10.67 L 0.00 10.34 L 0.00 10.06 L 0.00 9.40 L 0.00 9.25 L 0.00 9.12 L 0.00 9.07 L 0.00 8.67 L 0.00 8.56 L 0.00 8.53 L 0.00 8.43 L 0.00 8.36 L 0.00 8.35 L 0.00 7.97 L 0.00 7.92 L 0.00 7.53 L 0.00 7.48 L 0.00 7.36 L 0.00 7.30 L 0.00 7.13 L 0.00 6.98 L 0.00 6.90 L 0.00 6.80 L 0.00 6.26 L 0.00 6.20 L 0.00 6.14 L 0.00 6.11 L 0.00 5.87 L 0.00 5.32 L 0.00 5.22 L 0.00 5.06 L 0.00 5.05 L 0.00 4.52 L 0.00 4.50 L 0.00 4.49 L 0.00 4.22 L 0.00 4.05 L 0.00 3.97 L 0.00 3.88 L 0.00 3.68 L 0.00 3.64 L 0.00 2.97 L 0.00 2.95 L 0.00 2.68 L 0.00 2.65 L 0.00 2.61 L 0.00 2.56 L 0.00 2.51 L 0.00 1.81 L 0.00 1.72 L 0.00 1.67 L 0.00 1.60 L 0.00 1.59 L 0.00 1.31 L 0.00 1.20 L 0.00 1.08 L 0.00 1.05 L 0.00 0.81 L 0.00 0.52 L 0.00 0.36 L 0.00 0.08 L 0.00 0.02 L 0.60 0.00 L 0.75 0.00 L 0.86 0.00 L 0.87 0.00 L 1.20 0.00 L 1.20 0.00 L 1.51 0.00 L 1.64 0.00 L 1.71 0.00 L 1.94 0.00 L 2.10 0.00 L 2.23 0.00 L 2.47 0.00 L 2.47 0.00 L 2.56 0.00 L 2.70 0.00 L 2.77 0.00 L 2.78 0.00 L 2.78 0.00 L 3.13 0.00 L 3.24 0.00 L 3.73 0.00 L 3.80 0.00 L 3.93 0.00 L 4.07 0.00 L 4.24 0.00 L 4.44 0.00 L 4.47 0.00 L 4.53 0.00 L 4.59 0.00 L 4.77 0.00 L 4.90 0.00 L 5.17 0.00 L 5.18 0.00 L 5.39 0.00 L 5.66 0.00 L 6.04 0.00 L 6.12 0.00 L 6.13 0.00 L 6.55 0.00 L 6.73 0.00 L 6.80 0.00 L 6.81 0.00 L 7.17 0.00 L 7.42 0.00 L 8.23 0.00 L 8.26 0.00 L 9.06 0.00 L 9.13 0.00 L 9.56 0.00 L 9.66 0.00 L 9.74 0.00 L 9.80 0.00 L 9.81 0.00 L 10.04 0.00 L 10.33 0.00 L 10.67 0.00 L 10.67 0.00 L 10.95 0.00 L 11.18 0.00 L 11.39 0.00 L 11.46 0.00 L 11.49 0.00 L 11.59 0.00 L 11.73 0.00 L 11.88 0.00 L 11.89 0.00 L 12.01 0.00 L 12.32 0.00 L 12.43 0.00 L 12.72 0.00 L 12.75 0.00 L 13.71 0.00 L 14.04 0.00 L 14.22 0.00 L 14.24 0.00 L 14.27 0.00 L 14.30 0.00 L 14.35 0.00 L 14.73 0.00 L 14.77 0.00 L 15.06 0.00 L 15.25 0.00 L 15.63 0.00 L 16.35 0.00 L 16.39 0.00 L 16.58 0.00 L 16.89 0.00 L 17.73 0.00 L 17.83 0.00 L 17.84 0.00 L 17.97 0.00 L 18.00 0.00 L 18.09 0.00 L 18.12 0.00 L 18.14 0.00 L 18.17 0.00 L 18.42 0.00 L 18.53 0.00 L 18.78 0.00 L 18.84 0.00 L 19.97 0.00 L 20.09 0.00 L 20.19 0.00 L 20.32 0.00 L 20.35 0.00 L 20.39 0.00 L 20.41 0.00 L 20.50 0.00 L 20.77 0.00 L 20.78 0.00 L 20.78 0.00 L 20.88 0.00 L 21.33 0.00 L 21.60 0.00 L 21.76 0.00 L 21.95 0.00 L 21.98 0.00 L 22.21 0.00 L 22.27 0.00 L 22.40 0.00 L 22.41 0.00 L 23.11 0.00 L 23.26 0.00 L 23.38 0.00 L 23.72 0.00 L 24.37 0.00 L 24.57 0.00 L 24.73 0.00 L 24.94 0.00 L 25.59 0.00 L 25.60 0.00 L 25.77 0.00 L 25.79 0.00 L 26.02 0.00 L 26.04 0.00 L 26.21 0.00 L 26.49 0.00 L 26.58 0.00 L 26.81 0.00 L 26.82 0.00 L 27.04 0.00 L 27.36 0.00 L 27.91 0.00 L 28.07 0.00 L 28.14 0.00 L 28.44 0.00 L 28.57 0.00 L 29.17 0.00 L 29.32 0.00 L 29.33 0.00 L 29.52 0.00 L 29.67 0.00 L 29.72 0.00 L 29.83 0.00 L 29.85 0.00 L 30.05 0.00 L 30.25 0.00 L 30.54 0.00 L 30.67 0.00 L 30.71 0.00 L 30.78 0.00 L 30.84 0.00 L 31.22 0.00 L 31.68 0.00 L 31.69 0.00 L 31.86 0.00 L 32.32 0.00 L 32.45 0.00 L 32.61 0.00 L 32.68 0.00 L 32.95 0.00 L 32.97 0.00 L 32.99 0.00 L 33.00 0.00 L 33.08 0.00 L 33.15 0.00 L 33.42 0.00 L 33.44 0.00 L 33.56 0.00 L 33.69 0.00 L 33.89 0.00 L 33.90 0.00 L 33.97 0.00 L 34.55 0.00 L 34.56 0.00 L 34.96 0.00 L 35.11 0.00 L 35.28 0.00 L 35.49 0.00 L 35.67 0.00 L 35.94 0.00 L 36.22 0.00 L 36.35 0.00 L 36.64 0.00 L 36.95 0.00 L 37.00 0.00 L 37.05 0.00 L 37.27 0.00 L 37.61 0.00 L 37.75 0.00 L 37.77 0.00 L 37.78 0.00 L 38.23 0.00 L 38.33 0.00 L 38.61 0.00 L 38.86 0.00 L 38.91 0.00 L 38.96 0.00 L 38.99 0.00 L 39.05 0.00 L 39.09 0.00 L 39.10 0.00 L 39.25 0.00 L 39.33 0.00 L 39.48 0.00 L 39.53 0.00 L 39.56 0.00 L 39.67 0.00 L 39.70 0.00 L 39.90 0.00 L 40.10 0.00 L 40.20 0.00 L 40.40 0.00 L 40.56 0.00 L 40.56 0.00 L 40.76 0.00 L 40.85 0.00 L 41.20 0.00 L 41.26 0.00 L 41.29 0.00 L 41.34 0.00 L 41.75 0.00 L 41.93 0.00 L 41.98 0.00 L 42.48 0.00 L 42.53 0.00 L 42.59 0.00 L 42.60 0.00 L 42.79 0.00 L 43.04 0.00 L 43.05 0.00 L 43.24 0.00 L 43.29 0.00 L 43.32 0.00 L 43.42 0.00 L 43.75 0.00 L 44.13 0.00 L 44.13 0.00 L 44.13 0.00 L 44.50 0.00 L 44.55 0.00 L 44.57 0.00 L 45.50 0.00 L 45.55 0.00 L 45.64 0.00 L 45.76 0.00 L 45.77 0.00 L 45.97 0.00 L 46.10 0.00 L 46.16 0.00 L 46.17 0.00 L 46.21 0.00 L 46.40 0.00 L 46.77 0.00 L 46.81 0.00 L 46.82 0.00 L 46.96 0.00 L 47.33 0.00 L 47.41 0.00 L 48.05 0.00 L 48.58 0.00 L 49.26 0.00 L 49.36 0.00 L 49.50 0.00 L 49.79 0.00 L 49.83 0.00 L 49.85 0.00 L 49.91 0.00 L 50.02 0.00 L 50.08 0.00 L 50.15 0.00 L 50.31 0.00 L 50.42 0.00 L 50.80 0.00 L 51.07 0.00 L 51.31 0.00 L 51.41 0.00 L 51.41 0.00 L 51.68 0.00 L 51.71 0.00 L 51.72 0.00 L 51.77 0.00 L 51.85 0.00 L 52.39 0.00 L 52.45 0.00 L 52.48 0.00 L 52.48 0.00 L 53.09 0.00 L 53.09 0.00 L 53.18 0.00 L 53.49 0.00 L 53.77 0.00 L 53.85 0.00 L 53.96 0.00 L 54.01 0.00 L 54.16 0.00 L 54.50 0.00 L 54.62 0.00 L 54.63 0.00 L 54.74 0.00 L 55.03 0.00 L 55.58 0.00 L 55.74 0.00 L 55.87 0.00 L 55.98 0.00 L 55.99 0.00 L 56.08 0.00 L 56.44 0.00 L 56.45 0.00 L 56.52 0.00 L 56.56 0.00 L 56.86 0.00 L 56.87 0.00 L 57.01 0.00 L 57.35 0.00 L 57.82 0.00 L 58.02 0.00 L 58.09 0.00 L 58.16 0.00 L 58.59 0.00 L 58.65 0.00 L 58.84 0.00 L 58.84 0.00 L 59.00 0.00 L 59.16 0.00 L 59.18 0.00 L 59.28 0.00 L 59.38 0.00 L 59.41 0.00 L 59.51 0.00 L 59.54 0.00 L 60.29 0.00 L 61.16 0.00 L 61.87 0.00 L 61.88 0.00 L 61.96 0.00 L 61.98 0.00 L 62.15 0.00 L 62.15 0.00 L 62.66 0.00 L 62.68 0.00 L 62.70 0.00 L 62.70 0.00 L 62.84 0.00 L 62.90 0.00 L 62.92 0.00 L 63.22 0.00 L 63.48 0.00 L 63.78 0.00 L 63.84 0.00 L 64.14 0.00 L 64.15 0.00 L 64.29 0.00 L 64.51 0.00 L 64.62 0.00 L 64.71 0.00 L 65.76 0.00 L 65.81 0.00 L 65.87 0.00 L 66.27 0.00 L 66.57 0.00 L 66.90 0.00 L 67.00 0.00 L 67.46 0.00 L 67.70 0.00 L 67.97 0.00 L 68.04 0.00 L 68.47 0.00 L 68.50 0.00 L 68.60 0.00 L 68.67 0.00 L 68.69 0.00 L 68.78 0.00 L 68.96 0.00 L 69.05 0.00 L 69.28 0.00 L 69.32 0.00 L 69.42 0.00 L 69.66 0.00 L 70.33 0.00 L 70.41 0.00 L 70.50 0.00 L 70.58 0.00 L 70.59 0.00 L 70.92 0.00 L 71.22 0.00 L 71.43 0.00 L 71.50 0.00 L 71.65 0.00 L 71.81 0.00 L 71.92 0.00 L 71.97 0.00 L 72.37 0.00 L 72.70 0.00 L 73.05 0.00 L 73.10 0.00 L 73.15 0.00 L 73.44 0.00 L 73.61 0.00 L 73.64 0.00 L 73.83 0.00 L 73.98 0.00 L 73.98 0.00 L 74.22 0.00 L 74.40 0.00 L 74.48 0.00 L 74.67 0.00 L 74.77 0.00 L 75.76 0.00 L 76.01 0.00 L 76.07 0.00 L 76.50 0.00 L 77.11 0.00 L 77.66 0.00 L 77.77 0.00 L 77.83 0.00 L 77.86 0.00 L 78.42 0.00 L 78.76 0.00 L 78.84 0.00 L 78.91 0.00 L 78.99 0.00 L 79.09 0.00 L 79.15 0.00 L 79.23 0.00 L 79.45 0.00 L 79.49 0.00 L 79.54 0.00 L 79.59 0.00 L 79.60 0.00 L 79.93 0.00 L 79.94 0.00 L 80.45 0.00 L 80.66 0.00 L 80.75 0.00 L 81.19 0.00 L 81.68 0.00 L 81.92 0.00 L 82.20 0.00 L 82.31 0.00 L 82.40 0.00 L 82.59 0.00 L 82.63 0.00 L 82.89 0.00 L 82.92 0.00 L 82.93 0.00 L 83.10 0.00 L 83.33 0.00 L 83.46 0.00 L 83.48 0.00 L 83.84 0.00 L 83.96 0.00 L 84.04 0.00 L 84.55 0.00 L 84.62 0.00 L 84.72 0.00 L 84.72 0.00 L 84.81 0.00 L 85.33 0.00 L 85.66 0.00 L 85.88 0.00 L 86.00 0.00 L 87.30 0.00 L 87.90 0.00 L 87.98 0.00 L 88.48 0.00 L 88.78 0.00 L 89.03 0.00 L 89.18 0.00 L 89.19 0.00 L 89.20 0.00 L 89.30 0.00 L 89.51 0.00 L 89.63 0.00 L 89.73 0.00 L 89.99 0.00 L 90.03 0.00 L 90.45 0.00 L 90.51 0.00 L 90.72 0.00 L 91.00 0.00 L 91.01 0.00 L 91.06 0.00 L 91.23 0.00 L 91.65 0.00 L 91.88 0.00 L 92.05 0.00 L 92.22 0.00 L 92.76 0.00 L 93.24 0.00 L 93.72 0.00 L 94.22 0.00 L 94.34 0.00 L 94.50 0.00 L 94.72 0.00 L 94.77 0.00 L 95.08 0.00 L 95.18 0.00 L 95.34 0.00 L 95.35 0.00 L 95.59 0.00 L 95.64 0.00 L 95.86 0.00 L 95.86 0.00 L 95.89 0.00 L 96.21 0.00 L 96.22 0.00 L 96.32 0.00 L 96.42 0.00 L 96.54 0.00 L 97.20 0.00 L 97.64 0.00 L 97.77 0.00 L 98.13 0.00 L 98.24 0.00 L 98.45 0.00 L 98.59 0.00 L 98.69 0.00 L 98.84 0.00 L 98.99 0.00 L 99.31 0.00 L 99.51 0.00 L 99.58 0.00 L 99.91 0.00 L 99.97 0.00 L 100.71 0.00 L 100.82 0.00 L 101.03 0.00 L 101.12 0.00 L 101.14 0.00 L 101.36 0.00 L 101.44 0.00 L 101.47 0.00 L 101.85 0.00 L 102.30 0.00 L 102.32 0.00 L 102.82 0.00 L 102.84 0.00 L 103.07 0.00 L 103.37 0.00 L 104.08 0.00 L 104.23 0.00 L 104.30 0.00 L 104.33 0.00 L 104.39 0.00 L 105.00 0.00 L 105.11 0.00 L 105.25 0.00 L 105.37 0.00 L 105.45 0.00 L 105.55 0.00 L 105.58 0.00 L 105.73 0.00 L 105.92 0.00 L 106.05 0.00 L 106.21 0.00 L 106.52 0.00 L 107.18 0.00 L 107.28 0.00 L 107.33 0.00 L 107.33 0.00 L 107.71 0.00 L 107.89 0.00 L 108.10 0.00 L 108.53 0.00 L 108.91 0.00 L 108.97 0.00 L 109.55 0.00 L 109.79 0.00 L 109.99 0.00 L 110.21 0.00 L 110.23 0.00 L 110.32 0.00 L 110.53 0.00 L 110.56 0.00 L 110.90 0.00 L 111.46 0.00 L 112.52 0.00 L 113.01 0.00 L 113.15 0.00 L 113.65 0.00 L 113.69 0.00 L 113.72 0.00 L 113.72 0.00 L 115.12 0.00 L 115.36 0.00 L 115.79 0.00 L 115.92 0.00 L 116.56 0.00 L 116.59 0.00 L 116.60 0.00 L 116.94 0.00 L 116.99 0.00 L 117.10 0.00 L 117.52 0.00 L 117.78 0.00 L 117.87 0.00 L 118.05 0.00 L 118.60 0.00 L 118.66 0.00 L 118.70 0.00 L 118.80 0.00 L 119.13 0.00 L 119.20 0.00 L 119.49 0.00 L 119.70 0.00 L 119.88 0.00 L 121.32 0.00 L 121.37 0.00 L 121.48 0.00 L 121.52 0.00 L 121.72 0.00 L 121.99 0.00 L 122.13 0.00 L 122.40 0.00 L 122.70 0.00 L 123.32 0.00 L 123.40 0.00 L 123.46 0.00 L 123.69 0.00 L 123.94 0.00 L 124.06 0.00 L 124.86 0.00 L 125.23 0.00 L 125.32 0.00 L 125.66 0.00 L 125.80 0.00 L 126.11 0.00 L 126.16 0.00 L 126.32 0.00 L 126.50 0.00 L 126.56 0.00 L 127.23 0.00 L 127.43 0.00 L 127.62 0.00 L 127.88 0.00 L 127.88 0.00 L 127.91 0.00 L 127.91 0.00 L 127.98 0.00 L 128.12 0.00 L 128.40 0.00 L 128.65 0.00 L 128.80 0.00 L 128.95 0.00 L 128.97 0.00 L 129.08 0.00 L 129.43 0.00 L 129.72 0.00 L 129.95 0.00 L 129.99 0.00 L 130.59 0.00 L 130.62 0.00 L 130.63 0.00 L 130.76 0.00 L 131.03 0.00 L 131.09 0.00 L 131.38 0.00 L 131.41 0.00 L 131.83 0.00 L 132.27 0.00 L 132.93 0.00 L 133.09 0.00 L 133.26 0.00 L 133.31 0.00 L 133.46 0.00 L 133.70 0.00 L 134.10 0.00 L 134.53 0.00 L 135.01 0.00 L 135.02 0.00 L 135.40 0.00 L 135.41 0.00 L 135.63 0.00 L 135.64 0.00 L 135.65 0.00 L 135.96 0.00 L 136.02 0.00 L 136.39 0.00 L 137.21 0.00 L 137.82 0.00 L 137.85 0.00 L 137.97 0.00 L 138.10 0.00 L 138.19 0.00 L 138.59 0.00 L 138.84 0.00 L 138.95 0.00 L 139.16 0.00 L 139.44 0.00 L 139.50 0.00 L 139.63 0.00 L 139.96 0.00 L 139.99 0.00 L 140.00 0.00 L 140.30 0.00 L 140.38 0.00 L 140.52 0.00 L 141.17 0.00 L 141.24 0.00 L 141.28 0.00 L 141.74 0.00 L 141.90 0.00 L 142.34 0.00 L 142.44 0.00 L 142.48 0.00 L 142.54 0.00 L 142.77 0.00 L 142.95 0.00 L 143.10 0.00 L 143.15 0.00 L 143.21 0.00 L 143.43 0.00 L 143.64 0.00 L 143.83 0.00 L 144.04 0.00 L 144.28 0.00 L 144.39 0.00 L 144.94 0.00 L 145.13 0.00 L 145.85 0.00 L 145.86 0.00 L 146.05 0.00 L 146.59 0.00 L 146.62 0.00 L 146.74 0.00 L 147.24 0.00 L 147.25 0.00 L 147.50 0.00 L 147.52 0.00 L 147.77 0.00 L 147.86 0.00 L 147.92 0.00 L 148.01 0.00 L 148.22 0.00 L 148.33 0.00 L 148.39 0.00 L 148.50 0.00 L 148.58 0.00 L 148.60 0.00 L 148.62 0.00 L 148.93 0.00 L 149.06 0.00 L 149.09 0.00 L 149.22 0.00 L 149.35 0.00 L 149.57 0.00 L 149.63 0.00 L 149.82 0.00 L 150.37 0.00 L 150.41 0.00 L 150.82 0.00 L 150.83 0.00 L 150.91 0.00 L 151.51 0.00 L 151.52 0.00 L 151.75 0.00 L 151.96 0.00 L 152.44 0.00 L 152.80 0.00 L 152.83 0.00 L 152.86 0.00 L 153.28 0.00 L 153.31 0.00 L 153.42 0.00 L 153.52 0.00 L 153.65 0.00 L 153.82 0.00 L 153.96 0.00 L 153.97 0.00 L 154.04 0.00 L 154.19 0.00 L 154.19 0.00 L 154.59 0.00 L 154.67 0.00 L 154.91 0.00 L 155.00 0.00 L 155.06 0.00 L 155.28 0.00 L 155.50 0.00 L 155.67 0.00 L 155.84 0.00 L 156.13 0.00 L 156.21 0.00 L 156.23 0.00 L 157.05 0.00 L 157.08 0.00 L 157.38 0.00 L 157.38 0.00 L 157.53 0.00 L 157.73 0.00 L 158.27 0.00 L 158.46 0.00 L 159.06 0.00 L 159.13 0.00 L 159.37 0.00 L 159.65 0.00 L 159.84 0.00 L 160.04 0.00 L 160.06 0.00 L 160.37 0.00 L 160.57 0.00 L 160.64 0.00 L 161.09 0.00 L 161.45 0.00 L 161.70 0.00 L 161.79 0.00 L 161.86 0.00 L 162.02 0.00 L 162.15 0.00 L 162.43 0.00 L 162.90 0.00 L 162.96 0.00 L 163.03 0.00 L 163.04 0.00 L 163.26 0.00 L 163.42 0.00 L 163.47 0.00 L 163.74 0.00 L 163.76 0.00 L 163.92 0.00 L 164.37 0.00 L 164.47 0.00 L 164.55 0.00 L 164.67 0.00 L 164.85 0.00 L 164.98 0.00 L 165.42 0.00 L 165.60 0.00 L 165.86 0.00 L 165.90 0.00 L 165.93 0.00 L 166.23 0.00 L 166.42 0.00 L 167.00 0.00 L 167.00 0.00 L 167.66 0.00 L 167.74 0.00 L 168.17 0.00 L 168.30 0.00 L 168.48 0.00 L 168.52 0.00 L 168.57 0.00 L 168.79 0.00 L 168.85 0.00 L 169.07 0.00 L 169.20 0.00 L 169.32 0.00 L 169.47 0.00 L 169.55 0.00 L 169.70 0.00 L 169.89 0.00 L 170.95 0.00 L 170.96 0.00 L 171.07 0.00 L 171.17 0.00 L 171.60 0.00 L 171.83 0.00 L 171.94 0.00 L 172.06 0.00 L 172.29 0.00 L 172.96 0.00 L 172.97 0.00 L 173.10 0.00 L 173.30 0.00 L 173.52 0.00 L 173.55 0.00 L 173.81 0.00 L 173.94 0.00 L 174.20 0.00 L 174.34 0.00 L 174.58 0.00 L 174.63 0.00 L 174.69 0.00 L 175.14 0.00 L 175.22 0.00 L 175.27 0.00 L 175.29 0.00 L 175.32 0.00 L 175.56 0.00 L 175.75 0.00 L 175.77 0.00 L 175.93 0.00 L 175.98 0.00 L 175.98 0.00 L 176.25 0.00 L 176.62 0.00 L 176.79 0.00 L 176.88 0.00 L 177.01 0.00 L 177.72 0.00 L 177.98 0.00 L 178.25 0.00 L 178.64 0.00 L 178.65 0.00 L 178.68 0.00 L 178.72 0.00 L 178.75 0.00 L 178.81 0.00 L 179.06 0.00 L 179.20 0.00 L 179.46 0.00 L 179.54 0.00 L 179.89 0.00 L 180.00 0.00 L 180.28 0.00 L 180.33 0.00 L 180.35 0.00 L 180.43 0.00 L 180.53 0.00 L 180.58 0.00 L 180.59 0.00 L 180.69 0.00 L 181.16 0.00 L 181.21 0.00 L 181.82 0.00 L 181.86 0.00 L 181.94 0.00 L 181.98 0.00 L 182.37 0.00 L 182.61 0.00 L 183.32 0.00 L 183.33 0.00 L 183.60 0.00 L 183.78 0.00 L 183.94 0.00 L 184.15 0.00 L 184.18 0.00 L 184.35 0.00 L 184.52 0.00 L 184.53 0.00 L 184.58 0.00 L 184.64 0.00 L 184.71 0.00 L 184.86 0.00 L 184.92 0.00 L 185.00 0.00 L 185.18 0.00 L 185.34 0.00 L 185.42 0.00 L 185.44 0.00 L 185.45 0.00 L 185.91 0.00 L 186.24 0.00 L 186.50 0.00 L 186.55 0.00 L 187.00 0.00 L 187.11 0.00 L 187.46 0.00 L 187.51 0.00 L 188.26 0.00 L 188.39 0.00 L 188.51 0.00 L 188.72 0.00 L 189.10 0.00 L 189.30 0.00 L 189.35 0.00 L 189.36 0.00 L 189.40 0.00 L 189.53 0.00 L 189.72 0.00 L 189.88 0.00 L 190.05 0.00 L 190.17 0.00 L 190.52 0.00 L 190.66 0.00 L 190.78 0.00 L 191.10 0.00 L 191.20 0.00 L 191.40 0.00 L 191.98 0.00 L 192.29 0.00 L 192.55 0.00 L 192.88 0.00 L 192.93 0.00 L 193.04 0.00 L 193.11 0.00 L 193.13 0.00 L 194.18 0.00 L 194.18 0.00 L 194.21 0.00 L 194.25 0.00 L 194.38 0.00 L 194.45 0.00 L 194.47 0.00 L 194.51 0.00 L 194.69 0.00 L 194.96 0.00 L 194.99 0.00 L 195.06 0.00 L 195.08 0.00 L 195.53 0.00 L 195.58 0.00 L 195.76 0.00 L 196.13 0.00 L 196.49 0.00 L 196.82 0.00 L 197.31 0.00 L 197.75 0.00 L 198.11 0.00 L 198.42 0.00 L 198.54 0.00 L 198.85 0.00 L 198.91 0.00 L 198.94 0.00 L 199.28 0.00 L 199.59 0.00 L 200.15 0.00 L 200.16 0.00 L 200.28 0.00 L 200.54 0.00 L 200.78 0.00 L 201.10 0.00 L 201.43 0.00 L 201.49 0.00 L 201.50 0.00 L 201.85 0.00 L 202.22 0.00 L 202.64 0.00 L 202.67 0.00 L 202.76 0.00 L 203.20 0.00 L 203.27 0.00 L 203.28 0.00 L 204.48 0.00 L 204.58 0.00 L 206.23 0.00 L 206.24 0.00 L 206.70 0.00 L 206.90 0.00 L 207.05 0.00 L 207.09 0.00 L 207.28 0.00 L 207.76 0.00 L 207.92 0.00 L 208.07 0.00 L 208.21 0.00 L 208.54 0.00 L 209.09 0.00 L 209.15 0.00 L 209.19 0.00 L 209.26 0.00 L 209.27 0.00 L 209.40 0.00 L 209.63 0.00 L 209.80 0.00 L 209.84 0.00 L 210.09 0.00 L 211.20 0.00 L 211.24 0.00 L 211.65 0.00 L 211.75 0.00 L 212.17 0.00 L 212.76 0.00 L 212.85 0.00 L 213.10 0.00 L 213.12 0.00 L 213.17 0.00 L 213.21 0.00 L 213.54 0.00 L 213.70 0.00 L 213.73 0.00 L 214.22 0.00 L 214.39 0.00 L 214.66 0.00 L 215.16 0.00 L 215.24 0.00 L 215.31 0.00 L 215.39 0.00 L 215.59 0.00 L 215.95 0.00 L 216.34 0.00 L 216.37 0.00 L 216.47 0.00 L 216.52 0.00 L 216.89 0.00 L 216.90 0.00 L 217.04 0.00 L 217.13 0.00 L 217.22 0.00 L 217.39 0.00 L 217.69 0.00 L 217.72 0.00 L 217.82 0.00 L 218.09 0.00 L 218.11 0.00 L 218.35 0.00 L 218.56 0.00 L 218.75 0.00 L 218.95 0.00 L 219.03 0.00 L 219.40 0.00 L 219.72 0.00 L 219.95 0.00 L 219.97 0.00 L 219.99 0.00 L 220.10 0.00 L 220.30 0.00 L 220.64 0.00 L 220.79 0.00 L 220.95 0.00 L 221.30 0.00 L 221.37 0.00 L 221.38 0.00 L 221.54 0.00 L 221.78 0.00 L 221.80 0.00 L 221.82 0.00 L 221.85 0.00 L 221.86 0.00 L 222.24 0.00 L 222.30 0.00 L 222.70 0.00 L 223.58 0.00 L 223.60 0.00 L 223.85 0.00 L 223.95 0.00 L 224.00 0.00 L 224.43 0.00 L 224.50 0.00 L 224.63 0.00 L 224.71 0.00 L 224.97 0.00 L 225.12 0.00 L 225.47 0.00 L 225.53 0.00 L 225.78 0.00 L 225.86 0.00 L 226.01 0.00 L 226.01 0.00 L 226.26 0.00 L 226.55 0.00 L 226.63 0.00 L 226.65 0.00 L 226.76 0.00 L 227.08 0.00 L 227.22 0.00 L 227.41 0.00 L 227.70 0.00 L 227.76 0.00 L 227.86 0.00 L 227.86 0.00 L 227.98 0.00 L 228.10 0.00 L 228.14 0.00 L 228.39 0.00 L 228.42 0.00 L 228.59 0.00 L 228.77 0.00 L 228.89 0.00 L 228.90 0.00 L 229.26 0.00 L 229.30 0.00 L 229.84 0.00 L 229.93 0.00 L 230.08 0.00 L 230.16 0.00 L 230.36 0.00 L 230.39 0.00 L 231.16 0.00 L 231.22 0.00 L 231.29 0.00 L 231.31 0.00 L 231.54 0.00 L 231.68 0.00 L 231.71 0.00 L 231.76 0.00 L 231.95 0.00 L 232.08 0.00 L 232.28 0.00 L 232.42 0.00 L 232.56 0.00 L 232.60 0.00 L 232.82 0.00 L 233.26 0.00 L 233.42 0.00 L 233.42 0.00 L 233.62 0.00 L 233.70 0.00 L 233.78 0.00 L 233.82 0.00 L 234.00 0.00 L 234.14 0.00 L 234.19 0.00 L 234.31 0.00 L 234.62 0.00 L 234.83 0.00 L 234.87 0.00 L 235.10 0.00 L 235.58 0.00 L 235.65 0.00 L 235.69 0.00 L 235.97 0.00 L 236.20 0.00 L 236.32 0.00 L 236.41 0.00 L 236.47 0.00 L 236.63 0.00 L 237.18 0.00 L 237.19 0.00 L 237.45 0.00 L 237.80 0.00 L 237.88 0.00 L 238.15 0.00 L 238.32 0.00 L 238.58 0.00 L 238.92 0.00 L 239.29 0.00 L 239.32 0.00 L 239.46 0.00 L 239.48 0.00 L 239.51 0.00 L 239.80 0.00 L 239.88 0.00 L 240.20 0.00 L 240.35 0.00 L 240.38 0.00 L 240.39 0.00 L 240.43 0.00 L 240.57 0.00 L 241.37 0.00 L 241.71 0.00 L 241.75 0.00 L 242.14 0.00 L 242.29 0.00 L 242.39 0.00 L 242.71 0.00 L 242.80 0.00 L 242.86 0.00 L 242.92 0.00 L 243.12 0.00 L 243.28 0.00 L 243.45 0.00 L 243.50 0.00 L 243.75 0.00 L 243.83 0.00 L 244.21 0.00 L 244.28 0.00 L 244.53 0.00 L 244.67 0.00 L 244.74 0.00 L 244.93 0.00 L 245.11 0.00 L 245.12 0.00 L 245.36 0.00 L 245.67 0.00 L 245.73 0.00 L 246.00 0.00 L 246.18 0.00 L 246.71 0.00 L 246.72 0.00 L 246.77 0.00 L 246.97 0.00 L 247.04 0.00 L 247.45 0.00 L 247.57 0.00 L 247.59 0.00 L 247.77 0.00 L 248.03 0.00 L 248.16 0.00 L 248.21 0.00 L 248.35 0.00 L 248.52 0.00 L 248.67 0.00 L 248.69 0.00 L 248.77 0.00 L 248.88 0.00 L 248.94 0.00 L 249.10 0.00 L 249.33 0.00 L 249.37 0.00 L 249.38 0.00 L 250.04 0.00 L 250.04 0.00 L 250.29 0.00 L 250.32 0.00 L 250.40 0.00 L 250.50 0.00 L 250.55 0.00 L 250.80 0.00 L 250.97 0.00 L 251.42 0.00 L 251.43 0.00 L 251.50 0.00 L 252.05 0.00 L 252.37 0.00 L 252.47 0.00 L 252.59 0.00 L 252.63 0.00 L 252.66 0.00 L 252.69 0.00 L 253.10 0.00 L 253.88 0.00 L 254.14 0.00 L 254.30 0.00 L 254.37 0.00 L 254.80 0.00 L 255.04 0.00 L 255.07 0.00 L 255.97 0.00 L 256.04 0.00 L 256.08 0.00 L 256.13 0.00 L 256.30 0.00 L 256.34 0.00 L 256.35 0.00 L 256.62 0.00 L 256.64 0.00 L 256.66 0.00 L 256.77 0.00 L 256.82 0.00 L 257.01 0.00 L 257.58 0.00 L 257.76 0.00 L 257.86 0.00 L 257.98 0.00 L 258.06 0.00 L 258.06 0.00 L 258.18 0.00 L 258.27 0.00 L 258.49 0.00 L 258.52 0.00 L 258.77 0.00 L 259.27 0.00 L 259.58 0.00 L 259.82 0.00 L 260.73 0.00 L 260.82 0.00 L 261.27 0.00 L 261.49 0.00 L 262.11 0.00 L 262.18 0.00 L 262.24 0.00 L 262.46 0.00 L 262.50 0.00 L 262.51 0.00 L 262.56 0.00 L 262.62 0.00 L 262.85 0.00 L 263.40 0.00 L 263.64 0.00 L 263.66 0.00 L 263.67 0.00 L 264.30 0.00 L 264.58 0.00 L 264.90 0.00 L 265.12 0.00 L 265.41 0.00 L 265.57 0.00 L 265.62 0.00 L 266.05 0.00 L 266.13 0.00 L 266.14 0.00 L 266.35 0.00 L 266.38 0.00 L 266.53 0.00 L 266.58 0.00 L 266.71 0.00 L 266.87 0.00 L 267.07 0.00 L 267.13 0.00 L 267.62 0.00 L 268.07 0.00 L 268.55 0.00 L 268.75 0.00 L 268.92 0.00 L 268.95 0.00 L 268.97 0.00 L 269.46 0.00 L 269.87 0.00 L 269.95 0.00 L 270.13 0.00 L 270.36 0.00 L 270.43 0.00 L 270.45 0.00 L 270.47 0.00 L 270.47 0.00 L 270.51 0.00 L 270.63 0.03 L 270.75 0.21 L 271.00 0.56 L 271.12 0.74 L 271.24 0.91 L 271.31 1.02 L 271.42 1.17 L 271.46 1.23 L 271.57 1.38 L 271.83 1.75 L 272.13 2.18 L 272.79 3.13 L 272.98 3.41 L 273.52 4.17 L 274.03 4.91 L 274.08 4.98 L 274.26 5.24 L 274.36 5.39 L 274.44 5.50 L 274.45 5.51 L 274.59 5.72 L 274.78 5.98 L 275.37 6.83 L 275.42 6.89 L 275.46 6.95 L 275.57 7.12 L 276.04 7.78 L 276.27 8.11 L 276.44 8.35 L 276.54 8.50 L 276.66 8.68 L 276.69 8.72 L 276.81 8.89 L 276.87 8.97 L 276.90 9.02 L 276.91 9.03 L 277.03 9.21 L 277.06 9.25 L 277.14 9.36 L 277.21 9.46 L 277.32 9.62 L 277.41 9.74 L 277.74 10.22 L 277.97 10.55 L 278.31 11.03 L 278.55 11.38 L 278.77 11.70 L 278.85 11.80 L 278.90 11.88 L 279.10 12.17 L 279.31 12.47 L 279.46 12.68 L 279.59 12.86 L 279.60 12.88 L 279.70 13.03 L 279.82 13.19 L 279.86 13.26 L 279.97 13.41 L 280.17 13.71 L 280.26 13.83 L 280.43 14.07 L 280.59 14.30 L 280.60 14.31 L 280.69 14.45 L 280.75 14.53 L 280.77 14.55 L 280.83 14.64 L 280.83 14.65 L 281.21 15.19 L 281.34 15.37 L 281.55 15.67 L 281.72 15.92 L 281.77 15.99 L 281.95 16.25 L 282.02 16.36 L 282.04 16.37 L 282.23 16.66 L 282.45 16.96 L 282.51 17.05 L 282.53 17.07 L 282.67 17.28 L 282.77 17.42 L 282.99 17.74 L 283.21 18.05 L 283.25 18.11 L 283.31 18.20 L 283.46 18.40 L 283.52 18.50 L 283.77 18.86 L 283.99 19.16 L 284.13 19.36 L 284.22 19.50 L 284.45 19.83 L 284.47 19.86 L 284.76 20.28 L 284.80 20.33 L 285.24 20.97 L 287.28 23.88 L 287.33 23.95 L 287.40 24.05 L 287.67 24.44 L 287.75 24.56 L 288.07 25.01 L 288.15 25.12 L 288.15 25.13 L 288.87 26.15 L 290.42 28.38 L 291.35 29.71 L 291.72 30.24 L 291.83 30.40 L 292.80 31.78 L 293.08 32.18 L 293.22 32.39 L 293.86 33.30 L 294.35 34.00 L 295.86 36.17 L 296.60 37.22 L 297.56 38.60 L 298.62 40.12 L 298.82 40.41 L 299.97 42.05 L 300.20 42.38 L 300.50 42.81 L 301.08 43.64 L 301.21 43.82 L 301.59 44.37 L 301.90 44.82 L 303.73 47.43 L 303.93 47.72 L 305.07 49.36 L 305.87 50.51 L 306.14 50.88 L 306.37 51.22 L 307.28 52.51 L 308.40 54.12 L 309.07 55.08 L 311.12 58.02 L 311.78 58.96 L 312.28 59.68 L 313.39 61.28 L 313.72 61.74 L 313.93 62.04 L 315.01 63.59 L 315.17 63.82 L 315.28 63.97 L 315.70 64.57 L 316.14 65.21 L 316.32 65.46 L 317.08 66.56 L 317.14 66.63 L 318.99 69.29 L 319.52 70.05 L 320.85 71.95 L 323.08 75.14 L 323.17 75.28 L 323.35 75.53 L 323.39 75.59 L 323.65 75.97 L 324.10 76.60 L 324.83 77.65 L 325.15 78.10 L 325.50 78.60 L 325.63 78.80 L 326.62 80.22 L 328.29 82.61 L 328.88 83.45 L 329.95 84.98 L 330.83 86.24 L 331.42 87.08 L 331.71 87.50 L 332.38 88.47 L 332.63 88.82 L 332.82 89.09 L 333.45 89.99 L 333.77 90.45 L 333.85 90.56 L 333.95 90.72 L 334.10 90.92 L 334.28 91.18 L 334.33 91.25 L 334.47 91.46 L 334.50 91.50 L 334.58 91.62 L 334.68 91.75 L 334.70 91.78 L 334.82 91.96 L 334.94 92.12 L 335.08 92.32 L 335.12 92.39 L 335.29 92.63 L 335.35 92.72 L 335.50 92.93 L 335.68 93.19 L 335.91 93.52 L 335.98 93.61 L 336.09 93.77 L 336.30 94.08 L 336.38 94.20 L 336.74 94.70 L 336.90 94.93 L 337.06 95.17 L 337.13 95.26 L 337.16 95.31 L 337.26 95.46 L 337.37 95.61 L 337.52 95.82 L 337.69 96.07 L 337.73 96.13 L 337.80 96.22 L 338.04 96.57 L 338.24 96.86 L 338.48 97.20 L 338.50 97.23 L 338.63 97.41 L 338.72 97.55 L 338.87 97.75 L 339.06 98.03 L 339.22 98.26 L 339.69 98.94 L 339.70 98.95 L 339.91 99.25 L 339.99 99.36 L 340.07 99.47 L 340.15 99.59 L 340.22 99.70 L 340.40 99.95 L 340.86 100.60 L 340.89 100.65 L 340.97 100.76 L 341.01 100.82 L 341.03 100.84 L 341.22 101.12 L 341.71 101.82 L 342.20 102.52 L 342.58 103.07 L 342.80 103.38 L 343.16 103.89 L 343.90 104.96 L 343.98 105.08 L 344.06 105.19 L 344.14 105.30 L 344.19 105.38 L 344.34 105.59 L 344.46 105.76 L 344.50 105.82 L 344.60 105.95 L 344.73 106.14 L 344.79 106.24 L 345.26 106.91 L 345.32 106.99 L 345.32 107.04 L 345.35 107.43 L 345.35 107.53 L 345.35 107.61 L 345.35 107.66 L 345.35 107.79 L 345.35 107.89 L 345.35 107.99 L 345.35 108.05 L 345.35 108.16 L 345.35 108.16 L 345.35 108.60 L 345.35 108.83 L 345.35 108.86 L 345.35 108.99 L 345.35 109.08 L 345.35 109.28 L 345.35 109.37 L 345.35 109.74 L 345.35 110.22 L 345.35 110.33 L 345.35 110.35 L 345.35 110.68 L 345.35 110.94 L 345.35 111.17 L 345.35 111.20 L 345.35 111.26 L 345.35 111.31 L 345.35 111.31 L 345.35 111.61 L 345.35 111.72 L 345.35 112.23 L 345.35 112.28 L 345.35 112.29 L 345.35 112.71 L 345.35 112.73 L 345.35 112.74 L 345.35 112.76 L 345.35 112.90 L 345.35 113.05 L 345.35 113.49 L 345.35 113.54 L 345.35 114.19 L 345.35 114.30 L 345.35 114.71 L 345.35 115.05 L 345.35 115.30 L 345.35 115.32 L 345.35 115.55 L 345.35 115.58 L 345.35 115.97 L 345.35 116.16 L 345.35 116.22 L 345.35 116.39 L 345.35 116.48 L 345.35 116.56 L 345.35 116.56 L 345.35 116.93 L 345.35 117.06 L 345.35 117.63 L 345.35 117.63 L 345.35 118.13 L 345.35 118.19 L 345.35 118.20 L 345.35 118.58 L 345.35 119.17 L 345.35 119.38 L 345.35 119.45 L 345.35 119.54 L 345.35 119.54 L 345.35 119.58 L 345.35 120.15 L 345.35 120.27 L 345.35 120.70 L 345.35 120.80 L 345.35 121.15 L 345.35 121.44 L 345.35 121.69 L 345.35 122.83 L 345.35 122.94 L 345.35 123.21 L 345.35 123.44 L 345.35 123.57 L 345.35 123.61 L 345.35 124.08 L 345.35 124.23 L 345.35 124.67 L 345.35 125.02 L 345.35 125.31 L 345.35 125.59 L 345.35 125.62 L 345.35 126.13 L 345.35 126.28 L 345.35 126.42 L 345.35 126.48 L 345.35 126.76 L 345.35 127.09 L 345.35 127.38 L 345.35 127.39 L 345.35 127.39 L 345.35 127.77 L 345.35 127.78 L 345.35 128.05 L 345.35 128.60 L 345.35 129.21 L 345.35 129.27 L 345.35 129.64 L 345.35 129.76 L 345.35 129.86 L 345.35 129.93 L 345.35 130.18 L 345.35 130.21 L 345.35 130.30 L 345.35 130.68 L 345.35 130.92 L 345.35 131.13 L 345.35 131.14 L 345.35 131.35 L 345.35 131.37 L 345.35 131.39 L 345.35 131.76 L 345.35 131.80 L 345.35 131.86 L 345.35 132.07 L 345.35 132.12 L 345.35 132.61 L 345.35 132.63 L 345.35 132.77 L 345.35 133.12 L 345.35 133.29 L 345.35 133.36 L 345.35 133.72 L 345.35 133.97 L 345.35 134.00 L 345.35 134.03 L 345.35 134.24 L 345.35 134.44 L 345.35 135.24 L 345.35 135.28 L 345.35 135.35 L 345.35 135.44 L 345.35 135.64 L 345.35 136.02 L 345.35 136.36 L 345.35 136.69 L 345.35 136.80 L 345.35 136.80 L 345.35 136.84 L 345.35 136.93 L 345.35 137.02 L 345.35 137.07 L 345.35 137.13 L 345.35 137.17 L 345.35 137.33 L 345.35 137.66 L 345.35 138.10 L 345.35 138.18 L 345.35 138.44 L 345.35 138.62 L 345.35 138.90 L 345.35 138.91 L 345.35 139.19 L 345.35 139.34 L 345.35 139.44 L 345.35 139.65 L 345.35 139.86 L 345.35 139.96 L 345.35 140.21 L 345.35 140.64 L 345.35 140.81 L 345.35 140.86 L 345.35 141.04 L 345.35 141.45 L 345.35 141.69 L 345.35 141.73 L 345.35 142.17 L 345.35 142.18 L 345.35 142.21 L 345.35 142.24 L 345.35 142.36 L 345.35 142.43 L 345.35 143.18 L 345.35 143.20 L 345.35 143.79 L 345.35 144.25 L 345.35 145.21 L 345.35 145.36 L 345.35 145.95 L 345.35 145.99 L 345.35 146.07 L 345.35 146.16 L 345.35 146.50 L 345.35 146.58 L 345.35 146.65 L 345.35 147.45 L 345.35 147.62 L 345.35 147.65 L 345.35 147.66 L 345.35 147.67 L 345.35 147.87 L 345.35 147.89 L 345.35 147.91 L 345.35 148.14 L 345.35 148.38 L 345.35 148.66 L 345.35 148.72 L 345.35 148.78 L 345.35 148.95 L 345.35 149.12 L 345.35 149.18 L 345.35 149.27 L 345.35 149.32 L 345.35 149.38 L 345.35 149.59 L 345.35 149.69 L 345.35 149.89 L 345.35 149.97 L 345.35 150.18 L 345.35 150.22 L 345.35 150.35 L 345.35 150.49 L 345.35 150.61 L 345.35 151.29 L 345.35 151.30 L 345.35 151.94 L 345.35 151.96 L 345.35 152.14 L 345.35 152.72 L 345.35 152.82 L 345.35 152.83 L 345.35 152.96 L 345.35 153.01 L 345.35 153.20 L 345.35 153.72 L 345.35 153.91 L 345.35 153.94 L 345.35 154.19 L 345.35 154.29 L 345.35 154.34 L 345.35 154.83 L 345.35 154.87 L 345.35 154.94 L 345.35 155.05 L 345.35 155.14 L 345.35 155.26 L 345.35 155.34 L 345.35 155.76 L 345.35 155.82 L 345.35 156.19 L 345.35 156.94 L 345.35 156.99 L 345.35 157.15 L 345.35 157.35 L 345.35 157.54 L 345.35 157.80 L 345.35 157.93 L 345.35 158.16 L 345.35 158.23 L 345.35 158.44 L 345.35 158.51 L 345.35 158.59 L 345.35 159.01 L 345.35 159.22 L 345.35 159.25 L 345.35 159.63 L 345.35 159.70 L 345.35 159.71 L 345.35 159.73 L 345.35 159.74 L 345.35 160.01 L 345.35 160.03 L 345.35 160.49 L 345.35 160.50 L 345.35 160.77 L 345.35 160.89 L 345.35 161.30 L 345.35 161.39 L 345.35 161.42 L 345.35 161.47 L 345.35 161.69 L 345.35 161.70 L 345.35 161.72 L 345.35 162.14 L 345.35 162.38 L 345.35 162.79 L 345.35 162.82 L 345.35 162.83 L 345.35 162.85 L 345.35 162.91 L 345.35 163.07 L 345.35 163.11 L 345.35 163.26 L 345.35 163.54 L 345.35 163.56 L 345.35 163.62 L 345.35 164.58 L 345.35 164.73 L 345.35 165.59 L 345.35 165.74 L 345.35 166.01 L 345.35 166.58 L 345.35 166.64 L 345.35 166.70 L 345.35 167.08 L 345.35 167.28 L 345.35 167.36 L 345.35 167.40 L 345.35 167.44 L 345.35 168.10 L 345.35 168.34 L 345.35 168.61 L 345.35 169.04 L 345.35 169.11 L 345.35 169.58 L 345.35 169.77 L 345.35 169.80 L 345.35 169.96 L 345.35 170.21 L 345.35 170.23 L 345.35 170.57 L 345.35 170.81 L 345.35 171.05 L 345.35 171.59 L 345.35 171.78 L 345.35 171.78 L 345.35 171.99 L 345.35 172.48 L 345.35 172.83 L 345.35 173.37 L 345.35 173.56 L 345.35 173.71 L 345.35 174.28 L 345.35 174.70 L 345.35 174.80 L 345.35 175.10 L 345.35 175.12 L 345.35 175.32 L 345.35 175.61 L 345.35 175.71 L 345.35 175.76 L 345.35 175.87 L 345.35 176.00 L 345.35 176.16 L 345.35 176.39 L 345.35 176.52 L 345.35 177.09 L 345.35 177.60 L 345.35 177.60 L 345.35 177.72 L 345.35 177.90 L 345.35 178.25 L 345.35 178.42 L 345.35 178.61 L 345.35 178.83 L 345.35 179.15 L 345.35 179.39 L 345.35 179.60 L 345.35 179.76 L 345.35 180.16 L 345.35 180.18 L 345.35 180.20 L 345.35 180.31 L 345.35 180.32 L 345.35 180.43 L 345.35 180.63 L 345.35 180.91 L 345.35 180.92 L 345.35 181.32 L 345.35 181.48 L 345.35 181.79 L 345.35 181.87 L 345.35 181.99 L 345.35 182.04 L 345.35 182.07 L 345.35 182.43 L 345.35 182.63 L 345.35 183.16 L 345.35 183.81 L 345.35 183.88 L 345.35 184.07 L 345.35 184.09 L 345.35 184.13 L 345.35 184.70 L 345.35 184.73 L 345.35 185.09 L 345.35 185.15 L 345.35 185.64 L 345.35 185.65 L 345.35 186.09 L 345.35 186.12 L 345.35 186.47 L 345.35 187.07 L 345.35 187.15 L 345.35 187.45 L 345.35 187.51 L 345.35 187.60 L 345.35 187.64 L 345.35 187.68 L 345.35 187.78 L 345.35 187.80 L 345.35 187.82 L 345.35 187.91 L 345.35 187.93 L 345.35 188.73 L 345.35 188.82 L 345.35 189.15 L 345.35 189.47 L 345.35 189.74 L 345.35 189.86 L 345.35 189.92 L 345.35 190.28 L 345.35 190.48 L 345.35 190.60 L 345.35 190.86 L 345.35 191.47 L 345.35 191.85 L 345.35 191.92 L 345.35 192.13 L 345.35 192.39 L 345.35 192.53 L 345.35 192.88 L 345.35 192.91 L 345.35 193.22 L 345.35 193.40 L 345.35 193.55 L 345.35 193.56 L 345.35 193.75 L 345.35 194.51 L 345.35 194.59 L 345.35 194.77 L 345.35 195.23 L 345.35 195.45 L 345.35 195.46 L 345.35 196.04 L 345.35 196.18 L 345.35 196.77 L 345.35 197.44 L 345.35 197.45 L 345.35 197.57 L 345.35 197.60 L 345.35 197.93 L 345.35 198.23 L 345.35 198.45 L 345.35 198.59 L 345.35 198.91 L 345.35 199.03 L 345.35 199.25 L 345.35 199.35 L 345.35 199.52 L 345.35 199.68 L 345.35 200.26 L 345.35 200.46 L 345.35 200.51 L 345.35 200.54 L 345.35 200.56 L 345.35 200.56 L 345.35 200.62 L 345.35 200.92 L 345.35 201.04 L 345.35 201.60 L 345.35 201.60 L 345.35 201.86 L 345.35 202.03 L 345.35 202.40 L 345.35 202.40 L 345.35 202.63 L 345.35 202.64 L 345.35 202.97 L 345.35 203.21 L 345.35 203.37 L 345.35 203.45 L 345.35 204.17 L 345.35 204.37 L 345.35 204.44 L 345.35 204.57 L 345.35 204.92 L 345.35 204.96 L 345.35 205.11 L 345.35 205.16 L 345.35 205.36 L 345.35 205.51 L 345.35 205.55 L 345.35 205.63 L 345.35 205.68 L 345.35 205.92 L 345.35 205.93 L 345.35 206.06 L 345.35 206.48 L 345.35 206.49 L 345.35 206.68 L 345.35 206.76 L 345.35 206.76 L 345.35 206.76 L 345.35 206.87 L 345.35 206.90 L 345.35 207.27 L 345.35 207.35 L 345.35 207.42 L 345.35 207.47 L 345.35 207.54 L 345.35 207.64 L 345.35 208.04 L 345.35 208.51 L 345.35 209.01 L 345.35 209.12 L 345.35 209.19 L 345.35 209.25 L 345.35 209.46 L 345.35 209.63 L 345.35 209.97 L 345.35 210.07 L 345.35 210.12 L 345.35 210.16 L 345.35 210.22 L 345.35 210.34 L 345.35 210.38 L 345.35 210.40 L 345.35 210.54 L 345.35 211.02 L 345.35 211.07 L 345.35 211.20 L 345.35 211.24 L 345.35 211.27 L 345.35 211.31 L 345.35 211.58 L 345.35 211.74 L 345.35 212.00 L 345.35 212.09 L 345.35 212.31 L 345.35 212.34 L 345.35 212.43 L 345.35 212.48 L 345.35 212.53 L 345.35 212.64 L 345.35 213.09 L 345.35 213.38 L 345.35 213.39 L 345.35 213.41 L 345.35 213.69 L 345.35 213.80 L 345.35 214.00 L 345.35 214.08 L 345.35 214.17 L 345.35 214.56 L 345.35 214.59 L 345.35 214.64 L 345.35 214.99 L 345.35 215.38 L 345.35 215.72 L 345.35 216.06 L 345.35 216.25 L 345.35 216.38 L 345.35 216.38 L 345.35 216.49 L 345.35 216.70 L 345.35 216.93 L 345.35 216.99 L 345.35 217.60 L 345.35 217.63 L 345.35 217.69 L 345.35 217.98 L 345.35 218.00 L 345.35 218.30 L 345.35 218.48 L 345.35 219.34 L 345.35 219.55 L 345.35 219.62 L 345.35 219.89 L 345.35 220.64 L 345.35 220.74 L 345.35 220.80 L 345.35 220.82 L 345.35 221.10 L 345.35 221.10 L 345.35 221.32 L 345.35 221.48 L 345.35 221.61 L 345.35 221.78 L 345.35 222.00 L 345.35 222.17 L 345.35 222.18 L 345.35 222.50 L 345.35 222.91 L 345.35 223.28 L 345.35 223.63 L 345.35 223.89 L 345.35 224.34 L 345.35 224.36 L 345.35 224.48 L 345.35 224.68 L 345.35 224.73 L 345.35 224.79 L 345.35 224.84 L 345.35 224.96 L 345.35 225.01 L 345.35 225.24 L 345.35 225.33 L 345.35 225.50 L 345.35 225.63 L 345.35 225.77 L 345.35 225.98 L 345.35 226.83 L 345.35 226.84 L 345.35 226.91 L 345.35 226.95 L 345.35 227.10 L 345.35 227.20 L 345.35 227.30 L 345.35 227.58 L 345.35 227.78 L 345.35 227.99 L 345.35 228.33 L 345.35 228.72 L 345.35 228.72 L 345.35 228.77 L 345.35 228.99 L 345.35 229.03 L 345.35 229.17 L 345.35 229.41 L 345.35 229.43 L 345.35 229.64 L 345.35 229.73 L 345.35 230.05 L 345.35 230.20 L 345.35 230.68 L 345.35 230.89 L 345.35 231.47 L 345.35 231.51 L 345.35 231.86 L 345.35 231.95 L 345.35 232.12 L 345.35 232.29 L 345.35 232.33 L 345.35 232.47 L 345.35 233.02 L 345.35 233.60 L 345.35 233.65 L 345.35 233.72 L 345.35 234.04 L 345.35 234.22 L 345.35 234.29 L 345.35 234.75 L 345.35 234.79 L 345.35 234.81 L 345.35 234.83 L 345.35 234.96 L 345.35 235.15 L 345.35 235.69 L 345.35 235.70 L 345.35 235.86 L 345.35 236.12 L 345.35 236.49 L 345.35 236.67 L 345.35 236.85 L 345.35 236.88 L 345.35 236.90 L 345.35 237.03 L 345.35 237.57 L 345.35 237.58 L 345.35 237.91 L 345.35 238.03 L 345.35 238.23 L 345.35 238.30 L 345.35 238.87 L 345.35 238.93 L 345.35 239.11 L 345.35 239.14 L 345.35 239.34 L 345.35 239.61 L 345.35 239.81 L 345.35 239.94 L 345.35 240.55 L 345.35 240.63 L 345.35 240.64 L 345.35 240.68 L 345.35 240.80 L 345.35 241.28 L 345.35 241.43 L 345.35 241.75 L 345.35 241.78 L 345.35 241.79 L 345.35 242.06 L 345.35 242.69 L 345.35 242.70 L 345.35 242.87 L 345.35 242.99 L 345.35 243.05 L 345.35 243.05 L 345.35 243.17 L 345.35 243.52 L 345.35 244.01 L 345.35 244.17 L 345.35 244.18 L 345.35 244.32 L 345.35 244.39 L 345.35 244.70 L 345.35 245.37 L 345.35 245.46 L 345.35 245.50 L 345.35 245.95 L 345.35 246.11 L 345.35 246.46 L 345.35 246.92 L 345.35 247.33 L 345.35 247.59 L 345.35 247.62 L 345.35 247.86 L 345.35 247.93 L 345.35 248.23 L 345.35 248.27 L 345.35 248.35 L 345.35 248.39 L 345.35 248.74 L 345.35 248.96 L 345.35 249.32 L 345.35 249.35 L 345.35 249.36 L 345.35 249.83 L 345.35 249.99 L 345.35 250.09 L 345.35 250.76 L 345.35 251.02 L 345.35 251.05 L 345.35 251.06 L 345.35 251.07 L 345.35 251.14 L 345.35 251.24 L 345.35 251.28 L 345.35 251.33 L 345.35 251.71 L 345.35 251.74 L 345.35 251.76 L 345.35 251.98 L 345.35 252.40 L 345.35 252.72 L 345.35 253.28 L 345.35 253.44 L 345.35 253.60 L 345.35 253.61 L 345.35 253.61 L 345.35 253.77 L 345.35 254.15 Z"
        fill="none"
        stroke="black"
        stroke-width="2"/>
</svg>
