<?xml version="1.0" encoding="UTF-8" standalone="no"?>
<svg xmlns="http://www.w3.org/2000/svg"
     width="1318.11" height="1922.27"
     viewBox="0 0 1318.11 1922.27">
  <path d="M 635.76 961.25 L 635.60 961.25 L 635.34 961.25 L 633.78 961.25 L 632.88 961.25 L 632.71 961.25 L 632.22 961.25 L 631.85 961.25 L 631.81 961.25 L 629.73 961.25 L 629.71 961.25 L 628.07 961.25 L 627.98 961.25 L 627.82 961.25 L 626.55 961.25 L 625.97 961.25 L 625.41 961.25 L 625.24 961.25 L 624.60 961.25 L 624.41 961.25 L 624.21 961.25 L 621.91 961.25 L 619.28 961.25 L 616.27 961.25 L 615.18 961.25 L 614.65 961.25 L 613.05 961.25 L 612.27 961.25 L 611.78 961.25 L 610.05 961.25 L 610.02 961.25 L 609.01 961.25 L 608.82 961.25 L 608.12 961.25 L 608.10 961.25 L 607.73 961.25 L 606.98 961.25 L 606.32 961.25 L 605.73 961.25 L 604.57 961.25 L 604.04 961.25 L 603.88 961.25 L 603.11 961.25 L 602.02 961.25 L 600.96 961.25 L 600.48 961.25 L 599.38 961.25 L 599.32 961.25 L 599.31 961.25 L 598.79 961.25 L 598.63 961.25 L 597.88 961.25 L 597.66 961.25 L 597.53 961.25 L 596.61 961.25 L 596.54 961.25 L 596.34 961.25 L 594.53 961.25 L 594.26 961.25 L 592.24 961.25 L 591.80 961.25 L 590.57 961.25 L 589.57 961.25 L 589.48 961.25 L 589.23 961.25 L 588.84 961.25 L 588.50 961.25 L 586.72 961.25 L 586.67 961.25 L 586.56 961.25 L 583.67 961.25 L 582.66 961.25 L 582.23 961.25 L 581.49 961.25 L 581.34 961.25 L 580.22 961.25 L 578.86 960.91 L 578.52 960.73 L 578.52 959.53 L 578.52 958.24 L 578.52 957.61 L 578.52 957.55 L 578.52 957.51 L 578.52 956.85 L 578.52 954.92 L 578.52 954.35 L 578.52 954.15 L 578.52 951.43 L 578.52 951.31 L 578.52 950.87 L 578.52 950.82 L 578.52 949.99 L 578.52 949.62 L 578.52 948.82 L 578.52 948.62 L 578.52 948.06 L 578.52 947.31 L 578.52 947.30 L 578.52 946.39 L 578.52 945.12 L 578.52 944.58 L 578.52 944.27 L 578.52 943.92 L 578.52 943.57 L 578.52 943.50 L 578.52 943.24 L 578.52 942.74 L 578.52 942.57 L 578.52 942.06 L 578.52 940.24 L 578.52 938.85 L 578.52 937.93 L 578.52 935.67 L 578.52 935.64 L 578.52 934.75 L 578.52 934.09 L 578.52 934.04 L 578.52 934.01 L 578.52 932.90 L 578.52 932.67 L 578.52 931.21 L 578.52 929.73 L 578.52 928.96 L 578.52 928.44 L 578.52 928.18 L 578.52 928.01 L 578.52 927.90 L 578.52 926.84 L 578.52 924.98 L 578.52 924.18 L 578.52 924.09 L 578.52 923.91 L 578.52 923.78 L 578.52 922.83 L 578.52 921.94 L 578.52 921.60 L 578.52 919.75 L 578.52 919.25 L 578.52 918.32 L 578.52 917.42 L 578.52 917.19 L 578.52 917.04 L 578.52 915.51 L 578.52 915.06 L 578.52 914.54 L 578.52 913.52 L 578.52 913.24 L 578.52 911.74 L 578.52 911.61 L 578.52 911.37 L 578.52 910.41 L 578.52 909.95 L 578.52 909.90 L 578.52 909.67 L 578.52 909.19 L 578.52 909.12 L 578.52 908.33 L 578.52 908.07 L 578.52 908.05 L 578.52 907.48 L 578.52 907.20 L 578.52 905.52 L 578.52 905.31 L 578.52 904.50 L 578.52 904.02 L 578.52 903.91 L 578.52 902.52 L 578.52 902.49 L 578.52 901.56 L 578.52 901.46 L 578.52 901.42 L 578.52 899.65 L 578.52 897.93 L 578.52 897.89 L 578.52 897.37 L 578.52 897.32 L 578.52 897.09 L 578.52 896.85 L 578.52 896.03 L 578.52 894.16 L 578.52 891.09 L 578.52 890.64 L 578.52 890.15 L 578.52 889.53 L 578.52 889.44 L 578.52 888.94 L 578.52 887.92 L 578.52 885.63 L 578.52 884.17 L 578.52 883.96 L 578.52 883.71 L 578.52 882.13 L 578.52 881.69 L 578.52 881.60 L 578.52 879.85 L 578.52 878.68 L 578.52 876.32 L 578.52 875.21 L 578.52 875.12 L 578.52 873.00 L 578.52 872.86 L 578.52 872.19 L 578.52 870.06 L 578.52 870.00 L 578.52 869.81 L 578.52 869.37 L 578.52 868.06 L 578.52 867.38 L 578.52 866.81 L 578.52 866.67 L 578.52 866.10 L 578.52 866.02 L 578.52 865.11 L 578.52 865.05 L 578.52 864.93 L 578.52 864.67 L 578.52 863.41 L 578.52 861.40 L 578.52 861.38 L 578.52 860.72 L 578.52 860.61 L 578.52 860.19 L 578.52 859.51 L 578.52 857.42 L 578.52 857.33 L 578.52 855.10 L 578.52 854.93 L 578.52 854.73 L 578.52 854.58 L 578.52 853.68 L 578.52 853.55 L 578.52 853.09 L 578.52 852.43 L 578.52 850.65 L 578.52 849.79 L 578.52 848.11 L 578.52 847.53 L 578.52 847.19 L 578.52 846.00 L 578.52 843.90 L 578.52 842.47 L 578.52 842.12 L 578.52 840.52 L 578.52 838.00 L 578.52 837.05 L 578.52 836.59 L 578.52 834.59 L 578.52 834.04 L 578.52 833.89 L 578.52 833.79 L 578.52 833.21 L 578.52 831.53 L 578.52 830.56 L 578.52 829.71 L 578.52 829.30 L 578.52 829.08 L 578.52 827.32 L 578.52 826.60 L 578.52 822.87 L 578.52 822.37 L 578.52 822.13 L 578.52 820.97 L 578.52 820.09 L 578.52 818.96 L 578.52 818.56 L 578.52 818.43 L 578.52 817.82 L 578.52 815.89 L 578.52 815.83 L 578.52 814.13 L 578.52 814.08 L 578.52 812.36 L 578.52 812.20 L 578.52 811.81 L 578.52 810.91 L 578.52 810.35 L 578.52 810.18 L 578.52 808.35 L 578.52 807.27 L 578.52 806.84 L 578.52 805.47 L 578.52 804.76 L 578.52 803.11 L 578.52 799.90 L 578.52 799.14 L 578.52 796.65 L 557.25 775.19 L 556.67 775.19 L 556.00 775.19 L 554.95 775.19 L 554.41 775.19 L 554.08 775.19 L 552.12 775.19 L 551.74 775.19 L 551.56 775.19 L 548.49 775.19 L 548.08 775.19 L 547.51 775.19 L 546.74 775.19 L 546.48 775.19 L 539.94 775.19 L 536.69 775.19 L 534.81 775.19 L 533.15 775.19 L 527.35 775.19 L 524.77 775.19 L 519.33 775.19 L 514.88 775.19 L 514.79 775.19 L 508.72 775.19 L 506.11 775.19 L 502.10 775.19 L 497.19 775.19 L 490.04 775.19 L 489.94 775.19 L 485.35 775.19 L 480.79 775.19 L 480.07 775.19 L 477.77 775.19 L 476.25 775.19 L 475.48 775.19 L 474.70 775.19 L 472.88 775.19 L 463.19 775.19 L 462.13 775.19 L 454.01 775.19 L 444.38 775.19 L 437.09 775.19 L 436.07 775.19 L 430.45 775.19 L 425.80 775.19 L 419.06 775.19 L 416.29 775.19 L 405.96 775.19 L 402.82 775.19 L 400.02 775.19 L 398.36 775.19 L 388.12 775.19 L 388.06 775.19 L 384.62 774.62 L 377.04 775.19 L 375.87 775.19 L 367.31 775.19 L 366.35 775.19 L 359.41 775.19 L 356.22 775.19 L 353.51 775.19 L 352.82 775.19 L 346.17 775.19 L 336.48 775.19 L 335.86 775.19 L 330.95 775.19 L 327.70 775.19 L 325.45 775.19 L 324.98 775.19 L 320.26 775.19 L 318.26 775.19 L 317.35 775.19 L 317.16 775.19 L 314.99 775.19 L 313.53 775.19 L 313.03 775.19 L 307.11 775.19 L 298.33 775.19 L 297.91 775.19 L 297.60 775.19 L 296.62 775.19 L 294.57 775.19 L 288.44 775.19 L 286.12 775.19 L 279.36 775.19 L 279.07 775.19 L 278.92 775.19 L 274.00 775.19 L 271.50 775.19 L 265.24 775.19 L 263.79 775.19 L 262.64 775.19 L 262.31 775.19 L 261.94 775.19 L 259.10 775.19 L 253.98 775.19 L 250.45 775.19 L 244.04 775.19 L 234.35 775.19 L 233.25 775.19 L 233.02 775.19 L 227.15 775.19 L 226.02 775.19 L 223.66 775.19 L 219.88 775.19 L 219.28 775.19 L 219.07 775.19 L 218.22 775.19 L 194.02 796.07 L 194.02 798.82 L 194.02 800.11 L 194.02 800.48 L 194.02 800.81 L 194.02 801.21 L 194.02 802.72 L 194.02 803.37 L 194.02 805.12 L 194.02 806.45 L 194.02 807.64 L 194.02 807.74 L 194.02 807.77 L 194.02 808.58 L 194.02 810.67 L 194.02 811.64 L 194.02 812.74 L 194.02 812.88 L 194.02 813.17 L 194.02 814.99 L 194.02 816.22 L 194.02 816.58 L 194.02 818.38 L 194.02 819.21 L 194.02 819.59 L 194.02 820.32 L 194.02 821.22 L 194.02 821.24 L 194.02 821.90 L 194.02 823.71 L 194.02 825.21 L 194.02 829.16 L 194.02 829.22 L 194.02 829.37 L 194.02 831.26 L 194.02 831.27 L 194.02 831.73 L 194.02 832.07 L 194.02 832.54 L 194.02 833.30 L 194.02 833.67 L 194.02 834.26 L 194.02 835.32 L 194.02 835.63 L 194.02 835.72 L 194.02 836.05 L 194.02 837.50 L 194.02 837.62 L 194.02 837.75 L 194.02 837.75 L 194.02 837.97 L 194.02 838.11 L 194.02 838.33 L 194.02 839.63 L 194.02 839.67 L 194.02 839.85 L 194.02 839.91 L 194.02 840.11 L 194.02 840.78 L 194.02 841.02 L 194.02 841.61 L 194.02 841.80 L 194.02 841.82 L 194.02 842.29 L 194.02 845.63 L 194.02 846.49 L 194.02 846.86 L 194.02 847.96 L 194.02 848.62 L 194.02 849.92 L 194.02 850.38 L 194.02 850.49 L 194.02 851.76 L 194.02 851.80 L 194.02 853.45 L 194.02 853.90 L 194.02 854.05 L 194.02 854.46 L 194.02 856.92 L 194.02 857.09 L 194.02 858.37 L 194.02 858.56 L 194.02 858.75 L 194.02 859.90 L 194.02 861.12 L 194.02 863.14 L 194.02 864.36 L 194.02 864.41 L 194.02 864.71 L 194.02 869.17 L 194.02 869.39 L 194.02 869.69 L 194.02 870.04 L 194.02 871.05 L 194.02 871.49 L 194.02 872.15 L 194.02 872.38 L 194.02 872.61 L 194.02 872.71 L 194.02 873.27 L 194.02 873.43 L 194.02 873.83 L 194.02 875.61 L 194.02 875.79 L 194.02 876.11 L 194.02 876.32 L 194.02 877.57 L 194.02 878.19 L 194.02 878.35 L 194.02 880.25 L 194.02 880.73 L 194.02 883.68 L 194.02 883.87 L 194.02 884.96 L 194.02 886.04 L 194.02 886.27 L 194.02 888.46 L 194.02 889.13 L 194.02 892.16 L 194.02 892.68 L 194.02 892.84 L 194.02 892.93 L 194.02 894.27 L 194.02 894.78 L 194.02 895.30 L 194.02 895.63 L 194.02 895.67 L 194.02 895.84 L 194.02 896.32 L 194.02 896.65 L 194.02 896.97 L 194.02 898.78 L 194.02 899.25 L 194.02 899.37 L 194.02 899.54 L 194.02 899.57 L 194.02 899.92 L 194.02 901.59 L 194.02 903.38 L 194.02 903.65 L 194.02 903.68 L 194.02 904.64 L 194.02 905.30 L 194.02 905.55 L 194.02 905.95 L 194.02 906.83 L 194.02 908.02 L 194.02 908.16 L 194.02 908.31 L 194.02 909.13 L 194.02 909.13 L 194.02 909.57 L 194.02 911.14 L 194.02 911.34 L 194.02 911.99 L 194.02 912.60 L 194.02 914.75 L 194.02 915.91 L 194.02 916.79 L 194.02 918.49 L 194.02 920.58 L 194.02 921.14 L 194.02 922.08 L 194.02 923.70 L 194.02 925.54 L 194.02 926.90 L 194.02 927.37 L 194.02 927.39 L 194.02 927.47 L 194.02 928.65 L 194.02 929.78 L 194.02 930.08 L 194.02 930.96 L 194.02 931.94 L 194.02 933.06 L 194.02 934.82 L 194.02 935.12 L 194.02 935.66 L 194.02 935.80 L 194.02 936.35 L 194.02 936.72 L 194.02 937.27 L 194.02 937.42 L 194.02 937.74 L 194.02 938.74 L 194.02 939.51 L 194.02 940.05 L 194.02 940.06 L 194.02 940.06 L 194.02 940.85 L 194.02 943.19 L 194.02 944.66 L 194.02 944.73 L 194.02 945.06 L 194.02 945.53 L 194.02 945.61 L 194.02 945.90 L 194.02 946.76 L 194.02 948.17 L 194.02 948.58 L 194.02 948.86 L 194.02 949.02 L 194.02 949.80 L 194.02 950.81 L 194.02 951.05 L 194.02 951.19 L 194.02 951.24 L 194.02 951.89 L 194.02 952.30 L 194.02 952.33 L 194.02 953.22 L 194.02 953.62 L 194.02 953.67 L 194.02 957.47 L 194.02 957.54 L 194.02 959.13 L 194.02 959.65 L 194.02 960.35 L 194.02 960.58 L 194.02 961.02 L 194.02 961.15 L 194.02 961.18 L 194.02 961.98 L 194.02 961.99 L 194.02 964.29 L 194.02 965.38 L 194.02 966.07 L 194.02 966.60 L 194.02 967.07 L 194.02 970.72 L 194.02 972.22 L 194.02 972.51 L 194.02 972.60 L 194.02 972.80 L 194.02 973.56 L 194.02 974.26 L 194.02 975.80 L 194.02 977.13 L 194.02 978.03 L 194.02 979.91 L 194.02 980.88 L 194.02 981.35 L 194.02 982.06 L 194.02 982.38 L 194.02 983.21 L 194.02 985.02 L 194.02 985.28 L 194.02 985.65 L 194.02 985.69 L 194.02 985.82 L 194.02 988.81 L 194.02 988.94 L 194.02 989.53 L 194.02 990.82 L 194.02 991.56 L 194.02 992.59 L 194.02 992.87 L 194.02 994.12 L 194.02 994.37 L 194.02 995.08 L 194.02 996.22 L 194.02 996.42 L 194.02 996.81 L 194.02 997.56 L 194.02 999.77 L 194.02 1002.42 L 194.02 1003.13 L 194.02 1004.58 L 194.02 1005.07 L 194.02 1007.86 L 194.02 1008.18 L 194.02 1010.45 L 194.02 1010.52 L 194.02 1011.01 L 194.02 1011.05 L 194.02 1011.94 L 194.02 1012.59 L 194.02 1012.91 L 194.02 1014.19 L 194.02 1014.40 L 194.02 1014.42 L 194.02 1014.54 L 194.02 1014.55 L 194.02 1015.66 L 194.02 1016.58 L 194.02 1017.87 L 194.02 1017.87 L 194.02 1017.94 L 194.02 1018.37 L 194.02 1018.61 L 194.02 1019.62 L 194.02 1019.66 L 194.02 1019.76 L 194.02 1020.46 L 194.02 1021.33 L 194.02 1022.60 L 194.02 1023.87 L 194.02 1024.47 L 194.02 1024.98 L 194.02 1025.26 L 194.02 1028.09 L 194.02 1028.27 L 194.02 1029.69 L 194.02 1030.47 L 194.02 1031.45 L 194.02 1032.23 L 194.02 1033.00 L 194.02 1036.34 L 194.02 1036.49 L 194.02 1037.62 L 194.02 1039.40 L 194.02 1041.43 L 194.02 1043.32 L 194.02 1044.15 L 194.02 1045.62 L 194.02 1046.92 L 194.02 1051.86 L 194.02 1054.23 L 194.02 1057.17 L 194.02 1057.74 L 194.02 1057.89 L 194.02 1058.03 L 194.02 1058.69 L 194.02 1059.91 L 194.02 1062.63 L 194.02 1063.22 L 194.02 1064.93 L 194.02 1070.85 L 194.02 1071.83 L 194.02 1073.77 L 194.02 1075.14 L 194.02 1078.01 L 194.02 1078.93 L 194.02 1079.51 L 194.02 1080.60 L 194.02 1080.77 L 194.02 1080.95 L 194.02 1082.92 L 194.02 1083.86 L 194.02 1084.32 L 194.02 1088.29 L 194.02 1088.88 L 194.02 1089.01 L 194.02 1090.68 L 194.02 1092.90 L 194.02 1094.34 L 194.02 1095.62 L 194.02 1098.08 L 194.02 1100.11 L 194.02 1100.13 L 194.02 1101.18 L 194.02 1101.58 L 194.02 1102.95 L 194.02 1103.92 L 194.02 1104.18 L 194.02 1104.76 L 194.02 1106.43 L 194.02 1107.20 L 194.02 1107.35 L 194.02 1109.31 L 194.02 1110.54 L 194.02 1111.96 L 194.02 1113.10 L 194.02 1113.59 L 194.02 1113.71 L 194.02 1114.90 L 194.02 1116.97 L 194.02 1117.04 L 194.02 1117.33 L 194.02 1117.33 L 194.02 1117.56 L 194.02 1117.70 L 194.02 1117.93 L 194.02 1120.45 L 194.02 1120.63 L 194.02 1121.95 L 194.02 1122.49 L 194.02 1123.36 L 194.02 1123.66 L 194.02 1124.25 L 194.02 1124.65 L 194.02 1125.27 L 194.02 1125.49 L 194.02 1126.78 L 194.02 1127.08 L 194.02 1128.05 L 194.02 1128.27 L 194.02 1128.56 L 194.02 1129.31 L 194.02 1129.45 L 194.02 1129.51 L 194.02 1130.07 L 194.02 1131.60 L 194.02 1132.92 L 194.02 1133.12 L 194.02 1133.78 L 194.02 1133.85 L 194.02 1135.67 L 194.02 1136.17 L 194.02 1136.54 L 194.02 1138.86 L 194.02 1139.18 L 194.02 1141.01 L 194.02 1141.63 L 194.02 1142.16 L 194.02 1142.46 L 194.02 1145.52 L 194.02 1146.18 L 194.02 1146.37 L 194.02 1147.49 L 194.02 1148.47 L 194.02 1148.58 L 194.02 1150.07 L 194.02 1150.72 L 194.02 1152.43 L 194.02 1152.68 L 194.02 1153.35 L 194.02 1155.05 L 194.02 1155.13 L 194.02 1155.68 L 194.02 1156.46 L 194.02 1156.85 L 194.02 1159.82 L 194.02 1161.17 L 194.02 1161.32 L 194.02 1162.67 L 194.02 1163.92 L 194.02 1165.28 L 194.02 1165.66 L 194.02 1167.09 L 194.02 1167.09 L 194.02 1167.81 L 194.02 1168.24 L 194.02 1169.02 L 194.02 1169.36 L 194.02 1169.73 L 194.02 1169.80 L 194.02 1169.86 L 194.02 1169.87 L 194.02 1170.60 L 194.02 1171.37 L 194.02 1172.36 L 194.02 1172.92 L 194.02 1173.19 L 194.02 1174.49 L 194.02 1175.04 L 194.02 1175.16 L 194.02 1175.41 L 194.02 1176.13 L 194.02 1180.52 L 194.02 1183.04 L 194.02 1183.41 L 194.02 1183.61 L 194.02 1183.91 L 194.02 1184.18 L 194.02 1184.29 L 194.02 1184.96 L 194.02 1185.36 L 194.02 1186.12 L 194.02 1189.97 L 194.02 1190.85 L 194.02 1191.26 L 194.02 1192.25 L 194.02 1192.62 L 194.02 1193.29 L 194.02 1193.48 L 194.02 1193.53 L 194.02 1194.84 L 194.02 1194.88 L 194.02 1197.21 L 194.02 1197.33 L 194.02 1197.45 L 194.02 1197.82 L 194.02 1198.68 L 194.02 1199.01 L 194.02 1199.30 L 194.02 1199.33 L 194.02 1200.84 L 194.02 1201.45 L 194.02 1201.98 L 194.02 1202.84 L 194.02 1203.16 L 194.02 1203.92 L 194.02 1204.90 L 194.02 1205.90 L 194.02 1207.65 L 194.02 1208.65 L 194.02 1210.54 L 194.02 1210.78 L 194.02 1210.78 L 194.02 1211.43 L 194.02 1211.54 L 194.02 1211.95 L 194.02 1212.02 L 194.02 1212.16 L 194.02 1212.36 L 194.02 1212.52 L 194.02 1213.65 L 194.02 1213.72 L 194.02 1214.01 L 194.02 1214.38 L 194.02 1214.83 L 194.02 1215.33 L 194.02 1215.89 L 194.02 1216.25 L 194.02 1217.19 L 194.02 1217.46 L 194.02 1217.47 L 194.02 1217.81 L 194.02 1219.15 L 194.02 1220.47 L 194.02 1220.62 L 194.02 1221.02 L 194.02 1221.23 L 194.02 1221.57 L 194.02 1221.71 L 194.02 1222.54 L 194.02 1222.94 L 194.02 1224.11 L 194.02 1224.16 L 194.02 1224.28 L 194.02 1224.79 L 194.02 1224.91 L 194.02 1224.99 L 194.02 1225.01 L 194.02 1225.15 L 194.02 1225.69 L 194.02 1227.00 L 194.02 1227.24 L 194.02 1227.33 L 194.02 1228.64 L 194.02 1228.66 L 194.02 1228.88 L 194.02 1229.11 L 194.02 1230.03 L 194.02 1230.71 L 194.02 1231.47 L 194.02 1232.36 L 194.02 1232.72 L 194.02 1233.45 L 194.02 1233.57 L 194.02 1233.61 L 194.02 1233.83 L 194.02 1234.31 L 194.02 1234.62 L 194.02 1234.95 L 194.02 1235.24 L 194.02 1235.58 L 194.02 1235.92 L 194.02 1236.10 L 194.02 1236.45 L 194.02 1239.58 L 194.02 1239.87 L 194.02 1240.97 L 194.02 1241.72 L 194.02 1243.53 L 194.02 1243.55 L 194.02 1243.86 L 194.02 1244.67 L 194.02 1246.29 L 194.02 1246.63 L 194.02 1247.67 L 194.02 1250.81 L 194.02 1252.35 L 194.02 1252.69 L 194.02 1253.02 L 194.02 1253.93 L 194.02 1254.68 L 194.02 1254.76 L 194.02 1256.20 L 194.02 1259.05 L 194.02 1260.23 L 194.02 1261.48 L 194.02 1261.85 L 194.02 1262.34 L 194.02 1262.44 L 194.02 1263.67 L 194.02 1263.95 L 194.02 1264.84 L 194.02 1264.98 L 194.02 1265.00 L 194.02 1265.46 L 194.02 1265.96 L 194.02 1267.25 L 194.02 1268.07 L 194.02 1268.65 L 194.02 1269.22 L 194.02 1269.97 L 194.02 1270.37 L 194.02 1270.52 L 194.02 1271.46 L 194.02 1272.17 L 194.02 1272.55 L 194.02 1273.32 L 194.02 1273.96 L 194.02 1274.27 L 194.02 1275.19 L 194.02 1275.61 L 194.02 1276.13 L 194.02 1276.23 L 194.02 1276.40 L 194.02 1276.49 L 194.02 1277.33 L 194.02 1277.62 L 194.02 1277.76 L 194.02 1277.89 L 194.02 1278.16 L 194.02 1278.71 L 194.02 1281.79 L 194.02 1284.48 L 194.02 1285.34 L 194.02 1285.61 L 194.02 1285.87 L 194.02 1288.52 L 194.02 1288.84 L 194.02 1289.35 L 194.02 1289.67 L 194.02 1289.96 L 194.02 1290.03 L 194.02 1290.18 L 194.02 1290.40 L 194.02 1290.54 L 194.02 1290.59 L 194.02 1290.65 L 194.02 1292.68 L 194.02 1296.00 L 194.02 1298.10 L 194.02 1298.66 L 194.02 1298.73 L 194.02 1300.14 L 194.02 1300.44 L 194.02 1301.39 L 194.02 1301.88 L 194.02 1302.99 L 194.02 1303.32 L 194.02 1304.09 L 194.02 1304.55 L 194.02 1304.62 L 194.02 1307.30 L 194.02 1307.59 L 194.02 1308.14 L 194.02 1309.61 L 194.02 1310.30 L 194.02 1311.70 L 194.02 1311.77 L 194.02 1312.76 L 194.02 1313.43 L 194.02 1315.01 L 194.02 1315.05 L 194.02 1315.33 L 194.02 1315.65 L 194.02 1318.09 L 194.02 1318.33 L 194.02 1320.87 L 194.02 1321.12 L 194.02 1322.13 L 194.02 1323.39 L 194.02 1323.77 L 194.02 1327.71 L 194.02 1327.74 L 194.02 1328.33 L 194.02 1330.26 L 194.02 1331.86 L 194.02 1332.27 L 194.02 1336.94 L 194.02 1337.92 L 194.02 1338.20 L 194.02 1338.41 L 194.02 1338.60 L 194.02 1341.97 L 194.02 1341.97 L 194.02 1343.08 L 194.02 1343.56 L 194.02 1343.85 L 194.02 1344.45 L 194.02 1345.77 L 194.02 1346.57 L 194.02 1346.79 L 194.02 1347.86 L 194.02 1349.02 L 194.02 1350.24 L 194.02 1350.24 L 194.02 1350.42 L 194.02 1351.42 L 194.02 1351.63 L 194.02 1352.77 L 194.02 1353.78 L 194.02 1355.18 L 194.02 1355.54 L 194.02 1355.91 L 194.02 1356.17 L 194.02 1356.47 L 194.02 1356.59 L 194.02 1357.60 L 194.02 1358.76 L 194.02 1359.11 L 194.02 1360.79 L 194.02 1361.95 L 194.02 1362.01 L 194.02 1362.67 L 194.02 1364.76 L 194.02 1364.83 L 194.02 1365.10 L 194.02 1365.24 L 194.02 1366.02 L 194.02 1366.22 L 194.02 1366.46 L 194.02 1368.53 L 194.02 1368.75 L 194.02 1369.30 L 194.02 1369.71 L 194.02 1372.07 L 194.02 1372.78 L 194.02 1372.98 L 194.02 1373.21 L 194.02 1373.26 L 194.02 1374.05 L 194.02 1375.66 L 194.02 1375.73 L 194.02 1375.77 L 194.02 1377.55 L 194.02 1378.28 L 194.02 1378.86 L 194.02 1379.33 L 194.02 1382.63 L 194.02 1382.86 L 194.02 1384.29 L 194.02 1384.32 L 194.02 1385.69 L 194.02 1385.85 L 194.02 1385.98 L 194.02 1386.18 L 194.02 1386.42 L 194.02 1387.91 L 194.02 1389.30 L 194.02 1389.38 L 194.02 1390.34 L 194.02 1390.71 L 194.02 1391.45 L 194.02 1392.27 L 194.02 1393.77 L 194.02 1394.04 L 194.02 1394.64 L 194.02 1395.19 L 194.02 1396.04 L 194.02 1400.55 L 194.02 1401.85 L 194.02 1402.55 L 194.02 1402.94 L 194.02 1403.23 L 194.02 1404.32 L 194.02 1404.32 L 194.02 1404.61 L 194.02 1404.91 L 194.02 1405.12 L 194.02 1405.87 L 194.02 1406.40 L 194.02 1406.51 L 194.02 1406.89 L 194.02 1407.78 L 194.02 1408.81 L 194.02 1409.08 L 194.02 1409.11 L 194.02 1410.45 L 194.02 1411.15 L 194.02 1411.22 L 194.02 1411.47 L 194.02 1411.55 L 194.02 1412.69 L 194.02 1412.76 L 194.02 1413.03 L 194.02 1413.10 L 194.02 1413.11 L 194.02 1413.25 L 194.02 1414.17 L 194.02 1415.29 L 194.02 1415.63 L 194.02 1417.23 L 194.02 1417.59 L 194.02 1418.63 L 194.02 1418.66 L 194.02 1421.17 L 194.02 1422.72 L 194.02 1423.34 L 194.02 1424.80 L 194.02 1425.17 L 194.02 1425.34 L 194.02 1426.28 L 194.02 1429.72 L 194.02 1430.98 L 194.02 1431.32 L 194.02 1431.88 L 194.02 1433.23 L 194.02 1434.33 L 194.02 1434.84 L 194.02 1436.49 L 194.02 1438.27 L 194.02 1439.11 L 194.02 1439.59 L 194.02 1439.79 L 194.02 1440.52 L 194.02 1443.32 L 194.02 1443.46 L 194.02 1444.56 L 194.02 1446.73 L 194.02 1447.61 L 194.02 1448.49 L 194.02 1448.81 L 194.02 1449.38 L 194.02 1449.87 L 194.02 1449.90 L 194.02 1452.95 L 194.02 1453.95 L 194.02 1454.35 L 194.02 1454.56 L 194.02 1454.86 L 194.02 1454.95 L 194.02 1455.17 L 194.02 1456.51 L 194.02 1460.17 L 194.02 1461.64 L 194.02 1462.40 L 194.02 1462.68 L 194.02 1462.91 L 194.02 1463.96 L 194.02 1466.44 L 194.02 1467.61 L 194.02 1468.00 L 194.02 1468.75 L 194.02 1469.28 L 194.02 1469.60 L 194.02 1469.69 L 194.02 1470.45 L 194.02 1470.92 L 194.02 1472.53 L 194.02 1473.74 L 194.02 1474.07 L 194.02 1474.08 L 194.02 1474.54 L 194.02 1474.64 L 194.02 1475.09 L 194.02 1478.43 L 194.02 1478.51 L 194.02 1479.57 L 194.02 1479.60 L 194.02 1479.62 L 194.02 1480.63 L 194.02 1481.67 L 194.02 1481.72 L 194.02 1485.39 L 194.02 1486.47 L 194.02 1487.25 L 194.02 1487.73 L 194.02 1488.02 L 194.02 1488.75 L 194.02 1490.05 L 194.02 1492.16 L 194.02 1492.50 L 194.02 1492.77 L 194.02 1492.80 L 194.02 1492.97 L 194.02 1495.23 L 194.02 1495.52 L 194.02 1495.92 L 194.02 1496.32 L 194.02 1496.94 L 194.02 1497.46 L 194.02 1498.63 L 194.02 1498.77 L 194.02 1498.90 L 194.02 1499.30 L 194.02 1499.67 L 194.02 1500.01 L 194.02 1503.26 L 194.02 1503.31 L 194.02 1503.54 L 194.02 1503.87 L 194.02 1506.46 L 194.02 1506.99 L 194.02 1507.35 L 194.02 1508.98 L 194.02 1509.16 L 194.02 1509.33 L 194.02 1509.46 L 194.02 1509.85 L 194.02 1511.57 L 194.02 1511.67 L 194.02 1512.82 L 194.02 1513.83 L 194.02 1514.75 L 194.02 1516.03 L 194.02 1516.29 L 194.02 1517.77 L 194.02 1517.85 L 194.02 1519.17 L 194.02 1519.51 L 194.02 1519.79 L 194.02 1520.70 L 194.02 1522.15 L 194.02 1522.72 L 194.02 1523.31 L 194.02 1523.47 L 194.02 1524.67 L 194.02 1525.90 L 194.02 1526.55 L 194.02 1529.36 L 194.02 1529.37 L 194.02 1530.06 L 194.02 1530.30 L 194.02 1530.36 L 194.02 1530.50 L 194.02 1531.25 L 194.02 1531.47 L 194.02 1531.48 L 194.02 1532.01 L 194.02 1534.16 L 194.02 1535.34 L 194.02 1535.56 L 194.02 1535.92 L 194.02 1536.06 L 194.02 1536.33 L 194.02 1537.18 L 194.02 1538.26 L 194.02 1538.81 L 194.02 1538.84 L 194.02 1539.25 L 194.02 1539.57 L 194.02 1540.50 L 194.02 1541.48 L 194.02 1542.57 L 194.02 1543.97 L 194.02 1544.19 L 194.02 1545.68 L 194.02 1546.33 L 194.02 1546.67 L 194.02 1547.15 L 194.02 1547.36 L 194.02 1547.65 L 194.02 1547.65 L 194.02 1547.97 L 194.02 1548.87 L 194.02 1549.17 L 194.02 1549.80 L 194.02 1550.18 L 194.02 1550.77 L 194.02 1551.37 L 194.02 1552.74 L 194.02 1553.74 L 194.02 1554.13 L 194.02 1555.65 L 194.02 1556.40 L 194.02 1557.75 L 194.02 1558.01 L 194.02 1559.81 L 194.02 1560.58 L 194.02 1560.62 L 194.02 1561.38 L 194.02 1562.29 L 194.02 1562.50 L 194.02 1564.53 L 194.02 1564.75 L 194.02 1565.25 L 194.02 1566.37 L 194.02 1566.38 L 194.02 1568.07 L 194.02 1568.22 L 194.02 1568.79 L 194.02 1569.31 L 194.02 1569.32 L 194.02 1570.44 L 194.02 1570.88 L 194.02 1571.22 L 194.02 1571.59 L 194.02 1572.13 L 194.02 1572.63 L 194.02 1572.93 L 194.02 1573.09 L 194.02 1573.48 L 194.02 1573.62 L 194.02 1573.88 L 194.02 1574.22 L 194.02 1574.90 L 194.02 1575.16 L 194.02 1575.85 L 194.02 1576.56 L 194.02 1576.61 L 194.02 1576.76 L 194.02 1577.57 L 194.02 1578.42 L 194.02 1578.48 L 194.02 1579.01 L 194.02 1581.19 L 194.02 1581.63 L 194.02 1582.32 L 194.02 1582.76 L 194.02 1586.02 L 194.02 1586.40 L 194.02 1586.56 L 194.02 1586.76 L 194.02 1587.64 L 194.02 1589.58 L 194.02 1590.31 L 194.02 1590.80 L 194.02 1591.09 L 194.02 1591.55 L 194.02 1592.33 L 194.02 1593.19 L 194.02 1593.81 L 194.02 1594.80 L 194.02 1595.62 L 194.02 1596.54 L 194.02 1598.10 L 194.02 1599.01 L 194.02 1601.24 L 194.02 1601.83 L 194.02 1601.95 L 194.02 1602.52 L 194.02 1604.37 L 194.02 1605.09 L 194.02 1605.93 L 194.02 1607.30 L 194.02 1609.12 L 194.02 1609.46 L 194.02 1609.47 L 194.02 1613.05 L 194.02 1613.57 L 194.02 1616.11 L 194.02 1616.26 L 194.02 1616.47 L 194.02 1617.02 L 194.02 1618.65 L 194.02 1620.13 L 194.02 1620.96 L 194.02 1621.01 L 194.02 1621.09 L 194.02 1621.14 L 194.02 1621.40 L 194.02 1622.32 L 194.02 1622.79 L 194.02 1623.09 L 194.02 1623.46 L 194.02 1624.12 L 194.02 1624.18 L 194.02 1624.39 L 194.02 1624.70 L 194.02 1625.24 L 194.02 1627.22 L 194.02 1627.64 L 194.02 1627.71 L 194.02 1628.10 L 194.02 1628.37 L 194.02 1628.51 L 194.02 1629.59 L 194.02 1629.80 L 194.02 1630.13 L 194.02 1630.63 L 194.02 1631.27 L 194.02 1631.51 L 194.02 1631.98 L 194.02 1638.68 L 194.02 1639.29 L 194.02 1639.92 L 194.02 1639.97 L 194.02 1640.34 L 194.02 1640.60 L 194.02 1640.73 L 194.02 1641.34 L 194.02 1642.92 L 194.02 1643.29 L 194.02 1643.69 L 194.02 1644.61 L 194.02 1645.63 L 194.02 1647.92 L 194.02 1649.19 L 194.02 1650.22 L 194.02 1650.37 L 194.02 1650.66 L 194.02 1651.13 L 194.02 1653.29 L 194.02 1653.38 L 194.02 1655.16 L 194.02 1656.08 L 194.02 1656.85 L 194.02 1658.02 L 194.02 1658.19 L 194.02 1658.81 L 194.02 1659.75 L 194.02 1660.31 L 194.02 1661.16 L 194.02 1661.88 L 194.02 1663.70 L 194.02 1663.94 L 194.02 1664.77 L 194.02 1665.13 L 194.02 1665.86 L 194.02 1666.44 L 194.02 1667.03 L 194.02 1667.85 L 194.02 1669.51 L 194.02 1670.12 L 194.02 1671.00 L 194.02 1671.59 L 194.02 1672.29 L 194.02 1673.17 L 194.02 1674.57 L 194.02 1675.27 L 194.02 1676.19 L 194.02 1676.29 L 194.02 1676.39 L 194.02 1678.00 L 194.02 1680.09 L 194.02 1681.76 L 194.02 1681.97 L 194.02 1683.10 L 194.02 1685.84 L 194.02 1686.06 L 194.02 1686.08 L 194.02 1686.33 L 194.02 1687.34 L 194.02 1687.45 L 194.02 1687.84 L 194.02 1688.17 L 194.02 1688.24 L 194.02 1689.25 L 194.02 1690.50 L 194.02 1690.88 L 194.02 1691.41 L 194.02 1691.75 L 194.02 1691.75 L 194.02 1691.91 L 194.02 1692.88 L 194.02 1693.50 L 194.02 1693.59 L 194.02 1693.68 L 194.02 1693.72 L 194.02 1694.40 L 194.02 1696.79 L 194.02 1697.70 L 194.02 1698.92 L 194.02 1699.09 L 194.02 1699.45 L 194.02 1699.60 L 194.02 1699.99 L 194.02 1700.29 L 194.02 1700.45 L 194.02 1700.98 L 194.02 1701.44 L 194.02 1703.62 L 194.02 1704.76 L 194.02 1705.89 L 194.02 1705.96 L 194.02 1706.58 L 194.02 1708.13 L 194.02 1709.64 L 194.02 1709.83 L 194.02 1710.89 L 194.02 1711.27 L 194.02 1711.98 L 194.02 1712.20 L 194.02 1712.41 L 194.02 1714.30 L 194.02 1715.66 L 194.02 1715.93 L 194.02 1718.91 L 194.02 1719.10 L 194.02 1720.21 L 194.02 1721.77 L 194.02 1722.74 L 194.02 1722.75 L 194.02 1723.12 L 194.02 1723.45 L 194.02 1723.55 L 194.02 1724.38 L 194.02 1724.60 L 194.02 1725.17 L 194.02 1725.18 L 194.02 1725.83 L 194.02 1726.37 L 194.02 1727.09 L 194.02 1727.21 L 194.02 1728.36 L 194.02 1728.98 L 194.02 1729.53 L 194.02 1729.61 L 194.02 1729.67 L 194.02 1731.08 L 194.02 1732.51 L 194.02 1734.85 L 194.02 1735.85 L 194.02 1737.20 L 194.02 1737.66 L 194.02 1738.24 L 194.02 1738.63 L 194.02 1738.74 L 194.02 1739.88 L 194.02 1741.95 L 194.02 1742.17 L 194.02 1742.21 L 194.02 1743.09 L 194.02 1743.64 L 194.02 1743.85 L 194.02 1744.61 L 194.02 1745.24 L 194.02 1745.47 L 194.02 1746.01 L 194.02 1747.06 L 194.02 1747.20 L 194.02 1747.42 L 194.02 1748.91 L 194.02 1749.11 L 194.02 1750.11 L 194.02 1750.49 L 194.02 1750.61 L 194.02 1751.74 L 194.02 1751.79 L 194.02 1752.05 L 194.02 1753.87 L 194.02 1754.50 L 194.02 1754.89 L 194.02 1755.87 L 194.02 1756.33 L 194.02 1756.95 L 194.02 1756.99 L 194.02 1756.99 L 194.02 1759.22 L 194.02 1761.82 L 194.02 1761.94 L 194.02 1763.61 L 194.02 1763.74 L 194.02 1764.65 L 194.02 1765.46 L 194.02 1765.48 L 194.02 1765.91 L 194.02 1766.96 L 194.02 1767.28 L 194.02 1767.48 L 194.02 1768.05 L 194.02 1768.28 L 194.02 1769.21 L 194.02 1770.13 L 194.02 1770.45 L 194.02 1770.47 L 194.02 1770.64 L 194.02 1770.94 L 194.02 1771.84 L 194.02 1771.92 L 194.02 1772.74 L 194.02 1773.06 L 194.02 1773.68 L 194.02 1773.76 L 194.02 1773.95 L 194.02 1775.25 L 194.02 1775.80 L 194.02 1777.02 L 194.02 1778.30 L 194.02 1778.43 L 194.02 1780.72 L 194.02 1780.89 L 194.02 1781.26 L 194.02 1781.33 L 194.02 1782.37 L 194.02 1784.05 L 194.02 1784.43 L 194.02 1785.04 L 194.02 1785.92 L 194.02 1785.98 L 194.02 1786.67 L 194.02 1787.24 L 194.02 1787.38 L 194.02 1788.24 L 194.02 1788.63 L 194.02 1789.43 L 194.02 1791.95 L 194.02 1793.11 L 194.02 1794.75 L 194.02 1794.76 L 194.02 1795.03 L 194.02 1795.36 L 194.02 1795.62 L 194.02 1796.10 L 194.02 1799.93 L 194.02 1800.53 L 194.02 1800.54 L 194.02 1800.56 L 194.02 1800.85 L 194.02 1802.87 L 194.02 1803.64 L 194.02 1804.96 L 194.02 1806.31 L 194.02 1806.73 L 194.02 1807.64 L 194.02 1807.78 L 194.02 1811.45 L 194.02 1812.31 L 194.02 1813.44 L 194.02 1814.76 L 194.02 1815.10 L 194.02 1815.12 L 194.02 1815.59 L 194.02 1815.73 L 194.02 1815.76 L 194.02 1816.83 L 194.02 1817.49 L 194.02 1817.80 L 194.02 1818.12 L 194.02 1818.68 L 194.02 1819.00 L 194.02 1819.29 L 194.02 1820.54 L 194.02 1821.33 L 194.02 1823.02 L 194.02 1823.26 L 194.02 1823.70 L 194.02 1824.23 L 194.02 1825.20 L 194.02 1827.66 L 194.02 1828.36 L 194.02 1828.57 L 194.02 1829.88 L 194.02 1829.94 L 194.02 1831.66 L 194.02 1832.21 L 194.02 1832.73 L 194.02 1833.60 L 194.02 1834.45 L 194.02 1834.90 L 194.02 1839.63 L 194.02 1840.50 L 194.02 1842.07 L 194.02 1844.00 L 194.02 1844.52 L 194.02 1845.21 L 194.02 1846.25 L 194.02 1847.01 L 194.02 1847.42 L 194.02 1847.96 L 194.02 1848.10 L 194.02 1849.69 L 194.02 1850.91 L 194.02 1853.51 L 194.02 1853.58 L 194.02 1853.91 L 194.02 1854.22 L 194.02 1854.26 L 194.02 1854.71 L 194.02 1854.82 L 194.02 1855.21 L 194.02 1856.92 L 194.02 1857.62 L 194.02 1858.33 L 194.02 1858.34 L 194.02 1859.41 L 194.02 1861.43 L 194.02 1861.47 L 194.02 1861.52 L 194.02 1861.60 L 194.02 1862.12 L 194.02 1862.31 L 194.02 1863.37 L 194.02 1864.95 L 194.02 1866.03 L 194.02 1866.12 L 194.02 1866.88 L 194.02 1868.63 L 194.02 1868.74 L 194.02 1870.85 L 194.02 1871.57 L 194.02 1871.65 L 194.02 1871.81 L 194.02 1874.34 L 194.02 1874.85 L 194.02 1875.51 L 194.02 1876.51 L 194.02 1876.91 L 194.02 1876.93 L 194.02 1879.07 L 194.02 1879.56 L 194.02 1879.77 L 194.02 1879.82 L 194.02 1880.58 L 194.02 1880.64 L 194.02 1881.46 L 194.02 1883.00 L 194.02 1884.14 L 194.02 1884.77 L 194.02 1885.15 L 194.02 1885.26 L 194.02 1888.28 L 194.02 1889.60 L 194.02 1890.71 L 194.02 1891.33 L 194.02 1891.98 L 194.02 1895.16 L 194.02 1895.75 L 194.02 1896.12 L 194.02 1896.18 L 194.02 1897.15 L 194.02 1897.77 L 194.02 1897.98 L 194.02 1898.80 L 194.02 1899.02 L 194.02 1899.29 L 194.02 1899.67 L 194.02 1899.91 L 194.02 1902.81 L 194.02 1904.04 L 194.02 1906.94 L 194.02 1908.26 L 194.02 1912.42 L 194.02 1912.71 L 194.02 1912.98 L 194.02 1914.35 L 194.02 1916.34 L 194.02 1916.45 L 194.02 1917.14 L 194.02 1918.08 L 194.02 1918.52 L 194.02 1918.58 L 194.02 1918.71 L 194.02 1919.46 L 194.02 1919.87 L 194.02 1921.05 L 193.56 1922.27 L 193.47 1922.27 L 191.39 1922.27 L 190.14 1922.27 L 189.50 1922.27 L 188.27 1922.27 L 186.44 1922.27 L 186.19 1922.27 L 185.27 1922.27 L 184.15 1922.27 L 183.49 1922.27 L 183.33 1922.27 L 181.56 1922.27 L 178.10 1922.27 L 178.09 1922.27 L 177.75 1922.27 L 174.33 1922.27 L 173.36 1922.27 L 172.83 1922.27 L 171.58 1922.27 L 170.87 1922.27 L 170.80 1922.27 L 168.19 1922.27 L 167.57 1922.27 L 167.40 1922.27 L 166.75 1922.27 L 165.12 1922.27 L 165.00 1922.27 L 164.73 1922.27 L 162.49 1922.27 L 162.17 1922.27 L 161.18 1922.27 L 161.13 1922.27 L 161.11 1922.27 L 160.74 1922.27 L 160.49 1922.27 L 158.15 1922.27 L 157.03 1922.27 L 156.88 1922.27 L 156.63 1922.27 L 154.21 1922.27 L 151.27 1922.27 L 150.55 1922.27 L 147.71 1922.27 L 145.71 1922.27 L 144.16 1922.27 L 142.46 1922.27 L 142.36 1922.27 L 139.99 1922.27 L 137.53 1922.27 L 137.52 1922.27 L 136.78 1922.27 L 136.34 1922.27 L 135.04 1922.27 L 134.20 1922.27 L 133.81 1922.27 L 133.19 1922.27 L 132.02 1922.27 L 129.90 1922.27 L 129.22 1922.27 L 127.99 1922.27 L 126.04 1922.27 L 125.88 1922.27 L 124.83 1922.27 L 119.03 1922.27 L 115.08 1922.27 L 110.90 1922.27 L 108.68 1922.27 L 105.56 1922.27 L 105.48 1922.27 L 103.33 1922.27 L 102.49 1922.27 L 100.26 1922.27 L 98.12 1922.27 L 95.90 1922.27 L 93.17 1922.27 L 92.90 1922.27 L 90.30 1922.27 L 87.07 1922.27 L 77.93 1922.27 L 74.98 1922.27 L 72.71 1922.27 L 72.06 1922.27 L 69.05 1922.27 L 63.18 1922.27 L 61.42 1922.27 L 59.97 1922.27 L 59.52 1922.27 L 51.52 1922.27 L 51.02 1922.27 L 48.50 1922.27 L 41.79 1922.27 L 40.18 1922.27 L 39.00 1922.27 L 37.46 1922.27 L 36.27 1922.27 L 35.73 1922.27 L 35.53 1922.27 L 35.52 1922.27 L 35.38 1922.27 L 34.51 1922.27 L 34.45 1922.27 L 33.51 1922.27 L 29.59 1922.27 L 28.54 1922.27 L 27.73 1922.27 L 26.96 1922.27 L 26.84 1922.27 L 26.40 1922.27 L 26.21 1922.27 L 25.15 1922.27 L 24.50 1922.27 L 24.05 1922.27 L 22.75 1922.27 L 22.05 1922.27 L 22.01 1922.27 L 22.00 1922.27 L 20.83 1922.27 L 20.31 1922.27 L 19.52 1922.27 L 19.11 1922.27 L 16.91 1922.27 L 16.41 1922.27 L 15.68 1922.27 L 15.12 1922.27 L 13.54 1922.27 L 11.70 1922.27 L 11.33 1922.27 L 11.28 1922.27 L 11.28 1922.27 L 11.23 1922.27 L 11.01 1922.27 L 10.16 1922.27 L 10.11 1922.27 L 7.98 1922.27 L 7.55 1922.27 L 6.97 1922.27 L 4.81 1922.27 L 3.46 1922.27 L 3.42 1922.27 L 3.34 1922.27 L 2.02 1922.27 L 0.07 1922.27 L 0.00 1921.04 L 0.00 1920.64 L 0.00 1919.51 L 0.00 1919.28 L 0.00 1918.87 L 0.00 1914.61 L 0.00 1913.65 L 0.00 1913.64 L 0.00 1912.15 L 0.00 1911.85 L 0.00 1910.13 L 0.00 1909.21 L 0.00 1908.88 L 0.00 1908.46 L 0.00 1907.35 L 0.00 1905.99 L 0.00 1905.11 L 0.00 1905.02 L 0.00 1903.24 L 0.00 1903.11 L 0.00 1902.83 L 0.00 1902.41 L 0.00 1901.66 L 0.00 1901.00 L 0.00 1900.51 L 0.00 1900.00 L 0.00 1899.52 L 0.00 1899.51 L 0.00 1899.26 L 0.00 1896.55 L 0.00 1895.86 L 0.00 1894.55 L 0.00 1894.52 L 0.00 1893.75 L 0.00 1889.63 L 0.00 1887.95 L 0.00 1887.95 L 0.00 1886.82 L 0.00 1885.49 L 0.00 1884.70 L 0.00 1884.60 L 0.00 1882.23 L 0.00 1881.93 L 0.00 1880.70 L 0.00 1880.70 L 0.00 1880.61 L 0.00 1880.27 L 0.00 1879.60 L 0.00 1876.85 L 0.00 1876.43 L 0.00 1875.03 L 0.00 1873.98 L 0.00 1872.76 L 0.00 1872.31 L 0.00 1872.08 L 0.00 1871.48 L 0.00 1871.17 L 0.00 1870.35 L 0.00 1868.70 L 0.00 1868.69 L 0.00 1866.84 L 0.00 1863.80 L 0.00 1863.26 L 0.00 1862.94 L 0.00 1862.74 L 0.00 1862.55 L 0.00 1861.93 L 0.00 1861.72 L 0.00 1861.67 L 0.00 1861.50 L 0.00 1857.86 L 0.00 1857.61 L 0.00 1856.36 L 0.00 1856.34 L 0.00 1855.14 L 0.00 1853.18 L 0.00 1853.09 L 0.00 1853.01 L 0.00 1852.93 L 0.00 1852.48 L 0.00 1852.42 L 0.00 1851.59 L 0.00 1848.45 L 0.00 1848.41 L 0.00 1848.19 L 0.00 1847.59 L 0.00 1847.48 L 0.00 1846.83 L 0.00 1846.77 L 0.00 1845.88 L 0.00 1845.71 L 0.00 1845.49 L 0.00 1844.81 L 0.00 1844.15 L 0.00 1843.50 L 0.00 1842.96 L 0.00 1842.25 L 0.00 1841.55 L 0.00 1841.04 L 0.00 1840.32 L 0.00 1838.12 L 0.00 1836.18 L 0.00 1834.86 L 0.00 1834.04 L 0.00 1833.48 L 0.00 1830.52 L 0.00 1829.56 L 0.00 1827.45 L 0.00 1825.78 L 0.00 1824.89 L 0.00 1824.12 L 0.00 1823.10 L 0.00 1819.97 L 0.00 1819.95 L 0.00 1819.86 L 0.00 1818.45 L 0.00 1817.51 L 0.00 1816.35 L 0.00 1815.55 L 0.00 1815.48 L 0.00 1814.56 L 0.00 1812.10 L 0.00 1809.68 L 0.00 1806.41 L 0.00 1804.86 L 0.00 1803.53 L 0.00 1803.34 L 0.00 1803.24 L 0.00 1802.26 L 0.00 1801.99 L 0.00 1801.58 L 0.00 1800.66 L 0.00 1798.47 L 0.00 1798.08 L 0.00 1797.43 L 0.00 1797.31 L 0.00 1797.26 L 0.00 1795.77 L 0.00 1795.59 L 0.00 1795.11 L 0.00 1793.22 L 0.00 1792.54 L 0.00 1792.07 L 0.00 1792.02 L 0.00 1790.70 L 0.00 1790.32 L 0.00 1790.29 L 0.00 1786.46 L 0.00 1785.59 L 0.00 1784.88 L 0.00 1784.57 L 0.00 1784.21 L 0.00 1782.70 L 0.00 1782.46 L 0.00 1780.94 L 0.00 1780.90 L 0.00 1779.88 L 0.00 1779.46 L 0.00 1777.93 L 0.00 1775.97 L 0.00 1774.06 L 0.00 1773.26 L 0.00 1772.64 L 0.00 1771.99 L 0.00 1771.15 L 0.00 1771.02 L 0.00 1769.94 L 0.00 1765.85 L 0.00 1764.79 L 0.00 1762.15 L 0.00 1761.10 L 0.00 1761.06 L 0.00 1760.40 L 0.00 1759.62 L 0.00 1759.24 L 0.00 1758.52 L 0.00 1758.47 L 0.00 1757.21 L 0.00 1756.32 L 0.00 1754.94 L 0.00 1754.83 L 0.00 1754.80 L 0.00 1751.21 L 0.00 1751.20 L 0.00 1750.31 L 0.00 1749.89 L 0.00 1749.30 L 0.00 1749.10 L 0.00 1747.74 L 0.00 1746.04 L 0.00 1744.63 L 0.00 1743.94 L 0.00 1741.67 L 0.00 1741.16 L 0.00 1740.97 L 0.00 1739.70 L 0.00 1738.63 L 0.00 1737.94 L 0.00 1737.69 L 0.00 1735.74 L 0.00 1733.10 L 0.00 1732.67 L 0.00 1729.90 L 0.00 1728.60 L 0.00 1728.30 L 0.00 1728.26 L 0.00 1727.37 L 0.00 1726.41 L 0.00 1726.36 L 0.00 1725.91 L 0.00 1725.60 L 0.00 1725.32 L 0.00 1724.43 L 0.00 1723.83 L 0.00 1722.32 L 0.00 1721.23 L 0.00 1721.13 L 0.00 1721.09 L 0.00 1721.08 L 0.00 1720.47 L 0.00 1719.99 L 0.00 1719.41 L 0.00 1717.26 L 0.00 1716.84 L 0.00 1716.33 L 0.00 1714.52 L 0.00 1713.95 L 0.00 1713.49 L 0.00 1712.15 L 0.00 1710.81 L 0.00 1710.23 L 0.00 1710.04 L 0.00 1706.97 L 0.00 1706.13 L 0.00 1704.97 L 0.00 1704.54 L 0.00 1703.37 L 0.00 1702.86 L 0.00 1701.26 L 0.00 1701.26 L 0.00 1698.44 L 0.00 1697.48 L 0.00 1696.68 L 0.00 1696.26 L 0.00 1695.86 L 0.00 1695.74 L 0.00 1694.35 L 0.00 1692.79 L 0.00 1691.61 L 0.00 1689.82 L 0.00 1689.35 L 0.00 1687.59 L 0.00 1686.99 L 0.00 1686.72 L 0.00 1686.06 L 0.00 1686.04 L 0.00 1684.98 L 0.00 1684.13 L 0.00 1683.43 L 0.00 1681.52 L 0.00 1679.47 L 0.00 1677.43 L 0.00 1675.22 L 0.00 1674.09 L 0.00 1665.75 L 0.00 1665.40 L 0.00 1665.23 L 0.00 1664.42 L 0.00 1660.39 L 0.00 1656.65 L 0.00 1656.54 L 0.00 1653.53 L 0.00 1645.14 L 0.00 1641.30 L 0.00 1635.66 L 0.00 1634.89 L 0.00 1634.64 L 0.00 1634.23 L 0.00 1633.62 L 0.00 1629.64 L 0.00 1628.49 L 0.00 1625.61 L 0.00 1625.05 L 0.00 1623.03 L 0.00 1620.66 L 0.00 1620.07 L 0.00 1619.13 L 0.00 1616.70 L 0.00 1611.11 L 0.00 1607.18 L 0.00 1604.89 L 0.00 1603.57 L 0.00 1602.96 L 0.00 1601.81 L 0.00 1597.49 L 0.00 1596.04 L 0.00 1595.57 L 0.00 1591.67 L 0.00 1590.95 L 0.00 1590.64 L 0.00 1589.26 L 0.00 1588.51 L 0.00 1588.28 L 0.00 1587.47 L 0.00 1583.87 L 0.00 1583.69 L 0.00 1583.60 L 0.00 1581.52 L 0.00 1581.21 L 0.00 1579.99 L 0.00 1579.38 L 0.00 1579.13 L 0.00 1577.95 L 0.00 1577.22 L 0.00 1576.14 L 0.00 1575.96 L 0.00 1575.83 L 0.00 1575.64 L 0.00 1575.06 L 0.00 1574.90 L 0.00 1574.74 L 0.00 1574.34 L 0.00 1573.95 L 0.00 1573.78 L 0.00 1573.06 L 0.00 1572.67 L 0.00 1571.15 L 0.00 1567.96 L 0.00 1567.32 L 0.00 1567.29 L 0.00 1567.07 L 0.00 1567.05 L 0.00 1567.02 L 0.00 1566.90 L 0.00 1566.89 L 0.00 1566.82 L 0.00 1566.78 L 0.00 1566.05 L 0.00 1563.88 L 0.00 1563.51 L 0.00 1563.43 L 0.00 1563.07 L 0.00 1562.66 L 0.00 1561.77 L 0.00 1561.33 L 0.00 1560.76 L 0.00 1559.34 L 0.00 1556.48 L 0.00 1554.19 L 0.00 1550.92 L 0.00 1549.88 L 0.00 1549.33 L 0.00 1548.52 L 0.00 1546.66 L 0.00 1545.74 L 0.00 1545.27 L 0.00 1544.50 L 0.00 1542.67 L 0.00 1542.37 L 0.00 1541.83 L 0.00 1541.81 L 0.00 1541.35 L 0.00 1541.30 L 0.00 1540.59 L 0.00 1540.26 L 0.00 1539.70 L 0.00 1535.94 L 0.00 1534.76 L 0.00 1532.34 L 0.00 1532.11 L 0.00 1528.80 L 0.00 1528.00 L 0.00 1527.70 L 0.00 1525.97 L 0.00 1525.78 L 0.00 1524.69 L 0.00 1523.74 L 0.00 1523.12 L 0.00 1522.74 L 0.00 1521.24 L 0.00 1520.57 L 0.00 1519.35 L 0.00 1517.31 L 0.00 1515.19 L 0.00 1513.42 L 0.00 1512.18 L 0.00 1512.16 L 0.00 1510.98 L 0.00 1510.22 L 0.00 1509.85 L 0.00 1508.16 L 0.00 1506.21 L 0.00 1505.11 L 0.00 1505.02 L 0.00 1505.02 L 0.00 1504.80 L 0.00 1503.11 L 0.00 1502.58 L 0.00 1501.88 L 0.00 1500.56 L 0.00 1499.73 L 0.00 1499.40 L 0.00 1498.29 L 0.00 1497.71 L 0.00 1497.00 L 0.00 1496.76 L 0.00 1495.55 L 0.00 1494.86 L 0.00 1493.83 L 0.00 1493.82 L 0.00 1491.73 L 0.00 1491.41 L 0.00 1490.98 L 0.00 1490.87 L 0.00 1490.38 L 0.00 1490.23 L 0.00 1489.51 L 0.00 1488.87 L 0.00 1488.15 L 0.00 1486.76 L 0.00 1485.07 L 0.00 1482.18 L 0.00 1481.46 L 0.00 1480.34 L 0.00 1479.62 L 0.00 1479.38 L 0.00 1478.92 L 0.00 1478.37 L 0.00 1478.35 L 0.00 1477.52 L 0.00 1477.15 L 0.00 1477.07 L 0.00 1476.82 L 0.00 1476.34 L 0.00 1475.86 L 0.00 1475.61 L 0.00 1475.37 L 0.00 1474.25 L 0.00 1474.04 L 0.00 1473.95 L 0.00 1469.84 L 0.00 1469.67 L 0.00 1469.39 L 0.00 1468.69 L 0.00 1468.61 L 0.00 1468.47 L 0.00 1467.97 L 0.00 1466.93 L 0.00 1466.20 L 0.00 1465.92 L 0.00 1465.60 L 0.00 1464.78 L 0.00 1464.48 L 0.00 1464.27 L 0.00 1463.20 L 0.00 1463.17 L 0.00 1461.05 L 0.00 1459.93 L 0.00 1458.02 L 0.00 1457.54 L 0.00 1456.12 L 0.00 1456.03 L 0.00 1455.41 L 0.00 1455.30 L 0.00 1454.27 L 0.00 1452.42 L 0.00 1447.47 L 0.00 1446.46 L 0.00 1444.32 L 0.00 1443.59 L 0.00 1442.08 L 0.00 1442.04 L 0.00 1440.73 L 0.00 1439.55 L 0.00 1439.14 L 0.00 1437.68 L 0.00 1436.80 L 0.00 1436.47 L 0.00 1435.09 L 0.00 1432.81 L 0.00 1432.77 L 0.00 1431.47 L 0.00 1431.44 L 0.00 1430.42 L 0.00 1429.39 L 0.00 1427.31 L 0.00 1427.13 L 0.00 1426.68 L 0.00 1426.56 L 0.00 1426.45 L 0.00 1425.27 L 0.00 1423.24 L 0.00 1423.19 L 0.00 1422.59 L 0.00 1422.55 L 0.00 1419.59 L 0.00 1417.85 L 0.00 1417.13 L 0.00 1416.86 L 0.00 1416.37 L 0.00 1415.85 L 0.00 1415.83 L 0.00 1414.80 L 0.00 1414.71 L 0.00 1413.93 L 0.00 1413.52 L 0.00 1412.45 L 0.00 1412.38 L 0.00 1412.08 L 0.00 1409.80 L 0.00 1409.65 L 0.00 1409.54 L 0.00 1409.44 L 0.00 1409.15 L 0.00 1406.83 L 0.00 1406.36 L 0.00 1405.96 L 0.00 1405.90 L 0.00 1405.17 L 0.00 1404.37 L 0.00 1403.70 L 0.00 1402.42 L 0.00 1402.22 L 0.00 1401.49 L 0.00 1400.28 L 0.00 1399.51 L 0.00 1396.16 L 0.00 1395.42 L 0.00 1393.92 L 0.00 1391.67 L 0.00 1390.69 L 0.00 1389.67 L 0.00 1388.40 L 0.00 1386.73 L 0.00 1386.30 L 0.00 1386.16 L 0.00 1385.97 L 0.00 1384.87 L 0.00 1383.96 L 0.00 1383.60 L 0.00 1382.85 L 0.00 1382.74 L 0.00 1382.30 L 0.00 1382.28 L 0.00 1379.45 L 0.00 1378.28 L 0.00 1378.08 L 0.00 1377.25 L 0.00 1377.11 L 0.00 1376.27 L 0.00 1375.74 L 0.00 1375.74 L 0.00 1373.48 L 0.00 1372.68 L 0.00 1370.31 L 0.00 1369.05 L 0.00 1367.91 L 0.00 1367.69 L 0.00 1367.10 L 0.00 1367.06 L 0.00 1365.86 L 0.00 1365.58 L 0.00 1365.27 L 0.00 1364.71 L 0.00 1361.72 L 0.00 1359.81 L 0.00 1358.88 L 0.00 1355.96 L 0.00 1355.80 L 0.00 1353.48 L 0.00 1352.92 L 0.00 1352.24 L 0.00 1349.34 L 0.00 1348.57 L 0.00 1348.31 L 0.00 1347.11 L 0.00 1347.09 L 0.00 1345.45 L 0.00 1345.36 L 0.00 1345.33 L 0.00 1345.04 L 0.00 1345.01 L 0.00 1344.23 L 0.00 1344.13 L 0.00 1343.44 L 0.00 1343.41 L 0.00 1342.53 L 0.00 1340.16 L 0.00 1338.62 L 0.00 1338.61 L 0.00 1336.94 L 0.00 1336.01 L 0.00 1333.17 L 0.00 1332.27 L 0.00 1330.88 L 0.00 1330.69 L 0.00 1330.37 L 0.00 1326.99 L 0.00 1326.87 L 0.00 1326.66 L 0.00 1326.22 L 0.00 1324.49 L 0.00 1323.92 L 0.00 1323.34 L 0.00 1322.14 L 0.00 1319.97 L 0.00 1319.62 L 0.00 1319.13 L 0.00 1318.53 L 0.00 1318.34 L 0.00 1315.38 L 0.00 1314.44 L 0.00 1310.88 L 0.00 1310.37 L 0.00 1310.07 L 0.00 1309.84 L 0.00 1309.12 L 0.00 1306.09 L 0.00 1305.30 L 0.00 1302.85 L 0.00 1302.11 L 0.00 1299.83 L 0.00 1299.72 L 0.00 1298.64 L 0.00 1298.33 L 0.00 1297.91 L 0.00 1296.62 L 0.00 1296.11 L 0.00 1295.47 L 0.00 1295.40 L 0.00 1294.20 L 0.00 1293.42 L 0.00 1293.12 L 0.00 1293.05 L 0.00 1292.39 L 0.00 1288.60 L 0.00 1288.15 L 0.00 1287.01 L 0.00 1286.54 L 0.00 1286.12 L 0.00 1282.62 L 0.00 1282.06 L 0.00 1281.64 L 0.00 1281.40 L 0.00 1279.27 L 0.00 1278.13 L 0.00 1277.87 L 0.00 1277.29 L 0.00 1276.97 L 0.00 1276.38 L 0.00 1276.14 L 0.00 1275.38 L 0.00 1275.13 L 0.00 1275.02 L 0.00 1274.78 L 0.00 1273.54 L 0.00 1272.95 L 0.00 1272.43 L 0.00 1271.81 L 0.00 1271.58 L 0.00 1269.87 L 0.00 1269.66 L 0.00 1268.47 L 0.00 1268.34 L 0.00 1267.62 L 0.00 1267.58 L 0.00 1266.52 L 0.00 1265.48 L 0.00 1264.87 L 0.00 1263.25 L 0.00 1261.17 L 0.00 1261.05 L 0.00 1261.00 L 0.00 1260.81 L 0.00 1259.92 L 0.00 1259.71 L 0.00 1258.96 L 0.00 1257.09 L 0.00 1256.88 L 0.00 1256.85 L 0.00 1256.58 L 0.00 1255.70 L 0.00 1255.36 L 0.00 1255.22 L 0.00 1252.63 L 0.00 1250.42 L 0.00 1248.74 L 0.00 1248.73 L 0.00 1247.69 L 0.00 1247.42 L 0.00 1246.82 L 0.00 1245.43 L 0.00 1244.52 L 0.00 1243.84 L 0.00 1242.96 L 0.00 1242.92 L 0.00 1242.58 L 0.00 1241.74 L 0.00 1238.88 L 0.00 1238.05 L 0.00 1237.41 L 0.00 1235.80 L 0.00 1235.34 L 0.00 1234.80 L 0.00 1234.00 L 0.00 1232.94 L 0.00 1230.93 L 0.00 1230.78 L 0.00 1229.79 L 0.00 1227.63 L 0.00 1226.62 L 0.00 1224.89 L 0.00 1223.88 L 0.00 1223.63 L 0.00 1223.01 L 0.00 1220.38 L 0.00 1220.04 L 0.00 1219.15 L 0.00 1218.10 L 0.00 1216.77 L 0.00 1215.39 L 0.00 1213.46 L 0.00 1211.80 L 0.00 1211.16 L 0.00 1208.80 L 0.00 1208.58 L 0.00 1208.52 L 0.00 1206.59 L 0.00 1205.74 L 0.00 1204.27 L 0.00 1203.27 L 0.00 1202.60 L 0.00 1202.17 L 0.00 1202.12 L 0.00 1202.09 L 0.00 1202.00 L 0.00 1201.75 L 0.00 1199.21 L 0.00 1198.45 L 0.00 1198.28 L 0.00 1197.70 L 0.00 1197.35 L 0.00 1197.14 L 0.00 1197.09 L 0.00 1196.13 L 0.00 1196.05 L 0.00 1195.55 L 0.00 1194.53 L 0.00 1194.49 L 0.00 1193.91 L 0.00 1193.72 L 0.00 1193.04 L 0.00 1192.80 L 0.00 1192.41 L 0.00 1191.68 L 0.00 1191.52 L 0.00 1190.11 L 0.00 1187.98 L 0.00 1186.89 L 0.00 1186.88 L 0.00 1185.76 L 0.00 1185.29 L 0.00 1185.04 L 0.00 1184.99 L 0.00 1182.98 L 0.00 1182.14 L 0.00 1181.89 L 0.00 1181.64 L 0.00 1180.96 L 0.00 1180.73 L 0.00 1179.93 L 0.00 1179.28 L 0.00 1176.79 L 0.00 1176.19 L 0.00 1176.09 L 0.00 1175.93 L 0.00 1174.50 L 0.00 1173.43 L 0.00 1173.11 L 0.00 1173.08 L 0.00 1172.86 L 0.00 1172.57 L 0.00 1171.98 L 0.00 1171.91 L 0.00 1170.39 L 0.00 1169.65 L 0.00 1169.55 L 0.00 1168.96 L 0.00 1168.63 L 0.00 1168.16 L 0.00 1166.11 L 0.00 1164.33 L 0.00 1164.17 L 0.00 1162.12 L 0.00 1162.11 L 0.00 1161.60 L 0.00 1160.43 L 0.00 1159.87 L 0.00 1159.33 L 0.00 1156.68 L 0.00 1155.96 L 0.00 1155.42 L 0.00 1154.98 L 0.00 1154.53 L 0.00 1154.00 L 0.00 1153.75 L 0.00 1152.62 L 0.00 1151.08 L 0.00 1151.06 L 0.00 1149.95 L 0.00 1148.84 L 0.00 1147.82 L 0.00 1147.08 L 0.00 1146.96 L 0.00 1146.27 L 0.00 1144.92 L 0.00 1144.71 L 0.00 1144.28 L 0.00 1144.23 L 0.00 1143.43 L 0.00 1143.25 L 0.00 1142.99 L 0.00 1142.97 L 0.00 1142.67 L 0.00 1142.56 L 0.00 1140.99 L 0.00 1140.64 L 0.00 1137.14 L 0.00 1136.85 L 0.00 1135.93 L 0.00 1135.79 L 0.00 1135.37 L 0.00 1135.25 L 0.00 1132.74 L 0.00 1132.44 L 0.00 1132.12 L 0.00 1129.81 L 0.00 1127.97 L 0.00 1127.02 L 0.00 1126.66 L 0.00 1125.98 L 0.00 1125.75 L 0.00 1125.63 L 0.00 1123.35 L 0.00 1123.10 L 0.00 1122.76 L 0.00 1122.74 L 0.00 1122.08 L 0.00 1121.84 L 0.00 1121.21 L 0.00 1120.75 L 0.00 1120.66 L 0.00 1120.52 L 0.00 1119.65 L 0.00 1117.74 L 0.00 1116.75 L 0.00 1116.64 L 0.00 1116.61 L 0.00 1116.30 L 0.00 1115.17 L 0.00 1114.76 L 0.00 1114.57 L 0.00 1114.32 L 0.00 1114.28 L 0.00 1113.81 L 0.00 1113.28 L 0.00 1112.91 L 0.00 1111.83 L 0.00 1111.72 L 0.00 1111.36 L 0.00 1110.84 L 0.00 1110.68 L 0.00 1109.99 L 0.00 1107.23 L 0.00 1106.84 L 0.00 1105.27 L 0.00 1104.28 L 0.00 1104.23 L 0.00 1104.13 L 0.00 1103.04 L 0.00 1100.75 L 0.00 1099.78 L 0.00 1099.74 L 0.00 1099.74 L 0.00 1099.01 L 0.00 1098.96 L 0.00 1097.66 L 0.00 1097.64 L 0.00 1097.55 L 0.00 1097.34 L 0.00 1096.15 L 0.00 1095.79 L 0.00 1095.60 L 0.00 1094.88 L 0.00 1094.29 L 0.00 1092.92 L 0.00 1092.25 L 0.00 1091.44 L 0.00 1091.02 L 0.00 1090.20 L 0.00 1089.17 L 0.00 1089.15 L 0.00 1088.40 L 0.00 1087.03 L 0.00 1084.02 L 0.00 1083.56 L 0.00 1082.36 L 0.00 1082.07 L 0.00 1081.88 L 0.00 1081.54 L 0.00 1081.37 L 0.00 1080.64 L 0.00 1080.33 L 0.00 1079.86 L 0.00 1079.04 L 0.00 1078.61 L 0.00 1078.04 L 0.00 1077.92 L 0.00 1077.70 L 0.00 1075.19 L 0.00 1075.15 L 0.00 1074.01 L 0.00 1073.06 L 0.00 1071.86 L 0.00 1071.64 L 0.00 1071.60 L 0.00 1071.12 L 0.00 1070.40 L 0.00 1069.55 L 0.00 1069.26 L 0.00 1066.06 L 0.00 1064.98 L 0.00 1060.10 L 0.00 1059.49 L 0.00 1058.28 L 0.00 1055.14 L 0.00 1054.78 L 0.00 1053.93 L 0.00 1053.10 L 0.00 1051.10 L 0.00 1050.97 L 0.00 1050.47 L 0.00 1050.25 L 0.00 1050.15 L 0.00 1050.12 L 0.00 1048.51 L 0.00 1046.83 L 0.00 1046.55 L 0.00 1044.55 L 0.00 1044.49 L 0.00 1043.66 L 0.00 1042.39 L 0.00 1041.91 L 0.00 1041.67 L 0.00 1040.29 L 0.00 1039.81 L 0.00 1039.54 L 0.00 1039.04 L 0.00 1038.49 L 0.00 1036.74 L 0.00 1036.65 L 0.00 1036.16 L 0.00 1035.64 L 0.00 1035.33 L 0.00 1034.45 L 0.00 1033.49 L 0.00 1033.47 L 0.00 1032.40 L 0.00 1032.01 L 0.00 1031.74 L 0.00 1031.22 L 0.00 1030.99 L 0.00 1030.42 L 0.00 1028.91 L 0.00 1028.00 L 0.00 1026.70 L 0.00 1026.38 L 0.00 1025.99 L 0.00 1024.73 L 0.00 1023.32 L 0.00 1022.91 L 0.00 1022.82 L 0.00 1018.32 L 0.00 1016.42 L 0.00 1015.92 L 0.00 1015.85 L 0.00 1011.74 L 0.00 1011.10 L 0.00 1011.08 L 0.00 1010.66 L 0.00 1009.76 L 0.00 1008.32 L 0.00 1008.03 L 0.00 1005.72 L 0.00 1004.60 L 0.00 1004.33 L 0.00 1003.63 L 0.00 1003.17 L 0.00 1003.02 L 0.00 1002.97 L 0.00 1002.07 L 0.00 1000.59 L 0.00 999.97 L 0.00 999.91 L 0.00 999.81 L 0.00 999.63 L 0.00 999.63 L 0.00 999.59 L 0.00 998.39 L 0.00 998.37 L 0.00 997.61 L 0.00 996.81 L 0.00 995.76 L 0.00 995.28 L 0.00 995.21 L 0.00 994.36 L 0.00 991.49 L 0.00 991.42 L 0.00 988.99 L 0.00 988.68 L 0.00 988.45 L 0.00 986.82 L 0.00 985.18 L 0.00 985.03 L 0.00 984.03 L 0.00 982.96 L 0.00 981.06 L 0.00 980.78 L 0.00 979.88 L 0.00 979.77 L 0.00 979.72 L 0.00 979.40 L 0.00 978.53 L 0.00 978.19 L 0.00 978.09 L 0.00 978.04 L 0.00 977.81 L 0.00 977.59 L 0.00 976.12 L 0.00 975.18 L 0.00 973.87 L 0.00 972.08 L 0.00 971.67 L 0.00 969.94 L 0.00 969.88 L 0.00 969.58 L 0.00 969.15 L 0.00 967.52 L 0.00 967.18 L 0.00 966.97 L 0.00 966.76 L 0.00 966.65 L 0.00 965.03 L 0.00 964.16 L 0.00 963.62 L 0.00 963.05 L 0.00 962.74 L 0.00 962.38 L 0.00 960.52 L 0.00 957.97 L 0.00 956.52 L 0.00 955.80 L 0.00 954.54 L 0.00 953.19 L 0.00 952.05 L 0.00 951.32 L 0.00 950.09 L 0.00 949.42 L 0.00 949.28 L 0.00 949.21 L 0.00 948.44 L 0.00 948.33 L 0.00 948.08 L 0.00 945.42 L 0.00 945.04 L 0.00 944.73 L 0.00 944.63 L 0.00 944.32 L 0.00 943.61 L 0.00 943.17 L 0.00 942.98 L 0.00 939.54 L 0.00 939.23 L 0.00 939.23 L 0.00 938.73 L 0.00 938.58 L 0.00 938.42 L 0.00 938.24 L 0.00 937.28 L 0.00 937.07 L 0.00 936.91 L 0.00 936.57 L 0.00 935.07 L 0.00 935.06 L 0.00 933.92 L 0.00 933.77 L 0.00 933.58 L 0.00 932.69 L 0.00 931.07 L 0.00 930.78 L 0.00 930.30 L 0.00 929.72 L 0.00 929.48 L 0.00 919.92 L 0.00 919.87 L 0.00 915.71 L 0.00 912.33 L 0.00 900.15 L 0.00 897.68 L 0.00 896.10 L 0.00 895.26 L 0.00 893.79 L 0.00 893.78 L 0.00 892.15 L 0.00 889.52 L 0.00 882.79 L 0.00 882.65 L 0.00 873.58 L 0.00 860.42 L 0.00 857.36 L 0.00 852.63 L 0.00 850.79 L 0.00 849.18 L 0.00 846.95 L 0.00 842.68 L 0.00 840.91 L 0.00 839.89 L 0.00 834.49 L 0.00 833.36 L 0.00 832.50 L 0.00 831.01 L 0.00 830.71 L 0.00 825.17 L 0.00 825.15 L 0.00 823.30 L 0.00 820.52 L 0.00 818.93 L 0.00 818.20 L 0.00 817.47 L 0.00 817.15 L 0.00 817.10 L 0.00 816.60 L 0.00 814.57 L 0.00 813.69 L 0.00 812.82 L 0.00 812.74 L 0.00 811.61 L 0.00 809.51 L 0.00 809.45 L 0.00 809.10 L 0.00 801.47 L 0.00 801.19 L 0.00 796.21 L 0.00 795.96 L 0.00 794.64 L 0.00 794.40 L 0.00 794.07 L 0.00 793.79 L 0.00 793.11 L 0.00 792.06 L 0.00 790.99 L 0.00 789.77 L 0.00 787.37 L 0.00 786.76 L 0.00 786.43 L 0.00 784.55 L 0.00 783.95 L 0.00 783.71 L 0.00 783.39 L 0.00 783.20 L 0.00 781.83 L 0.00 779.65 L 0.00 779.36 L 0.00 778.16 L 0.00 776.36 L 0.00 773.90 L 0.00 772.87 L 0.00 770.84 L 0.00 769.80 L 0.00 768.14 L 0.00 767.23 L 0.00 766.99 L 0.00 764.93 L 0.00 764.75 L 0.00 764.20 L 0.00 763.90 L 0.00 763.20 L 0.00 763.14 L 0.00 762.51 L 0.00 762.11 L 0.00 761.22 L 0.00 759.00 L 0.00 758.68 L 0.00 758.61 L 0.00 758.33 L 0.00 755.59 L 0.00 753.99 L 0.00 753.85 L 0.00 751.38 L 0.00 751.09 L 0.00 750.97 L 0.00 750.92 L 0.00 748.72 L 0.00 748.52 L 0.00 746.66 L 0.00 744.51 L 0.00 744.21 L 0.00 743.11 L 0.00 742.67 L 0.00 742.01 L 0.00 740.44 L 0.00 740.26 L 0.00 740.14 L 0.00 740.00 L 0.00 739.08 L 0.00 738.68 L 0.00 737.41 L 0.00 736.29 L 0.00 736.04 L 0.00 736.02 L 0.00 732.78 L 0.00 732.76 L 0.00 731.84 L 0.00 731.47 L 0.00 731.35 L 0.00 731.20 L 0.00 730.97 L 0.00 729.40 L 0.00 729.02 L 0.00 728.70 L 0.00 728.70 L 0.00 727.49 L 0.00 726.96 L 0.00 726.91 L 0.00 725.98 L 0.00 725.70 L 0.00 725.37 L 0.00 724.56 L 0.00 722.99 L 0.00 722.16 L 0.00 721.69 L 0.00 721.69 L 0.00 721.47 L 0.00 720.89 L 0.00 719.93 L 0.00 719.03 L 0.00 718.68 L 0.00 717.42 L 0.00 715.44 L 0.00 714.52 L 0.00 710.53 L 0.00 709.91 L 0.00 709.37 L 0.00 709.27 L 0.00 707.55 L 0.00 705.99 L 0.00 705.05 L 0.00 705.03 L 0.00 705.01 L 0.00 704.60 L 0.00 704.46 L 0.00 704.37 L 0.00 703.26 L 0.00 701.29 L 0.00 700.28 L 0.00 700.20 L 0.00 699.67 L 0.00 699.54 L 0.00 698.12 L 0.00 697.89 L 0.00 697.23 L 0.00 696.77 L 0.00 696.36 L 0.00 694.83 L 0.00 693.49 L 0.00 692.94 L 0.00 692.92 L 0.00 692.47 L 0.00 692.43 L 0.00 691.68 L 0.00 689.87 L 0.00 687.82 L 0.00 687.73 L 0.00 687.36 L 0.00 686.45 L 0.00 686.23 L 0.00 685.47 L 0.00 685.41 L 0.00 685.08 L 0.00 684.31 L 0.00 683.31 L 0.00 683.23 L 0.00 681.75 L 0.00 681.55 L 0.00 681.06 L 0.00 680.62 L 0.00 677.93 L 0.00 676.61 L 0.00 676.53 L 0.00 676.41 L 0.00 674.09 L 0.00 673.14 L 0.00 671.73 L 0.00 671.59 L 0.00 671.58 L 0.00 669.98 L 0.00 669.94 L 0.00 669.81 L 0.00 667.62 L 0.00 667.21 L 0.00 665.46 L 0.00 664.32 L 0.00 663.58 L 0.00 663.32 L 0.00 662.10 L 0.00 661.04 L 0.00 659.19 L 0.00 659.16 L 0.00 658.46 L 0.00 657.92 L 0.00 655.87 L 0.00 654.48 L 0.00 653.67 L 0.00 653.02 L 0.00 652.46 L 0.00 651.95 L 0.00 648.01 L 0.00 647.31 L 0.00 647.26 L 0.00 647.25 L 0.00 647.00 L 0.00 646.43 L 0.00 645.83 L 0.00 644.81 L 0.00 641.63 L 0.00 641.04 L 0.00 639.66 L 0.00 639.46 L 0.00 639.35 L 0.00 638.75 L 0.00 638.30 L 0.00 637.52 L 0.00 636.71 L 0.00 635.90 L 0.00 635.71 L 0.00 634.51 L 0.00 633.95 L 0.00 633.24 L 0.00 632.99 L 0.00 631.84 L 0.00 631.64 L 0.00 630.33 L 0.00 630.31 L 0.00 628.97 L 0.00 628.95 L 0.00 628.91 L 0.00 628.89 L 0.00 627.68 L 0.00 627.08 L 0.00 627.05 L 0.00 626.96 L 0.00 622.07 L 0.00 621.68 L 0.00 621.65 L 0.00 619.83 L 0.00 619.49 L 0.00 619.07 L 0.00 618.21 L 0.00 617.16 L 0.00 616.21 L 0.00 613.76 L 0.00 613.09 L 0.00 611.85 L 0.00 611.02 L 0.00 607.83 L 0.00 607.23 L 0.00 607.11 L 0.00 606.47 L 0.00 604.45 L 0.00 604.37 L 0.00 602.96 L 0.00 601.58 L 0.00 600.94 L 0.00 600.46 L 0.00 600.01 L 0.00 595.73 L 0.00 595.68 L 0.00 594.26 L 0.00 593.31 L 0.00 592.77 L 0.00 591.24 L 0.00 591.04 L 0.00 590.49 L 0.00 590.33 L 0.00 589.43 L 0.00 589.43 L 0.00 589.34 L 0.00 586.52 L 0.00 586.27 L 0.00 586.04 L 0.00 584.67 L 0.00 584.57 L 0.00 583.26 L 0.00 583.18 L 0.00 582.89 L 0.00 582.28 L 0.00 582.11 L 0.00 580.62 L 0.00 579.28 L 0.00 578.75 L 0.12 578.70 L 0.30 578.70 L 2.34 578.70 L 6.68 578.70 L 7.05 578.70 L 7.37 578.70 L 8.69 578.70 L 9.41 578.70 L 10.52 578.70 L 11.55 578.70 L 11.55 578.70 L 12.59 578.70 L 13.17 578.70 L 13.20 578.70 L 15.12 578.70 L 15.68 578.70 L 16.19 578.70 L 16.66 578.70 L 16.86 578.70 L 17.12 578.70 L 17.28 578.70 L 17.28 578.70 L 19.98 578.70 L 20.83 578.70 L 21.95 578.70 L 22.29 578.70 L 22.68 578.70 L 23.42 578.70 L 24.18 578.70 L 24.59 578.70 L 26.27 578.70 L 27.18 578.70 L 28.96 578.70 L 29.63 578.70 L 30.26 578.70 L 30.65 578.70 L 31.28 578.70 L 31.39 578.70 L 33.48 578.70 L 35.24 578.70 L 35.28 578.70 L 35.39 578.70 L 35.83 578.70 L 35.99 578.70 L 37.05 578.70 L 37.12 578.70 L 37.41 578.70 L 38.45 578.70 L 39.38 578.70 L 39.57 578.70 L 39.73 578.70 L 40.00 578.70 L 41.99 578.70 L 42.65 578.70 L 43.46 578.70 L 48.07 578.70 L 48.43 578.70 L 49.88 578.70 L 50.27 578.70 L 50.76 578.70 L 51.07 578.70 L 51.93 578.70 L 51.96 578.70 L 51.97 578.70 L 52.12 578.70 L 53.56 578.70 L 56.90 578.70 L 57.04 578.70 L 57.17 578.70 L 57.82 578.70 L 59.02 578.70 L 59.23 578.70 L 59.76 578.70 L 61.00 578.70 L 63.95 578.70 L 64.09 578.70 L 65.45 578.70 L 65.98 578.70 L 66.02 578.70 L 66.68 578.70 L 67.40 578.70 L 67.52 578.70 L 69.34 578.70 L 73.01 578.70 L 73.14 578.70 L 73.65 578.70 L 74.87 578.70 L 75.03 578.70 L 75.14 578.70 L 75.21 578.70 L 75.26 578.70 L 78.70 578.70 L 80.13 578.70 L 80.92 578.70 L 81.42 578.70 L 82.12 578.70 L 85.75 578.70 L 85.95 578.70 L 86.10 578.70 L 88.69 578.70 L 88.76 578.70 L 89.04 578.70 L 89.30 578.70 L 89.44 578.70 L 90.00 578.70 L 91.99 578.70 L 92.26 578.70 L 94.45 578.70 L 94.57 578.70 L 94.63 578.70 L 95.25 578.70 L 95.29 578.70 L 95.57 578.70 L 96.27 578.70 L 97.67 578.70 L 98.44 578.70 L 98.44 578.70 L 98.45 578.70 L 99.75 578.70 L 100.46 578.70 L 100.97 578.70 L 101.22 578.70 L 101.56 578.70 L 101.92 578.70 L 104.20 578.70 L 105.53 578.70 L 106.26 578.70 L 106.46 578.70 L 108.39 578.70 L 109.31 578.70 L 109.34 578.70 L 110.87 578.70 L 111.79 578.70 L 112.11 578.70 L 112.73 578.70 L 114.07 578.70 L 115.43 578.70 L 117.62 578.70 L 118.69 578.70 L 118.99 578.70 L 119.04 578.70 L 119.77 578.70 L 120.18 578.70 L 121.30 578.70 L 123.93 578.70 L 124.92 578.70 L 125.85 578.70 L 126.32 578.70 L 126.50 578.70 L 127.84 578.70 L 129.08 578.70 L 129.13 578.70 L 130.43 578.70 L 133.10 578.70 L 133.35 578.70 L 135.11 578.70 L 135.41 578.70 L 135.58 578.70 L 136.74 578.70 L 136.91 578.70 L 138.34 578.70 L 139.29 578.70 L 142.07 578.70 L 142.72 578.70 L 144.25 578.70 L 144.45 578.70 L 144.49 578.70 L 144.70 578.70 L 144.77 578.70 L 145.97 578.70 L 146.95 578.70 L 147.21 578.70 L 149.26 578.70 L 150.34 578.70 L 151.00 578.70 L 151.24 578.70 L 151.90 578.70 L 151.92 578.70 L 152.48 578.70 L 155.65 578.70 L 156.80 578.70 L 157.11 578.70 L 157.12 578.70 L 157.52 578.70 L 158.52 578.70 L 161.82 578.70 L 163.27 578.70 L 163.40 578.70 L 163.69 578.70 L 163.85 578.70 L 164.38 578.70 L 164.83 578.70 L 165.14 578.70 L 166.63 578.70 L 166.93 578.70 L 169.36 578.70 L 171.94 578.70 L 172.13 578.70 L 172.25 578.70 L 173.57 578.70 L 174.80 578.70 L 175.31 578.70 L 176.40 578.70 L 177.14 578.70 L 180.07 578.70 L 180.53 578.70 L 180.79 578.70 L 180.90 578.70 L 180.96 578.70 L 183.57 578.70 L 184.59 578.70 L 184.80 578.70 L 185.49 578.70 L 187.34 578.70 L 187.63 578.70 L 188.56 578.70 L 188.90 578.70 L 189.86 578.70 L 190.05 578.70 L 190.58 578.70 L 191.15 578.70 L 192.47 578.70 L 192.57 578.70 L 192.76 578.70 L 193.32 578.70 L 193.49 578.70 L 193.92 578.70 L 194.30 578.70 L 194.41 578.70 L 194.68 578.70 L 195.25 578.70 L 196.22 578.70 L 197.23 578.70 L 197.23 578.70 L 197.59 578.70 L 197.70 578.70 L 197.87 578.70 L 198.80 578.70 L 200.44 578.70 L 202.90 578.70 L 206.78 578.70 L 207.55 578.70 L 208.63 578.70 L 209.72 578.70 L 209.95 578.70 L 210.39 578.70 L 210.54 578.70 L 214.75 578.70 L 216.72 578.70 L 217.72 578.70 L 217.92 578.70 L 217.96 578.70 L 217.97 578.70 L 218.46 578.70 L 221.73 578.70 L 225.66 578.70 L 228.35 578.70 L 229.48 578.70 L 229.58 578.70 L 230.27 578.70 L 230.52 578.70 L 232.36 578.70 L 233.75 578.70 L 234.53 578.70 L 236.85 578.70 L 237.30 578.70 L 238.00 578.70 L 238.80 578.70 L 239.69 578.70 L 239.71 578.70 L 240.96 578.70 L 242.55 578.70 L 245.81 578.70 L 247.47 578.70 L 248.18 578.70 L 248.65 578.70 L 250.08 578.70 L 250.15 578.70 L 250.81 578.70 L 251.05 578.70 L 252.06 578.70 L 252.65 578.70 L 253.24 578.70 L 253.62 578.70 L 253.72 578.70 L 256.33 578.70 L 256.36 578.70 L 259.23 578.70 L 259.28 578.70 L 259.34 578.70 L 262.27 578.70 L 264.84 578.70 L 264.93 578.70 L 265.32 578.70 L 265.86 578.70 L 268.96 578.70 L 269.10 578.70 L 271.38 578.70 L 272.46 578.70 L 272.50 578.70 L 274.44 578.70 L 274.76 578.70 L 274.78 578.70 L 275.47 578.70 L 275.50 578.70 L 275.96 578.70 L 276.54 578.70 L 277.58 578.70 L 277.70 578.70 L 278.83 578.70 L 278.91 578.70 L 279.07 578.70 L 279.40 578.70 L 280.30 578.70 L 280.53 578.70 L 280.81 578.70 L 282.00 578.70 L 282.71 578.70 L 283.52 578.70 L 283.58 578.70 L 284.17 578.70 L 284.24 578.70 L 284.97 578.70 L 285.36 578.70 L 286.79 578.70 L 287.22 578.70 L 287.25 578.70 L 287.94 578.70 L 288.07 578.70 L 288.45 578.70 L 288.48 578.70 L 289.91 578.70 L 289.92 578.70 L 290.30 578.70 L 291.14 578.70 L 291.31 578.70 L 292.89 578.70 L 293.47 578.70 L 293.73 578.70 L 293.85 578.70 L 294.59 578.70 L 295.07 578.70 L 295.18 578.70 L 295.64 578.70 L 295.79 578.70 L 296.75 578.70 L 297.77 578.70 L 298.62 578.70 L 298.84 578.70 L 299.28 578.70 L 300.04 578.70 L 301.05 578.70 L 302.42 578.70 L 303.05 578.70 L 303.99 578.70 L 304.91 578.70 L 304.94 578.70 L 305.73 578.70 L 306.28 578.70 L 306.68 578.70 L 307.57 578.70 L 309.41 578.70 L 309.67 578.70 L 313.96 578.70 L 313.99 578.70 L 314.16 578.70 L 314.23 578.70 L 314.54 578.70 L 315.00 578.70 L 317.44 578.70 L 320.24 578.70 L 321.88 578.70 L 325.68 578.70 L 325.87 578.70 L 327.24 578.70 L 329.90 578.70 L 330.54 578.70 L 332.39 578.70 L 332.56 578.70 L 332.85 578.70 L 332.90 578.70 L 333.41 578.70 L 333.61 578.70 L 334.14 578.70 L 335.24 578.70 L 337.46 578.70 L 338.06 578.70 L 338.31 578.70 L 338.70 578.70 L 339.47 578.70 L 340.49 578.70 L 340.71 578.70 L 343.19 578.70 L 343.68 578.70 L 344.61 578.70 L 345.21 578.70 L 345.49 578.70 L 346.20 578.70 L 346.48 578.70 L 347.13 578.70 L 347.34 578.70 L 347.43 578.70 L 347.64 578.70 L 351.45 578.70 L 351.68 578.70 L 352.68 578.70 L 354.00 578.70 L 354.02 578.70 L 354.33 578.70 L 354.43 578.70 L 356.79 578.70 L 356.83 578.70 L 356.95 578.70 L 359.90 578.70 L 360.47 578.70 L 360.73 578.70 L 363.88 578.70 L 385.93 558.14 L 385.93 556.09 L 385.93 555.63 L 385.93 554.94 L 385.93 553.96 L 385.93 553.64 L 385.93 552.36 L 385.93 552.19 L 385.93 551.50 L 385.93 551.33 L 385.93 551.29 L 385.93 551.15 L 385.93 550.30 L 385.93 549.85 L 385.93 549.38 L 385.93 548.16 L 385.93 547.63 L 385.93 547.07 L 385.93 543.45 L 385.93 538.47 L 385.93 535.67 L 385.93 523.71 L 385.93 522.58 L 385.93 522.32 L 385.93 517.98 L 385.93 510.72 L 385.93 505.62 L 385.93 498.91 L 385.93 493.82 L 385.93 492.48 L 385.93 488.04 L 385.93 483.81 L 385.93 479.17 L 385.93 477.47 L 385.93 473.92 L 385.93 472.97 L 385.93 468.41 L 385.93 466.42 L 385.93 464.69 L 385.93 461.02 L 385.93 458.36 L 385.93 455.20 L 385.93 451.14 L 385.93 448.39 L 385.93 447.31 L 385.93 442.32 L 385.93 438.41 L 385.93 432.32 L 385.93 421.63 L 385.93 417.74 L 385.93 417.48 L 385.93 412.92 L 385.93 412.20 L 385.93 411.50 L 385.93 408.03 L 385.93 407.78 L 385.93 402.23 L 385.93 400.65 L 385.93 395.05 L 385.93 394.88 L 385.93 392.06 L 385.93 388.92 L 385.93 388.72 L 385.93 385.17 L 385.93 383.23 L 385.93 380.63 L 385.93 380.07 L 385.93 377.95 L 385.93 377.78 L 385.93 376.36 L 385.93 362.42 L 385.93 361.29 L 385.93 359.46 L 385.93 358.88 L 385.93 358.41 L 385.93 358.28 L 385.93 354.13 L 385.93 352.46 L 385.93 351.15 L 385.93 349.68 L 385.93 346.09 L 385.93 344.97 L 385.93 337.06 L 385.93 334.71 L 385.93 332.61 L 385.93 321.99 L 385.93 321.55 L 385.93 321.48 L 385.93 320.70 L 385.93 315.74 L 385.93 311.12 L 385.93 308.98 L 385.93 308.27 L 385.93 308.04 L 385.93 304.94 L 385.93 298.51 L 385.93 291.60 L 385.93 290.56 L 385.93 290.01 L 385.93 289.87 L 385.93 288.62 L 385.93 286.99 L 385.93 286.72 L 385.93 281.13 L 385.93 280.12 L 385.93 277.68 L 385.93 273.79 L 385.93 271.95 L 385.93 265.74 L 385.93 265.64 L 385.93 261.84 L 385.93 261.26 L 385.93 261.00 L 385.93 260.82 L 385.93 260.43 L 385.93 258.64 L 385.93 258.30 L 385.93 257.76 L 385.93 257.27 L 385.93 255.54 L 385.93 255.50 L 385.93 255.29 L 385.93 255.09 L 385.93 255.08 L 385.93 252.93 L 385.93 252.65 L 385.93 252.18 L 385.93 251.97 L 385.93 251.23 L 385.93 247.02 L 385.93 244.94 L 385.93 242.91 L 385.93 242.72 L 385.93 242.40 L 385.93 241.09 L 385.93 241.01 L 385.93 238.58 L 385.93 236.34 L 385.93 235.95 L 385.93 234.14 L 385.93 233.41 L 385.93 233.02 L 385.93 232.12 L 385.93 229.92 L 385.93 229.04 L 385.93 228.33 L 385.93 227.10 L 385.93 226.43 L 385.93 226.29 L 385.93 226.28 L 385.93 225.18 L 385.93 224.14 L 385.93 223.52 L 385.93 222.62 L 385.93 221.54 L 385.93 221.08 L 385.93 219.29 L 385.93 219.22 L 385.93 219.01 L 385.93 217.94 L 385.93 217.89 L 385.93 215.80 L 385.93 215.68 L 385.93 215.36 L 385.93 214.73 L 385.93 214.66 L 385.93 214.55 L 385.93 213.99 L 385.93 213.84 L 385.93 212.56 L 385.93 211.79 L 385.93 211.06 L 385.93 210.64 L 385.93 210.63 L 385.93 210.31 L 385.93 210.23 L 385.93 209.50 L 385.93 209.06 L 385.93 209.03 L 385.93 208.32 L 385.93 207.31 L 385.93 207.05 L 385.93 206.87 L 385.93 205.56 L 385.93 204.31 L 385.93 203.85 L 385.93 202.74 L 385.93 202.29 L 385.93 201.65 L 385.93 198.33 L 385.93 196.73 L 385.93 195.90 L 385.93 195.70 L 385.93 195.70 L 385.93 195.46 L 385.93 195.33 L 385.93 194.95 L 385.93 194.78 L 385.93 194.58 L 385.93 194.16 L 385.93 193.42 L 385.93 192.76 L 385.93 192.28 L 385.93 191.19 L 385.93 188.53 L 385.93 186.58 L 385.93 184.75 L 385.93 184.51 L 385.93 184.40 L 385.93 183.39 L 385.93 182.01 L 385.93 181.88 L 385.93 179.98 L 385.93 179.17 L 385.93 177.83 L 385.93 177.49 L 385.93 175.67 L 385.93 175.64 L 385.93 175.49 L 385.93 175.18 L 385.93 173.99 L 385.93 170.49 L 385.93 168.83 L 385.93 168.19 L 385.93 167.55 L 385.93 165.45 L 385.93 165.08 L 385.93 164.83 L 385.93 162.72 L 385.93 158.11 L 385.93 156.78 L 385.93 152.46 L 385.93 151.55 L 385.93 147.14 L 385.93 146.55 L 385.93 146.51 L 385.93 145.61 L 385.93 144.94 L 385.93 136.14 L 385.93 132.01 L 385.93 129.96 L 385.93 126.99 L 385.93 125.11 L 385.93 124.51 L 385.93 120.87 L 385.93 118.10 L 385.93 117.88 L 385.93 115.76 L 385.93 112.33 L 385.93 109.26 L 385.93 104.19 L 385.93 103.30 L 385.93 101.49 L 385.93 96.64 L 385.93 86.16 L 385.93 82.81 L 385.93 81.73 L 385.93 81.25 L 385.93 80.03 L 385.93 79.24 L 385.93 78.88 L 385.93 76.27 L 385.93 74.12 L 385.93 73.80 L 385.93 69.92 L 385.93 69.70 L 385.93 66.35 L 385.93 65.66 L 385.93 63.55 L 385.93 62.94 L 385.93 62.71 L 385.93 60.08 L 385.93 56.80 L 385.93 53.54 L 385.93 50.20 L 385.93 49.91 L 385.93 48.36 L 385.93 45.85 L 385.93 45.80 L 385.93 45.69 L 385.93 44.81 L 385.93 44.46 L 385.93 44.00 L 385.93 40.64 L 385.93 37.29 L 385.93 35.08 L 385.93 30.18 L 385.93 27.04 L 385.93 23.85 L 385.93 22.19 L 385.93 20.37 L 385.93 15.93 L 385.93 14.75 L 385.93 14.48 L 385.93 13.25 L 385.93 13.25 L 385.93 13.22 L 385.93 12.63 L 385.93 12.34 L 385.93 11.02 L 385.93 10.45 L 385.93 10.38 L 385.93 8.81 L 385.93 8.59 L 385.93 8.33 L 385.93 7.97 L 385.93 7.56 L 385.93 6.52 L 385.93 4.78 L 385.93 4.62 L 385.93 1.09 L 385.94 0.00 L 386.04 0.00 L 386.77 0.00 L 388.47 0.00 L 390.80 0.00 L 391.33 0.00 L 392.50 0.00 L 393.78 0.00 L 393.89 0.00 L 393.90 0.00 L 394.66 0.00 L 395.18 0.00 L 395.39 0.00 L 396.54 0.00 L 397.41 0.00 L 398.25 0.00 L 401.18 0.00 L 405.87 0.00 L 406.33 0.00 L 407.91 0.00 L 408.26 0.00 L 408.87 0.00 L 409.29 0.00 L 409.50 0.00 L 410.35 0.00 L 416.09 0.00 L 417.51 0.00 L 420.07 0.00 L 422.90 0.00 L 423.06 0.00 L 429.02 0.00 L 430.98 0.00 L 435.03 0.00 L 435.08 0.00 L 437.93 0.00 L 438.51 0.00 L 441.40 0.00 L 444.36 0.00 L 445.56 0.00 L 445.98 0.00 L 447.92 0.00 L 449.18 0.00 L 449.45 0.00 L 451.36 0.00 L 451.49 0.00 L 453.02 0.00 L 455.28 0.00 L 457.52 0.00 L 458.46 0.00 L 461.17 0.00 L 465.38 0.00 L 472.62 0.00 L 483.51 0.00 L 483.93 0.00 L 484.33 0.00 L 485.84 0.00 L 487.65 0.00 L 489.00 0.00 L 489.50 0.00 L 491.23 0.00 L 500.05 0.00 L 505.46 0.00 L 508.70 0.00 L 509.72 0.00 L 510.14 0.00 L 518.05 0.00 L 520.64 0.00 L 523.90 0.00 L 530.49 0.00 L 531.85 0.00 L 550.43 0.00 L 553.29 0.00 L 562.38 0.00 L 562.45 0.00 L 562.68 0.00 L 563.80 0.00 L 563.88 0.00 L 563.91 0.00 L 564.00 0.00 L 564.78 0.00 L 564.83 0.00 L 566.06 0.00 L 568.21 0.00 L 569.30 0.00 L 569.89 0.00 L 570.98 0.00 L 571.40 0.00 L 571.66 0.00 L 571.96 0.00 L 572.71 0.00 L 573.13 0.00 L 574.80 0.00 L 575.46 0.00 L 576.03 0.00 L 576.44 0.00 L 576.92 0.00 L 577.35 0.00 L 578.15 0.00 L 579.69 0.00 L 580.57 0.00 L 580.82 0.00 L 581.46 0.00 L 581.69 0.00 L 582.17 0.00 L 584.04 0.00 L 584.73 0.00 L 585.23 0.00 L 586.46 0.00 L 587.15 0.00 L 587.49 0.00 L 587.54 0.00 L 589.01 0.00 L 589.90 0.00 L 591.16 0.00 L 591.65 0.00 L 595.47 0.00 L 595.58 0.00 L 596.23 0.00 L 596.74 0.00 L 597.65 0.00 L 597.85 0.00 L 598.37 0.00 L 599.02 0.00 L 599.28 0.00 L 599.71 0.00 L 599.84 0.00 L 599.85 0.00 L 600.15 0.00 L 600.27 0.00 L 600.28 0.00 L 600.60 0.00 L 601.18 0.00 L 601.26 0.00 L 601.86 0.00 L 602.97 0.00 L 603.24 0.00 L 604.58 0.00 L 605.02 0.00 L 605.63 0.00 L 606.34 0.00 L 608.18 0.00 L 608.58 0.00 L 609.75 0.15 L 628.65 12.00 L 629.28 12.00 L 630.54 12.00 L 631.85 12.00 L 637.54 12.00 L 637.69 12.00 L 637.71 12.00 L 638.41 12.00 L 640.41 12.00 L 641.54 12.00 L 641.83 12.00 L 657.83 5.00 L 669.71 6.64 L 692.48 0.00 L 692.73 0.00 L 693.69 0.00 L 693.75 0.00 L 696.42 0.00 L 696.93 0.00 L 700.00 0.00 L 701.29 0.00 L 706.39 0.00 L 711.02 0.00 L 712.35 0.00 L 714.93 0.00 L 716.08 0.00 L 719.76 0.00 L 723.61 0.00 L 729.71 0.00 L 729.80 0.00 L 732.51 0.00 L 736.94 0.00 L 747.45 0.00 L 751.27 0.00 L 751.51 0.00 L 752.48 0.00 L 753.35 0.00 L 753.43 0.00 L 756.36 0.00 L 768.56 0.00 L 770.50 0.00 L 774.25 0.00 L 776.41 0.00 L 779.26 0.00 L 787.58 0.00 L 788.26 0.00 L 790.75 0.00 L 790.89 0.00 L 794.59 0.00 L 796.65 0.00 L 798.41 0.00 L 798.47 0.00 L 798.95 0.00 L 804.16 0.00 L 805.47 0.00 L 805.80 0.00 L 814.75 0.26 L 816.80 0.00 L 820.69 0.00 L 821.74 0.00 L 823.80 0.00 L 824.06 0.00 L 827.30 0.00 L 828.95 0.00 L 829.41 0.00 L 831.44 0.00 L 832.79 0.00 L 833.92 0.00 L 836.67 0.00 L 837.47 0.00 L 841.89 0.00 L 844.72 0.00 L 853.55 0.00 L 856.00 0.00 L 857.71 0.00 L 865.62 0.00 L 868.04 0.00 L 868.20 0.00 L 868.31 0.00 L 868.89 0.00 L 870.12 0.00 L 870.38 0.00 L 871.59 0.00 L 872.15 0.00 L 873.83 0.00 L 876.00 0.00 L 877.51 0.00 L 877.91 0.00 L 878.39 0.00 L 879.20 0.00 L 879.90 0.00 L 882.04 0.00 L 882.74 0.00 L 883.92 0.00 L 887.02 0.00 L 887.33 0.00 L 888.00 0.00 L 889.50 0.00 L 889.57 0.00 L 890.29 0.00 L 890.31 0.00 L 891.19 0.00 L 893.52 0.00 L 893.56 0.00 L 893.99 0.00 L 894.10 0.00 L 894.28 0.00 L 894.68 0.00 L 895.07 0.00 L 895.47 0.00 L 895.78 0.00 L 896.47 0.00 L 896.80 0.00 L 898.53 0.00 L 898.74 0.00 L 898.96 0.00 L 899.56 0.00 L 900.06 0.00 L 900.08 0.00 L 900.21 0.00 L 900.46 0.00 L 900.61 0.00 L 901.27 0.00 L 904.15 0.00 L 905.30 0.00 L 905.78 0.00 L 906.15 0.00 L 908.43 0.00 L 908.59 0.00 L 909.03 0.00 L 909.06 0.00 L 909.69 0.00 L 910.48 0.00 L 911.53 0.00 L 915.50 0.00 L 916.48 0.00 L 917.31 0.00 L 917.83 0.00 L 917.97 0.00 L 918.67 0.00 L 919.69 0.00 L 920.03 0.00 L 920.50 0.00 L 922.07 0.00 L 922.21 0.00 L 923.10 0.00 L 924.15 0.00 L 927.46 0.00 L 927.49 0.00 L 927.60 0.00 L 928.77 0.00 L 929.29 0.00 L 932.48 0.00 L 932.89 0.00 L 934.40 0.00 L 934.65 0.00 L 937.17 0.00 L 937.42 0.00 L 942.32 0.00 L 942.36 0.00 L 942.51 0.00 L 943.13 0.00 L 943.77 0.00 L 944.60 0.00 L 944.72 0.00 L 944.83 0.00 L 946.23 0.00 L 946.60 0.00 L 951.18 0.00 L 953.87 0.00 L 954.20 0.00 L 954.90 0.00 L 955.00 0.00 L 956.11 0.00 L 957.13 0.00 L 957.74 0.00 L 957.94 0.00 L 960.26 0.00 L 963.20 0.00 L 963.64 0.00 L 967.17 0.00 L 972.76 0.00 L 977.36 0.00 L 979.65 0.00 L 986.36 0.00 L 988.33 0.00 L 988.50 0.00 L 992.30 0.00 L 992.64 0.00 L 996.22 0.00 L 999.50 0.00 L 1001.27 0.00 L 1005.32 0.00 L 1006.48 0.00 L 1007.37 0.00 L 1009.95 0.00 L 1014.63 0.00 L 1019.14 0.00 L 1023.60 0.00 L 1026.29 0.00 L 1028.44 0.00 L 1036.72 0.20 L 1046.20 0.00 L 1046.31 0.00 L 1047.07 0.00 L 1049.38 0.00 L 1060.07 0.00 L 1060.97 0.00 L 1068.28 0.00 L 1073.35 0.00 L 1084.07 0.00 L 1088.64 0.00 L 1095.45 0.00 L 1096.19 0.00 L 1096.65 0.00 L 1106.00 0.00 L 1106.07 0.00 L 1108.24 0.00 L 1109.46 0.00 L 1116.64 0.00 L 1116.93 0.00 L 1120.26 0.00 L 1126.25 0.00 L 1126.40 0.00 L 1126.78 0.00 L 1130.25 0.00 L 1133.85 0.00 L 1145.45 0.00 L 1149.76 0.00 L 1151.83 0.00 L 1152.01 0.00 L 1159.06 0.00 L 1164.80 0.00 L 1173.59 0.00 L 1177.10 0.00 L 1189.42 0.00 L 1190.77 0.00 L 1203.95 0.00 L 1205.78 0.00 L 1211.96 0.00 L 1214.32 0.00 L 1234.89 0.00 L 1236.14 0.00 L 1237.85 0.00 L 1250.85 0.00 L 1252.99 0.00 L 1255.86 0.00 L 1257.62 0.00 L 1263.05 0.00 L 1264.20 0.00 L 1276.54 0.00 L 1281.38 0.00 L 1295.68 0.00 L 1297.41 0.00 L 1298.46 0.00 L 1299.69 0.00 L 1304.36 0.00 L 1306.23 0.00 L 1309.96 0.00 L 1311.87 0.00 L 1312.55 0.00 L 1313.83 0.00 L 1313.87 0.00 L 1313.93 0.00 L 1315.36 0.00 L 1316.49 0.00 L 1317.74 0.00 L 1317.74 0.00 L 1318.00 0.11 L 1318.11 0.54 L 1318.11 1.74 L 1318.11 1.79 L 1318.11 2.22 L 1318.11 2.35 L 1318.11 2.48 L 1318.11 2.69 L 1318.11 2.79 L 1318.11 4.35 L 1318.11 4.54 L 1318.11 5.37 L 1318.11 8.29 L 1318.11 8.57 L 1318.11 9.40 L 1318.11 10.18 L 1318.11 10.94 L 1318.11 15.68 L 1318.11 18.98 L 1318.11 25.22 L 1318.11 27.33 L 1318.11 29.02 L 1318.11 30.39 L 1318.11 31.03 L 1318.11 32.41 L 1318.11 33.07 L 1318.11 37.82 L 1318.11 44.60 L 1318.11 48.19 L 1318.11 51.50 L 1318.11 51.51 L 1318.11 53.87 L 1318.11 56.15 L 1318.11 56.15 L 1318.11 56.16 L 1318.11 58.49 L 1318.11 59.23 L 1318.11 60.68 L 1318.11 61.06 L 1318.11 62.30 L 1318.11 65.44 L 1318.11 66.16 L 1318.11 67.15 L 1318.11 68.80 L 1318.11 69.00 L 1318.11 79.72 L 1318.11 81.08 L 1318.11 81.80 L 1318.11 89.29 L 1318.11 93.14 L 1318.11 95.30 L 1317.36 100.65 L 1318.11 109.33 L 1318.11 110.58 L 1318.11 117.69 L 1318.11 124.16 L 1318.11 125.71 L 1318.11 126.65 L 1318.11 133.63 L 1318.11 138.92 L 1318.11 143.80 L 1318.11 151.29 L 1318.11 152.37 L 1318.11 154.36 L 1318.11 160.45 L 1318.11 162.65 L 1318.11 164.07 L 1318.11 167.14 L 1318.11 172.57 L 1318.11 177.62 L 1318.11 179.21 L 1318.11 191.51 L 1318.11 194.90 L 1318.11 194.96 L 1318.11 204.42 L 1318.11 205.05 L 1318.11 208.02 L 1318.11 208.60 L 1318.11 211.24 L 1318.11 214.33 L 1318.11 214.48 L 1318.11 225.18 L 1318.11 226.19 L 1318.11 227.53 L 1318.11 229.18 L 1318.11 229.30 L 1318.11 231.53 L 1318.11 232.16 L 1318.11 233.73 L 1318.11 238.66 L 1318.11 248.99 L 1318.11 252.07 L 1318.11 259.06 L 1318.11 260.87 L 1318.11 261.15 L 1318.11 262.45 L 1318.11 267.40 L 1318.11 269.22 L 1318.11 277.50 L 1318.11 279.19 L 1318.11 280.03 L 1318.11 285.51 L 1318.11 286.77 L 1318.11 287.72 L 1318.11 287.91 L 1318.11 289.38 L 1318.11 292.79 L 1318.11 295.70 L 1318.11 305.37 L 1318.11 307.10 L 1318.11 311.21 L 1318.11 314.08 L 1318.11 316.26 L 1318.11 318.48 L 1318.11 323.92 L 1318.11 330.61 L 1318.11 332.54 L 1318.11 337.46 L 1318.11 345.20 L 1318.11 350.82 L 1318.11 351.67 L 1318.11 355.45 L 1317.99 368.80 L 1318.11 370.20 L 1318.11 371.09 L 1318.11 371.10 L 1318.11 372.32 L 1318.11 377.04 L 1318.11 378.32 L 1318.11 379.28 L 1318.11 380.08 L 1318.11 383.32 L 1318.11 387.06 L 1318.11 392.02 L 1318.11 393.34 L 1318.11 395.40 L 1318.11 396.70 L 1318.11 399.66 L 1318.11 403.69 L 1318.11 412.62 L 1318.11 414.27 L 1318.11 414.76 L 1318.11 415.93 L 1318.11 419.39 L 1318.11 425.36 L 1318.11 428.88 L 1318.11 429.93 L 1318.11 431.66 L 1318.11 432.85 L 1318.11 433.26 L 1318.11 436.72 L 1318.11 446.60 L 1318.11 448.00 L 1318.11 449.18 L 1318.11 452.61 L 1318.11 460.24 L 1318.11 462.98 L 1318.11 466.18 L 1318.11 467.52 L 1318.11 472.07 L 1318.11 477.76 L 1318.11 481.67 L 1318.11 486.50 L 1318.11 486.76 L 1318.11 487.69 L 1318.11 493.00 L 1318.11 496.13 L 1318.11 501.69 L 1318.11 504.73 L 1318.11 505.77 L 1318.11 508.14 L 1317.95 512.24 L 1318.11 514.10 L 1318.11 514.70 L 1318.11 519.89 L 1318.11 520.98 L 1318.11 521.98 L 1318.11 523.00 L 1318.11 523.23 L 1318.11 523.27 L 1318.11 524.25 L 1318.11 524.26 L 1318.11 525.56 L 1318.11 525.67 L 1318.11 525.87 L 1318.11 526.15 L 1318.11 526.34 L 1318.11 528.01 L 1318.11 529.17 L 1318.11 529.53 L 1318.11 531.90 L 1318.11 532.11 L 1318.11 533.56 L 1318.11 534.04 L 1318.11 534.71 L 1318.11 535.49 L 1318.11 536.79 L 1318.11 537.88 L 1318.11 539.19 L 1318.11 540.38 L 1318.11 541.56 L 1318.11 542.56 L 1318.11 543.08 L 1318.11 543.72 L 1318.11 545.03 L 1318.11 545.07 L 1318.11 545.12 L 1318.11 545.32 L 1318.11 545.39 L 1318.11 545.61 L 1318.11 547.65 L 1318.11 554.13 L 1318.11 554.83 L 1318.11 560.88 L 1318.11 561.20 L 1318.11 561.89 L 1318.11 564.58 L 1318.11 565.02 L 1318.11 572.44 L 1318.11 576.54 L 1318.11 580.31 L 1318.11 582.71 L 1318.11 587.32 L 1318.11 588.12 L 1318.11 589.06 L 1318.11 595.98 L 1318.11 598.67 L 1318.11 604.56 L 1318.11 609.37 L 1318.11 612.98 L 1318.11 619.29 L 1318.11 636.41 L 1318.11 639.14 L 1318.11 640.48 L 1318.11 642.92 L 1318.11 646.79 L 1318.11 649.16 L 1318.11 661.02 L 1318.11 661.30 L 1318.11 662.81 L 1318.11 665.49 L 1318.11 673.90 L 1318.11 675.49 L 1318.11 679.73 L 1318.11 682.76 L 1318.11 689.98 L 1318.11 690.11 L 1318.11 694.24 L 1318.11 705.85 L 1318.11 711.15 L 1318.11 712.46 L 1318.11 721.19 L 1318.11 724.75 L 1318.11 726.42 L 1318.11 741.23 L 1318.11 742.26 L 1318.11 742.52 L 1318.11 742.85 L 1318.11 743.26 L 1318.11 744.36 L 1318.11 744.64 L 1318.11 744.98 L 1318.11 745.20 L 1318.11 745.68 L 1318.11 746.19 L 1318.11 746.45 L 1318.11 746.47 L 1318.11 747.76 L 1318.11 747.95 L 1318.11 748.67 L 1318.11 750.09 L 1318.11 750.81 L 1318.11 751.04 L 1318.11 751.65 L 1318.11 752.15 L 1318.11 752.67 L 1318.11 752.86 L 1318.11 753.22 L 1318.11 753.51 L 1318.11 753.72 L 1318.11 753.77 L 1318.11 754.19 L 1318.11 754.62 L 1318.11 758.23 L 1318.11 758.67 L 1318.11 760.50 L 1318.11 760.77 L 1318.11 760.97 L 1318.11 761.40 L 1318.11 761.72 L 1318.11 762.87 L 1318.11 765.26 L 1318.11 766.98 L 1318.11 768.37 L 1318.11 768.61 L 1318.11 769.80 L 1318.11 769.98 L 1318.11 770.88 L 1318.11 772.78 L 1318.11 773.59 L 1318.11 773.93 L 1318.11 773.96 L 1318.11 774.61 L 1318.11 775.55 L 1318.11 779.80 L 1318.11 781.79 L 1318.11 782.87 L 1318.11 784.07 L 1318.11 784.53 L 1318.11 785.70 L 1318.11 787.56 L 1318.11 788.01 L 1318.11 788.14 L 1318.11 788.45 L 1318.11 789.01 L 1318.11 789.25 L 1318.11 790.04 L 1318.11 791.22 L 1318.11 792.74 L 1318.11 795.04 L 1318.11 795.35 L 1318.11 795.70 L 1318.11 795.90 L 1318.11 796.44 L 1318.11 796.57 L 1318.11 797.28 L 1318.11 797.83 L 1318.11 797.83 L 1318.11 798.78 L 1318.11 799.28 L 1318.11 799.31 L 1318.11 800.28 L 1318.11 800.43 L 1318.11 801.07 L 1318.11 801.51 L 1318.11 802.17 L 1318.11 802.24 L 1318.11 803.56 L 1318.11 804.53 L 1318.11 805.39 L 1318.11 808.08 L 1318.11 808.15 L 1318.11 809.61 L 1318.11 810.92 L 1318.11 811.26 L 1318.11 812.24 L 1318.11 815.60 L 1318.11 816.57 L 1318.11 816.65 L 1318.11 817.16 L 1318.11 817.24 L 1318.11 818.68 L 1318.11 818.76 L 1318.11 818.84 L 1318.11 819.42 L 1318.11 819.63 L 1318.11 819.89 L 1318.11 822.59 L 1318.11 823.12 L 1318.11 823.35 L 1318.11 823.84 L 1318.11 824.73 L 1318.11 825.69 L 1318.11 826.31 L 1318.11 826.98 L 1318.11 828.36 L 1318.11 828.96 L 1318.11 829.94 L 1318.11 830.09 L 1318.11 830.61 L 1318.11 832.81 L 1318.11 832.96 L 1318.11 833.11 L 1318.11 833.47 L 1318.11 833.63 L 1318.11 833.67 L 1318.11 835.76 L 1318.11 839.90 L 1318.11 840.36 L 1318.11 840.49 L 1318.11 841.61 L 1318.11 841.92 L 1318.11 842.62 L 1318.11 842.68 L 1318.11 844.08 L 1318.11 844.52 L 1318.11 845.84 L 1318.11 847.07 L 1318.11 848.15 L 1318.11 849.17 L 1318.11 849.78 L 1318.11 850.06 L 1318.11 850.28 L 1318.11 851.15 L 1318.11 851.28 L 1318.11 851.66 L 1318.11 853.66 L 1318.11 854.81 L 1318.11 855.24 L 1318.11 855.36 L 1318.11 855.77 L 1318.11 856.16 L 1318.11 856.81 L 1318.11 856.87 L 1318.11 857.27 L 1318.11 857.44 L 1318.11 858.18 L 1318.11 858.26 L 1318.11 860.17 L 1318.11 860.40 L 1318.11 860.50 L 1318.11 861.60 L 1318.11 861.90 L 1318.11 863.12 L 1318.11 864.08 L 1318.11 864.12 L 1318.11 864.55 L 1318.11 866.12 L 1318.11 866.74 L 1318.11 867.80 L 1318.11 868.24 L 1318.11 869.77 L 1318.11 869.96 L 1318.11 870.93 L 1318.11 872.22 L 1318.11 874.26 L 1318.11 874.98 L 1318.11 875.53 L 1318.11 875.75 L 1318.11 877.01 L 1318.11 879.16 L 1318.11 879.37 L 1318.11 879.77 L 1318.11 879.78 L 1318.11 881.19 L 1318.11 881.36 L 1318.11 882.30 L 1318.11 882.59 L 1318.11 883.11 L 1318.11 883.19 L 1318.11 884.24 L 1318.11 884.40 L 1318.11 885.21 L 1318.11 885.24 L 1318.11 887.47 L 1318.11 888.27 L 1318.11 888.63 L 1318.11 890.18 L 1318.11 890.76 L 1318.11 890.88 L 1318.11 891.37 L 1318.11 893.13 L 1318.11 893.21 L 1318.11 894.16 L 1318.11 894.27 L 1318.11 895.97 L 1318.11 896.57 L 1318.11 897.33 L 1318.11 899.04 L 1318.11 899.82 L 1318.11 900.33 L 1318.11 900.60 L 1318.11 900.72 L 1318.11 903.34 L 1318.11 903.43 L 1318.11 904.02 L 1318.11 904.79 L 1318.11 904.82 L 1318.11 904.86 L 1318.11 905.79 L 1318.11 905.89 L 1318.11 906.22 L 1318.11 908.73 L 1318.11 909.73 L 1318.11 909.95 L 1318.11 910.05 L 1318.11 910.31 L 1318.11 910.38 L 1318.11 911.22 L 1318.11 914.36 L 1318.11 914.45 L 1318.11 917.67 L 1318.11 917.74 L 1318.11 918.07 L 1318.11 918.93 L 1318.11 919.04 L 1318.11 919.11 L 1318.11 919.93 L 1318.11 920.06 L 1318.11 922.78 L 1318.11 923.10 L 1318.11 923.38 L 1318.11 925.23 L 1318.11 925.36 L 1318.11 925.36 L 1318.11 925.42 L 1318.11 930.59 L 1318.11 931.91 L 1318.11 932.23 L 1318.11 932.70 L 1318.11 933.35 L 1318.11 933.81 L 1318.11 935.15 L 1318.11 935.28 L 1318.11 936.08 L 1318.11 936.12 L 1318.11 938.65 L 1318.11 938.94 L 1318.11 940.46 L 1318.11 940.80 L 1318.11 941.01 L 1318.11 942.52 L 1318.11 944.23 L 1318.11 944.69 L 1318.11 946.60 L 1318.11 946.65 L 1318.11 947.60 L 1318.11 947.61 L 1318.11 948.04 L 1318.11 949.35 L 1318.11 949.66 L 1318.11 949.95 L 1318.11 951.43 L 1318.11 952.01 L 1318.11 952.85 L 1318.11 952.90 L 1318.11 953.61 L 1318.11 953.94 L 1318.11 955.50 L 1318.11 955.54 L 1318.11 956.17 L 1318.11 956.46 L 1318.11 957.63 L 1318.11 957.79 L 1318.11 958.11 L 1318.11 958.47 L 1318.11 958.70 L 1318.11 958.80 L 1318.11 959.19 L 1318.11 959.34 L 1318.11 959.66 L 1318.11 960.59 L 1318.08 960.70 L 1317.83 960.73 L 1317.05 960.73 L 1316.72 960.73 L 1314.80 960.73 L 1312.46 960.73 L 1311.88 960.73 L 1311.74 960.73 L 1309.93 960.73 L 1308.85 960.73 L 1308.46 960.73 L 1307.66 960.73 L 1306.07 960.73 L 1304.74 960.73 L 1303.55 960.73 L 1300.07 960.73 L 1299.34 960.73 L 1299.11 960.73 L 1298.46 960.73 L 1297.83 960.73 L 1297.18 960.73 L 1296.22 960.73 L 1296.19 960.73 L 1295.70 960.73 L 1294.78 960.73 L 1293.17 960.73 L 1293.14 960.73 L 1293.05 960.73 L 1293.03 960.73 L 1292.26 960.73 L 1290.88 960.73 L 1287.88 960.73 L 1287.42 960.73 L 1286.47 960.73 L 1285.63 960.73 L 1284.44 960.73 L 1284.06 960.73 L 1283.53 960.73 L 1283.50 960.73 L 1283.07 960.73 L 1281.16 960.73 L 1281.05 960.73 L 1279.79 960.73 L 1279.31 960.73 L 1276.79 960.73 L 1276.63 960.73 L 1276.61 960.73 L 1276.00 960.73 L 1275.30 960.73 L 1274.27 960.73 L 1273.97 960.73 L 1273.38 960.73 L 1273.32 960.73 L 1270.87 960.73 L 1270.63 960.73 L 1267.38 960.73 L 1266.90 960.73 L 1266.75 960.73 L 1265.72 960.73 L 1265.16 960.73 L 1262.86 960.73 L 1262.62 960.73 L 1261.47 960.73 L 1257.64 960.73 L 1255.63 960.73 L 1253.49 960.73 L 1252.42 960.73 L 1250.24 960.73 L 1250.01 960.73 L 1249.86 960.73 L 1249.16 960.73 L 1245.13 960.73 L 1240.19 960.73 L 1239.21 960.73 L 1237.49 960.73 L 1236.28 960.73 L 1236.19 960.73 L 1234.82 960.73 L 1234.55 960.73 L 1233.37 960.73 L 1233.01 960.73 L 1229.39 960.73 L 1225.66 960.73 L 1225.43 960.73 L 1217.27 960.73 L 1216.86 960.73 L 1216.17 960.73 L 1215.89 960.73 L 1215.47 960.73 L 1210.58 960.73 L 1206.59 960.73 L 1205.34 960.73 L 1204.51 960.73 L 1198.88 960.73 L 1198.78 960.73 L 1196.82 960.73 L 1194.53 960.73 L 1193.98 960.73 L 1191.16 960.73 L 1189.98 960.73 L 1186.04 960.73 L 1185.37 960.73 L 1184.71 960.73 L 1184.67 960.73 L 1184.46 960.73 L 1184.22 960.73 L 1183.54 960.73 L 1183.48 960.73 L 1183.43 960.73 L 1182.75 960.73 L 1182.33 960.73 L 1179.63 960.73 L 1176.42 960.73 L 1176.40 960.73 L 1175.65 960.73 L 1173.80 960.73 L 1172.80 960.73 L 1172.60 960.73 L 1172.36 960.73 L 1172.06 960.73 L 1170.46 960.73 L 1170.40 960.73 L 1169.77 960.73 L 1168.45 960.73 L 1167.26 960.73 L 1167.05 960.73 L 1165.43 960.73 L 1165.40 960.73 L 1165.17 960.73 L 1162.03 960.73 L 1161.57 960.73 L 1160.75 960.73 L 1159.44 960.73 L 1157.88 960.73 L 1156.64 960.73 L 1155.45 960.73 L 1155.24 960.73 L 1152.76 960.73 L 1152.75 960.73 L 1152.08 960.73 L 1151.30 960.73 L 1150.98 960.73 L 1150.58 960.73 L 1150.49 960.73 L 1148.52 960.73 L 1148.08 960.73 L 1147.18 960.73 L 1146.99 960.73 L 1146.97 960.73 L 1145.85 960.73 L 1145.42 960.59 L 1145.42 958.76 L 1145.42 958.00 L 1145.42 957.52 L 1145.42 957.23 L 1145.42 955.77 L 1145.42 954.54 L 1145.42 954.18 L 1145.42 953.53 L 1145.42 953.46 L 1145.42 950.80 L 1145.42 950.03 L 1145.42 948.96 L 1145.42 948.92 L 1145.42 948.79 L 1145.42 948.73 L 1145.42 948.57 L 1145.42 945.69 L 1145.42 944.74 L 1145.42 944.39 L 1145.42 944.03 L 1145.42 943.57 L 1145.42 942.52 L 1145.42 942.25 L 1145.42 940.89 L 1145.42 939.62 L 1145.42 939.35 L 1145.42 939.12 L 1145.42 938.10 L 1145.42 937.60 L 1145.42 937.52 L 1145.42 937.04 L 1145.42 936.45 L 1145.42 936.38 L 1145.42 935.66 L 1145.42 935.57 L 1145.42 934.23 L 1145.42 934.06 L 1145.42 933.28 L 1145.42 932.48 L 1145.42 932.21 L 1145.42 931.78 L 1145.42 930.88 L 1145.42 930.50 L 1145.42 928.59 L 1145.42 928.20 L 1145.42 927.68 L 1145.42 926.89 L 1145.42 924.90 L 1145.42 924.37 L 1145.42 923.93 L 1145.42 922.98 L 1145.42 922.54 L 1145.42 922.46 L 1145.42 921.21 L 1145.42 919.64 L 1145.42 916.52 L 1145.42 914.95 L 1145.42 914.26 L 1145.42 912.65 L 1145.42 911.93 L 1145.42 910.98 L 1145.42 910.97 L 1145.42 907.93 L 1145.42 907.30 L 1145.42 906.73 L 1145.42 901.43 L 1145.42 901.25 L 1145.42 899.82 L 1145.42 899.73 L 1145.42 899.11 L 1145.42 898.54 L 1145.42 897.63 L 1145.42 897.30 L 1145.42 896.98 L 1145.42 896.76 L 1145.42 896.73 L 1145.42 896.19 L 1145.42 896.03 L 1145.42 895.26 L 1145.42 894.41 L 1145.42 893.33 L 1145.42 893.05 L 1145.42 893.02 L 1145.42 892.37 L 1145.42 892.17 L 1145.42 890.40 L 1145.42 889.06 L 1145.42 886.99 L 1145.42 885.27 L 1145.42 880.25 L 1145.42 879.80 L 1145.42 878.56 L 1145.42 878.36 L 1145.42 872.90 L 1145.42 872.26 L 1145.42 868.80 L 1145.42 864.41 L 1145.42 863.80 L 1145.42 863.57 L 1145.42 862.39 L 1145.42 858.78 L 1145.42 858.35 L 1145.42 858.30 L 1145.42 854.62 L 1145.42 851.35 L 1145.42 851.34 L 1145.42 850.55 L 1145.42 846.03 L 1145.42 845.33 L 1145.42 841.79 L 1145.42 840.31 L 1145.42 836.95 L 1145.42 836.39 L 1145.42 834.42 L 1145.42 830.67 L 1145.42 830.64 L 1145.42 827.12 L 1145.42 822.64 L 1145.42 820.02 L 1145.42 816.17 L 1145.42 815.19 L 1145.42 813.44 L 1145.42 812.09 L 1145.42 811.83 L 1145.42 811.47 L 1145.42 810.40 L 1145.42 809.44 L 1145.42 808.80 L 1145.42 806.28 L 1145.42 806.11 L 1145.42 805.15 L 1145.42 804.61 L 1145.42 804.51 L 1145.42 803.04 L 1145.42 802.79 L 1145.42 802.54 L 1145.42 802.46 L 1145.42 802.37 L 1145.42 801.19 L 1145.42 799.26 L 1145.42 798.97 L 1145.42 798.95 L 1145.42 797.69 L 1145.42 796.49 L 1145.42 796.18 L 1145.42 796.05 L 1145.42 795.71 L 1145.42 795.57 L 1145.42 794.92 L 1145.42 793.70 L 1145.42 793.53 L 1145.42 793.49 L 1145.42 793.31 L 1145.42 792.08 L 1145.42 791.58 L 1145.42 790.90 L 1145.42 790.62 L 1145.42 789.72 L 1145.42 789.42 L 1145.42 787.91 L 1124.42 767.17 L 1122.71 767.17 L 1121.82 767.17 L 1121.50 767.17 L 1120.42 767.17 L 1120.36 767.17 L 1119.16 767.17 L 1118.53 767.17 L 1118.17 767.17 L 1116.63 767.17 L 1115.41 767.17 L 1112.71 767.17 L 1110.30 767.17 L 1109.76 767.17 L 1109.71 767.17 L 1109.54 767.17 L 1107.53 767.17 L 1107.50 767.17 L 1107.31 767.17 L 1106.38 767.17 L 1106.07 767.17 L 1104.70 767.17 L 1104.19 767.17 L 1102.15 767.17 L 1101.28 767.17 L 1100.67 767.17 L 1099.75 767.17 L 1098.90 767.17 L 1098.85 767.17 L 1098.20 767.17 L 1097.43 767.17 L 1097.36 767.17 L 1096.63 767.17 L 1094.21 767.17 L 1093.77 767.17 L 1093.00 767.17 L 1090.19 767.17 L 1089.12 767.17 L 1088.55 767.17 L 1087.26 767.17 L 1085.25 767.17 L 1085.25 767.17 L 1083.24 767.17 L 1083.04 767.17 L 1081.22 767.17 L 1080.81 767.17 L 1080.00 767.17 L 1078.57 767.17 L 1077.85 767.17 L 1077.35 767.17 L 1076.62 767.17 L 1075.32 767.17 L 1074.65 767.17 L 1073.07 767.17 L 1071.59 767.17 L 1069.02 767.17 L 1066.46 767.17 L 1065.05 767.17 L 1064.47 767.17 L 1064.31 767.17 L 1063.99 767.17 L 1063.73 767.17 L 1061.56 767.17 L 1060.78 767.17 L 1060.35 767.17 L 1060.31 767.17 L 1060.25 767.17 L 1060.01 767.17 L 1059.69 767.17 L 1059.65 767.17 L 1058.75 767.17 L 1057.74 767.17 L 1057.10 767.17 L 1056.78 767.17 L 1055.68 767.17 L 1053.30 767.17 L 1053.02 767.17 L 1052.02 767.17 L 1051.86 767.17 L 1051.59 767.17 L 1051.47 767.17 L 1051.46 767.17 L 1050.91 767.17 L 1050.59 767.17 L 1049.25 767.17 L 1049.11 767.17 L 1048.56 767.17 L 1047.82 767.17 L 1047.69 767.17 L 1046.23 767.17 L 1045.64 767.17 L 1044.56 767.17 L 1044.37 767.17 L 1041.98 767.17 L 1041.60 767.17 L 1041.08 767.17 L 1041.04 767.17 L 1040.94 767.17 L 1039.47 767.17 L 1038.91 767.17 L 1038.63 767.17 L 1037.42 767.17 L 1037.19 767.17 L 1037.07 767.17 L 1036.41 767.17 L 1034.74 767.17 L 1032.52 767.17 L 1031.34 767.17 L 1030.55 767.17 L 1027.35 767.17 L 1025.40 767.17 L 1024.57 767.17 L 1023.42 767.17 L 1023.31 767.17 L 1022.64 767.17 L 1021.75 767.17 L 1018.47 767.17 L 1017.44 767.17 L 1012.88 767.17 L 1011.67 767.17 L 1009.88 767.17 L 1009.04 767.17 L 1006.02 767.17 L 1005.50 767.17 L 1004.96 767.17 L 1003.62 767.17 L 1001.85 767.17 L 1001.46 767.17 L 1001.17 767.17 L 995.10 767.17 L 994.53 767.17 L 993.35 767.17 L 993.23 767.17 L 991.85 767.17 L 989.99 767.17 L 989.98 767.17 L 989.72 767.17 L 988.83 767.17 L 988.02 767.17 L 987.36 767.17 L 987.29 767.17 L 984.83 767.17 L 981.34 767.17 L 977.24 767.17 L 976.80 767.17 L 976.36 767.17 L 973.79 767.17 L 973.72 767.17 L 972.44 767.17 L 972.10 767.17 L 972.05 767.17 L 970.75 767.17 L 968.87 767.17 L 967.99 767.17 L 967.44 767.17 L 966.89 767.17 L 963.87 767.17 L 963.76 767.17 L 962.98 767.17 L 962.24 767.17 L 960.76 767.17 L 960.17 767.17 L 957.52 767.17 L 953.32 767.17 L 952.44 767.17 L 952.24 767.17 L 951.09 767.17 L 950.74 767.17 L 950.47 767.17 L 949.92 767.17 L 949.40 767.17 L 948.45 767.17 L 948.28 767.17 L 947.71 767.17 L 947.05 767.17 L 946.94 767.17 L 942.83 767.17 L 940.66 767.17 L 940.05 767.17 L 939.21 767.17 L 938.53 767.17 L 937.78 767.17 L 935.88 767.17 L 935.83 767.17 L 935.54 767.17 L 932.61 767.17 L 931.95 767.17 L 930.26 767.17 L 929.02 767.17 L 928.78 767.17 L 927.72 767.17 L 925.60 767.17 L 924.30 767.17 L 923.39 767.17 L 921.05 767.17 L 919.86 767.17 L 917.84 767.17 L 917.61 767.17 L 917.42 767.17 L 917.32 767.17 L 916.77 767.17 L 916.69 767.17 L 916.03 767.17 L 914.50 767.17 L 914.21 767.17 L 914.16 767.17 L 913.96 767.17 L 910.10 767.17 L 908.26 767.17 L 908.10 767.17 L 907.94 767.17 L 906.87 767.17 L 905.68 767.17 L 904.89 767.17 L 904.66 767.17 L 903.78 767.17 L 903.48 767.17 L 902.79 767.17 L 899.86 767.17 L 899.63 767.17 L 897.87 767.17 L 896.48 767.17 L 896.40 767.17 L 895.14 767.17 L 893.70 767.17 L 893.25 767.17 L 891.54 767.17 L 890.88 767.17 L 889.90 767.17 L 889.34 767.17 L 889.21 767.17 L 887.65 767.17 L 887.35 767.17 L 885.93 767.17 L 882.38 767.17 L 881.44 767.17 L 881.38 767.17 L 880.78 767.17 L 880.08 767.17 L 879.60 767.17 L 879.38 767.17 L 876.95 767.17 L 876.67 767.17 L 875.33 767.17 L 872.92 767.17 L 872.24 767.17 L 869.43 767.17 L 865.67 767.17 L 865.51 767.17 L 863.50 767.17 L 863.40 767.17 L 862.66 767.17 L 860.33 767.17 L 860.29 767.17 L 860.23 767.17 L 860.19 767.17 L 860.05 767.17 L 859.75 767.17 L 858.68 767.17 L 858.64 767.17 L 857.87 767.17 L 857.03 767.17 L 856.91 767.17 L 856.69 767.17 L 855.81 767.17 L 855.14 767.17 L 853.97 767.17 L 853.38 767.17 L 853.28 767.17 L 851.80 767.17 L 851.60 767.17 L 851.56 767.17 L 851.50 767.17 L 850.19 767.17 L 849.34 767.17 L 848.94 767.17 L 847.18 767.17 L 844.68 767.17 L 844.49 767.17 L 844.36 767.17 L 843.45 767.17 L 842.40 767.17 L 840.98 767.17 L 840.42 767.17 L 840.20 767.17 L 840.02 767.17 L 838.21 767.17 L 837.17 767.17 L 837.10 767.17 L 837.02 767.17 L 836.67 767.17 L 835.93 767.17 L 835.14 767.17 L 834.40 767.17 L 833.52 767.17 L 832.12 767.17 L 831.68 767.17 L 830.49 767.17 L 830.18 767.17 L 829.35 767.17 L 828.83 767.17 L 828.75 767.17 L 823.61 767.17 L 821.35 767.17 L 821.29 767.17 L 820.84 767.17 L 820.70 767.17 L 820.14 767.17 L 819.73 767.17 L 816.34 767.17 L 815.89 767.17 L 815.58 767.17 L 814.68 767.17 L 814.43 767.17 L 814.14 767.17 L 813.39 767.17 L 812.96 767.17 L 812.02 767.17 L 811.03 767.17 L 809.33 767.17 L 807.94 767.17 L 807.75 767.17 L 807.04 767.17 L 806.55 767.17 L 806.27 767.17 L 804.56 767.17 L 804.53 767.17 L 803.92 767.17 L 803.74 767.17 L 802.45 767.17 L 802.35 767.17 L 798.15 767.17 L 797.47 767.17 L 797.38 767.17 L 796.73 767.17 L 795.68 767.17 L 795.51 767.17 L 795.44 767.17 L 795.10 767.17 L 794.75 767.17 L 794.06 767.17 L 793.77 767.17 L 771.81 788.47 L 771.81 788.81 L 771.81 788.83 L 771.81 789.39 L 771.81 790.37 L 771.81 794.29 L 771.81 794.85 L 771.81 795.47 L 771.81 795.97 L 771.81 796.96 L 771.81 797.71 L 771.81 797.79 L 771.81 798.44 L 771.81 798.70 L 771.81 799.10 L 771.81 799.26 L 771.81 800.14 L 771.81 800.72 L 771.81 800.89 L 771.81 800.93 L 771.81 801.38 L 771.81 801.48 L 771.81 801.84 L 771.81 802.02 L 771.81 803.87 L 771.81 804.82 L 771.81 809.44 L 771.81 811.24 L 771.81 812.77 L 771.81 813.87 L 771.81 817.40 L 771.81 817.75 L 771.81 820.40 L 771.81 824.60 L 771.81 825.28 L 771.81 826.27 L 771.81 829.00 L 771.81 833.69 L 771.81 834.14 L 771.81 838.85 L 771.81 839.48 L 771.81 842.82 L 771.81 846.04 L 771.81 848.26 L 771.81 848.29 L 771.81 850.78 L 771.81 858.05 L 771.81 869.73 L 771.81 869.92 L 771.81 870.42 L 771.81 877.62 L 771.81 878.00 L 771.81 879.00 L 771.81 879.16 L 771.81 879.76 L 771.81 880.45 L 771.81 882.48 L 771.81 882.50 L 771.81 883.10 L 771.81 886.10 L 771.81 886.11 L 771.81 886.13 L 771.81 886.30 L 771.81 886.49 L 771.81 886.57 L 771.81 886.73 L 771.81 886.89 L 771.81 887.08 L 771.81 889.39 L 771.81 889.84 L 771.81 889.86 L 771.81 890.57 L 771.81 890.79 L 771.81 891.50 L 771.81 891.59 L 771.81 892.40 L 771.81 892.53 L 771.81 892.90 L 771.81 893.00 L 771.81 893.21 L 771.81 893.59 L 771.81 894.61 L 771.81 895.68 L 771.81 895.98 L 771.81 896.50 L 771.81 897.53 L 771.81 898.23 L 771.81 899.59 L 771.81 900.42 L 771.81 900.60 L 771.81 901.31 L 771.81 901.81 L 771.81 902.38 L 771.81 902.71 L 771.81 903.50 L 771.81 903.80 L 771.81 905.37 L 771.81 905.80 L 771.81 906.69 L 771.81 907.08 L 771.81 909.44 L 771.81 910.35 L 771.81 911.89 L 771.81 913.11 L 771.81 913.78 L 771.81 914.19 L 771.81 914.29 L 771.81 914.89 L 771.81 915.39 L 771.81 915.49 L 771.81 916.13 L 771.81 916.38 L 771.81 916.44 L 771.81 916.80 L 771.81 916.91 L 771.81 917.70 L 771.81 918.78 L 771.81 920.33 L 771.81 920.41 L 771.81 921.44 L 771.81 921.94 L 771.81 922.06 L 771.81 922.49 L 771.81 923.63 L 771.81 923.80 L 771.81 924.98 L 771.81 925.28 L 771.81 925.52 L 771.81 925.61 L 771.81 926.01 L 771.81 926.07 L 771.81 926.91 L 771.81 928.04 L 771.81 928.19 L 771.81 929.01 L 771.81 930.02 L 771.81 930.40 L 771.81 935.20 L 771.81 936.61 L 771.81 937.46 L 771.81 937.96 L 771.81 940.63 L 771.81 944.13 L 771.81 944.26 L 771.81 944.63 L 771.81 944.94 L 771.81 944.96 L 771.81 946.17 L 771.81 947.13 L 771.81 947.60 L 771.81 948.26 L 771.81 948.59 L 771.81 948.60 L 771.81 950.05 L 771.81 952.24 L 771.81 952.44 L 771.81 952.45 L 771.81 954.82 L 771.81 955.19 L 771.81 955.23 L 771.81 955.49 L 771.81 956.65 L 771.81 956.83 L 771.81 958.35 L 771.81 959.45 L 771.43 960.87 L 770.59 961.25 L 770.09 961.25 L 769.87 961.25 L 769.29 961.25 L 769.13 961.25 L 769.11 961.25 L 767.70 961.25 L 767.54 961.25 L 762.10 961.25 L 761.93 961.25 L 760.63 961.25 L 760.53 961.25 L 760.49 961.25 L 760.20 961.25 L 759.44 961.25 L 759.23 961.25 L 759.11 961.25 L 757.07 961.25 L 757.07 961.25 L 756.50 961.25 L 756.24 961.25 L 755.00 961.25 L 753.08 961.25 L 751.59 961.25 L 750.39 961.25 L 750.19 961.25 L 749.02 961.25 L 748.75 961.25 L 748.42 961.25 L 747.83 961.25 L 745.75 961.25 L 745.10 961.25 L 744.85 961.25 L 744.69 961.25 L 744.31 961.25 L 744.26 961.25 L 743.06 961.25 L 742.93 961.25 L 742.29 961.25 L 742.25 961.25 L 742.21 961.25 L 741.10 961.25 L 740.99 961.25 L 740.87 961.25 L 740.83 961.25 L 739.40 961.25 L 733.92 961.25 L 733.37 961.25 L 732.19 961.25 L 728.23 961.25 L 719.93 961.25 L 719.31 961.25 L 718.19 961.25 L 715.46 961.25 L 710.52 961.25 L 708.01 961.25 L 707.71 961.25 L 707.63 961.25 L 707.36 961.25 L 705.67 961.25 L 700.55 961.25 L 697.46 961.25 L 695.72 961.25 L 692.42 961.25 L 690.75 961.25 L 689.24 961.25 L 688.75 961.25 L 684.02 961.25 L 683.43 961.25 L 680.41 961.25 L 677.33 961.25 L 674.19 961.25 L 670.63 961.25 L 669.66 961.25 L 668.92 961.25 L 668.28 961.25 L 663.86 961.25 L 659.35 961.25 L 658.21 961.25 L 657.22 961.25 L 657.14 961.25 L 656.14 961.25 L 656.00 961.25 L 655.60 961.25 L 655.46 961.25 L 654.52 961.25 L 654.11 961.25 L 652.98 961.25 L 652.84 961.25 L 652.18 961.25 L 651.21 961.25 L 650.23 961.25 L 649.95 961.25 L 649.11 961.25 L 648.29 961.25 L 647.85 961.25 L 647.25 961.25 L 646.12 961.25 L 645.72 961.25 L 644.20 961.25 L 643.71 961.25 L 641.66 961.25 L 640.68 961.25 L 639.50 961.25 L 638.69 961.25 L 637.44 961.25 L 635.76 961.25 Z"
        fill="none"
        stroke="black"
        stroke-width="2"/>
</svg>
