<?xml version="1.0" encoding="UTF-8" standalone="no"?>
<svg xmlns="http://www.w3.org/2000/svg"
     width="573.73" height="1320.33"
     viewBox="0 0 573.73 1320.33">
  <path d="M 0.00 8.21 L 0.00 7.96 L 0.00 7.69 L 0.00 6.49 L 0.00 5.66 L 0.00 5.36 L 0.00 5.27 L 0.00 4.74 L 0.00 4.23 L 0.00 4.05 L 0.00 3.79 L 0.00 3.07 L 0.00 2.97 L 0.00 2.27 L 0.00 2.25 L 0.00 1.83 L 0.00 1.56 L 0.00 0.81 L 0.00 0.78 L 0.00 0.71 L 0.00 0.65 L 0.08 0.00 L 0.95 0.00 L 1.65 0.00 L 2.15 0.00 L 2.34 0.00 L 2.91 0.00 L 3.22 0.00 L 3.63 0.00 L 4.29 0.00 L 4.69 0.00 L 4.80 0.00 L 4.82 0.00 L 4.85 0.00 L 5.49 0.00 L 6.85 0.00 L 7.90 0.00 L 8.50 0.00 L 9.01 0.00 L 9.76 0.00 L 9.93 0.00 L 12.36 0.00 L 12.75 0.00 L 13.04 0.00 L 13.25 0.00 L 13.76 0.00 L 13.95 0.00 L 14.67 0.00 L 15.99 0.00 L 16.85 0.00 L 17.42 0.00 L 18.99 0.00 L 19.03 0.00 L 19.54 0.00 L 20.24 0.00 L 20.35 0.00 L 20.73 0.00 L 21.33 0.00 L 21.56 0.00 L 21.61 0.00 L 22.59 0.00 L 23.88 0.00 L 24.27 0.00 L 24.99 0.00 L 25.08 0.00 L 25.20 0.00 L 25.60 0.00 L 26.04 0.00 L 26.34 0.00 L 26.89 0.00 L 27.43 0.00 L 27.48 0.00 L 28.26 0.00 L 28.64 0.00 L 28.71 0.00 L 28.78 0.00 L 28.92 0.00 L 29.36 0.00 L 29.38 0.00 L 29.40 0.00 L 29.55 0.00 L 29.67 0.00 L 29.93 0.00 L 30.21 0.00 L 30.30 0.00 L 31.44 0.00 L 32.10 0.00 L 32.11 0.00 L 32.33 0.00 L 33.35 0.00 L 34.49 0.00 L 34.78 0.00 L 35.75 0.00 L 36.71 0.00 L 37.70 0.00 L 37.75 0.00 L 37.75 0.00 L 37.83 0.00 L 38.69 0.00 L 39.33 0.00 L 39.37 0.00 L 41.61 0.00 L 42.47 0.00 L 42.71 0.00 L 43.07 0.00 L 43.12 0.00 L 43.35 0.00 L 44.35 0.00 L 47.70 0.00 L 48.30 0.00 L 48.72 0.00 L 49.41 0.00 L 49.89 0.00 L 50.33 0.00 L 50.51 0.00 L 50.57 0.00 L 50.93 0.00 L 50.99 0.00 L 51.27 0.00 L 51.32 0.00 L 51.96 0.00 L 52.21 0.00 L 52.45 0.00 L 52.88 0.00 L 53.24 0.00 L 54.40 0.00 L 54.70 0.00 L 55.01 0.00 L 55.18 0.00 L 55.35 0.00 L 55.72 0.00 L 55.84 0.00 L 56.17 0.00 L 57.22 0.00 L 59.18 0.00 L 59.59 0.00 L 59.84 0.00 L 60.42 0.00 L 60.70 0.00 L 60.78 0.00 L 60.79 0.00 L 62.51 0.00 L 62.81 0.00 L 62.89 0.00 L 66.70 0.00 L 67.62 0.00 L 68.45 0.00 L 68.57 0.00 L 69.98 0.00 L 70.86 0.00 L 71.05 0.00 L 71.36 0.00 L 71.72 0.00 L 71.74 0.00 L 72.63 0.00 L 73.20 0.00 L 74.34 0.00 L 74.59 0.00 L 75.15 0.00 L 75.66 0.00 L 75.71 0.00 L 76.37 0.00 L 76.96 0.00 L 77.69 0.00 L 78.26 0.00 L 78.49 0.00 L 79.88 0.00 L 80.44 0.00 L 80.77 0.00 L 82.03 0.00 L 82.26 0.00 L 82.35 0.00 L 82.81 0.00 L 83.32 0.00 L 83.44 0.00 L 83.55 0.00 L 83.91 0.00 L 84.25 0.00 L 84.77 0.00 L 85.73 0.00 L 85.95 0.00 L 86.48 0.00 L 86.74 0.00 L 86.99 0.00 L 88.09 0.00 L 88.13 0.00 L 88.26 0.00 L 88.74 0.00 L 89.93 0.00 L 90.83 0.00 L 91.38 0.00 L 91.87 0.00 L 92.07 0.00 L 92.20 0.00 L 92.88 0.00 L 93.17 0.00 L 93.45 0.00 L 93.84 0.00 L 95.22 0.00 L 95.28 0.00 L 95.69 0.00 L 95.74 0.00 L 96.39 0.00 L 97.03 0.00 L 97.25 0.00 L 97.57 0.00 L 98.26 0.00 L 98.32 0.00 L 99.04 0.00 L 99.34 0.00 L 101.98 0.00 L 103.00 0.00 L 103.60 0.00 L 103.65 0.00 L 104.84 0.00 L 104.95 0.00 L 105.29 0.00 L 105.37 0.00 L 106.01 0.00 L 106.48 0.00 L 106.48 0.00 L 107.81 0.00 L 108.83 0.00 L 109.13 0.00 L 109.18 0.00 L 109.83 0.00 L 110.64 0.00 L 111.77 0.00 L 112.15 0.00 L 112.98 0.00 L 113.07 0.00 L 114.46 0.00 L 114.62 0.00 L 114.96 0.00 L 115.06 0.00 L 116.43 0.00 L 116.54 0.00 L 116.84 0.00 L 117.78 0.00 L 118.12 0.00 L 120.30 0.00 L 120.32 0.00 L 121.19 0.00 L 121.25 0.00 L 122.88 0.00 L 123.18 0.00 L 123.40 0.00 L 124.31 0.00 L 124.32 0.00 L 124.92 0.00 L 124.97 0.00 L 126.67 0.00 L 127.16 0.00 L 127.20 0.00 L 127.81 0.00 L 129.17 0.00 L 129.40 0.00 L 131.06 0.00 L 131.60 0.00 L 132.36 0.00 L 132.43 0.00 L 133.33 0.00 L 133.66 0.00 L 135.81 0.00 L 136.98 0.00 L 137.81 0.00 L 138.67 0.00 L 138.99 0.00 L 139.61 0.00 L 142.37 0.00 L 143.07 0.00 L 143.28 0.00 L 143.56 0.00 L 143.88 0.00 L 144.13 0.00 L 144.29 0.00 L 144.45 0.00 L 144.54 0.00 L 145.54 0.00 L 145.98 0.00 L 147.70 0.00 L 148.76 0.00 L 148.80 0.00 L 148.95 0.00 L 148.99 0.00 L 149.41 0.00 L 150.41 0.00 L 150.45 0.00 L 150.63 0.00 L 151.43 0.00 L 152.12 0.00 L 152.89 0.00 L 153.84 0.00 L 154.03 0.00 L 154.60 0.00 L 154.90 0.00 L 155.29 0.00 L 155.39 0.00 L 156.71 0.00 L 157.18 0.00 L 157.51 0.00 L 157.64 0.00 L 158.84 0.00 L 159.08 0.00 L 159.44 0.00 L 159.62 0.00 L 160.06 0.00 L 160.31 0.00 L 160.45 0.00 L 160.94 0.00 L 161.33 0.00 L 161.80 0.00 L 162.08 0.00 L 162.08 0.00 L 162.97 0.00 L 163.23 0.00 L 163.51 0.00 L 163.82 0.00 L 163.86 0.00 L 163.89 0.00 L 165.40 0.00 L 165.64 0.00 L 165.70 0.00 L 166.28 0.00 L 166.68 0.00 L 167.69 0.00 L 167.76 0.00 L 168.52 0.00 L 169.56 0.00 L 170.22 0.00 L 170.41 0.00 L 171.90 0.00 L 172.66 0.00 L 173.24 0.00 L 173.28 0.00 L 175.51 0.00 L 176.05 0.00 L 176.98 0.00 L 177.18 0.00 L 178.16 0.00 L 179.85 0.00 L 182.53 0.00 L 182.78 0.00 L 182.98 0.00 L 184.78 0.00 L 184.93 0.00 L 185.22 0.00 L 185.58 0.00 L 186.54 0.00 L 187.55 0.00 L 187.99 0.00 L 188.24 0.00 L 188.31 0.00 L 188.56 0.00 L 189.53 0.00 L 190.37 0.00 L 192.26 0.00 L 192.79 0.00 L 192.92 0.00 L 193.32 0.00 L 193.42 0.00 L 193.45 0.00 L 193.97 0.00 L 194.09 0.00 L 196.43 0.00 L 196.91 0.00 L 197.02 0.00 L 199.43 0.00 L 200.24 0.00 L 200.99 0.00 L 201.39 0.00 L 203.13 0.00 L 203.56 0.00 L 204.11 0.00 L 204.27 0.00 L 204.34 0.00 L 204.93 0.00 L 204.98 0.00 L 205.09 0.00 L 205.19 0.00 L 206.79 0.00 L 207.12 0.00 L 207.18 0.00 L 207.87 0.00 L 208.51 0.00 L 210.12 0.00 L 210.25 0.00 L 210.35 0.00 L 210.44 0.00 L 211.19 0.00 L 211.32 0.00 L 211.61 0.00 L 211.81 0.00 L 211.84 0.00 L 212.59 0.00 L 213.22 0.00 L 213.26 0.00 L 213.26 0.00 L 213.34 0.00 L 213.93 0.00 L 214.34 0.00 L 214.42 0.00 L 214.54 0.00 L 214.59 0.00 L 215.23 0.00 L 216.00 0.00 L 216.38 0.00 L 217.85 0.00 L 217.89 0.00 L 218.46 0.00 L 219.53 0.00 L 220.87 0.00 L 220.95 0.00 L 222.21 0.00 L 222.92 0.00 L 222.99 0.00 L 223.58 0.00 L 224.13 0.00 L 225.62 0.00 L 225.76 0.00 L 227.09 0.00 L 227.11 0.00 L 228.63 0.00 L 229.32 0.00 L 229.80 0.00 L 229.99 0.00 L 230.91 0.00 L 231.19 0.00 L 233.47 0.00 L 233.70 0.00 L 234.20 0.00 L 234.31 0.00 L 235.80 0.00 L 235.89 0.00 L 236.02 0.00 L 236.05 0.00 L 236.15 0.00 L 236.90 0.00 L 236.99 0.00 L 237.57 0.00 L 238.58 0.00 L 238.86 0.00 L 239.57 0.00 L 239.59 0.00 L 239.73 0.00 L 240.01 0.00 L 240.69 0.00 L 241.33 0.00 L 242.76 0.00 L 243.12 0.00 L 243.17 0.00 L 243.38 0.00 L 243.98 0.00 L 244.18 0.00 L 244.37 0.00 L 244.40 0.00 L 244.58 0.00 L 244.75 0.00 L 244.77 0.00 L 245.54 0.00 L 246.29 0.00 L 246.75 0.00 L 246.98 0.00 L 247.71 0.00 L 247.95 0.00 L 247.99 0.00 L 249.18 0.00 L 249.37 0.00 L 249.41 0.00 L 250.48 0.00 L 250.86 0.00 L 250.91 0.00 L 251.20 0.00 L 251.33 0.00 L 251.83 0.00 L 252.23 0.00 L 252.51 0.00 L 252.84 0.00 L 253.37 0.00 L 253.41 0.00 L 253.90 0.00 L 254.95 0.00 L 255.51 0.00 L 255.67 0.00 L 256.04 0.00 L 256.63 0.00 L 256.81 0.00 L 257.21 0.00 L 257.40 0.00 L 257.99 0.00 L 258.29 0.00 L 258.32 0.00 L 258.39 0.00 L 258.55 0.00 L 259.09 0.00 L 259.32 0.00 L 259.87 0.00 L 260.19 0.00 L 260.83 0.00 L 261.73 0.00 L 262.06 0.00 L 262.28 0.00 L 264.04 0.00 L 264.54 0.00 L 264.80 0.00 L 264.84 0.00 L 265.82 0.00 L 266.69 0.00 L 268.38 0.00 L 269.07 0.00 L 269.28 0.00 L 269.67 0.00 L 270.70 0.00 L 271.35 0.00 L 271.86 0.00 L 272.91 0.00 L 272.94 0.00 L 274.56 0.00 L 274.59 0.00 L 276.41 0.00 L 276.77 0.00 L 277.01 0.00 L 277.87 0.00 L 278.53 0.00 L 279.02 0.00 L 279.08 0.00 L 279.17 0.00 L 279.22 0.00 L 279.24 0.00 L 279.63 0.00 L 281.71 0.00 L 282.27 0.00 L 283.80 0.00 L 284.58 0.00 L 284.82 0.00 L 285.85 0.00 L 286.11 0.00 L 286.22 0.00 L 286.39 0.00 L 286.65 0.00 L 287.22 0.00 L 287.38 0.00 L 287.71 0.00 L 287.95 0.00 L 287.99 0.00 L 288.74 0.00 L 288.93 0.00 L 289.37 0.00 L 289.46 0.00 L 289.60 0.00 L 289.91 0.00 L 290.01 0.00 L 290.54 0.00 L 290.96 0.00 L 291.86 0.00 L 292.53 0.00 L 292.86 0.00 L 293.16 0.00 L 293.25 0.00 L 293.40 0.00 L 293.59 0.00 L 293.86 0.00 L 294.59 0.00 L 296.82 0.00 L 297.57 0.00 L 298.20 0.00 L 298.51 0.00 L 299.04 0.00 L 299.24 0.00 L 299.27 0.00 L 302.09 0.00 L 302.61 0.00 L 303.96 0.00 L 305.12 0.00 L 305.48 0.00 L 305.49 0.00 L 305.50 0.00 L 311.29 0.00 L 311.36 0.00 L 312.53 0.00 L 312.68 0.00 L 314.62 0.00 L 314.76 0.00 L 315.22 0.00 L 315.39 0.00 L 315.83 0.00 L 315.94 0.00 L 316.70 0.00 L 316.86 0.00 L 316.98 0.00 L 317.51 0.00 L 318.04 0.00 L 318.58 0.00 L 319.31 0.00 L 320.76 0.00 L 321.77 0.00 L 321.77 0.00 L 323.15 0.00 L 323.87 0.00 L 324.47 0.00 L 326.24 0.00 L 326.75 0.00 L 326.88 0.00 L 327.27 0.00 L 327.46 0.00 L 328.04 0.00 L 328.41 0.00 L 329.13 0.00 L 329.15 0.00 L 329.38 0.00 L 329.75 0.00 L 330.43 0.00 L 332.39 0.00 L 333.59 0.00 L 334.33 0.00 L 334.39 0.00 L 336.02 0.00 L 336.83 0.00 L 336.92 0.00 L 337.09 0.00 L 338.10 0.00 L 338.13 0.00 L 338.44 0.00 L 340.80 0.00 L 341.30 0.00 L 341.95 0.00 L 342.47 0.00 L 342.95 0.00 L 343.09 0.00 L 344.06 0.00 L 344.15 0.00 L 344.22 0.00 L 344.38 0.00 L 344.82 0.00 L 345.16 0.00 L 346.22 0.00 L 347.38 0.00 L 348.05 0.00 L 350.22 0.00 L 350.38 0.00 L 351.45 0.00 L 351.64 0.00 L 352.56 0.00 L 353.48 0.00 L 354.19 0.00 L 354.28 0.00 L 354.87 0.00 L 355.11 0.00 L 355.70 0.00 L 355.74 0.00 L 356.02 0.00 L 356.22 0.00 L 356.26 0.00 L 356.38 0.00 L 356.41 0.00 L 356.75 0.00 L 356.86 0.00 L 357.57 0.00 L 357.93 0.00 L 358.56 0.00 L 359.16 0.00 L 360.09 0.00 L 360.38 0.00 L 360.73 0.00 L 361.37 0.00 L 361.42 0.00 L 362.38 0.00 L 363.24 0.00 L 364.04 0.00 L 364.65 0.00 L 364.81 0.00 L 365.24 0.00 L 365.26 0.00 L 365.99 0.00 L 367.31 0.00 L 367.46 0.00 L 367.87 0.00 L 368.77 0.00 L 369.13 0.00 L 369.32 0.00 L 370.09 0.00 L 370.77 0.00 L 370.89 0.00 L 373.00 0.00 L 373.21 0.00 L 374.39 0.00 L 374.40 0.00 L 376.01 0.00 L 377.58 0.00 L 378.17 0.00 L 378.59 0.00 L 379.05 0.00 L 379.68 0.00 L 380.13 0.00 L 380.18 0.00 L 380.25 0.00 L 381.54 0.00 L 381.57 0.00 L 381.85 0.00 L 382.79 0.00 L 382.87 0.00 L 383.43 0.00 L 383.58 0.00 L 383.67 0.00 L 384.84 0.00 L 385.07 0.00 L 386.08 0.00 L 386.14 0.00 L 386.40 0.00 L 386.49 0.00 L 387.55 0.00 L 388.26 0.00 L 388.65 0.00 L 389.02 0.00 L 389.75 0.00 L 389.88 0.00 L 389.93 0.00 L 390.05 0.00 L 390.42 0.00 L 390.90 0.00 L 391.23 0.00 L 391.75 0.00 L 391.76 0.00 L 391.93 0.00 L 393.02 0.00 L 393.36 0.00 L 393.37 0.00 L 394.16 0.00 L 395.63 0.00 L 395.72 0.00 L 395.77 0.00 L 395.87 0.00 L 396.80 0.00 L 397.85 0.00 L 398.09 0.00 L 398.22 0.00 L 398.51 0.00 L 398.78 0.00 L 398.96 0.00 L 399.26 0.00 L 399.36 0.00 L 399.43 0.00 L 401.12 0.00 L 401.87 0.00 L 402.10 0.00 L 402.39 0.00 L 402.75 0.00 L 403.19 0.00 L 404.46 0.00 L 405.03 0.00 L 406.25 0.00 L 406.68 0.00 L 407.10 0.00 L 407.29 0.00 L 407.93 0.00 L 409.24 0.00 L 409.47 0.00 L 410.48 0.00 L 411.20 0.00 L 411.37 0.00 L 412.06 0.00 L 413.94 0.00 L 414.63 0.00 L 414.96 0.00 L 415.29 0.00 L 415.49 0.00 L 416.07 0.00 L 416.50 0.00 L 417.20 0.00 L 417.24 0.00 L 418.24 0.00 L 418.68 0.00 L 419.37 0.00 L 419.52 0.00 L 419.94 0.00 L 420.47 0.00 L 420.89 0.00 L 420.96 0.00 L 421.45 0.00 L 421.63 0.00 L 421.95 0.00 L 422.06 0.00 L 422.33 0.00 L 422.58 0.00 L 424.07 0.00 L 424.53 0.00 L 425.25 0.00 L 425.27 0.00 L 426.26 0.00 L 426.39 0.00 L 426.46 0.00 L 426.79 0.00 L 427.14 0.00 L 428.01 0.00 L 428.35 0.00 L 428.47 0.00 L 428.76 0.00 L 429.17 0.00 L 430.65 0.00 L 430.84 0.00 L 432.39 0.00 L 433.48 0.00 L 434.24 0.00 L 434.53 0.00 L 434.71 0.00 L 435.53 0.00 L 436.30 0.00 L 436.60 0.00 L 437.11 0.00 L 437.23 0.00 L 437.44 0.00 L 437.45 0.00 L 437.77 0.00 L 438.00 0.00 L 438.36 0.00 L 438.52 0.00 L 439.62 0.00 L 440.10 0.00 L 440.47 0.00 L 440.80 0.00 L 442.99 0.00 L 443.36 0.00 L 443.44 0.00 L 444.11 0.00 L 445.00 0.00 L 446.56 0.00 L 447.42 0.00 L 447.61 0.00 L 447.82 0.00 L 448.28 0.00 L 448.47 0.00 L 449.22 0.00 L 449.34 0.00 L 449.59 0.00 L 449.78 0.00 L 450.54 0.00 L 450.73 0.00 L 451.80 0.00 L 451.86 0.00 L 452.17 0.00 L 452.34 0.00 L 454.61 0.00 L 454.66 0.00 L 454.83 0.00 L 455.93 0.00 L 456.24 0.00 L 457.60 0.00 L 457.82 0.00 L 458.33 0.00 L 458.41 0.00 L 458.43 0.00 L 458.86 0.00 L 459.59 0.00 L 459.98 0.00 L 460.03 0.00 L 460.10 0.00 L 460.50 0.00 L 461.43 0.00 L 462.24 0.00 L 462.77 0.00 L 462.96 0.00 L 464.19 0.00 L 464.35 0.00 L 464.96 0.00 L 465.47 0.00 L 465.51 0.00 L 465.98 0.00 L 466.19 0.00 L 466.65 0.00 L 467.31 0.00 L 467.41 0.00 L 467.68 0.00 L 468.05 0.00 L 468.09 0.00 L 468.69 0.00 L 468.95 0.00 L 471.18 0.00 L 472.15 0.00 L 472.45 0.00 L 472.51 0.00 L 472.85 0.00 L 473.06 0.00 L 473.29 0.00 L 473.44 0.00 L 473.52 0.00 L 473.85 0.00 L 475.08 0.00 L 475.58 0.00 L 476.04 0.00 L 478.40 0.00 L 478.53 0.00 L 478.87 0.00 L 479.35 0.00 L 479.75 0.00 L 480.24 0.00 L 480.80 0.00 L 480.94 0.00 L 481.03 0.00 L 481.29 0.00 L 481.75 0.00 L 482.17 0.00 L 484.62 0.00 L 484.73 0.00 L 484.79 0.00 L 484.79 0.00 L 484.99 0.00 L 485.86 0.00 L 486.94 0.00 L 487.66 0.00 L 487.83 0.00 L 487.99 0.00 L 488.84 0.00 L 488.86 0.00 L 490.24 0.00 L 490.38 0.00 L 490.84 0.00 L 491.38 0.00 L 491.70 0.00 L 492.06 0.00 L 493.18 0.00 L 493.24 0.00 L 493.62 0.00 L 494.09 0.00 L 494.48 0.00 L 495.21 0.00 L 495.57 0.00 L 495.81 0.00 L 496.60 0.00 L 496.73 0.00 L 497.55 0.00 L 497.93 0.00 L 499.17 0.00 L 499.20 0.00 L 499.44 0.00 L 500.10 0.00 L 500.74 0.00 L 502.04 0.00 L 502.26 0.00 L 502.68 0.00 L 503.16 0.00 L 503.25 0.00 L 503.76 0.00 L 504.08 0.00 L 504.31 0.00 L 505.37 0.00 L 506.29 0.00 L 506.37 0.00 L 507.90 0.00 L 508.76 0.00 L 508.82 0.00 L 508.97 0.00 L 509.45 0.00 L 509.59 0.00 L 509.74 0.00 L 510.56 0.00 L 510.76 0.00 L 510.85 0.00 L 511.04 0.00 L 513.63 0.00 L 514.90 0.00 L 516.94 0.00 L 517.43 0.00 L 517.51 0.00 L 517.67 0.00 L 517.83 0.00 L 517.90 0.00 L 518.78 0.00 L 518.98 0.00 L 519.61 0.00 L 520.84 0.00 L 521.49 0.00 L 521.88 0.00 L 521.88 0.00 L 522.46 0.00 L 523.18 0.00 L 523.25 0.00 L 523.70 0.00 L 523.75 0.00 L 525.16 0.00 L 526.90 0.00 L 527.82 0.00 L 528.54 0.00 L 529.55 0.00 L 529.97 0.00 L 529.98 0.00 L 530.17 0.00 L 530.37 0.00 L 530.81 0.00 L 531.11 0.00 L 532.31 0.00 L 532.43 0.00 L 533.24 0.00 L 534.01 0.00 L 534.66 0.00 L 534.79 0.00 L 535.72 0.00 L 536.41 0.00 L 536.43 0.00 L 536.74 0.00 L 536.88 0.00 L 539.02 0.00 L 539.74 0.00 L 539.90 0.00 L 541.01 0.00 L 541.12 0.00 L 541.62 0.00 L 541.75 0.00 L 542.26 0.00 L 543.22 0.00 L 543.82 0.00 L 543.84 0.00 L 544.07 0.00 L 545.13 0.00 L 545.97 0.00 L 546.94 0.00 L 547.24 0.00 L 547.63 0.00 L 548.33 0.00 L 549.90 0.00 L 551.46 0.00 L 551.59 0.00 L 551.98 0.00 L 552.85 0.00 L 553.40 0.00 L 554.68 0.00 L 554.97 0.00 L 555.40 0.00 L 556.40 0.00 L 557.07 0.00 L 557.51 0.00 L 557.80 0.00 L 558.56 0.00 L 558.89 0.00 L 559.06 0.00 L 559.16 0.00 L 559.76 0.00 L 560.04 0.00 L 560.15 0.00 L 561.32 0.00 L 561.53 0.00 L 561.71 0.00 L 562.29 0.00 L 562.33 0.00 L 563.89 0.00 L 563.98 0.00 L 564.30 0.00 L 564.47 0.00 L 565.02 0.00 L 566.06 0.00 L 566.36 0.00 L 566.42 0.00 L 566.84 0.00 L 567.34 0.00 L 568.52 0.00 L 568.74 0.00 L 569.69 0.00 L 570.20 0.00 L 570.84 0.00 L 571.74 0.00 L 571.93 0.00 L 572.21 0.00 L 573.42 0.00 L 573.72 0.00 L 573.73 0.24 L 573.73 0.66 L 573.73 0.75 L 573.73 1.31 L 573.73 1.34 L 573.73 1.56 L 573.73 2.60 L 573.73 2.98 L 573.73 3.00 L 573.73 3.06 L 573.73 3.26 L 573.73 3.73 L 573.73 4.46 L 573.73 5.07 L 573.73 5.57 L 573.73 6.34 L 573.73 6.41 L 573.73 6.42 L 573.73 7.80 L 573.73 8.31 L 573.73 8.59 L 573.73 8.90 L 573.73 9.26 L 573.73 9.39 L 573.73 9.56 L 573.73 9.70 L 573.73 10.38 L 573.73 10.84 L 573.73 11.14 L 573.73 11.52 L 573.73 11.88 L 573.73 12.04 L 573.73 12.57 L 573.73 12.58 L 573.73 12.68 L 573.73 12.80 L 573.73 13.65 L 573.73 13.69 L 573.73 14.27 L 573.73 14.44 L 573.73 15.41 L 573.73 15.50 L 573.73 15.75 L 573.73 15.84 L 573.73 17.35 L 573.73 17.44 L 573.73 17.72 L 573.73 18.98 L 573.73 19.29 L 573.73 19.37 L 573.73 19.80 L 573.73 20.38 L 573.73 20.96 L 573.73 21.01 L 573.73 21.46 L 573.73 21.67 L 573.73 22.04 L 573.73 23.56 L 573.73 24.70 L 573.73 26.06 L 573.73 26.49 L 573.73 26.52 L 573.73 26.61 L 573.73 28.80 L 573.73 29.16 L 573.73 29.66 L 573.73 30.02 L 573.73 30.10 L 573.73 30.34 L 573.73 33.01 L 573.73 34.40 L 573.73 34.55 L 573.73 34.86 L 573.73 35.25 L 573.73 35.56 L 573.73 37.50 L 573.73 37.90 L 573.73 38.30 L 573.73 38.70 L 573.73 39.14 L 573.73 39.17 L 573.73 39.28 L 573.73 39.60 L 573.73 40.80 L 573.73 40.83 L 573.73 41.09 L 573.73 41.37 L 573.73 41.77 L 573.73 42.59 L 573.73 42.77 L 573.73 43.10 L 573.73 43.49 L 573.73 43.54 L 573.73 43.67 L 573.73 44.01 L 573.73 44.07 L 573.73 45.26 L 573.73 45.29 L 573.73 46.17 L 573.73 47.73 L 573.73 49.36 L 573.73 49.88 L 573.73 50.55 L 573.73 50.74 L 573.73 50.92 L 573.73 51.12 L 573.73 51.18 L 573.73 51.32 L 573.73 51.36 L 573.73 52.53 L 573.73 52.78 L 573.73 52.84 L 573.73 54.57 L 573.73 55.19 L 573.73 55.56 L 573.73 55.72 L 573.73 56.37 L 573.73 56.65 L 573.73 56.76 L 573.73 57.01 L 573.73 57.53 L 573.73 57.95 L 573.73 59.32 L 573.73 59.37 L 573.73 59.63 L 573.73 59.66 L 573.73 59.77 L 573.73 60.35 L 573.73 60.57 L 573.73 61.30 L 573.73 61.67 L 573.73 62.34 L 573.73 62.49 L 573.73 62.93 L 573.73 63.55 L 573.73 63.79 L 573.73 65.47 L 573.73 65.94 L 573.73 66.78 L 573.73 67.00 L 573.73 67.47 L 573.73 68.47 L 573.73 69.98 L 573.73 70.44 L 573.73 70.89 L 573.73 70.97 L 573.73 70.97 L 573.73 71.51 L 573.73 71.70 L 573.73 71.89 L 573.73 72.05 L 573.73 73.46 L 573.73 73.66 L 573.73 74.59 L 573.73 75.63 L 573.73 75.70 L 573.73 76.25 L 573.73 77.74 L 573.73 78.36 L 573.73 79.37 L 573.73 79.46 L 573.73 79.58 L 573.73 79.71 L 573.73 79.91 L 573.73 81.47 L 573.73 82.23 L 573.73 82.52 L 573.73 82.67 L 573.73 82.67 L 573.73 84.32 L 573.73 84.76 L 573.73 85.12 L 573.73 85.69 L 573.73 87.17 L 573.73 87.68 L 573.73 88.11 L 573.73 88.33 L 573.73 88.35 L 573.73 88.49 L 573.73 89.82 L 573.73 89.96 L 573.73 90.27 L 573.73 91.07 L 573.73 91.11 L 573.73 92.70 L 573.73 92.90 L 573.73 93.01 L 573.73 93.25 L 573.73 93.73 L 573.73 94.74 L 573.73 94.97 L 573.73 94.98 L 573.73 95.09 L 573.73 95.34 L 573.73 95.49 L 573.73 97.10 L 573.73 97.87 L 573.73 98.42 L 573.73 98.69 L 573.73 99.25 L 573.73 100.53 L 573.73 101.12 L 573.73 101.36 L 573.73 101.64 L 573.73 101.73 L 573.73 102.51 L 573.73 103.11 L 573.73 103.74 L 573.73 103.78 L 573.73 104.17 L 573.73 105.60 L 573.73 105.97 L 573.73 106.28 L 573.73 106.51 L 573.73 106.53 L 573.73 106.86 L 573.73 107.90 L 573.73 108.32 L 573.73 110.78 L 573.73 111.24 L 573.73 112.43 L 573.73 112.52 L 573.73 112.80 L 573.73 113.55 L 573.73 113.86 L 573.73 114.19 L 573.73 114.37 L 573.73 114.39 L 573.73 116.02 L 573.73 116.19 L 573.73 116.41 L 573.73 116.41 L 573.73 116.45 L 573.73 117.51 L 573.73 118.40 L 573.73 119.13 L 573.73 119.70 L 573.73 119.87 L 573.73 120.59 L 573.73 120.88 L 573.73 122.25 L 573.73 122.74 L 573.73 123.05 L 573.73 123.06 L 573.73 123.17 L 573.73 123.34 L 573.73 123.56 L 573.73 123.77 L 573.73 123.94 L 573.73 124.06 L 573.73 124.55 L 573.73 124.89 L 573.73 125.15 L 573.73 125.47 L 573.73 126.96 L 573.73 127.28 L 573.73 128.87 L 573.73 129.09 L 573.73 129.79 L 573.73 129.86 L 573.73 130.24 L 573.73 130.46 L 573.73 130.75 L 573.73 130.87 L 573.73 132.10 L 573.73 132.18 L 573.73 132.35 L 573.73 132.60 L 573.73 132.89 L 573.73 132.92 L 573.73 133.25 L 573.73 133.27 L 573.73 133.64 L 573.73 134.61 L 573.73 135.39 L 573.73 136.05 L 573.73 136.30 L 573.73 137.00 L 573.73 137.78 L 573.73 137.82 L 573.73 138.29 L 573.73 138.68 L 573.73 139.05 L 573.73 139.67 L 573.73 141.06 L 573.73 141.15 L 573.73 141.21 L 573.73 141.66 L 573.73 141.74 L 573.73 141.87 L 573.73 143.97 L 573.73 145.98 L 573.73 146.18 L 573.73 147.25 L 573.73 147.54 L 573.73 148.31 L 573.73 148.31 L 573.73 148.89 L 573.73 150.04 L 573.73 150.19 L 573.73 150.42 L 573.73 151.16 L 573.73 151.28 L 573.73 151.87 L 573.73 152.43 L 573.73 153.03 L 573.73 153.13 L 573.73 153.14 L 573.73 153.85 L 573.73 154.01 L 573.73 154.90 L 573.73 155.72 L 573.73 155.84 L 573.73 156.72 L 573.73 157.22 L 573.73 158.89 L 573.73 159.09 L 573.73 159.74 L 573.73 159.96 L 573.73 160.04 L 573.73 160.33 L 573.73 161.05 L 573.73 161.45 L 573.73 162.71 L 573.73 162.95 L 573.73 163.24 L 573.73 164.38 L 573.73 166.51 L 573.73 167.63 L 573.73 167.86 L 573.73 168.19 L 573.73 168.93 L 573.73 169.06 L 573.73 169.86 L 573.73 170.12 L 573.73 170.80 L 573.73 170.82 L 573.73 171.19 L 573.73 171.48 L 573.73 172.72 L 573.73 173.19 L 573.73 173.35 L 573.73 175.28 L 573.73 175.77 L 573.73 175.92 L 573.73 177.09 L 573.73 177.28 L 573.73 178.01 L 573.73 178.09 L 573.73 178.71 L 573.73 180.20 L 573.73 182.57 L 573.73 182.96 L 573.73 182.99 L 573.73 185.85 L 573.73 186.39 L 573.73 186.40 L 573.73 186.73 L 573.73 187.03 L 573.73 188.99 L 573.73 189.82 L 573.73 189.85 L 573.73 189.93 L 573.73 190.25 L 573.73 191.16 L 573.73 191.38 L 573.73 191.76 L 573.73 192.70 L 573.73 192.97 L 573.73 193.31 L 573.73 194.31 L 573.73 194.54 L 573.73 196.80 L 573.73 197.49 L 573.73 197.64 L 573.73 197.73 L 573.73 198.29 L 573.73 200.29 L 573.73 202.88 L 573.73 203.66 L 573.73 203.82 L 573.73 204.81 L 573.73 204.96 L 573.73 205.05 L 573.73 205.26 L 573.73 205.31 L 573.73 205.66 L 573.73 205.83 L 573.73 206.35 L 573.73 207.24 L 573.73 207.72 L 573.73 208.05 L 573.73 208.11 L 573.73 208.97 L 573.73 209.34 L 573.73 209.37 L 573.73 209.56 L 573.73 210.73 L 573.73 210.79 L 573.73 210.94 L 573.73 211.48 L 573.73 211.94 L 573.73 212.01 L 573.73 212.16 L 573.73 212.56 L 573.73 212.72 L 573.73 212.73 L 573.73 212.74 L 573.73 213.68 L 573.73 215.44 L 573.73 215.54 L 573.73 217.52 L 573.73 218.57 L 573.73 219.20 L 573.73 221.19 L 573.73 225.44 L 573.73 226.70 L 573.73 226.83 L 573.73 228.44 L 573.73 228.56 L 573.73 232.48 L 573.73 232.53 L 573.73 232.88 L 573.73 234.42 L 573.73 236.48 L 573.73 237.32 L 573.73 239.03 L 573.73 239.12 L 573.73 239.30 L 573.73 240.29 L 573.73 240.37 L 573.73 242.35 L 573.73 242.35 L 573.73 252.63 L 573.73 256.60 L 573.73 257.73 L 573.73 259.71 L 573.73 260.43 L 573.73 261.62 L 573.73 264.53 L 573.73 267.59 L 573.73 269.35 L 573.73 270.19 L 573.73 270.22 L 573.73 272.42 L 573.73 272.76 L 573.73 274.29 L 573.73 274.45 L 573.73 276.25 L 573.73 278.87 L 573.73 280.22 L 573.73 280.62 L 573.73 283.27 L 573.73 283.79 L 573.73 286.82 L 573.73 287.15 L 573.73 289.99 L 573.73 292.64 L 573.73 294.06 L 573.73 294.25 L 573.73 296.53 L 573.73 296.85 L 573.73 300.59 L 573.73 300.94 L 573.73 304.17 L 573.73 304.55 L 573.73 306.20 L 573.73 306.93 L 573.73 309.85 L 573.73 313.44 L 573.73 316.03 L 573.73 316.25 L 573.73 316.89 L 573.73 317.57 L 573.73 317.62 L 573.73 319.80 L 573.73 322.79 L 573.73 326.52 L 573.73 326.92 L 573.73 327.59 L 573.73 329.93 L 573.73 330.60 L 573.73 330.73 L 573.73 332.31 L 573.73 338.07 L 573.73 338.84 L 573.73 339.49 L 573.73 340.45 L 573.73 340.87 L 573.73 342.05 L 573.73 342.63 L 573.73 346.78 L 573.73 347.25 L 573.73 347.80 L 573.73 347.89 L 573.73 348.78 L 573.73 349.20 L 573.73 349.30 L 573.73 350.04 L 573.73 350.38 L 573.73 350.59 L 573.73 351.15 L 573.73 351.80 L 573.73 351.87 L 573.73 353.36 L 573.73 354.18 L 573.73 354.27 L 573.73 356.49 L 573.73 356.77 L 573.73 356.90 L 573.73 357.94 L 573.73 358.63 L 573.73 361.39 L 573.73 361.63 L 573.73 361.89 L 573.73 362.27 L 573.73 363.04 L 573.73 363.29 L 573.73 363.60 L 573.73 364.88 L 573.73 365.95 L 573.73 366.98 L 573.73 367.14 L 573.73 367.24 L 573.73 367.42 L 573.73 367.66 L 573.73 367.74 L 573.73 367.83 L 573.73 368.09 L 573.73 368.13 L 573.73 368.27 L 573.73 368.55 L 573.73 368.92 L 573.73 368.96 L 573.73 369.37 L 573.73 370.01 L 573.73 370.85 L 573.73 371.65 L 573.73 372.45 L 573.73 372.76 L 573.73 373.09 L 573.73 374.67 L 573.73 375.84 L 573.73 376.30 L 573.73 377.02 L 573.73 377.48 L 573.73 377.50 L 573.73 378.46 L 573.73 378.71 L 573.73 379.06 L 573.73 380.35 L 573.73 380.99 L 573.73 381.13 L 573.73 381.62 L 573.73 382.64 L 573.73 383.24 L 573.73 383.97 L 573.73 385.15 L 573.73 385.44 L 573.73 385.72 L 573.73 386.58 L 573.73 386.76 L 573.73 387.93 L 573.73 388.40 L 573.73 389.43 L 573.73 390.24 L 573.73 391.14 L 573.73 392.86 L 573.73 393.18 L 573.73 393.99 L 573.73 396.32 L 573.73 396.59 L 573.73 397.01 L 573.73 397.40 L 573.73 397.81 L 573.73 398.19 L 573.73 398.37 L 573.73 398.71 L 573.73 398.74 L 573.73 399.32 L 573.73 400.40 L 573.73 400.54 L 573.73 400.56 L 573.73 400.95 L 573.73 401.09 L 573.73 401.43 L 573.73 402.28 L 573.73 402.41 L 573.73 402.45 L 573.73 402.69 L 573.73 403.16 L 573.73 403.27 L 573.73 403.87 L 573.73 405.34 L 573.73 405.85 L 573.73 405.97 L 573.73 406.90 L 573.73 407.01 L 573.73 407.23 L 573.73 407.67 L 573.73 407.73 L 573.73 409.27 L 573.73 411.46 L 573.73 412.27 L 573.73 412.91 L 573.73 413.34 L 573.73 413.35 L 573.73 413.54 L 573.73 414.60 L 573.73 414.79 L 573.73 415.72 L 573.73 416.67 L 573.73 416.70 L 573.73 416.79 L 573.73 417.16 L 573.73 417.38 L 573.73 418.05 L 573.73 418.42 L 573.73 419.37 L 573.73 420.66 L 573.73 420.78 L 573.73 421.11 L 573.73 421.35 L 573.73 422.25 L 573.73 422.29 L 573.73 422.80 L 573.73 423.09 L 573.73 423.51 L 573.73 423.89 L 573.73 424.90 L 573.73 425.62 L 573.73 427.11 L 573.73 427.85 L 573.73 427.86 L 573.73 428.02 L 573.73 428.36 L 573.73 429.30 L 573.73 429.79 L 573.73 430.01 L 573.73 431.35 L 573.73 431.82 L 573.73 432.23 L 573.73 432.49 L 573.73 432.65 L 573.73 433.78 L 573.73 434.19 L 573.73 434.41 L 573.73 434.54 L 573.73 434.60 L 573.73 434.85 L 573.73 435.38 L 573.73 435.50 L 573.73 435.74 L 573.73 436.31 L 573.73 436.65 L 573.73 436.94 L 573.73 437.46 L 573.73 437.71 L 573.73 437.76 L 573.73 438.04 L 573.73 438.76 L 573.73 439.08 L 573.73 440.02 L 573.73 440.54 L 573.73 440.63 L 573.73 441.28 L 573.73 442.17 L 573.73 443.33 L 573.73 444.08 L 573.73 444.59 L 573.73 444.72 L 573.73 446.21 L 573.73 446.98 L 573.73 447.02 L 573.73 447.97 L 573.73 449.35 L 573.73 449.62 L 573.73 449.68 L 573.73 450.53 L 573.73 451.49 L 573.73 451.83 L 573.73 452.62 L 573.73 453.01 L 573.73 453.18 L 573.73 454.86 L 573.73 455.43 L 573.73 455.50 L 573.73 456.19 L 573.73 456.47 L 573.73 456.92 L 573.73 457.25 L 573.73 457.31 L 573.73 458.06 L 573.73 458.45 L 573.73 458.67 L 573.73 459.48 L 573.73 459.53 L 573.73 459.68 L 573.73 459.74 L 573.73 459.81 L 573.73 459.90 L 573.73 460.25 L 573.73 460.27 L 573.73 462.61 L 573.73 463.89 L 573.73 464.14 L 573.73 464.64 L 573.73 465.02 L 573.73 465.75 L 573.73 466.89 L 573.73 468.36 L 573.73 468.56 L 573.73 469.36 L 573.73 470.27 L 573.73 470.68 L 573.73 470.92 L 573.73 471.35 L 573.73 471.80 L 573.73 472.22 L 573.73 473.16 L 573.73 476.02 L 573.73 476.26 L 573.73 476.52 L 573.73 476.74 L 573.73 477.21 L 573.73 477.26 L 573.73 477.76 L 573.73 478.56 L 573.73 478.73 L 573.73 479.23 L 573.73 479.87 L 573.73 480.66 L 573.73 480.86 L 573.73 481.41 L 573.73 482.12 L 573.73 482.73 L 573.73 482.97 L 573.73 483.97 L 573.73 484.04 L 573.73 484.74 L 573.73 485.10 L 573.73 485.68 L 573.73 486.33 L 573.73 486.77 L 573.73 487.57 L 573.73 488.05 L 573.73 488.58 L 573.73 489.01 L 573.73 489.21 L 573.73 489.67 L 573.73 489.88 L 573.73 490.10 L 573.73 490.75 L 573.73 490.87 L 573.73 491.14 L 573.73 491.85 L 573.73 492.56 L 573.73 493.03 L 573.73 493.72 L 573.73 493.79 L 573.73 493.83 L 573.73 495.68 L 573.73 496.55 L 573.73 497.21 L 573.73 497.43 L 573.73 497.43 L 573.73 497.98 L 573.73 498.23 L 573.73 499.30 L 573.73 499.47 L 573.73 500.96 L 573.73 501.08 L 573.73 501.31 L 573.73 502.29 L 573.73 502.40 L 573.73 502.71 L 573.73 503.09 L 573.73 504.04 L 573.73 504.93 L 573.73 505.85 L 573.73 506.55 L 573.73 507.67 L 573.73 507.74 L 573.73 508.01 L 573.73 508.16 L 573.73 508.33 L 573.73 508.42 L 573.73 508.51 L 573.73 510.24 L 573.73 510.54 L 573.73 511.54 L 573.73 511.86 L 573.73 512.64 L 573.73 513.17 L 573.73 513.23 L 573.73 513.43 L 573.73 514.39 L 573.73 515.10 L 573.73 515.51 L 573.73 515.71 L 573.73 516.75 L 573.73 516.82 L 573.73 516.87 L 573.73 516.99 L 573.73 517.35 L 573.73 517.83 L 573.73 518.02 L 573.73 518.44 L 573.73 518.60 L 573.73 518.69 L 573.73 518.91 L 573.73 519.16 L 573.73 520.10 L 573.73 520.69 L 573.73 521.19 L 573.73 521.20 L 573.73 521.41 L 573.73 521.77 L 573.73 522.65 L 573.73 522.70 L 573.73 522.79 L 573.73 523.83 L 573.73 524.96 L 573.73 525.17 L 573.73 525.52 L 573.73 526.06 L 573.73 526.19 L 573.73 526.24 L 573.73 526.37 L 573.73 526.53 L 573.73 526.56 L 573.73 526.74 L 573.73 527.97 L 573.73 529.42 L 573.73 529.72 L 573.73 530.01 L 573.73 530.97 L 573.73 532.46 L 573.73 532.58 L 573.73 532.76 L 573.73 532.78 L 573.73 533.30 L 573.73 534.04 L 573.73 534.32 L 573.73 534.63 L 573.73 535.50 L 573.73 535.80 L 573.73 538.02 L 573.73 539.04 L 573.73 539.51 L 573.73 539.58 L 573.73 542.75 L 573.73 543.00 L 573.73 543.76 L 573.73 543.76 L 573.73 544.07 L 573.73 544.34 L 573.73 545.09 L 573.73 545.29 L 573.73 545.65 L 573.73 545.67 L 573.73 545.89 L 573.73 546.31 L 573.73 546.35 L 573.73 546.73 L 573.73 547.37 L 573.73 547.86 L 573.73 547.99 L 573.73 548.05 L 573.73 548.33 L 573.73 548.72 L 573.73 549.30 L 573.73 550.46 L 573.73 551.26 L 573.73 551.49 L 573.73 551.71 L 573.73 551.76 L 573.73 551.88 L 573.73 552.65 L 573.73 553.03 L 573.73 553.75 L 573.73 554.01 L 573.73 554.67 L 573.73 555.79 L 573.73 555.82 L 573.73 556.00 L 573.73 557.53 L 573.73 557.81 L 573.73 558.74 L 573.73 558.95 L 573.73 559.69 L 573.73 560.31 L 573.73 560.38 L 573.73 561.56 L 573.73 562.30 L 573.73 563.00 L 573.73 563.47 L 573.73 563.84 L 573.73 564.09 L 573.73 564.27 L 573.73 565.23 L 573.73 565.66 L 573.73 566.19 L 573.73 567.63 L 573.73 568.23 L 573.73 568.42 L 573.73 568.62 L 573.73 568.68 L 573.73 569.61 L 573.73 569.77 L 573.73 569.98 L 573.73 572.38 L 573.73 572.57 L 573.73 572.84 L 573.73 573.03 L 573.73 574.19 L 573.73 575.47 L 573.73 575.50 L 573.73 575.53 L 573.73 575.76 L 573.73 576.57 L 573.73 577.08 L 573.73 577.17 L 573.73 577.29 L 573.73 577.34 L 573.73 577.71 L 573.73 578.04 L 573.73 578.05 L 573.73 579.24 L 573.73 579.39 L 573.73 579.88 L 573.73 580.34 L 573.73 580.93 L 573.73 581.06 L 573.73 581.24 L 573.73 581.54 L 573.73 581.95 L 573.73 582.11 L 573.73 582.18 L 573.73 582.39 L 573.73 582.49 L 573.73 582.55 L 573.73 582.63 L 573.73 582.89 L 573.73 582.92 L 573.73 583.11 L 573.73 583.42 L 573.73 583.62 L 573.73 585.76 L 573.73 587.37 L 573.73 587.54 L 573.73 588.14 L 573.73 588.25 L 573.73 588.45 L 573.73 590.63 L 573.73 591.68 L 573.73 592.08 L 573.73 592.42 L 573.73 592.75 L 573.73 593.00 L 573.73 593.11 L 573.73 593.20 L 573.73 593.61 L 573.73 593.81 L 573.73 594.38 L 573.73 594.45 L 573.73 594.66 L 573.73 594.74 L 573.73 594.81 L 573.73 594.97 L 573.73 595.47 L 573.73 596.10 L 573.73 596.58 L 573.73 596.66 L 573.73 597.11 L 573.73 597.74 L 573.73 598.69 L 573.73 600.36 L 573.73 600.97 L 573.73 601.43 L 573.73 602.20 L 573.73 602.21 L 573.73 602.91 L 573.73 603.42 L 573.73 604.03 L 573.73 604.42 L 573.73 604.89 L 573.73 605.21 L 573.73 605.68 L 573.73 605.89 L 573.73 605.92 L 573.73 606.99 L 573.73 607.32 L 573.73 608.00 L 573.73 608.58 L 573.73 608.60 L 573.73 608.62 L 573.73 608.74 L 573.73 608.81 L 573.73 608.93 L 573.73 609.74 L 573.73 610.03 L 573.73 610.18 L 573.73 611.45 L 573.73 613.37 L 573.73 614.10 L 573.73 614.26 L 573.73 614.65 L 573.73 614.67 L 573.73 615.81 L 573.73 615.85 L 573.73 616.56 L 573.73 618.08 L 573.73 620.21 L 573.73 620.88 L 573.73 621.43 L 573.73 622.93 L 573.73 622.97 L 573.73 623.25 L 573.73 623.32 L 573.73 623.38 L 573.73 623.51 L 573.73 623.74 L 573.73 623.81 L 573.73 624.08 L 573.73 624.77 L 573.73 625.15 L 573.73 625.27 L 573.73 625.68 L 573.73 625.70 L 573.73 625.99 L 573.73 627.10 L 573.73 629.23 L 573.73 629.58 L 573.73 629.64 L 573.73 629.90 L 573.73 630.13 L 573.73 630.16 L 573.73 630.85 L 573.73 630.91 L 573.73 631.26 L 573.73 631.34 L 573.73 631.56 L 573.73 634.33 L 573.73 635.38 L 573.73 636.13 L 573.73 636.23 L 573.73 636.25 L 573.73 637.95 L 573.73 638.08 L 573.73 639.57 L 573.73 640.24 L 573.73 640.26 L 573.73 640.57 L 573.73 642.14 L 573.73 642.40 L 573.73 642.63 L 573.73 642.90 L 573.73 643.03 L 573.73 644.62 L 573.73 645.52 L 573.73 646.08 L 573.73 646.48 L 573.73 646.72 L 573.73 647.42 L 573.73 648.27 L 573.73 648.34 L 573.73 648.51 L 573.73 648.64 L 573.73 648.76 L 573.73 649.74 L 573.73 650.85 L 573.73 651.56 L 573.73 651.62 L 573.73 652.83 L 573.73 653.15 L 573.73 653.95 L 573.73 654.29 L 573.73 657.58 L 573.73 659.41 L 573.73 659.55 L 573.73 659.70 L 573.73 659.85 L 573.73 659.94 L 573.73 660.17 L 573.73 660.72 L 573.73 661.44 L 573.73 661.82 L 573.73 662.62 L 573.73 663.16 L 573.73 663.18 L 573.73 664.23 L 573.73 665.48 L 573.73 666.08 L 573.73 666.73 L 573.73 667.62 L 573.73 668.69 L 573.73 668.82 L 573.73 669.75 L 573.73 669.76 L 573.73 669.91 L 573.73 671.25 L 573.73 671.26 L 573.73 671.48 L 573.73 671.54 L 573.73 671.71 L 573.73 673.22 L 573.73 674.79 L 573.73 675.27 L 573.73 675.50 L 573.73 676.32 L 573.73 676.53 L 573.73 676.80 L 573.73 676.94 L 573.73 678.57 L 573.73 678.80 L 573.73 678.94 L 573.73 681.23 L 573.73 682.67 L 573.73 683.46 L 573.73 683.47 L 573.73 683.75 L 573.73 684.51 L 573.73 684.71 L 573.73 684.98 L 573.73 684.98 L 573.73 686.52 L 573.73 686.64 L 573.73 686.91 L 573.73 687.60 L 573.73 688.02 L 573.73 688.89 L 573.73 689.14 L 573.73 689.17 L 573.73 690.49 L 573.73 691.61 L 573.73 693.21 L 573.73 693.70 L 573.73 694.96 L 573.73 695.05 L 573.73 695.51 L 573.73 695.63 L 573.73 696.06 L 573.73 696.37 L 573.73 696.40 L 573.73 697.05 L 573.73 697.93 L 573.73 698.19 L 573.73 698.26 L 573.73 698.66 L 573.73 698.89 L 573.73 699.35 L 573.73 699.51 L 573.73 699.85 L 573.73 700.51 L 573.73 700.77 L 573.73 700.93 L 573.73 701.03 L 573.73 701.33 L 573.73 702.83 L 573.73 702.93 L 573.73 703.17 L 573.73 703.57 L 573.73 703.86 L 573.73 704.58 L 573.73 705.97 L 573.73 706.35 L 573.73 706.65 L 573.73 706.95 L 573.73 708.05 L 573.73 709.81 L 573.73 710.94 L 573.73 711.35 L 573.73 711.41 L 573.73 713.34 L 573.73 713.38 L 573.73 713.71 L 573.73 713.96 L 573.73 714.27 L 573.73 714.31 L 573.73 714.37 L 573.73 714.64 L 573.73 715.67 L 573.73 716.44 L 573.73 716.86 L 573.73 717.95 L 573.73 718.34 L 573.73 719.83 L 573.73 720.21 L 573.73 721.48 L 573.73 721.86 L 573.73 722.37 L 573.73 722.92 L 573.73 723.05 L 573.73 724.42 L 573.73 724.71 L 573.73 724.79 L 573.73 724.84 L 573.73 725.08 L 573.73 725.26 L 573.73 725.71 L 573.73 726.61 L 573.73 727.20 L 573.73 727.69 L 573.73 727.70 L 573.73 728.23 L 573.73 729.36 L 573.73 729.73 L 573.73 730.06 L 573.73 730.70 L 573.73 731.49 L 573.73 732.47 L 573.73 733.76 L 573.73 735.63 L 573.73 735.97 L 573.73 736.13 L 573.73 736.39 L 573.73 736.63 L 573.73 737.41 L 573.73 737.66 L 573.73 738.56 L 573.73 739.82 L 573.73 740.16 L 573.73 740.56 L 573.73 740.84 L 573.73 741.18 L 573.73 741.55 L 573.73 741.79 L 573.73 742.45 L 573.73 742.60 L 573.73 743.47 L 573.73 743.50 L 573.73 743.63 L 573.73 744.84 L 573.73 745.05 L 573.73 745.58 L 573.73 746.39 L 573.73 746.48 L 573.73 746.57 L 573.73 747.20 L 573.73 748.87 L 573.73 749.96 L 573.73 750.81 L 573.73 751.14 L 573.73 751.33 L 573.73 753.13 L 573.73 754.36 L 573.73 754.47 L 573.73 754.68 L 573.73 754.86 L 573.73 755.12 L 573.73 755.16 L 573.73 756.06 L 573.73 758.60 L 573.73 759.34 L 573.73 761.24 L 573.73 761.90 L 573.73 762.91 L 573.73 764.23 L 573.73 764.25 L 573.73 764.37 L 573.73 764.42 L 573.73 764.45 L 573.73 764.81 L 573.73 765.46 L 573.73 765.51 L 573.73 765.56 L 573.73 766.40 L 573.73 766.41 L 573.73 767.63 L 573.73 768.12 L 573.73 768.14 L 573.73 768.38 L 573.73 768.42 L 573.73 768.45 L 573.73 769.21 L 573.73 769.28 L 573.73 769.83 L 573.73 770.20 L 573.73 772.35 L 573.73 772.36 L 573.73 772.70 L 573.73 773.45 L 573.73 773.83 L 573.73 774.22 L 573.73 774.27 L 573.73 774.30 L 573.73 775.00 L 573.73 775.64 L 573.73 776.25 L 573.73 776.32 L 573.73 777.28 L 573.73 777.93 L 573.73 778.69 L 573.73 778.79 L 573.73 779.40 L 573.73 779.86 L 573.73 780.24 L 573.73 780.36 L 573.73 780.37 L 573.73 782.07 L 573.73 782.74 L 573.73 783.58 L 573.73 784.94 L 573.73 785.35 L 573.73 785.50 L 573.73 786.27 L 573.73 786.28 L 573.73 786.46 L 573.73 786.55 L 573.73 786.93 L 573.73 787.53 L 573.73 787.63 L 573.73 787.65 L 573.73 788.26 L 573.73 788.69 L 573.73 788.85 L 573.73 790.24 L 573.73 790.26 L 573.73 790.61 L 573.73 791.80 L 573.73 792.01 L 573.73 792.24 L 573.73 792.68 L 573.73 793.34 L 573.73 793.83 L 573.73 794.02 L 573.73 794.72 L 573.73 795.48 L 573.73 797.14 L 573.73 798.04 L 573.73 798.61 L 573.73 799.02 L 573.73 799.13 L 573.73 799.14 L 573.73 799.21 L 573.73 800.41 L 573.73 800.75 L 573.73 801.06 L 573.73 801.30 L 573.73 801.68 L 573.73 802.19 L 573.73 803.03 L 573.73 803.95 L 573.73 804.44 L 573.73 804.65 L 573.73 805.20 L 573.73 807.07 L 573.73 807.84 L 573.73 808.41 L 573.73 808.60 L 573.73 808.92 L 573.73 809.41 L 573.73 809.52 L 573.73 809.67 L 573.73 809.80 L 573.73 809.81 L 573.73 809.95 L 573.73 810.20 L 573.73 811.53 L 573.73 812.35 L 573.73 812.53 L 573.73 812.84 L 573.73 812.97 L 573.73 813.44 L 573.73 813.65 L 573.73 813.75 L 573.73 814.63 L 573.73 815.74 L 573.73 815.76 L 573.73 816.11 L 573.73 816.66 L 573.73 817.40 L 573.73 818.54 L 573.73 818.60 L 573.73 818.71 L 573.73 819.58 L 573.73 820.24 L 573.73 820.56 L 573.73 821.14 L 573.73 821.30 L 573.73 822.89 L 573.73 823.44 L 573.73 823.55 L 573.73 825.48 L 573.73 827.08 L 573.73 827.35 L 573.73 828.13 L 573.73 829.53 L 573.73 830.05 L 573.73 830.61 L 573.73 830.74 L 573.73 832.43 L 573.73 833.27 L 573.73 833.30 L 573.73 834.17 L 573.73 834.63 L 573.73 835.12 L 573.73 835.23 L 573.73 835.87 L 573.73 835.88 L 573.73 837.19 L 573.73 837.76 L 573.73 838.09 L 573.73 838.37 L 573.73 838.44 L 573.73 840.70 L 573.73 841.00 L 573.73 841.74 L 573.73 843.70 L 573.73 843.93 L 573.73 843.98 L 573.73 846.25 L 573.73 846.74 L 573.73 847.48 L 573.73 847.83 L 573.73 848.04 L 573.73 848.82 L 573.73 849.28 L 573.73 849.87 L 573.73 850.99 L 573.73 852.00 L 573.73 852.08 L 573.73 852.75 L 573.73 854.84 L 573.73 854.95 L 573.73 855.20 L 573.73 855.21 L 573.73 855.51 L 573.73 855.65 L 573.73 855.88 L 573.73 855.97 L 573.73 856.37 L 573.73 856.45 L 573.73 857.21 L 573.73 857.88 L 573.73 858.11 L 573.73 859.90 L 573.73 861.58 L 573.73 863.14 L 573.73 863.35 L 573.73 863.50 L 573.73 863.96 L 573.73 864.19 L 573.73 865.91 L 573.73 866.02 L 573.73 866.02 L 573.73 866.42 L 573.73 866.97 L 573.73 866.99 L 573.73 867.44 L 573.73 867.59 L 573.73 867.77 L 573.73 868.33 L 573.73 868.45 L 573.73 870.16 L 573.73 871.20 L 573.73 873.30 L 573.73 873.44 L 573.73 873.64 L 573.73 874.10 L 573.73 874.33 L 573.73 874.78 L 573.73 875.01 L 573.73 875.66 L 573.73 875.78 L 573.73 877.46 L 573.73 877.74 L 573.73 877.78 L 573.73 878.00 L 573.73 878.27 L 573.73 878.54 L 573.73 878.59 L 573.73 878.81 L 573.73 879.85 L 573.73 880.45 L 573.73 881.09 L 573.73 881.38 L 573.73 881.79 L 573.73 881.99 L 573.73 882.60 L 573.73 883.54 L 573.73 883.60 L 573.73 884.12 L 573.73 884.43 L 573.73 884.56 L 573.73 885.98 L 573.73 887.05 L 573.73 887.29 L 573.73 888.22 L 573.73 888.35 L 573.73 888.88 L 573.73 888.89 L 573.73 888.98 L 573.73 889.66 L 573.73 890.75 L 573.73 890.79 L 573.73 890.89 L 573.73 891.15 L 573.73 891.24 L 573.73 892.89 L 573.73 893.75 L 573.73 894.16 L 573.73 894.26 L 573.73 895.88 L 573.73 895.98 L 573.73 897.08 L 573.73 897.33 L 573.73 898.62 L 573.73 899.74 L 573.73 899.90 L 573.73 901.48 L 573.73 901.54 L 573.73 902.38 L 573.73 902.43 L 573.73 903.01 L 573.73 903.59 L 573.73 904.18 L 573.73 905.14 L 573.73 906.62 L 573.73 907.19 L 573.73 908.05 L 573.73 908.23 L 573.73 910.14 L 573.73 910.27 L 573.73 910.43 L 573.73 910.47 L 573.73 910.66 L 573.73 911.41 L 573.73 912.36 L 573.73 912.81 L 573.73 913.05 L 573.73 913.09 L 573.73 913.38 L 573.73 913.70 L 573.73 914.07 L 573.73 914.30 L 573.73 914.56 L 573.73 914.68 L 573.73 914.88 L 573.73 915.01 L 573.73 915.23 L 573.73 916.04 L 573.73 916.33 L 573.73 918.09 L 573.73 918.42 L 573.73 918.55 L 573.73 919.64 L 573.73 921.42 L 573.73 921.43 L 573.73 921.67 L 573.73 921.83 L 573.73 921.96 L 573.73 922.10 L 573.73 922.61 L 573.73 923.10 L 573.73 923.32 L 573.73 923.79 L 573.73 923.91 L 573.73 924.37 L 573.73 925.09 L 573.73 925.35 L 573.73 925.57 L 573.73 926.34 L 573.73 926.49 L 573.73 926.98 L 573.73 927.21 L 573.73 927.59 L 573.73 927.82 L 573.73 928.09 L 573.73 928.53 L 573.73 929.94 L 573.73 930.18 L 573.73 931.58 L 573.73 931.58 L 573.73 932.99 L 573.73 934.28 L 573.73 934.47 L 573.73 935.18 L 573.73 935.30 L 573.73 935.66 L 573.73 936.00 L 573.73 936.25 L 573.73 936.54 L 573.73 936.56 L 573.73 937.22 L 573.73 938.28 L 573.73 938.33 L 573.73 939.67 L 573.73 940.24 L 573.73 940.27 L 573.73 940.28 L 573.73 940.81 L 573.73 942.76 L 573.73 943.09 L 573.73 943.29 L 573.73 943.82 L 573.73 943.92 L 573.73 944.83 L 573.73 945.10 L 573.73 946.17 L 573.73 946.41 L 573.73 946.75 L 573.73 948.41 L 573.73 948.90 L 573.73 949.15 L 573.73 949.86 L 573.73 949.97 L 573.73 950.11 L 573.73 950.28 L 573.73 950.88 L 573.73 951.38 L 573.73 952.73 L 573.73 952.90 L 573.73 953.20 L 573.73 953.63 L 573.73 954.07 L 573.73 954.14 L 573.73 954.79 L 573.73 955.95 L 573.73 957.04 L 573.73 957.41 L 573.73 958.01 L 573.73 958.67 L 573.73 958.79 L 573.73 959.12 L 573.73 959.24 L 573.73 959.48 L 573.73 960.84 L 573.73 961.12 L 573.73 961.18 L 573.73 961.77 L 573.73 963.10 L 573.73 963.94 L 573.73 964.28 L 573.73 964.47 L 573.73 964.56 L 573.73 965.96 L 573.73 966.30 L 573.73 966.33 L 573.73 966.70 L 573.73 966.79 L 573.73 966.84 L 573.73 969.50 L 573.73 969.57 L 573.73 970.16 L 573.73 970.60 L 573.73 970.92 L 573.73 971.28 L 573.73 971.32 L 573.73 971.59 L 573.73 972.36 L 573.73 972.94 L 573.73 973.21 L 573.73 973.49 L 573.73 973.87 L 573.73 974.42 L 573.73 974.86 L 573.73 975.86 L 573.73 975.88 L 573.73 976.80 L 573.73 977.40 L 573.73 977.60 L 573.73 978.12 L 573.73 978.33 L 573.73 978.60 L 573.73 979.26 L 573.73 981.06 L 573.73 981.07 L 573.73 981.88 L 573.73 981.94 L 573.73 983.26 L 573.73 983.90 L 573.73 984.28 L 573.73 984.91 L 573.73 985.19 L 573.73 985.43 L 573.73 985.81 L 573.73 986.01 L 573.73 988.21 L 573.73 988.92 L 573.73 991.10 L 573.73 992.57 L 573.73 992.70 L 573.73 993.31 L 573.73 998.09 L 573.73 999.85 L 573.73 1000.67 L 573.73 1001.61 L 573.73 1002.62 L 573.73 1005.25 L 573.73 1006.66 L 573.73 1007.11 L 573.73 1007.27 L 573.73 1008.65 L 573.73 1010.99 L 573.73 1011.77 L 573.73 1019.00 L 573.73 1019.83 L 573.73 1020.71 L 573.73 1022.44 L 573.73 1031.41 L 573.73 1032.82 L 573.73 1032.82 L 573.73 1034.71 L 573.73 1035.82 L 573.73 1039.32 L 573.73 1040.70 L 573.73 1040.98 L 573.73 1045.20 L 573.73 1045.60 L 573.73 1045.73 L 573.73 1047.96 L 573.73 1051.68 L 573.73 1052.32 L 573.73 1053.99 L 573.73 1056.53 L 573.73 1057.10 L 573.73 1059.00 L 573.73 1059.73 L 573.73 1060.83 L 573.73 1063.40 L 573.73 1064.13 L 573.73 1066.16 L 573.73 1068.02 L 573.73 1068.79 L 573.73 1069.08 L 573.73 1069.71 L 573.73 1069.99 L 573.73 1072.88 L 573.73 1074.48 L 573.73 1074.79 L 573.73 1076.36 L 573.73 1080.96 L 573.73 1081.79 L 573.73 1082.05 L 573.73 1085.31 L 573.73 1086.05 L 573.73 1086.76 L 573.73 1087.89 L 573.73 1088.30 L 573.73 1088.68 L 573.73 1090.35 L 573.73 1091.38 L 573.73 1092.81 L 573.73 1093.73 L 573.73 1094.31 L 573.73 1094.63 L 573.73 1096.38 L 573.73 1097.93 L 573.73 1098.08 L 573.73 1099.86 L 573.73 1099.93 L 573.73 1101.26 L 573.73 1101.36 L 573.73 1101.37 L 573.73 1101.52 L 573.73 1101.67 L 573.73 1101.87 L 573.73 1102.75 L 573.73 1102.81 L 573.73 1103.10 L 573.73 1103.11 L 573.73 1103.38 L 573.73 1103.92 L 573.73 1105.87 L 573.73 1106.60 L 573.73 1106.71 L 573.73 1106.86 L 573.73 1107.24 L 573.73 1107.86 L 573.73 1107.87 L 573.73 1108.17 L 573.73 1108.57 L 573.73 1109.42 L 573.73 1109.59 L 573.73 1109.65 L 573.73 1110.38 L 573.73 1110.65 L 573.73 1110.69 L 573.73 1111.90 L 573.73 1112.30 L 573.73 1112.66 L 573.73 1113.72 L 573.73 1113.82 L 573.73 1114.64 L 573.73 1114.69 L 573.73 1114.81 L 573.73 1114.82 L 573.73 1115.92 L 573.73 1116.10 L 573.73 1116.22 L 573.73 1116.88 L 573.73 1117.29 L 573.73 1117.67 L 573.73 1117.74 L 573.73 1118.16 L 573.73 1118.62 L 573.73 1119.53 L 573.73 1119.81 L 573.73 1121.14 L 573.73 1121.81 L 573.73 1122.57 L 573.73 1122.58 L 573.73 1123.43 L 573.73 1123.47 L 573.73 1123.59 L 573.73 1124.03 L 573.73 1124.80 L 573.73 1124.85 L 573.73 1125.35 L 573.73 1125.92 L 573.73 1126.18 L 573.73 1126.33 L 573.73 1127.49 L 573.73 1127.53 L 573.73 1127.80 L 573.73 1128.47 L 573.73 1128.59 L 573.73 1128.83 L 573.73 1129.65 L 573.73 1130.24 L 573.73 1130.37 L 573.73 1130.41 L 573.73 1130.84 L 573.73 1131.04 L 573.73 1132.01 L 573.73 1132.10 L 573.73 1132.12 L 573.73 1132.46 L 573.73 1133.27 L 573.73 1133.49 L 573.73 1133.51 L 573.73 1133.60 L 573.73 1134.02 L 573.73 1134.99 L 573.73 1135.38 L 573.73 1135.84 L 573.73 1135.96 L 573.73 1136.58 L 573.73 1136.59 L 573.73 1136.72 L 573.73 1137.36 L 573.73 1137.90 L 573.73 1138.35 L 573.73 1138.41 L 573.73 1138.69 L 573.73 1139.28 L 573.73 1139.64 L 573.73 1139.78 L 573.73 1139.87 L 573.73 1141.74 L 573.73 1141.77 L 573.73 1142.00 L 573.73 1142.02 L 573.73 1142.21 L 573.73 1142.64 L 573.73 1142.65 L 573.73 1142.92 L 573.73 1145.10 L 573.73 1146.50 L 573.73 1147.06 L 573.73 1147.58 L 573.73 1147.69 L 573.73 1148.07 L 573.73 1148.40 L 573.73 1148.60 L 573.73 1149.28 L 573.73 1149.34 L 573.73 1149.39 L 573.73 1150.13 L 573.73 1150.37 L 573.73 1151.51 L 573.73 1152.60 L 573.73 1152.73 L 573.73 1153.45 L 573.73 1153.75 L 573.73 1153.82 L 573.73 1156.19 L 573.73 1156.55 L 573.73 1156.66 L 573.73 1157.01 L 573.73 1157.78 L 573.73 1158.22 L 573.73 1158.99 L 573.73 1159.16 L 573.73 1159.29 L 573.73 1160.39 L 573.73 1160.72 L 573.73 1161.09 L 573.73 1161.65 L 573.73 1162.97 L 573.73 1165.31 L 573.73 1165.36 L 573.73 1166.15 L 573.73 1166.71 L 573.73 1166.90 L 573.73 1167.42 L 573.73 1167.64 L 573.73 1168.37 L 573.73 1170.35 L 573.73 1170.39 L 573.73 1173.58 L 573.73 1174.32 L 573.73 1175.13 L 573.73 1175.14 L 573.73 1175.23 L 573.73 1176.04 L 573.73 1176.16 L 573.73 1176.18 L 573.73 1176.23 L 573.73 1176.80 L 573.73 1177.33 L 573.73 1177.74 L 573.73 1178.91 L 573.73 1179.57 L 573.73 1180.04 L 573.73 1180.64 L 573.73 1181.86 L 573.73 1182.82 L 573.73 1182.92 L 573.73 1183.20 L 573.73 1183.75 L 573.73 1184.56 L 573.73 1185.92 L 573.73 1186.57 L 573.73 1186.81 L 573.73 1187.02 L 573.73 1187.03 L 573.73 1187.61 L 573.73 1188.68 L 573.73 1188.92 L 573.73 1189.36 L 573.73 1189.55 L 573.73 1189.81 L 573.73 1190.07 L 573.73 1191.54 L 573.73 1192.41 L 573.73 1192.57 L 573.73 1193.48 L 573.73 1194.04 L 573.73 1194.54 L 573.73 1194.61 L 573.73 1194.96 L 573.73 1195.61 L 573.73 1195.74 L 573.73 1195.76 L 573.73 1196.45 L 573.73 1196.48 L 573.73 1196.59 L 573.73 1197.05 L 573.73 1197.19 L 573.73 1198.61 L 573.73 1198.64 L 573.73 1199.29 L 573.73 1199.62 L 573.73 1200.09 L 573.73 1200.48 L 573.73 1201.02 L 573.73 1201.12 L 573.73 1201.93 L 573.73 1201.93 L 573.73 1202.49 L 573.73 1202.52 L 573.73 1202.67 L 573.73 1203.35 L 573.73 1203.83 L 573.73 1206.86 L 573.73 1206.89 L 573.73 1207.79 L 573.73 1207.97 L 573.73 1208.33 L 573.73 1208.62 L 573.73 1210.90 L 573.73 1211.13 L 573.73 1211.19 L 573.73 1211.98 L 573.73 1212.32 L 573.73 1212.48 L 573.73 1212.93 L 573.73 1213.32 L 573.73 1213.46 L 573.73 1214.36 L 573.73 1214.54 L 573.73 1214.78 L 573.73 1216.14 L 573.73 1217.37 L 573.73 1218.70 L 573.73 1221.29 L 573.73 1221.33 L 573.73 1221.37 L 573.73 1222.20 L 573.73 1223.13 L 573.73 1223.33 L 573.73 1223.51 L 573.73 1223.71 L 573.73 1223.71 L 573.73 1224.20 L 573.73 1224.67 L 573.73 1224.89 L 573.73 1225.41 L 573.73 1226.44 L 573.73 1226.90 L 573.73 1227.43 L 573.73 1227.57 L 573.73 1227.81 L 573.73 1228.35 L 573.73 1228.40 L 573.73 1228.76 L 573.73 1230.12 L 573.73 1230.28 L 573.73 1230.45 L 573.73 1230.92 L 573.73 1231.12 L 573.73 1231.33 L 573.73 1232.86 L 573.73 1233.76 L 573.73 1234.56 L 573.73 1235.06 L 573.73 1235.38 L 573.73 1235.67 L 573.73 1237.34 L 573.73 1237.50 L 573.73 1237.99 L 573.73 1239.28 L 573.73 1239.45 L 573.73 1239.54 L 573.67 1240.14 L 551.08 1270.39 L 551.08 1276.07 L 551.08 1276.72 L 551.08 1276.74 L 551.08 1277.63 L 551.08 1277.96 L 551.08 1278.40 L 551.08 1278.47 L 551.08 1278.51 L 551.08 1278.59 L 551.08 1278.80 L 551.08 1280.40 L 551.08 1280.59 L 551.08 1280.83 L 551.08 1281.47 L 551.08 1281.49 L 551.08 1283.86 L 551.08 1284.16 L 551.08 1284.41 L 551.08 1284.56 L 551.08 1284.77 L 551.08 1285.00 L 551.08 1285.15 L 551.08 1285.78 L 551.08 1285.79 L 551.08 1286.06 L 551.08 1286.70 L 551.08 1287.54 L 551.08 1288.70 L 551.08 1289.07 L 551.08 1289.26 L 551.08 1289.60 L 551.08 1289.88 L 551.08 1290.05 L 551.08 1290.35 L 551.08 1290.45 L 551.08 1290.87 L 551.08 1291.47 L 551.08 1293.00 L 551.08 1293.45 L 551.08 1296.03 L 551.08 1296.30 L 551.08 1298.04 L 551.08 1298.31 L 551.08 1298.78 L 551.08 1299.31 L 551.08 1299.75 L 551.08 1299.75 L 551.08 1300.08 L 551.08 1300.13 L 551.08 1301.05 L 551.08 1301.18 L 551.08 1301.21 L 551.08 1301.60 L 551.08 1301.64 L 551.08 1301.75 L 551.08 1302.47 L 551.08 1303.03 L 551.08 1303.28 L 551.08 1304.34 L 551.08 1305.06 L 551.08 1305.93 L 551.08 1306.00 L 551.08 1306.53 L 551.08 1306.60 L 551.08 1306.96 L 551.08 1307.80 L 551.08 1308.98 L 551.08 1309.18 L 551.08 1310.10 L 551.08 1311.29 L 551.08 1311.39 L 551.08 1311.50 L 551.08 1312.04 L 551.08 1313.40 L 551.08 1313.90 L 551.08 1314.28 L 551.08 1314.48 L 551.08 1315.32 L 551.08 1315.39 L 551.08 1315.42 L 551.08 1315.57 L 551.08 1315.65 L 551.08 1315.74 L 551.08 1316.07 L 551.08 1316.15 L 551.08 1316.65 L 551.08 1316.76 L 551.08 1317.22 L 551.08 1317.35 L 551.08 1317.50 L 551.08 1317.88 L 551.08 1318.02 L 551.08 1318.72 L 551.08 1319.22 L 551.08 1319.27 L 550.95 1320.20 L 549.41 1320.33 L 549.27 1320.33 L 549.09 1320.33 L 548.92 1320.33 L 548.51 1320.33 L 548.28 1320.33 L 548.25 1320.33 L 547.73 1320.33 L 547.66 1320.33 L 547.49 1320.33 L 547.17 1320.33 L 546.70 1320.33 L 546.57 1320.33 L 546.20 1320.33 L 545.68 1320.33 L 545.64 1320.33 L 545.57 1320.33 L 545.39 1320.33 L 544.86 1320.33 L 544.23 1320.33 L 542.81 1320.33 L 542.47 1320.33 L 542.23 1320.33 L 542.05 1320.33 L 541.60 1320.33 L 541.07 1320.33 L 540.76 1320.33 L 539.04 1320.33 L 538.50 1320.33 L 537.86 1320.33 L 536.80 1320.33 L 535.96 1320.33 L 535.63 1320.33 L 535.31 1320.33 L 534.43 1320.33 L 534.22 1320.33 L 533.62 1320.33 L 533.13 1320.33 L 532.67 1320.33 L 532.44 1320.33 L 531.78 1320.33 L 531.58 1320.33 L 531.50 1320.33 L 531.26 1320.33 L 530.84 1320.33 L 529.71 1320.33 L 529.20 1320.33 L 526.61 1320.33 L 526.61 1320.33 L 526.58 1320.33 L 525.61 1320.33 L 524.96 1320.33 L 524.66 1320.33 L 524.22 1320.33 L 523.90 1320.33 L 522.75 1320.33 L 521.95 1320.33 L 521.72 1320.33 L 521.21 1320.33 L 519.66 1320.33 L 519.37 1320.33 L 519.11 1320.33 L 517.20 1320.33 L 516.59 1320.33 L 516.54 1320.33 L 516.47 1320.33 L 516.02 1320.33 L 515.97 1320.33 L 515.88 1320.33 L 515.56 1320.33 L 515.20 1320.33 L 514.47 1320.33 L 514.47 1320.33 L 514.07 1320.33 L 513.64 1320.33 L 513.35 1320.33 L 513.12 1320.33 L 512.86 1320.33 L 512.80 1320.33 L 512.62 1320.33 L 512.40 1320.33 L 512.04 1320.33 L 511.51 1320.33 L 511.14 1320.33 L 510.87 1320.33 L 509.90 1320.33 L 509.65 1320.33 L 507.19 1320.33 L 507.08 1320.33 L 506.23 1320.33 L 504.29 1320.33 L 503.78 1320.33 L 503.43 1320.33 L 502.65 1320.33 L 502.63 1320.33 L 502.34 1320.33 L 501.68 1320.33 L 501.61 1320.33 L 501.56 1320.33 L 500.75 1320.33 L 500.38 1320.33 L 499.98 1320.33 L 499.73 1320.33 L 499.43 1320.33 L 498.29 1320.33 L 498.20 1320.33 L 498.18 1320.33 L 498.15 1320.33 L 497.73 1320.33 L 497.43 1320.33 L 497.28 1320.33 L 497.19 1320.33 L 497.13 1320.33 L 496.58 1320.33 L 495.98 1320.33 L 495.88 1320.33 L 495.24 1320.33 L 494.47 1320.33 L 494.25 1320.33 L 493.62 1320.33 L 492.60 1320.33 L 492.03 1320.33 L 491.69 1320.33 L 491.65 1320.33 L 490.53 1320.33 L 490.44 1320.33 L 489.86 1320.33 L 489.50 1320.33 L 489.29 1320.33 L 489.07 1320.33 L 489.04 1320.33 L 488.50 1320.33 L 488.37 1320.33 L 487.83 1320.33 L 487.21 1320.33 L 487.18 1320.33 L 486.90 1320.33 L 486.47 1320.33 L 485.35 1320.33 L 484.90 1320.33 L 484.69 1320.33 L 483.56 1320.33 L 482.88 1320.33 L 482.50 1320.33 L 482.44 1320.33 L 482.30 1320.33 L 482.13 1320.33 L 482.01 1320.33 L 481.17 1320.33 L 480.67 1320.33 L 480.58 1320.33 L 480.02 1320.33 L 479.94 1320.33 L 479.40 1320.33 L 479.29 1320.33 L 476.77 1320.33 L 476.50 1320.33 L 476.06 1320.33 L 475.93 1320.33 L 475.03 1320.33 L 474.41 1320.33 L 474.27 1320.33 L 474.22 1320.33 L 474.02 1320.33 L 473.53 1320.33 L 472.43 1320.33 L 472.29 1320.33 L 471.92 1320.33 L 470.90 1320.33 L 469.56 1320.33 L 469.39 1320.33 L 469.22 1320.33 L 469.06 1320.33 L 468.87 1320.33 L 468.67 1320.33 L 468.44 1320.33 L 467.92 1320.33 L 467.83 1320.33 L 467.73 1320.33 L 467.39 1320.33 L 467.29 1320.33 L 466.55 1320.33 L 465.74 1320.33 L 465.67 1320.33 L 464.96 1320.33 L 464.30 1320.33 L 463.66 1320.33 L 462.97 1320.33 L 462.90 1320.33 L 462.82 1320.33 L 462.40 1320.33 L 462.26 1320.33 L 462.22 1320.33 L 462.13 1320.33 L 460.30 1320.33 L 459.43 1320.33 L 456.58 1320.33 L 455.07 1320.33 L 454.70 1320.33 L 454.63 1320.33 L 454.22 1320.33 L 453.77 1320.33 L 453.49 1320.33 L 452.90 1320.33 L 452.86 1320.33 L 452.54 1320.33 L 452.39 1320.33 L 451.42 1320.33 L 450.63 1320.33 L 450.47 1320.33 L 450.13 1320.33 L 449.99 1320.33 L 449.14 1320.33 L 449.12 1320.33 L 449.11 1320.33 L 448.75 1320.33 L 448.32 1320.33 L 446.84 1320.33 L 446.50 1320.33 L 446.41 1320.33 L 446.12 1320.33 L 445.45 1320.33 L 445.25 1320.33 L 444.47 1320.33 L 444.40 1320.33 L 443.11 1320.33 L 442.82 1320.33 L 442.44 1320.33 L 441.06 1320.33 L 440.96 1320.33 L 440.42 1320.33 L 440.27 1320.33 L 440.22 1320.33 L 440.02 1320.33 L 439.84 1320.33 L 438.91 1320.33 L 438.27 1320.33 L 437.52 1320.33 L 437.14 1320.33 L 437.00 1320.33 L 436.42 1320.33 L 436.24 1320.33 L 435.81 1320.33 L 434.56 1320.33 L 433.55 1320.33 L 433.49 1320.33 L 433.26 1320.33 L 433.22 1320.33 L 432.55 1320.33 L 432.35 1320.33 L 432.35 1320.33 L 431.64 1320.33 L 429.90 1320.33 L 429.44 1320.33 L 428.97 1320.33 L 428.74 1320.33 L 428.65 1320.33 L 427.78 1320.33 L 427.22 1320.33 L 427.16 1320.33 L 427.12 1320.33 L 427.04 1320.33 L 426.41 1320.33 L 426.35 1320.33 L 425.82 1320.33 L 424.25 1320.33 L 424.23 1320.33 L 423.25 1320.33 L 423.09 1320.33 L 422.64 1320.33 L 421.79 1320.33 L 421.45 1320.33 L 421.39 1320.33 L 421.31 1320.33 L 420.74 1320.33 L 420.62 1320.33 L 419.90 1320.33 L 419.88 1320.33 L 418.85 1320.33 L 417.52 1320.33 L 416.95 1320.33 L 416.50 1320.33 L 416.17 1320.33 L 415.29 1320.33 L 414.53 1320.33 L 414.32 1320.33 L 412.82 1320.33 L 412.79 1320.33 L 412.55 1320.33 L 411.00 1320.33 L 410.89 1320.33 L 410.84 1320.33 L 410.69 1320.33 L 410.05 1320.33 L 409.32 1320.33 L 409.18 1320.33 L 409.13 1320.33 L 408.82 1320.33 L 408.09 1320.33 L 407.98 1320.33 L 407.87 1320.33 L 405.33 1320.33 L 404.73 1320.33 L 404.36 1320.33 L 403.64 1320.33 L 403.31 1320.33 L 403.23 1320.33 L 402.45 1320.33 L 402.27 1320.33 L 401.76 1320.33 L 401.32 1320.33 L 401.13 1320.33 L 401.02 1320.33 L 400.52 1320.33 L 399.57 1320.33 L 399.46 1320.33 L 398.80 1320.33 L 398.31 1320.33 L 397.67 1320.33 L 397.60 1320.33 L 396.77 1320.33 L 396.62 1320.33 L 396.40 1320.33 L 395.64 1320.33 L 395.23 1320.33 L 394.57 1320.33 L 393.21 1320.33 L 393.00 1320.33 L 392.86 1320.33 L 392.55 1320.33 L 392.43 1320.33 L 392.03 1320.33 L 391.96 1320.33 L 391.60 1320.33 L 390.68 1320.33 L 390.30 1320.33 L 389.69 1320.33 L 389.53 1320.33 L 389.26 1320.33 L 387.76 1320.33 L 387.52 1320.33 L 386.91 1320.33 L 386.75 1320.33 L 386.29 1320.33 L 386.25 1320.33 L 386.07 1320.33 L 383.88 1320.33 L 383.77 1320.33 L 382.32 1320.33 L 381.75 1320.33 L 380.40 1320.33 L 380.22 1320.33 L 380.09 1320.33 L 379.33 1320.33 L 379.25 1320.33 L 378.80 1320.33 L 377.65 1320.33 L 377.24 1320.33 L 376.98 1320.33 L 376.54 1320.33 L 376.34 1320.33 L 376.01 1320.33 L 375.63 1320.33 L 375.34 1320.33 L 375.30 1320.33 L 375.01 1320.33 L 374.97 1320.33 L 374.35 1320.33 L 373.84 1320.33 L 373.65 1320.33 L 373.55 1320.33 L 373.10 1320.33 L 372.78 1320.33 L 372.41 1320.33 L 372.14 1320.33 L 371.58 1320.33 L 371.07 1320.33 L 370.64 1320.33 L 370.34 1320.33 L 370.24 1320.33 L 367.95 1320.33 L 367.69 1320.33 L 367.17 1320.33 L 365.91 1320.33 L 365.62 1320.33 L 365.52 1320.33 L 365.18 1320.33 L 365.07 1320.33 L 364.66 1320.33 L 364.05 1320.33 L 363.74 1320.33 L 363.38 1320.33 L 363.30 1320.33 L 362.54 1320.33 L 360.77 1320.33 L 360.38 1320.33 L 359.79 1320.33 L 357.28 1320.33 L 356.48 1320.33 L 356.32 1320.33 L 356.24 1320.33 L 353.92 1320.33 L 352.90 1320.33 L 352.30 1320.33 L 352.01 1320.33 L 351.96 1320.33 L 351.80 1320.33 L 351.44 1320.33 L 351.26 1320.33 L 350.60 1320.33 L 350.33 1320.33 L 349.78 1320.33 L 349.67 1320.33 L 349.35 1320.33 L 348.85 1320.33 L 348.32 1320.33 L 347.55 1320.33 L 347.44 1320.33 L 346.45 1320.33 L 346.22 1320.33 L 344.81 1320.33 L 344.52 1320.33 L 343.24 1320.33 L 342.83 1320.33 L 342.75 1320.33 L 341.59 1320.33 L 340.86 1320.33 L 340.63 1320.33 L 340.42 1320.33 L 340.13 1320.33 L 340.08 1320.33 L 339.44 1320.33 L 339.29 1320.33 L 338.82 1320.33 L 338.53 1320.33 L 338.52 1320.33 L 338.29 1320.33 L 337.96 1320.33 L 337.14 1320.33 L 336.60 1320.33 L 336.50 1320.33 L 336.28 1320.33 L 335.66 1320.33 L 335.22 1320.33 L 334.95 1320.33 L 333.06 1320.33 L 331.74 1320.33 L 331.64 1320.33 L 329.72 1320.33 L 329.51 1320.33 L 329.40 1320.33 L 329.13 1320.33 L 328.77 1320.33 L 327.96 1320.33 L 327.83 1320.33 L 326.74 1320.33 L 326.73 1320.33 L 326.43 1320.33 L 325.69 1320.33 L 324.82 1320.33 L 324.50 1320.33 L 324.25 1320.33 L 323.32 1320.33 L 322.25 1320.33 L 320.97 1320.33 L 320.92 1320.33 L 319.76 1320.33 L 319.07 1320.33 L 319.00 1320.33 L 317.83 1320.33 L 317.83 1320.33 L 316.68 1320.33 L 315.97 1320.33 L 315.72 1320.33 L 315.61 1320.33 L 315.19 1320.33 L 315.02 1320.33 L 315.01 1320.33 L 314.57 1320.33 L 312.70 1320.33 L 311.98 1320.33 L 311.45 1320.33 L 311.32 1320.33 L 310.46 1320.33 L 310.41 1320.33 L 309.82 1320.33 L 309.39 1320.33 L 308.97 1320.33 L 308.46 1320.33 L 308.25 1320.33 L 307.75 1320.33 L 307.45 1320.33 L 306.98 1320.33 L 306.86 1320.33 L 306.73 1320.33 L 306.46 1320.33 L 306.43 1320.33 L 305.05 1320.33 L 304.93 1320.33 L 304.55 1320.33 L 303.66 1320.33 L 303.52 1320.33 L 302.38 1320.33 L 301.32 1320.33 L 301.08 1320.33 L 300.56 1320.33 L 299.44 1320.33 L 299.03 1320.33 L 298.04 1320.33 L 296.78 1320.33 L 295.82 1320.33 L 294.73 1320.33 L 294.36 1320.33 L 293.77 1320.33 L 293.70 1320.33 L 293.05 1320.33 L 292.03 1320.33 L 291.90 1320.33 L 291.32 1320.33 L 290.25 1320.33 L 289.79 1320.33 L 289.49 1320.33 L 288.39 1320.33 L 288.39 1320.33 L 288.23 1320.33 L 287.53 1320.33 L 287.38 1320.33 L 287.12 1320.33 L 286.99 1320.33 L 286.60 1320.33 L 286.49 1320.33 L 285.79 1320.33 L 285.47 1320.33 L 285.17 1320.33 L 284.18 1320.33 L 283.64 1320.33 L 283.35 1320.33 L 281.50 1320.33 L 279.50 1320.33 L 279.36 1320.33 L 279.22 1320.33 L 278.72 1320.33 L 278.71 1320.33 L 277.35 1320.33 L 275.95 1320.33 L 275.41 1320.33 L 274.83 1320.33 L 273.90 1320.33 L 273.78 1320.33 L 273.29 1320.33 L 272.91 1320.33 L 272.82 1320.33 L 272.60 1320.33 L 271.59 1320.33 L 271.23 1320.33 L 270.93 1320.33 L 269.64 1320.33 L 268.32 1320.33 L 268.25 1320.33 L 266.18 1320.33 L 264.52 1320.33 L 261.94 1320.33 L 261.90 1320.33 L 261.57 1320.33 L 261.47 1320.33 L 261.41 1320.33 L 261.14 1320.33 L 260.02 1320.33 L 259.44 1320.33 L 258.46 1320.33 L 256.77 1320.33 L 256.19 1320.33 L 256.11 1320.33 L 255.62 1320.33 L 255.49 1320.33 L 254.80 1320.33 L 254.40 1320.33 L 253.30 1320.33 L 252.56 1320.33 L 251.04 1320.33 L 249.70 1320.33 L 246.59 1320.33 L 245.52 1320.33 L 245.26 1320.33 L 245.25 1320.33 L 245.22 1320.33 L 244.80 1320.33 L 244.19 1320.33 L 243.63 1320.33 L 242.44 1320.33 L 240.60 1320.33 L 240.58 1320.33 L 239.44 1320.33 L 239.23 1320.33 L 238.97 1320.33 L 238.45 1320.33 L 237.16 1320.33 L 234.47 1320.33 L 233.28 1320.33 L 232.62 1320.33 L 232.31 1320.33 L 230.76 1320.33 L 230.55 1320.33 L 228.03 1320.33 L 227.36 1320.33 L 227.05 1320.33 L 226.73 1320.33 L 226.55 1320.33 L 225.82 1320.33 L 225.68 1320.33 L 225.17 1320.33 L 224.33 1320.33 L 223.07 1320.33 L 220.98 1320.33 L 220.56 1320.33 L 220.18 1320.33 L 219.79 1320.33 L 219.10 1320.33 L 218.84 1320.33 L 218.75 1320.33 L 218.59 1320.33 L 217.59 1320.33 L 217.15 1320.33 L 216.77 1320.33 L 215.06 1320.33 L 214.29 1320.33 L 213.09 1320.33 L 212.92 1320.33 L 212.61 1320.33 L 212.03 1320.33 L 211.47 1320.33 L 211.44 1320.33 L 211.00 1320.33 L 210.76 1320.33 L 209.96 1320.33 L 209.92 1320.33 L 209.89 1320.33 L 209.62 1320.33 L 208.95 1320.33 L 207.91 1320.33 L 207.33 1320.33 L 206.74 1320.33 L 205.51 1320.33 L 205.38 1320.33 L 205.10 1320.33 L 204.50 1320.33 L 203.88 1320.33 L 203.69 1320.33 L 203.18 1320.33 L 201.70 1320.33 L 201.01 1320.33 L 200.13 1320.33 L 200.12 1320.33 L 199.24 1320.33 L 198.88 1320.33 L 197.61 1320.33 L 196.73 1320.33 L 196.65 1320.33 L 195.72 1320.33 L 195.32 1320.33 L 195.22 1320.33 L 194.83 1320.33 L 194.34 1320.33 L 193.37 1320.33 L 192.26 1320.33 L 192.17 1320.33 L 191.71 1320.33 L 191.39 1320.33 L 191.27 1320.33 L 189.59 1320.33 L 189.08 1320.33 L 188.20 1320.33 L 187.84 1320.33 L 186.28 1320.33 L 185.89 1320.33 L 185.77 1320.33 L 185.06 1320.33 L 185.01 1320.33 L 184.88 1320.33 L 184.74 1320.33 L 184.26 1320.33 L 183.62 1320.33 L 183.57 1320.33 L 183.17 1320.33 L 182.61 1320.33 L 182.33 1320.33 L 180.98 1320.33 L 180.50 1320.33 L 178.76 1320.33 L 178.47 1320.33 L 177.74 1320.33 L 176.94 1320.33 L 176.67 1320.33 L 176.65 1320.33 L 175.54 1320.33 L 175.51 1320.33 L 175.33 1320.33 L 175.23 1320.33 L 174.31 1320.33 L 174.24 1320.33 L 172.85 1320.33 L 172.72 1320.33 L 172.27 1320.33 L 171.43 1320.33 L 171.17 1320.33 L 171.12 1320.33 L 170.51 1320.33 L 169.99 1320.33 L 169.68 1320.33 L 167.64 1320.33 L 166.89 1320.33 L 166.14 1320.33 L 166.11 1320.33 L 164.29 1320.33 L 164.25 1320.33 L 163.93 1320.33 L 161.91 1320.33 L 159.86 1320.33 L 158.77 1320.33 L 158.68 1320.33 L 158.30 1320.33 L 157.63 1320.33 L 157.53 1320.33 L 157.28 1320.33 L 156.53 1320.33 L 156.36 1320.33 L 155.48 1320.33 L 155.01 1320.33 L 154.55 1320.33 L 152.88 1320.33 L 152.46 1320.33 L 151.43 1320.33 L 150.77 1320.33 L 150.77 1320.33 L 150.04 1320.33 L 149.74 1320.33 L 149.51 1320.33 L 148.01 1320.33 L 147.90 1320.33 L 147.33 1320.33 L 145.74 1320.33 L 144.62 1320.33 L 144.47 1320.33 L 143.97 1320.33 L 143.20 1320.33 L 142.42 1320.33 L 142.04 1320.33 L 140.70 1320.33 L 140.22 1320.33 L 137.27 1320.33 L 134.49 1320.33 L 133.76 1320.33 L 130.99 1320.33 L 128.25 1320.33 L 127.33 1320.33 L 126.21 1320.33 L 123.74 1320.33 L 122.51 1320.33 L 118.58 1320.33 L 118.42 1320.33 L 117.55 1320.33 L 115.02 1320.33 L 114.08 1320.33 L 113.00 1320.33 L 112.64 1320.33 L 111.34 1320.33 L 110.20 1320.33 L 110.14 1320.33 L 109.13 1320.33 L 106.66 1320.33 L 105.70 1320.33 L 104.73 1320.33 L 103.62 1320.33 L 103.52 1320.33 L 99.79 1320.33 L 99.71 1320.33 L 98.70 1320.33 L 97.86 1320.33 L 92.50 1320.33 L 92.39 1320.33 L 91.86 1320.33 L 89.91 1320.33 L 89.66 1320.33 L 87.59 1320.33 L 87.23 1320.33 L 86.94 1320.33 L 85.94 1320.33 L 85.40 1320.33 L 84.28 1320.33 L 80.08 1320.33 L 77.50 1320.33 L 76.03 1320.33 L 76.02 1320.33 L 74.68 1320.33 L 74.14 1320.33 L 74.02 1320.33 L 72.10 1320.33 L 72.09 1320.33 L 70.01 1320.33 L 69.78 1320.33 L 69.04 1320.33 L 68.81 1320.33 L 68.04 1320.33 L 67.35 1320.33 L 67.09 1320.33 L 66.62 1320.33 L 65.66 1320.33 L 62.93 1320.33 L 62.45 1320.33 L 61.52 1320.33 L 61.33 1320.33 L 61.15 1320.33 L 59.96 1320.33 L 59.36 1320.33 L 59.03 1320.33 L 58.90 1320.33 L 58.67 1320.33 L 58.11 1320.33 L 57.95 1320.33 L 57.36 1320.33 L 57.03 1320.33 L 55.73 1320.33 L 55.41 1320.33 L 55.31 1320.33 L 55.29 1320.33 L 54.80 1320.33 L 54.71 1320.33 L 54.54 1320.33 L 53.99 1320.33 L 53.85 1320.33 L 53.52 1320.33 L 53.41 1320.33 L 52.54 1320.33 L 51.16 1320.33 L 49.73 1320.33 L 49.59 1320.33 L 47.88 1320.33 L 47.70 1320.33 L 47.17 1320.33 L 46.18 1320.33 L 44.77 1320.33 L 44.64 1320.33 L 44.48 1320.33 L 44.46 1320.33 L 44.08 1320.33 L 42.87 1320.33 L 42.84 1320.33 L 41.89 1320.33 L 40.95 1320.33 L 40.71 1320.33 L 40.21 1320.33 L 39.74 1320.33 L 37.84 1320.33 L 37.76 1320.33 L 37.42 1320.33 L 36.93 1320.33 L 36.10 1320.33 L 35.51 1320.33 L 35.16 1320.33 L 34.84 1320.33 L 34.28 1320.33 L 34.08 1320.33 L 31.57 1320.33 L 31.51 1320.33 L 31.24 1320.33 L 31.08 1320.33 L 28.63 1320.33 L 27.39 1320.33 L 26.45 1320.33 L 26.06 1320.33 L 25.98 1320.33 L 25.47 1320.33 L 23.62 1320.33 L 22.66 1320.33 L 21.32 1320.33 L 21.09 1320.33 L 20.88 1320.33 L 20.40 1320.33 L 19.37 1320.33 L 19.33 1320.33 L 18.49 1320.33 L 17.89 1320.33 L 17.03 1320.33 L 16.39 1320.33 L 16.32 1320.33 L 16.19 1320.33 L 15.44 1320.33 L 15.11 1320.33 L 14.09 1320.33 L 12.06 1320.33 L 10.23 1320.33 L 10.06 1320.33 L 9.93 1320.33 L 9.90 1320.33 L 9.48 1320.33 L 9.39 1320.33 L 9.37 1320.33 L 9.26 1320.33 L 8.72 1320.33 L 8.23 1320.33 L 5.93 1320.33 L 4.99 1320.33 L 4.67 1320.33 L 4.60 1320.33 L 4.14 1320.33 L 3.85 1320.33 L 2.39 1320.33 L 2.19 1320.33 L 2.18 1320.33 L 1.84 1320.33 L 0.83 1320.33 L 0.82 1320.33 L 0.18 1320.33 L 0.00 1320.18 L 0.00 1319.10 L 0.00 1319.02 L 0.00 1317.66 L 0.00 1316.01 L 0.00 1315.96 L 0.00 1315.72 L 0.00 1315.08 L 0.00 1314.36 L 0.00 1314.34 L 0.00 1312.00 L 0.00 1311.18 L 0.00 1307.99 L 0.00 1306.86 L 0.00 1304.90 L 0.00 1303.60 L 0.00 1303.51 L 0.00 1303.44 L 0.00 1302.56 L 0.00 1302.46 L 0.00 1301.96 L 0.00 1301.94 L 0.00 1301.15 L 0.00 1300.27 L 0.00 1299.83 L 0.00 1298.02 L 0.00 1297.45 L 0.00 1294.62 L 0.00 1294.35 L 0.00 1293.11 L 0.00 1292.88 L 0.00 1292.52 L 0.00 1292.25 L 0.00 1291.85 L 0.00 1291.48 L 0.00 1290.54 L 0.00 1290.45 L 0.00 1289.88 L 0.00 1289.83 L 0.00 1289.09 L 0.00 1288.73 L 0.00 1288.37 L 0.00 1287.21 L 0.00 1286.01 L 0.00 1280.34 L 0.00 1280.26 L 0.00 1280.11 L 0.00 1280.04 L 0.00 1279.51 L 0.00 1279.06 L 0.00 1279.03 L 0.00 1278.86 L 0.00 1277.90 L 0.00 1272.78 L 0.00 1272.66 L 0.00 1272.48 L 0.00 1270.86 L 0.00 1269.52 L 0.00 1269.49 L 0.00 1265.75 L 0.00 1264.35 L 0.00 1263.74 L 0.00 1260.89 L 0.00 1259.02 L 0.00 1257.25 L 0.00 1257.08 L 0.00 1256.02 L 0.00 1255.44 L 0.00 1255.36 L 0.00 1248.06 L 0.00 1245.78 L 0.00 1245.77 L 0.00 1245.76 L 0.00 1245.60 L 0.00 1243.50 L 0.00 1243.34 L 0.00 1242.97 L 0.00 1242.50 L 0.00 1241.06 L 0.00 1240.02 L 0.00 1239.89 L 0.00 1233.45 L 0.00 1231.58 L 0.00 1231.20 L 0.00 1229.29 L 0.00 1228.67 L 0.00 1228.63 L 0.00 1228.20 L 0.00 1227.74 L 0.00 1226.96 L 0.00 1226.17 L 0.00 1225.21 L 0.00 1223.86 L 0.00 1222.64 L 0.00 1220.02 L 0.00 1218.66 L 0.00 1216.09 L 0.00 1215.44 L 0.00 1215.02 L 0.00 1210.68 L 0.00 1207.46 L 0.00 1206.06 L 0.00 1203.56 L 0.00 1203.35 L 0.00 1201.53 L 0.00 1200.91 L 0.00 1199.01 L 0.00 1197.77 L 0.00 1196.81 L 0.00 1194.40 L 0.00 1193.03 L 0.00 1191.62 L 0.00 1190.87 L 0.00 1190.46 L 0.00 1190.35 L 0.00 1189.97 L 0.00 1189.50 L 0.00 1187.98 L 0.00 1187.03 L 0.00 1185.85 L 0.00 1184.29 L 0.00 1183.67 L 0.00 1181.76 L 0.00 1181.26 L 0.00 1178.51 L 0.00 1176.64 L 0.00 1173.42 L 0.00 1173.39 L 0.00 1170.36 L 0.00 1168.46 L 0.00 1167.96 L 0.00 1166.94 L 0.00 1166.09 L 0.00 1165.84 L 0.00 1164.72 L 0.00 1162.64 L 0.00 1161.18 L 0.00 1161.03 L 0.00 1160.47 L 0.00 1158.47 L 0.00 1158.15 L 0.00 1157.69 L 0.00 1156.68 L 0.00 1155.49 L 0.00 1154.21 L 0.00 1153.63 L 0.00 1153.41 L 0.00 1153.37 L 0.00 1149.92 L 0.00 1149.28 L 0.00 1149.12 L 0.00 1147.67 L 0.00 1146.67 L 0.00 1146.11 L 0.00 1144.36 L 0.00 1141.90 L 0.00 1141.02 L 0.00 1140.41 L 0.00 1138.78 L 0.00 1138.25 L 0.00 1137.88 L 0.00 1137.77 L 0.00 1136.39 L 0.00 1135.52 L 0.00 1135.43 L 0.00 1134.11 L 0.00 1133.65 L 0.00 1133.22 L 0.00 1131.90 L 0.00 1130.93 L 0.00 1130.39 L 0.00 1130.37 L 0.00 1130.35 L 0.00 1129.97 L 0.00 1129.88 L 0.00 1129.86 L 0.00 1129.38 L 0.00 1128.52 L 0.00 1127.54 L 0.00 1127.27 L 0.00 1126.97 L 0.00 1126.60 L 0.00 1125.65 L 0.00 1125.38 L 0.00 1124.28 L 0.00 1123.48 L 0.00 1122.71 L 0.00 1121.15 L 0.00 1120.13 L 0.00 1119.50 L 0.00 1118.97 L 0.00 1118.72 L 0.00 1118.70 L 0.00 1117.88 L 0.00 1117.84 L 0.00 1117.68 L 0.00 1117.40 L 0.00 1116.84 L 0.00 1116.42 L 0.00 1115.61 L 0.00 1114.14 L 0.00 1113.38 L 0.00 1113.30 L 0.00 1112.43 L 0.00 1111.49 L 0.00 1111.46 L 0.00 1111.15 L 0.00 1110.91 L 0.00 1108.64 L 0.00 1107.96 L 0.00 1107.35 L 0.00 1106.92 L 0.00 1106.48 L 0.00 1106.46 L 0.00 1106.18 L 0.00 1105.74 L 0.00 1105.01 L 0.00 1104.61 L 0.00 1103.36 L 0.00 1102.69 L 0.00 1102.55 L 0.00 1102.44 L 0.00 1102.11 L 0.00 1101.63 L 0.00 1101.42 L 0.00 1100.71 L 0.00 1100.45 L 0.00 1099.32 L 0.00 1099.02 L 0.00 1098.70 L 0.00 1098.47 L 0.00 1098.38 L 0.00 1096.74 L 0.00 1095.90 L 0.00 1095.82 L 0.00 1094.94 L 0.00 1093.57 L 0.00 1093.32 L 0.00 1092.17 L 0.00 1091.69 L 0.00 1090.75 L 0.00 1090.58 L 0.00 1089.61 L 0.00 1085.41 L 0.00 1084.79 L 0.00 1084.46 L 0.00 1084.16 L 0.00 1084.07 L 0.00 1080.76 L 0.00 1080.68 L 0.00 1079.77 L 0.00 1078.24 L 0.00 1076.03 L 0.00 1073.11 L 0.00 1072.59 L 0.00 1071.35 L 0.00 1068.52 L 0.00 1067.66 L 0.00 1066.59 L 0.00 1064.21 L 0.00 1063.99 L 0.00 1060.80 L 0.00 1058.78 L 0.00 1058.39 L 0.00 1057.85 L 0.00 1056.48 L 0.00 1055.94 L 0.00 1054.94 L 0.00 1054.37 L 0.00 1053.88 L 0.00 1053.73 L 0.00 1053.70 L 0.00 1053.46 L 0.00 1051.00 L 0.00 1048.74 L 0.00 1047.63 L 0.00 1047.07 L 0.00 1046.75 L 0.00 1046.62 L 0.00 1045.86 L 0.00 1045.83 L 0.00 1043.89 L 0.00 1042.54 L 0.00 1042.30 L 0.00 1041.67 L 0.00 1039.78 L 0.00 1039.45 L 0.00 1039.16 L 0.00 1035.72 L 0.00 1035.56 L 0.00 1034.91 L 0.00 1034.79 L 0.00 1029.75 L 0.00 1028.92 L 0.00 1028.83 L 0.00 1026.71 L 0.00 1023.55 L 0.00 1018.18 L 0.00 1017.76 L 0.00 1015.32 L 0.00 1014.78 L 0.00 1012.02 L 0.00 1009.92 L 0.00 1007.01 L 0.00 1006.68 L 0.00 1005.97 L 0.00 1005.43 L 0.00 1004.58 L 0.00 1003.95 L 0.00 1000.00 L 0.00 990.61 L 0.00 988.76 L 0.00 988.44 L 0.00 986.51 L 0.00 986.05 L 0.00 985.90 L 0.00 984.38 L 0.00 983.65 L 0.00 983.23 L 0.00 982.89 L 0.00 981.48 L 0.00 978.11 L 0.00 976.78 L 0.00 974.09 L 0.00 972.78 L 0.00 970.93 L 0.00 966.51 L 0.00 966.49 L 0.00 965.96 L 0.00 964.23 L 0.00 958.21 L 0.00 957.83 L 0.00 957.77 L 0.00 957.55 L 0.00 957.21 L 0.00 956.72 L 0.00 955.96 L 0.00 955.32 L 0.00 954.83 L 0.00 954.80 L 0.00 954.68 L 0.00 954.67 L 0.00 954.36 L 0.00 950.70 L 0.00 949.71 L 0.00 948.66 L 0.00 947.69 L 0.00 947.16 L 0.00 946.45 L 0.00 946.03 L 0.00 944.40 L 0.00 944.18 L 0.00 944.00 L 0.00 943.68 L 0.00 943.29 L 0.00 942.88 L 0.00 942.63 L 0.00 941.67 L 0.00 941.25 L 0.00 940.68 L 0.00 940.31 L 0.00 939.74 L 0.00 939.28 L 0.00 938.85 L 0.00 938.69 L 0.00 938.62 L 0.00 938.46 L 0.00 937.31 L 0.00 936.98 L 0.00 936.93 L 0.00 936.39 L 0.00 935.58 L 0.00 935.53 L 0.00 934.59 L 0.00 934.35 L 0.00 934.16 L 0.00 933.60 L 0.00 933.36 L 0.00 932.17 L 0.00 929.13 L 0.00 928.92 L 0.00 928.56 L 0.00 928.09 L 0.00 927.22 L 0.00 925.45 L 0.00 925.30 L 0.00 925.09 L 0.00 924.79 L 0.00 924.62 L 0.00 924.57 L 0.00 924.37 L 0.00 923.85 L 0.00 922.85 L 0.00 920.38 L 0.00 920.25 L 0.00 920.12 L 0.00 919.55 L 0.00 918.84 L 0.00 918.10 L 0.00 917.56 L 0.00 917.31 L 0.00 915.87 L 0.00 915.61 L 0.00 915.38 L 0.00 915.21 L 0.00 913.52 L 0.00 913.26 L 0.00 905.51 L 0.00 904.79 L 0.00 904.30 L 0.00 901.93 L 0.00 900.43 L 0.00 900.35 L 0.00 900.26 L 0.00 899.84 L 0.00 897.76 L 0.00 897.47 L 0.00 895.32 L 0.00 894.98 L 0.00 894.51 L 0.00 893.47 L 0.00 892.81 L 0.00 892.48 L 0.00 892.42 L 0.00 891.69 L 0.00 891.18 L 0.00 887.13 L 0.00 887.03 L 0.00 884.42 L 0.00 879.65 L 0.00 878.89 L 0.00 878.70 L 0.00 878.64 L 0.00 877.12 L 0.00 873.99 L 0.00 871.99 L 0.00 871.19 L 0.00 870.24 L 0.00 869.17 L 0.00 867.00 L 0.00 866.10 L 0.00 865.91 L 0.00 865.10 L 0.00 864.52 L 0.00 861.57 L 0.00 859.79 L 0.00 859.58 L 0.00 855.13 L 0.00 854.11 L 0.00 850.52 L 0.00 848.87 L 0.00 848.18 L 0.00 847.88 L 0.00 841.87 L 0.00 841.18 L 0.00 840.16 L 0.00 837.93 L 0.00 837.54 L 0.00 836.70 L 0.00 834.70 L 0.00 834.20 L 0.00 830.96 L 0.00 830.38 L 0.00 829.99 L 0.00 827.93 L 0.00 827.91 L 0.00 827.69 L 0.00 826.08 L 0.00 825.57 L 0.00 825.11 L 0.00 821.30 L 0.00 820.86 L 0.00 819.52 L 0.00 816.76 L 0.00 816.08 L 0.00 812.38 L 0.00 811.87 L 0.00 811.84 L 0.00 809.98 L 0.00 809.78 L 0.00 809.73 L 0.00 809.38 L 0.00 801.96 L 0.00 801.47 L 0.00 799.69 L 0.00 798.24 L 0.00 797.42 L 0.00 795.26 L 0.00 794.30 L 0.00 790.23 L 0.00 788.93 L 0.00 787.58 L 0.00 787.49 L 0.00 787.31 L 0.00 785.70 L 0.00 785.16 L 0.00 784.36 L 0.00 782.39 L 0.00 781.24 L 0.00 779.72 L 0.00 779.07 L 0.00 778.40 L 0.00 775.11 L 0.00 774.96 L 0.00 774.80 L 0.00 774.14 L 0.00 773.41 L 0.00 772.08 L 0.00 771.32 L 0.00 771.31 L 0.00 771.25 L 0.00 770.46 L 0.00 769.97 L 0.00 769.22 L 0.00 769.13 L 0.00 769.12 L 0.00 768.73 L 0.00 768.33 L 0.00 767.94 L 0.00 767.65 L 0.00 766.96 L 0.00 766.81 L 0.00 766.59 L 0.00 765.65 L 0.00 764.28 L 0.00 764.28 L 0.00 761.92 L 0.00 761.59 L 0.00 760.27 L 0.00 760.15 L 0.00 759.88 L 0.00 759.27 L 0.00 759.10 L 0.00 758.99 L 0.00 758.37 L 0.00 757.66 L 0.00 755.94 L 0.00 755.78 L 0.00 755.66 L 0.00 754.88 L 0.00 754.65 L 0.00 752.97 L 0.00 752.45 L 0.00 752.00 L 0.00 751.28 L 0.00 750.71 L 0.00 750.24 L 0.00 750.09 L 0.00 749.47 L 0.00 749.33 L 0.00 748.39 L 0.00 747.32 L 0.00 747.26 L 0.00 745.78 L 0.00 745.63 L 0.00 745.40 L 0.00 744.76 L 0.00 744.38 L 0.00 744.25 L 0.00 743.64 L 0.00 743.09 L 0.00 742.81 L 0.00 742.78 L 0.00 742.62 L 0.00 741.97 L 0.00 741.23 L 0.00 740.47 L 0.00 740.25 L 0.00 739.46 L 0.00 739.39 L 0.00 738.81 L 0.00 738.64 L 0.00 738.51 L 0.00 737.16 L 0.00 736.69 L 0.00 735.90 L 0.00 735.74 L 0.00 735.32 L 0.00 734.08 L 0.00 733.94 L 0.00 733.74 L 0.00 733.63 L 0.00 733.51 L 0.00 732.92 L 0.00 732.22 L 0.00 731.80 L 0.00 731.30 L 0.00 731.05 L 0.00 730.70 L 0.00 730.26 L 0.00 730.04 L 0.00 729.78 L 0.00 728.75 L 0.00 728.49 L 0.00 727.88 L 0.00 727.75 L 0.00 727.57 L 0.00 727.16 L 0.00 726.69 L 0.00 726.63 L 0.00 726.28 L 0.00 725.93 L 0.00 725.54 L 0.00 724.67 L 0.00 724.67 L 0.00 724.57 L 0.00 724.54 L 0.00 723.92 L 0.00 723.87 L 0.00 722.78 L 0.00 722.69 L 0.00 722.53 L 0.00 722.26 L 0.00 722.11 L 0.00 721.40 L 0.00 720.66 L 0.00 720.58 L 0.00 720.43 L 0.00 720.08 L 0.00 719.54 L 0.00 719.21 L 0.00 718.28 L 0.00 717.23 L 0.00 716.34 L 0.00 715.10 L 0.00 714.27 L 0.00 714.19 L 0.00 712.95 L 0.00 712.94 L 0.00 712.78 L 0.00 711.70 L 0.00 710.82 L 0.00 706.84 L 0.00 706.06 L 0.00 705.75 L 0.00 705.20 L 0.00 704.63 L 0.00 701.80 L 0.00 701.70 L 0.00 699.78 L 0.00 699.78 L 0.00 697.34 L 0.00 697.31 L 0.00 694.57 L 0.00 691.11 L 0.00 687.57 L 0.00 682.68 L 0.00 681.21 L 0.00 679.51 L 0.00 678.28 L 0.00 675.80 L 0.00 675.13 L 0.00 673.88 L 0.00 670.96 L 0.00 670.53 L 0.00 669.56 L 0.00 668.78 L 0.00 668.43 L 0.00 667.47 L 0.00 667.04 L 0.00 666.96 L 0.03 666.42 L 0.00 661.08 L 0.00 657.68 L 0.00 655.64 L 0.00 654.22 L 0.00 652.55 L 0.00 651.58 L 0.00 646.93 L 0.00 646.14 L 0.00 644.61 L 0.00 641.99 L 0.00 638.42 L 0.00 635.78 L 0.00 635.36 L 0.00 634.70 L 0.00 627.22 L 0.00 625.22 L 0.00 620.61 L 0.00 616.98 L 0.00 616.38 L 0.00 614.19 L 0.00 614.03 L 0.00 611.35 L 0.00 606.42 L 0.00 605.44 L 0.00 603.87 L 0.00 603.45 L 0.00 601.76 L 0.00 601.22 L 0.00 599.53 L 0.00 598.16 L 0.00 598.10 L 0.00 595.44 L 0.00 595.40 L 0.00 592.05 L 0.00 589.98 L 0.00 586.86 L 0.00 586.62 L 0.00 585.23 L 0.00 584.88 L 0.00 584.62 L 0.00 584.36 L 0.00 584.26 L 0.00 584.25 L 0.00 583.27 L 0.00 583.06 L 0.00 582.59 L 0.00 582.42 L 0.00 582.35 L 0.00 581.79 L 0.00 581.79 L 0.00 581.47 L 0.00 581.08 L 0.00 580.53 L 0.00 580.21 L 0.00 580.16 L 0.00 579.78 L 0.00 578.97 L 0.00 578.67 L 0.00 577.70 L 0.00 577.47 L 0.00 577.01 L 0.00 576.67 L 0.00 576.26 L 0.00 576.20 L 0.00 576.00 L 0.00 572.88 L 0.00 572.82 L 0.00 572.70 L 0.00 571.94 L 0.00 571.60 L 0.00 570.97 L 0.00 570.06 L 0.00 569.51 L 0.00 569.20 L 0.00 569.09 L 0.00 567.95 L 0.00 567.91 L 0.00 567.55 L 0.00 564.40 L 0.00 563.60 L 0.00 562.12 L 0.00 562.10 L 0.00 561.14 L 0.00 561.07 L 0.00 560.63 L 0.00 560.50 L 0.00 560.46 L 0.00 560.22 L 0.00 559.69 L 0.00 559.53 L 0.00 559.39 L 0.00 557.36 L 0.00 557.27 L 0.00 557.09 L 0.00 556.59 L 0.00 556.51 L 0.00 556.39 L 0.00 555.36 L 0.00 552.96 L 0.00 552.51 L 0.00 551.92 L 0.00 551.37 L 0.00 550.76 L 0.00 550.15 L 0.00 549.49 L 0.00 549.32 L 0.00 549.10 L 0.00 548.66 L 0.00 548.60 L 0.00 548.27 L 0.00 547.41 L 0.00 547.13 L 0.00 546.04 L 0.00 545.85 L 0.00 545.69 L 0.00 545.23 L 0.00 544.43 L 0.00 544.07 L 0.00 543.21 L 0.00 543.17 L 0.00 542.96 L 0.00 542.83 L 0.00 542.30 L 0.00 541.47 L 0.00 539.05 L 0.00 538.40 L 0.00 538.39 L 0.00 538.36 L 0.00 536.99 L 0.00 536.61 L 0.00 535.68 L 0.00 535.00 L 0.00 534.43 L 0.00 533.96 L 0.00 533.09 L 0.00 532.99 L 0.00 529.48 L 0.00 524.91 L 0.00 522.19 L 0.00 521.90 L 0.00 521.77 L 0.00 517.94 L 0.00 515.78 L 0.00 515.21 L 0.00 515.20 L 0.00 514.99 L 0.00 513.46 L 0.00 513.44 L 0.00 513.15 L 0.00 513.07 L 0.00 512.68 L 0.00 511.70 L 0.00 511.42 L 0.00 509.88 L 0.00 509.41 L 0.00 509.40 L 0.00 509.37 L 0.00 508.95 L 0.00 507.81 L 0.00 506.40 L 0.00 504.98 L 0.00 504.60 L 0.00 504.59 L 0.00 503.31 L 0.00 500.97 L 0.00 500.55 L 0.00 500.18 L 0.00 500.04 L 0.00 497.77 L 0.00 497.69 L 0.00 496.78 L 0.00 494.56 L 0.00 493.37 L 0.00 492.98 L 0.00 492.41 L 0.00 489.49 L 0.00 489.04 L 0.00 484.52 L 0.00 480.78 L 0.00 478.97 L 0.00 478.30 L 0.00 477.45 L 0.00 477.31 L 0.00 477.09 L 0.00 476.21 L 0.00 475.60 L 0.00 475.13 L 0.00 474.74 L 0.00 474.39 L 0.00 473.92 L 0.00 470.32 L 0.00 463.76 L 0.00 461.97 L 0.00 460.20 L 0.00 459.73 L 0.00 459.38 L 0.00 459.26 L 0.00 455.39 L 0.00 451.44 L 0.00 451.19 L 0.00 451.12 L 0.00 450.70 L 0.00 449.90 L 0.00 448.29 L 0.00 446.34 L 0.00 445.71 L 0.00 443.66 L 0.00 443.54 L 0.00 442.74 L 0.00 440.58 L 0.00 440.42 L 0.00 439.61 L 0.00 438.10 L 0.00 435.67 L 0.00 435.55 L 0.00 435.06 L 0.00 433.67 L 0.00 431.66 L 0.00 431.25 L 0.00 428.29 L 0.00 428.16 L 0.00 426.79 L 0.00 425.60 L 0.00 424.67 L 0.00 424.24 L 0.00 423.31 L 0.00 423.24 L 0.00 422.16 L 0.00 422.16 L 0.00 420.76 L 0.00 419.92 L 0.00 419.52 L 0.00 419.25 L 0.00 416.56 L 0.00 412.32 L 0.00 412.18 L 0.00 410.32 L 0.00 408.23 L 0.00 406.33 L 0.00 404.88 L 0.00 403.69 L 0.00 403.59 L 0.00 401.94 L 0.00 399.77 L 0.00 397.87 L 0.00 396.55 L 0.00 395.47 L 0.00 394.76 L 0.00 393.81 L 0.00 393.34 L 0.00 392.86 L 0.00 392.36 L 0.00 391.32 L 0.00 389.54 L 0.00 388.65 L 0.00 387.91 L 0.00 386.89 L 0.00 386.13 L 0.00 384.80 L 0.00 384.43 L 0.00 383.96 L 0.00 382.92 L 0.00 381.75 L 0.00 380.98 L 0.00 380.71 L 0.00 380.68 L 0.00 380.44 L 0.00 380.38 L 0.00 380.31 L 0.00 379.94 L 0.00 379.31 L 0.00 379.02 L 0.00 377.89 L 0.00 377.43 L 0.00 377.37 L 0.00 377.25 L 0.00 377.03 L 0.00 376.68 L 0.00 376.01 L 0.00 375.73 L 0.00 375.58 L 0.00 375.49 L 0.00 375.47 L 0.00 375.45 L 0.00 374.57 L 0.00 374.36 L 0.00 374.15 L 0.00 374.13 L 0.00 374.01 L 0.00 373.67 L 0.00 373.21 L 0.00 373.04 L 0.00 371.72 L 0.00 371.04 L 0.00 370.65 L 0.00 370.46 L 0.00 369.00 L 0.00 368.54 L 0.00 368.31 L 0.00 368.11 L 0.00 367.85 L 0.00 367.33 L 0.00 366.32 L 0.00 366.20 L 0.00 365.79 L 0.00 365.51 L 0.00 364.53 L 0.00 364.42 L 0.00 363.47 L 0.00 363.37 L 0.00 362.53 L 0.00 362.13 L 0.00 360.98 L 0.00 360.48 L 0.00 359.09 L 0.00 358.93 L 0.00 358.92 L 0.00 356.42 L 0.00 355.69 L 0.00 354.68 L 0.00 354.56 L 0.00 352.02 L 0.00 350.74 L 0.00 350.70 L 0.00 350.55 L 0.00 350.04 L 0.00 349.68 L 0.00 349.19 L 0.00 349.13 L 0.00 348.10 L 0.00 347.65 L 0.00 346.75 L 0.00 346.50 L 0.00 346.16 L 0.00 346.15 L 0.00 345.70 L 0.00 345.36 L 0.00 345.28 L 0.00 344.53 L 0.00 343.87 L 0.00 342.71 L 0.00 341.66 L 0.00 341.64 L 0.00 339.95 L 0.00 339.81 L 0.00 339.76 L 0.00 339.18 L 0.00 338.98 L 0.00 337.67 L 0.00 337.39 L 0.00 337.14 L 0.00 336.42 L 0.00 336.14 L 0.00 335.92 L 0.00 334.43 L 0.00 333.87 L 0.00 332.65 L 0.00 328.39 L 0.00 328.25 L 0.00 328.24 L 0.00 327.92 L 0.00 327.02 L 0.00 324.34 L 0.00 323.54 L 0.00 320.21 L 0.00 315.82 L 0.00 315.06 L 0.00 314.67 L 0.00 313.15 L 0.00 312.69 L 0.00 311.90 L 0.00 311.74 L 0.00 310.66 L 0.00 310.58 L 0.00 310.54 L 0.00 305.70 L 0.00 302.30 L 0.00 301.32 L 0.00 299.51 L 0.00 298.12 L 0.00 298.11 L 0.00 295.63 L 0.00 295.39 L 0.00 294.98 L 0.00 292.96 L 0.00 289.79 L 0.00 289.23 L 0.00 289.23 L 0.00 288.91 L 0.00 288.32 L 0.00 285.49 L 0.00 282.79 L 0.00 282.50 L 0.00 280.65 L 0.00 280.39 L 0.00 277.68 L 0.00 275.84 L 0.00 275.22 L 0.00 273.14 L 0.00 272.69 L 0.00 270.27 L 0.00 268.96 L 0.00 268.03 L 0.00 266.25 L 0.00 265.65 L 0.00 263.76 L 0.00 261.44 L 0.00 261.04 L 0.00 260.67 L 0.00 258.32 L 0.00 257.37 L 0.00 256.75 L 0.00 256.41 L 0.00 253.47 L 0.00 252.82 L 0.00 252.00 L 0.00 250.36 L 0.00 249.18 L 0.00 248.21 L 0.00 247.84 L 0.00 247.15 L 0.00 245.94 L 0.00 241.67 L 0.00 240.26 L 0.00 238.72 L 0.00 238.67 L 0.00 235.71 L 0.00 233.58 L 0.00 230.34 L 0.00 228.94 L 0.00 226.61 L 0.00 226.38 L 0.00 221.25 L 0.00 220.25 L 0.00 215.13 L 0.00 212.00 L 0.00 211.53 L 0.00 209.28 L 0.00 207.99 L 0.00 207.35 L 0.00 205.94 L 0.00 205.81 L 0.00 203.99 L 0.00 203.55 L 0.00 202.35 L 0.00 201.98 L 0.00 200.93 L 0.00 198.78 L 0.00 195.87 L 0.00 190.81 L 0.00 188.34 L 0.00 187.98 L 0.00 187.33 L 0.00 186.45 L 0.00 186.31 L 0.00 183.74 L 0.00 183.08 L 0.00 181.63 L 0.00 181.01 L 0.00 179.74 L 0.00 179.55 L 0.00 176.47 L 0.00 176.45 L 0.00 176.35 L 0.00 175.88 L 0.00 175.75 L 0.00 174.54 L 0.00 172.78 L 0.00 169.81 L 0.00 169.57 L 0.00 166.49 L 0.00 163.43 L 0.00 157.53 L 0.00 156.69 L 0.00 156.14 L 0.00 156.09 L 0.00 155.32 L 0.00 153.78 L 0.00 151.43 L 0.00 145.57 L 0.00 142.76 L 0.00 142.40 L 0.00 142.24 L 0.00 141.03 L 0.00 128.65 L 0.00 127.71 L 0.00 124.46 L 0.00 121.85 L 0.00 121.03 L 0.00 119.97 L 0.00 119.14 L 0.00 117.34 L 0.00 117.12 L 0.00 110.81 L 0.00 110.03 L 0.00 107.44 L 0.00 103.87 L 0.00 103.47 L 0.00 102.42 L 0.00 102.28 L 0.00 100.03 L 0.00 99.60 L 0.00 99.33 L 0.00 97.94 L 0.00 97.82 L 0.00 97.16 L 0.00 93.23 L 0.00 92.51 L 0.00 92.43 L 0.00 90.46 L 0.00 86.68 L 0.00 85.52 L 0.00 84.31 L 0.00 81.99 L 0.00 78.29 L 0.00 78.01 L 0.00 75.91 L 0.00 75.11 L 0.00 73.36 L 0.00 71.16 L 0.00 66.78 L 0.00 65.39 L 0.00 64.32 L 0.00 63.83 L 0.00 63.42 L 0.00 63.10 L 0.00 62.17 L 0.00 61.23 L 0.00 60.96 L 0.00 58.31 L 0.00 55.78 L 0.00 55.42 L 0.00 54.55 L 0.00 54.25 L 0.00 52.25 L 0.00 49.76 L 0.00 49.38 L 0.00 47.61 L 0.00 45.19 L 0.00 43.48 L 0.00 41.47 L 0.00 37.66 L 0.00 35.66 L 0.00 35.03 L 0.00 32.15 L 0.00 31.78 L 0.00 30.19 L 0.00 29.88 L 0.00 29.67 L 0.00 26.30 L 0.00 25.05 L 0.00 24.52 L 0.00 24.37 L 0.00 22.92 L 0.00 22.84 L 0.00 20.93 L 0.00 20.33 L 0.00 18.28 L 0.00 17.05 L 0.00 16.64 L 0.00 15.97 L 0.00 15.62 L 0.00 15.37 L 0.00 14.46 L 0.00 13.93 L 0.00 12.73 L 0.00 12.26 L 0.00 11.46 L 0.00 10.93 L 0.00 10.02 L 0.00 9.75 L 0.00 9.16 L 0.00 9.11 L 0.00 8.41 L 0.00 8.28 L 0.00 8.21 Z"
        fill="none"
        stroke="black"
        stroke-width="2"/>
</svg>
