<?xml version='1.0' encoding='utf-8'?>
<svg xmlns="http://www.w3.org/2000/svg" width="514.7" height="1340.22" viewBox="-2 -2 514.7 1340.22">
  <rect x="-2" y="-2" width="514.7" height="1340.22" fill="white" /><path d="M 173.55 774.46 L 173.55 775.23 L 173.55 775.35 L 173.55 776.74 L 173.55 777.06 L 173.55 777.15 L 173.55 779.23 L 173.55 780.22 L 173.55 781.77 L 173.55 782.33 L 173.55 784.09 L 173.55 787.08 L 173.55 787.13 L 173.55 787.21 L 173.55 787.73 L 173.55 788.11 L 173.55 788.22 L 173.55 789.83 L 173.55 790.67 L 173.55 790.97 L 173.55 791.59 L 173.55 793.90 L 173.55 796.36 L 173.55 796.61 L 173.55 797.08 L 173.55 798.49 L 173.55 799.33 L 173.55 799.84 L 173.55 804.03 L 173.55 804.10 L 173.55 806.90 L 173.55 807.33 L 173.55 808.30 L 173.55 810.23 L 173.55 810.36 L 173.55 810.47 L 173.55 811.11 L 173.55 811.28 L 173.55 811.66 L 173.55 812.88 L 173.55 813.39 L 173.55 813.98 L 173.55 815.92 L 173.55 816.04 L 173.55 816.17 L 173.55 818.24 L 173.55 818.28 L 173.55 818.43 L 173.55 818.55 L 173.55 819.15 L 173.55 820.75 L 173.55 822.09 L 173.55 823.97 L 173.55 824.07 L 173.55 824.95 L 173.55 825.01 L 173.55 825.64 L 173.55 825.77 L 173.55 828.52 L 173.55 828.85 L 173.55 829.02 L 173.55 829.30 L 173.55 830.40 L 173.55 831.70 L 173.55 831.77 L 173.55 832.44 L 173.55 833.14 L 173.55 834.18 L 173.55 834.70 L 173.55 835.20 L 173.55 836.94 L 173.55 839.80 L 173.55 840.44 L 173.55 840.98 L 173.55 841.16 L 173.55 841.70 L 173.55 842.63 L 173.55 842.77 L 173.55 843.53 L 173.55 844.81 L 173.55 846.46 L 173.55 846.53 L 173.55 846.96 L 173.55 848.19 L 173.55 848.19 L 173.55 848.20 L 173.55 848.58 L 173.55 849.21 L 173.55 849.34 L 173.55 851.61 L 173.55 852.93 L 173.55 853.28 L 173.55 853.44 L 173.55 853.66 L 173.55 854.26 L 173.55 855.57 L 173.55 857.54 L 173.55 857.93 L 173.55 858.19 L 173.55 859.13 L 173.55 859.80 L 173.55 860.63 L 173.55 862.36 L 173.55 862.56 L 173.55 863.03 L 173.55 863.07 L 173.55 863.18 L 173.55 863.65 L 173.55 864.16 L 173.55 864.29 L 173.55 866.01 L 173.55 868.79 L 173.55 869.05 L 173.55 869.65 L 173.55 870.44 L 173.55 872.64 L 173.55 872.69 L 173.55 873.96 L 173.55 875.13 L 173.55 875.42 L 173.55 879.20 L 173.55 880.06 L 173.55 881.14 L 173.55 881.73 L 173.55 883.43 L 173.55 883.83 L 173.55 885.83 L 173.55 887.02 L 173.55 888.32 L 173.55 888.68 L 173.55 888.99 L 173.55 889.62 L 173.55 890.32 L 173.55 892.51 L 173.55 893.19 L 173.55 893.67 L 173.55 893.77 L 173.55 898.29 L 173.55 900.89 L 173.55 901.07 L 173.55 901.57 L 173.55 902.99 L 173.55 903.21 L 173.55 903.31 L 173.55 904.13 L 173.55 905.72 L 173.55 905.74 L 173.55 907.47 L 173.55 907.94 L 173.55 909.34 L 173.55 909.98 L 173.55 911.34 L 173.55 911.55 L 173.55 912.46 L 173.55 913.64 L 173.55 916.62 L 173.55 917.30 L 173.55 918.02 L 173.55 918.06 L 173.55 918.26 L 173.55 919.63 L 173.55 920.27 L 173.55 921.33 L 173.55 922.20 L 173.55 923.39 L 173.55 924.08 L 173.55 927.29 L 173.55 928.76 L 173.55 928.95 L 173.55 931.76 L 173.55 933.19 L 173.55 934.41 L 173.55 934.84 L 173.55 939.56 L 173.55 941.85 L 173.55 942.39 L 173.55 943.75 L 173.55 945.01 L 173.55 945.91 L 173.55 949.02 L 173.55 949.93 L 173.55 949.98 L 173.55 950.21 L 173.55 952.16 L 173.55 953.25 L 173.55 954.10 L 173.55 954.40 L 173.55 955.94 L 173.55 956.49 L 173.55 960.07 L 173.55 960.75 L 173.55 961.33 L 173.55 963.62 L 173.55 966.15 L 173.55 968.84 L 173.55 971.84 L 173.55 972.54 L 173.55 972.59 L 173.55 974.19 L 173.55 974.65 L 173.55 976.07 L 173.55 977.18 L 173.55 977.33 L 173.55 977.33 L 173.55 978.59 L 173.55 978.90 L 173.55 979.16 L 173.55 979.20 L 173.55 979.98 L 173.55 980.69 L 173.55 980.82 L 173.55 983.07 L 173.55 983.60 L 173.55 985.94 L 173.55 986.10 L 173.55 986.11 L 173.55 986.27 L 173.55 986.46 L 173.55 988.20 L 173.55 988.29 L 173.55 988.39 L 173.55 988.70 L 173.55 989.40 L 173.55 990.18 L 173.55 991.47 L 173.55 991.63 L 173.55 997.01 L 173.55 997.88 L 173.55 997.99 L 173.55 998.80 L 173.55 999.60 L 173.55 999.68 L 173.55 1000.00 L 173.55 1006.24 L 173.55 1006.35 L 173.55 1008.71 L 173.55 1008.74 L 173.55 1010.10 L 173.55 1010.88 L 173.55 1011.30 L 173.55 1012.31 L 173.55 1013.75 L 173.55 1013.90 L 173.55 1013.92 L 173.55 1014.41 L 173.55 1015.22 L 173.55 1015.30 L 173.55 1017.16 L 173.55 1017.48 L 173.55 1017.69 L 173.55 1018.95 L 173.55 1019.69 L 173.55 1019.86 L 173.55 1021.05 L 173.55 1024.82 L 173.55 1025.08 L 173.55 1025.41 L 173.55 1028.51 L 173.55 1028.81 L 173.55 1029.58 L 173.55 1030.24 L 173.55 1030.35 L 173.55 1030.63 L 173.55 1030.69 L 173.55 1030.99 L 173.55 1031.15 L 173.55 1033.19 L 173.55 1035.00 L 173.55 1035.06 L 173.55 1035.59 L 173.55 1037.51 L 173.55 1045.21 L 173.55 1045.69 L 173.55 1045.90 L 173.55 1046.59 L 173.55 1046.64 L 173.55 1049.67 L 173.55 1050.19 L 173.55 1050.54 L 173.55 1051.09 L 173.55 1051.44 L 173.55 1051.99 L 173.55 1052.25 L 173.55 1053.88 L 173.55 1054.16 L 173.55 1054.49 L 173.55 1056.12 L 173.55 1057.24 L 173.55 1062.76 L 173.55 1063.49 L 173.55 1063.65 L 173.55 1064.25 L 173.55 1065.60 L 173.55 1065.82 L 173.55 1066.52 L 173.55 1066.69 L 173.55 1066.92 L 173.55 1069.75 L 173.55 1070.54 L 173.55 1070.68 L 173.55 1072.89 L 173.55 1073.72 L 173.55 1075.45 L 173.55 1077.94 L 173.55 1079.13 L 173.55 1080.63 L 173.55 1081.21 L 173.55 1083.70 L 173.55 1087.61 L 173.55 1088.96 L 173.55 1090.41 L 173.55 1091.23 L 173.55 1091.82 L 173.55 1092.53 L 173.55 1094.49 L 173.55 1095.42 L 173.55 1095.94 L 173.55 1096.17 L 173.55 1096.40 L 173.55 1096.87 L 173.55 1097.01 L 173.55 1099.22 L 173.55 1099.56 L 173.55 1100.19 L 173.55 1100.32 L 173.55 1100.66 L 173.55 1103.38 L 173.55 1103.59 L 173.55 1104.83 L 173.55 1107.09 L 173.55 1107.39 L 173.55 1109.24 L 173.55 1109.57 L 173.55 1112.26 L 173.55 1112.74 L 173.55 1114.42 L 173.55 1115.29 L 173.55 1115.92 L 173.55 1116.76 L 173.55 1116.82 L 173.55 1118.07 L 173.55 1118.80 L 173.55 1120.65 L 173.55 1122.52 L 173.55 1123.70 L 173.55 1123.96 L 173.55 1124.34 L 173.55 1125.12 L 173.55 1127.00 L 173.55 1127.05 L 173.55 1127.10 L 173.55 1133.36 L 173.55 1133.91 L 173.55 1134.31 L 173.55 1135.86 L 173.55 1136.00 L 173.55 1136.16 L 173.55 1136.60 L 173.55 1136.83 L 173.55 1136.99 L 173.55 1138.01 L 173.55 1140.14 L 173.55 1140.30 L 173.55 1141.01 L 173.55 1141.62 L 173.55 1144.45 L 173.55 1145.79 L 173.55 1145.85 L 173.55 1147.15 L 173.55 1147.60 L 173.55 1149.48 L 173.55 1150.87 L 173.55 1151.33 L 173.55 1151.64 L 173.55 1153.37 L 173.55 1153.88 L 173.55 1154.23 L 173.55 1157.63 L 173.55 1158.04 L 173.55 1160.46 L 173.55 1163.45 L 173.55 1163.63 L 173.55 1163.94 L 173.55 1165.21 L 173.55 1166.68 L 173.55 1166.74 L 173.55 1167.45 L 173.55 1168.76 L 173.55 1170.12 L 173.55 1170.13 L 173.55 1170.31 L 173.55 1170.86 L 173.55 1171.12 L 173.55 1173.27 L 173.55 1173.72 L 173.55 1174.09 L 173.55 1174.45 L 173.55 1174.63 L 173.55 1177.85 L 173.55 1178.28 L 173.55 1181.29 L 173.55 1182.97 L 173.55 1187.31 L 173.55 1191.12 L 173.55 1192.34 L 173.55 1192.75 L 173.55 1192.79 L 173.55 1192.85 L 173.55 1194.37 L 173.55 1195.60 L 173.55 1198.24 L 173.55 1198.33 L 173.55 1199.72 L 173.55 1200.79 L 173.55 1201.21 L 173.55 1204.36 L 173.55 1205.71 L 173.55 1207.33 L 173.55 1208.39 L 173.55 1209.01 L 173.55 1209.98 L 173.55 1213.39 L 173.55 1213.93 L 173.55 1215.57 L 173.55 1215.84 L 173.55 1218.88 L 173.55 1219.03 L 173.55 1220.46 L 173.55 1222.77 L 173.55 1222.83 L 173.55 1224.83 L 173.55 1225.33 L 173.55 1227.41 L 173.55 1229.68 L 173.55 1230.10 L 173.55 1231.41 L 173.55 1232.51 L 173.55 1233.62 L 173.55 1234.47 L 173.55 1235.44 L 173.55 1236.33 L 173.55 1236.43 L 173.55 1237.37 L 173.55 1237.48 L 173.55 1237.83 L 173.55 1238.10 L 173.55 1239.32 L 173.55 1239.63 L 173.55 1240.30 L 173.55 1241.31 L 173.55 1241.43 L 173.55 1242.41 L 173.55 1244.75 L 173.55 1245.78 L 173.55 1246.40 L 173.55 1247.00 L 173.55 1248.69 L 173.55 1248.91 L 173.55 1251.40 L 173.55 1251.46 L 173.55 1252.05 L 173.55 1252.22 L 173.55 1252.48 L 173.55 1252.62 L 173.55 1253.42 L 173.55 1253.78 L 173.55 1254.02 L 173.55 1254.56 L 173.55 1254.91 L 173.55 1256.87 L 173.55 1257.52 L 173.55 1258.10 L 173.55 1258.29 L 173.55 1259.57 L 173.55 1260.98 L 173.55 1261.51 L 173.55 1262.60 L 173.55 1264.50 L 173.55 1265.54 L 173.55 1265.86 L 173.55 1266.09 L 173.55 1266.59 L 173.55 1267.86 L 173.55 1268.40 L 173.55 1269.96 L 173.55 1269.96 L 173.55 1270.24 L 173.55 1271.24 L 173.55 1271.80 L 173.55 1271.99 L 173.55 1272.13 L 173.55 1272.41 L 173.55 1272.54 L 173.55 1273.40 L 173.55 1273.45 L 173.55 1273.77 L 173.55 1274.95 L 173.55 1275.10 L 173.55 1275.18 L 173.55 1275.35 L 173.55 1278.38 L 173.55 1278.39 L 173.55 1278.87 L 173.55 1279.13 L 173.55 1279.30 L 173.55 1281.06 L 173.55 1281.17 L 173.55 1285.32 L 173.55 1286.31 L 173.55 1286.59 L 173.55 1288.19 L 173.55 1288.56 L 173.55 1288.58 L 173.55 1289.89 L 173.55 1292.61 L 173.55 1292.62 L 173.55 1293.13 L 173.55 1294.31 L 173.55 1295.34 L 173.55 1295.34 L 173.55 1296.02 L 173.55 1296.10 L 173.55 1296.51 L 173.55 1296.94 L 173.55 1297.31 L 173.55 1297.83 L 173.55 1299.56 L 173.55 1299.70 L 173.55 1302.20 L 173.55 1303.64 L 173.55 1304.44 L 173.55 1306.55 L 173.55 1307.88 L 173.55 1308.03 L 173.55 1308.50 L 173.55 1308.76 L 173.55 1309.07 L 173.55 1309.51 L 173.55 1312.24 L 173.55 1312.70 L 173.55 1313.52 L 173.55 1313.88 L 173.55 1314.19 L 173.55 1314.99 L 173.55 1315.40 L 173.55 1315.63 L 173.55 1317.35 L 173.55 1317.66 L 173.55 1318.67 L 173.55 1319.06 L 173.55 1319.58 L 173.55 1320.77 L 173.55 1322.42 L 173.55 1323.00 L 173.55 1324.06 L 173.55 1324.39 L 173.55 1325.24 L 173.55 1325.97 L 173.55 1326.20 L 173.55 1326.76 L 173.55 1328.04 L 173.55 1328.27 L 173.55 1328.68 L 173.55 1329.82 L 173.55 1334.00 L 173.45 1336.12 L 170.34 1336.22 L 170.33 1336.22 L 169.70 1336.22 L 169.53 1336.22 L 169.52 1336.22 L 168.38 1336.22 L 168.24 1336.22 L 168.22 1336.22 L 167.15 1336.22 L 167.04 1336.22 L 166.84 1336.22 L 165.48 1336.22 L 162.04 1336.22 L 160.45 1336.22 L 160.05 1336.22 L 159.66 1336.22 L 155.95 1336.22 L 150.31 1336.22 L 147.97 1336.22 L 146.94 1336.22 L 138.87 1336.22 L 135.69 1336.22 L 134.12 1336.22 L 132.28 1336.22 L 124.99 1336.22 L 124.87 1336.22 L 123.58 1336.22 L 123.52 1336.22 L 121.21 1336.22 L 118.51 1336.22 L 118.17 1336.22 L 115.42 1336.22 L 111.25 1336.22 L 111.20 1336.22 L 109.40 1336.22 L 107.21 1336.22 L 104.04 1336.22 L 96.97 1336.22 L 93.13 1336.22 L 91.82 1336.22 L 91.67 1336.22 L 88.37 1336.22 L 81.99 1336.22 L 81.45 1336.22 L 77.65 1336.22 L 77.39 1336.22 L 73.77 1336.22 L 71.68 1336.22 L 69.92 1336.22 L 68.98 1336.22 L 67.85 1336.22 L 65.97 1336.22 L 54.92 1336.22 L 54.87 1336.22 L 54.77 1336.22 L 54.74 1336.22 L 53.98 1336.22 L 53.30 1336.22 L 52.59 1336.22 L 50.90 1336.22 L 48.95 1336.22 L 48.83 1336.22 L 47.27 1336.22 L 41.19 1336.22 L 38.53 1336.22 L 37.63 1336.22 L 28.71 1336.22 L 26.45 1336.22 L 24.46 1336.22 L 23.19 1336.22 L 20.61 1336.22 L 19.93 1336.22 L 14.96 1336.22 L 13.07 1336.22 L 12.40 1336.22 L 11.45 1336.22 L 11.43 1336.22 L 11.26 1336.22 L 8.47 1336.22 L 8.00 1336.22 L 4.84 1336.22 L 2.05 1336.22 L 1.31 1336.22 L 1.17 1336.22 L 0.38 1336.22 L 0.00 1335.09 L 0.00 1334.80 L 0.00 1331.79 L 0.00 1331.43 L 0.00 1331.41 L 0.00 1329.98 L 0.00 1329.96 L 0.00 1329.24 L 0.00 1328.83 L 0.00 1327.69 L 0.00 1327.34 L 0.00 1324.78 L 0.00 1322.18 L 0.00 1318.86 L 0.00 1318.86 L 0.00 1318.63 L 0.00 1318.29 L 0.00 1317.56 L 0.00 1317.54 L 0.00 1317.34 L 0.00 1310.59 L 0.00 1309.51 L 0.00 1307.66 L 0.00 1306.64 L 0.00 1304.58 L 0.00 1304.52 L 0.00 1304.49 L 0.00 1302.34 L 0.00 1300.21 L 0.00 1299.18 L 0.00 1298.22 L 0.00 1295.92 L 0.00 1295.91 L 0.00 1295.32 L 0.00 1293.89 L 0.00 1292.44 L 0.00 1291.83 L 0.00 1291.45 L 0.00 1290.83 L 0.00 1288.69 L 0.00 1288.54 L 0.00 1285.07 L 0.00 1284.13 L 0.00 1283.67 L 0.00 1283.34 L 0.00 1280.98 L 0.00 1280.58 L 0.00 1279.34 L 0.00 1278.70 L 0.00 1276.72 L 0.00 1276.18 L 0.00 1276.05 L 0.00 1273.37 L 0.00 1273.03 L 0.00 1271.87 L 0.00 1271.55 L 0.00 1271.47 L 0.00 1270.80 L 0.00 1270.69 L 0.00 1269.83 L 0.00 1268.30 L 0.00 1268.02 L 0.00 1266.51 L 0.00 1265.92 L 0.00 1261.78 L 0.00 1260.93 L 0.00 1259.97 L 0.00 1259.96 L 0.00 1258.35 L 0.00 1258.03 L 0.00 1255.89 L 0.00 1255.42 L 0.00 1254.86 L 0.00 1254.45 L 0.00 1250.91 L 0.00 1249.74 L 0.00 1247.84 L 0.00 1247.71 L 0.00 1243.97 L 0.00 1243.85 L 0.00 1242.86 L 0.00 1242.78 L 0.00 1242.52 L 0.00 1242.26 L 0.00 1240.38 L 0.00 1240.16 L 0.00 1237.98 L 0.00 1237.00 L 0.00 1236.01 L 0.00 1234.97 L 0.00 1234.31 L 0.00 1234.21 L 0.00 1233.54 L 0.00 1233.05 L 0.00 1232.56 L 0.00 1232.41 L 0.00 1231.80 L 0.00 1230.17 L 0.00 1230.14 L 0.00 1229.62 L 0.00 1228.20 L 0.00 1224.00 L 0.00 1222.13 L 0.00 1222.00 L 0.00 1221.70 L 0.00 1218.45 L 0.00 1218.05 L 0.00 1217.76 L 0.00 1217.46 L 0.00 1214.92 L 0.00 1213.18 L 0.00 1212.86 L 0.00 1211.49 L 0.00 1211.01 L 0.00 1210.53 L 0.00 1209.56 L 0.00 1208.80 L 0.00 1207.21 L 0.00 1206.71 L 0.00 1205.38 L 0.00 1205.33 L 0.00 1204.93 L 0.00 1203.23 L 0.00 1202.27 L 0.00 1201.66 L 0.00 1198.03 L 0.00 1197.54 L 0.00 1197.32 L 0.00 1196.77 L 0.00 1196.53 L 0.00 1195.01 L 0.00 1194.96 L 0.00 1194.93 L 0.00 1193.89 L 0.00 1193.02 L 0.00 1193.00 L 0.00 1192.46 L 0.00 1191.58 L 0.00 1191.14 L 0.00 1190.44 L 0.00 1189.00 L 0.00 1187.48 L 0.00 1187.14 L 0.00 1186.14 L 0.00 1184.37 L 0.00 1183.61 L 0.00 1183.60 L 0.00 1183.50 L 0.00 1183.43 L 0.00 1182.45 L 0.00 1181.69 L 0.00 1181.23 L 0.00 1179.90 L 0.00 1178.83 L 0.00 1176.42 L 0.00 1175.66 L 0.00 1174.78 L 0.00 1174.35 L 0.00 1173.52 L 0.00 1172.67 L 0.00 1172.16 L 0.00 1172.00 L 0.00 1171.58 L 0.00 1170.60 L 0.00 1170.35 L 0.00 1169.61 L 0.00 1169.55 L 0.00 1168.02 L 0.00 1167.50 L 0.00 1167.17 L 0.00 1166.75 L 0.00 1166.61 L 0.00 1165.21 L 0.00 1165.02 L 0.00 1164.11 L 0.00 1162.77 L 0.00 1159.29 L 0.00 1158.56 L 0.00 1158.06 L 0.00 1156.41 L 0.00 1156.26 L 0.00 1155.44 L 0.00 1155.15 L 0.00 1153.14 L 0.00 1152.51 L 0.00 1150.37 L 0.00 1149.24 L 0.00 1148.16 L 0.00 1147.35 L 0.00 1146.01 L 0.00 1144.77 L 0.00 1143.91 L 0.00 1143.45 L 0.00 1141.87 L 0.00 1140.50 L 0.00 1140.43 L 0.00 1140.35 L 0.00 1140.33 L 0.00 1140.04 L 0.00 1139.58 L 0.00 1139.29 L 0.00 1138.28 L 0.00 1137.50 L 0.00 1136.70 L 0.00 1136.54 L 0.00 1135.90 L 0.00 1135.31 L 0.00 1134.64 L 0.00 1133.07 L 0.00 1131.94 L 0.00 1131.84 L 0.00 1130.42 L 0.00 1130.10 L 0.00 1127.97 L 0.00 1127.94 L 0.00 1127.33 L 0.00 1126.35 L 0.00 1125.61 L 0.00 1121.55 L 0.00 1121.33 L 0.00 1119.88 L 0.00 1119.61 L 0.00 1119.59 L 0.00 1118.45 L 0.00 1117.92 L 0.00 1117.34 L 0.00 1116.08 L 0.00 1115.26 L 0.00 1115.11 L 0.00 1112.73 L 0.00 1112.61 L 0.00 1111.65 L 0.00 1111.40 L 0.00 1110.44 L 0.00 1110.04 L 0.00 1109.65 L 0.00 1109.30 L 0.00 1104.02 L 0.00 1103.91 L 0.00 1102.62 L 0.00 1093.25 L 0.00 1092.58 L 0.00 1091.32 L 0.00 1089.98 L 0.00 1087.35 L 0.00 1086.47 L 0.00 1082.13 L 0.00 1081.22 L 0.00 1077.85 L 0.00 1074.26 L 0.00 1069.21 L 0.00 1068.90 L 0.00 1064.73 L 0.00 1060.95 L 0.00 1058.77 L 0.00 1056.18 L 0.00 1050.50 L 0.00 1050.07 L 0.00 1047.92 L 0.00 1043.63 L 0.00 1042.88 L 0.00 1040.04 L 0.00 1038.27 L 0.00 1038.24 L 0.00 1036.68 L 0.00 1030.35 L 0.00 1030.28 L 0.00 1026.60 L 0.00 1021.74 L 0.00 1020.54 L 0.00 1016.71 L 0.00 1013.31 L 0.00 1009.81 L 0.00 1007.27 L 0.00 1005.47 L 0.00 1004.74 L 0.00 1003.60 L 0.00 1003.44 L 0.00 1002.95 L 0.00 1002.46 L 0.00 1001.83 L 0.00 1001.61 L 0.00 1001.61 L 0.00 1000.03 L 0.00 999.89 L 0.00 999.69 L 0.00 999.09 L 0.00 998.08 L 0.00 997.55 L 0.00 995.75 L 0.00 995.30 L 0.00 993.67 L 0.00 992.54 L 0.00 992.27 L 0.00 991.81 L 0.00 991.72 L 0.00 989.95 L 0.00 988.77 L 0.00 988.75 L 0.00 988.72 L 0.00 987.66 L 0.00 987.08 L 0.00 986.05 L 0.00 985.36 L 0.00 985.20 L 0.00 984.03 L 0.00 982.23 L 0.00 980.95 L 0.00 979.87 L 0.00 979.01 L 0.00 978.79 L 0.00 977.71 L 0.00 975.44 L 0.00 975.05 L 0.00 971.54 L 0.00 970.38 L 0.00 969.98 L 0.00 969.96 L 0.00 969.01 L 0.00 968.88 L 0.00 968.86 L 0.00 966.98 L 0.00 966.25 L 0.00 965.47 L 0.00 962.99 L 0.00 960.81 L 0.00 960.20 L 0.00 959.98 L 0.00 959.36 L 0.00 957.39 L 0.00 957.07 L 0.00 954.07 L 0.00 953.38 L 0.00 953.28 L 0.00 953.23 L 0.00 952.73 L 0.00 951.54 L 0.00 951.43 L 0.00 950.16 L 0.00 948.20 L 0.00 948.01 L 0.00 946.60 L 0.00 946.13 L 0.00 945.15 L 0.00 944.25 L 0.00 942.07 L 0.00 941.06 L 0.00 940.43 L 0.00 939.63 L 0.00 939.09 L 0.00 937.79 L 0.00 937.54 L 0.00 937.31 L 0.00 935.34 L 0.00 934.71 L 0.00 934.69 L 0.00 932.26 L 0.00 932.00 L 0.00 930.11 L 0.00 930.01 L 0.00 927.17 L 0.00 927.04 L 0.00 926.93 L 0.00 926.78 L 0.00 926.19 L 0.00 925.81 L 0.00 925.72 L 0.00 924.54 L 0.00 923.98 L 0.00 922.65 L 0.00 922.32 L 0.00 920.95 L 0.00 920.62 L 0.00 920.38 L 0.00 919.88 L 0.00 919.22 L 0.00 918.94 L 0.00 916.93 L 0.00 915.04 L 0.00 914.01 L 0.00 913.54 L 0.00 912.43 L 0.00 912.38 L 0.00 912.11 L 0.00 911.41 L 0.00 910.31 L 0.00 910.09 L 0.00 909.99 L 0.00 909.22 L 0.00 906.14 L 0.00 904.25 L 0.00 903.61 L 0.00 901.61 L 0.00 900.92 L 0.00 900.74 L 0.00 896.41 L 0.00 891.95 L 0.00 891.38 L 0.00 890.51 L 0.00 886.98 L 0.00 885.46 L 0.00 884.71 L 0.00 882.30 L 0.00 880.94 L 0.00 880.20 L 0.00 879.49 L 0.00 876.79 L 0.00 876.13 L 0.00 875.25 L 0.00 874.59 L 0.00 869.46 L 0.00 869.43 L 0.00 868.41 L 0.00 866.29 L 0.00 865.85 L 0.00 865.76 L 0.00 865.73 L 0.00 862.47 L 0.00 862.38 L 0.00 860.57 L 0.00 857.87 L 0.00 856.52 L 0.00 855.74 L 0.00 855.57 L 0.00 855.22 L 0.00 854.01 L 0.00 852.93 L 0.00 852.19 L 0.00 851.30 L 0.00 850.85 L 0.00 850.58 L 0.00 849.83 L 0.00 848.56 L 0.00 848.42 L 0.00 847.90 L 0.00 847.87 L 0.00 847.69 L 0.00 846.55 L 0.00 846.47 L 0.00 845.77 L 0.00 845.60 L 0.00 845.40 L 0.00 844.98 L 0.00 842.56 L 0.00 842.38 L 0.00 842.34 L 0.00 841.94 L 0.00 837.75 L 0.00 837.57 L 0.00 835.83 L 0.00 835.18 L 0.00 834.78 L 0.00 834.76 L 0.00 833.93 L 0.00 833.51 L 0.00 833.38 L 0.00 833.11 L 0.00 832.14 L 0.00 831.30 L 0.00 830.66 L 0.00 828.78 L 0.00 828.71 L 0.00 827.49 L 0.00 826.07 L 0.00 822.78 L 0.00 820.31 L 0.00 820.23 L 0.00 818.42 L 0.00 816.33 L 0.00 811.09 L 0.00 810.31 L 0.00 809.02 L 0.00 808.37 L 0.00 807.40 L 0.00 807.28 L 0.00 805.86 L 0.00 805.57 L 0.00 804.92 L 0.00 803.42 L 0.00 803.37 L 0.00 802.54 L 0.00 802.42 L 0.00 801.65 L 0.00 800.75 L 0.00 800.05 L 0.00 795.31 L 0.00 792.70 L 0.00 791.60 L 0.00 791.46 L 0.00 790.45 L 0.00 790.36 L 0.00 787.85 L 0.00 787.20 L 0.00 786.60 L 0.00 785.84 L 0.00 784.74 L 0.00 784.17 L 0.00 783.79 L 0.00 783.09 L 0.00 781.99 L 0.00 781.61 L 0.00 779.14 L 0.00 778.45 L 0.00 778.33 L 0.00 775.73 L 0.00 773.93 L 0.00 773.52 L 0.00 772.51 L 0.00 770.89 L 0.00 769.95 L 0.00 769.58 L 0.00 765.27 L 0.00 763.32 L 0.00 762.40 L 0.00 760.04 L 0.00 759.12 L 0.00 757.33 L 0.00 756.88 L 0.00 755.53 L 0.00 754.12 L 0.00 754.04 L 0.00 753.98 L 0.00 752.25 L 0.00 749.54 L 0.00 746.79 L 0.00 746.72 L 0.00 746.68 L 0.00 743.92 L 0.00 743.43 L 0.00 742.44 L 0.00 741.63 L 0.00 741.06 L 0.00 739.15 L 0.00 739.01 L 0.00 738.97 L 0.00 737.77 L 0.00 734.87 L 0.00 734.32 L 0.00 731.87 L 0.00 731.82 L 0.00 730.26 L 0.00 730.06 L 0.00 729.57 L 0.00 727.57 L 0.00 727.27 L 0.00 726.27 L 0.00 725.84 L 0.00 725.46 L 0.00 722.50 L 0.00 720.63 L 0.00 719.85 L 0.00 719.20 L 0.00 718.07 L 0.00 717.59 L 0.00 716.65 L 0.00 715.39 L 0.00 714.72 L 0.00 714.34 L 0.00 714.08 L 0.00 713.77 L 0.00 711.37 L 0.00 710.45 L 0.00 708.87 L 0.00 708.06 L 0.00 704.67 L 0.00 702.42 L 0.00 698.76 L 0.00 698.65 L 0.00 697.35 L 0.00 696.62 L 0.00 696.30 L 0.00 695.54 L 0.00 694.36 L 0.00 692.50 L 0.00 691.96 L 0.00 691.81 L 0.00 691.78 L 0.00 688.84 L 0.00 688.78 L 0.00 685.77 L 0.00 685.36 L 0.00 685.05 L 0.00 681.71 L 0.00 681.25 L 0.00 680.93 L 0.00 680.77 L 0.00 680.51 L 0.00 680.27 L 0.00 677.82 L 0.00 677.32 L 0.00 676.96 L 0.00 675.82 L 0.00 674.98 L 0.00 666.61 L 0.00 665.52 L 0.00 665.21 L 0.00 661.66 L 0.00 661.65 L 0.00 660.36 L 0.00 659.44 L 0.00 658.58 L 0.00 657.51 L 0.00 657.09 L 0.00 656.99 L 0.00 655.90 L 0.00 655.43 L 0.00 654.22 L 0.00 652.45 L 0.00 652.10 L 0.00 651.35 L 0.00 651.02 L 0.00 650.78 L 0.00 650.11 L 0.00 649.36 L 0.00 648.83 L 0.00 648.68 L 0.00 648.14 L 0.00 647.96 L 0.00 646.16 L 0.00 645.40 L 0.00 645.38 L 0.00 644.19 L 0.00 643.98 L 0.00 642.92 L 0.00 641.86 L 0.00 641.17 L 0.00 641.08 L 0.00 641.01 L 0.00 639.85 L 0.00 639.53 L 0.00 639.49 L 0.00 638.79 L 0.00 638.29 L 0.00 638.11 L 0.00 637.48 L 0.00 634.05 L 0.00 630.63 L 0.00 629.95 L 0.00 628.06 L 0.00 627.87 L 0.00 627.77 L 0.00 627.41 L 0.00 627.28 L 0.00 627.22 L 0.00 625.03 L 0.00 623.08 L 0.00 622.91 L 0.00 622.04 L 0.00 620.42 L 0.00 618.70 L 0.00 618.43 L 0.00 617.75 L 0.00 616.53 L 0.00 614.98 L 0.00 613.40 L 0.00 613.36 L 0.00 611.40 L 0.00 610.17 L 0.00 609.30 L 0.00 608.14 L 0.00 606.80 L 0.00 606.67 L 0.00 606.33 L 0.00 605.91 L 0.00 604.55 L 0.00 602.32 L 0.00 602.00 L 0.00 601.75 L 0.00 601.73 L 0.00 601.37 L 0.00 600.95 L 0.00 600.82 L 0.00 600.20 L 0.00 599.97 L 0.00 599.90 L 0.00 599.50 L 0.00 598.28 L 0.00 597.44 L 0.00 597.32 L 0.00 596.11 L 0.00 596.09 L 0.00 595.83 L 0.00 595.58 L 0.00 593.28 L 0.00 593.12 L 0.00 589.71 L 0.00 588.67 L 0.00 586.81 L 0.00 585.28 L 0.00 584.77 L 0.00 584.21 L 0.00 583.78 L 0.00 581.67 L 0.00 580.26 L 0.00 579.93 L 0.00 579.69 L 0.00 577.01 L 0.00 573.92 L 0.00 573.47 L 0.00 573.37 L 0.00 572.66 L 0.00 571.90 L 0.00 570.41 L 0.00 568.54 L 0.00 565.89 L 0.00 564.09 L 0.00 563.30 L 0.00 563.26 L 0.00 562.18 L 0.00 562.11 L 0.00 561.48 L 0.00 560.48 L 0.00 558.02 L 0.00 557.95 L 0.00 557.85 L 0.00 557.46 L 0.00 557.42 L 0.00 557.06 L 0.00 556.26 L 0.00 554.49 L 0.00 553.13 L 0.00 551.90 L 0.00 550.75 L 0.00 550.19 L 0.00 550.00 L 0.00 547.98 L 0.00 547.56 L 0.00 545.66 L 0.00 545.44 L 0.00 545.41 L 0.00 545.28 L 0.00 545.18 L 0.00 544.81 L 0.00 543.17 L 0.00 542.79 L 0.00 542.17 L 0.00 541.97 L 0.00 541.40 L 0.00 541.35 L 0.00 540.33 L 0.00 540.15 L 0.00 538.48 L 0.00 537.26 L 0.00 536.89 L 0.00 536.84 L 0.00 536.64 L 0.00 536.35 L 0.00 534.87 L 0.00 534.10 L 0.00 533.57 L 0.00 532.61 L 0.00 532.13 L 0.00 530.13 L 0.00 528.98 L 0.00 528.84 L 0.00 527.67 L 0.00 526.94 L 0.00 526.31 L 0.00 524.41 L 0.00 522.17 L 0.00 522.16 L 0.00 519.78 L 0.00 517.54 L 0.00 515.22 L 0.00 510.72 L 0.00 509.17 L 0.00 508.16 L 0.00 507.50 L 0.00 506.45 L 0.00 503.81 L 0.00 503.36 L 0.00 502.73 L 0.00 501.91 L 0.00 500.09 L 0.00 499.85 L 0.00 499.64 L 0.00 498.45 L 0.00 498.45 L 0.00 495.68 L 0.00 494.99 L 0.00 494.22 L 0.00 493.51 L 0.00 491.63 L 0.00 489.98 L 0.00 489.75 L 0.00 489.21 L 0.00 487.50 L 0.00 487.18 L 0.00 487.10 L 0.00 486.31 L 0.00 485.87 L 0.00 485.05 L 0.00 478.33 L 0.00 477.91 L 0.00 477.01 L 0.00 474.62 L 0.00 473.49 L 0.00 473.09 L 0.00 472.87 L 0.00 472.07 L 0.00 471.65 L 0.00 471.18 L 0.00 469.69 L 0.00 468.97 L 0.00 467.96 L 0.00 467.55 L 0.00 466.19 L 0.00 465.60 L 0.00 463.22 L 0.00 462.45 L 0.00 461.11 L 0.00 460.18 L 0.00 459.40 L 0.00 459.27 L 0.00 458.14 L 0.00 457.99 L 0.00 457.87 L 0.00 456.84 L 0.00 456.55 L 0.00 456.47 L 0.00 454.76 L 0.00 454.38 L 0.00 453.65 L 0.00 452.73 L 0.00 447.95 L 0.00 447.57 L 0.00 447.21 L 0.00 441.43 L 0.00 440.88 L 0.00 440.41 L 0.00 440.12 L 0.00 439.40 L 0.00 438.88 L 0.00 438.59 L 0.00 437.70 L 0.00 436.67 L 0.00 436.20 L 0.00 434.63 L 0.00 431.68 L 0.00 431.53 L 0.00 430.20 L 0.00 429.60 L 0.00 429.45 L 0.00 428.38 L 0.00 427.38 L 0.00 426.83 L 0.00 426.58 L 0.00 426.26 L 0.00 426.16 L 0.00 425.45 L 0.00 425.26 L 0.00 421.28 L 0.00 419.10 L 0.00 418.87 L 0.00 418.82 L 0.00 417.67 L 0.00 416.73 L 0.00 416.34 L 0.00 416.26 L 0.00 413.21 L 0.00 411.76 L 0.00 411.01 L 0.00 410.85 L 0.00 410.60 L 0.00 410.26 L 0.00 410.24 L 0.00 409.92 L 0.00 406.99 L 0.00 405.84 L 0.00 404.85 L 0.00 403.67 L 0.00 400.00 L 0.00 399.96 L 0.00 399.81 L 0.00 399.10 L 0.00 398.82 L 0.00 398.61 L 0.00 394.73 L 0.00 392.29 L 0.00 392.20 L 0.00 391.91 L 0.00 391.40 L 0.00 390.84 L 0.00 389.54 L 0.00 388.16 L 0.00 385.96 L 0.00 385.29 L 0.00 385.20 L 0.00 382.63 L 0.00 382.53 L 0.00 382.28 L 0.00 380.68 L 0.00 380.15 L 0.00 378.81 L 0.00 377.71 L 0.00 377.33 L 0.00 374.45 L 0.00 374.39 L 0.00 373.41 L 0.00 373.13 L 0.00 372.93 L 0.00 371.89 L 0.00 370.56 L 0.00 370.29 L 0.00 369.86 L 0.00 368.82 L 0.00 368.10 L 0.00 368.07 L 0.00 367.79 L 0.00 367.55 L 0.00 366.96 L 0.00 365.86 L 0.00 365.13 L 0.00 363.99 L 0.00 362.28 L 0.00 362.20 L 0.00 361.95 L 0.00 361.62 L 0.00 359.60 L 0.00 359.35 L 0.00 359.29 L 0.00 358.95 L 0.00 357.10 L 0.00 356.41 L 0.00 356.18 L 0.00 354.39 L 0.00 353.29 L 0.00 350.92 L 0.00 348.01 L 0.00 347.62 L 0.00 347.07 L 0.00 342.98 L 0.00 341.57 L 0.00 340.28 L 0.00 340.09 L 0.00 338.58 L 0.00 337.79 L 0.00 336.47 L 0.00 333.63 L 0.00 331.12 L 0.00 330.12 L 0.00 324.31 L 0.00 323.38 L 0.00 319.84 L 0.00 319.58 L 0.00 319.25 L 0.00 313.96 L 0.00 306.38 L 0.00 303.99 L 0.00 296.71 L 0.00 295.86 L 0.00 293.72 L 0.00 293.33 L 0.00 293.07 L 0.00 291.36 L 0.00 289.92 L 0.00 285.11 L 0.00 284.84 L 0.00 284.69 L 0.00 283.38 L 0.00 281.73 L 0.00 266.96 L 0.00 258.76 L 0.00 255.54 L 0.00 252.76 L 0.00 251.39 L 0.00 249.60 L 0.00 244.17 L 0.00 243.29 L 0.00 237.71 L 0.00 235.68 L 0.00 234.46 L 0.00 232.85 L 0.00 226.57 L 0.00 225.87 L 0.00 222.07 L 0.00 219.42 L 0.00 217.61 L 0.00 217.30 L 0.00 215.65 L 0.00 215.39 L 0.00 213.72 L 0.00 208.37 L 0.00 208.20 L 0.00 206.54 L 0.00 205.47 L 0.00 202.99 L 0.00 202.85 L 0.00 202.73 L 0.00 202.30 L 0.00 198.25 L 0.00 197.99 L 0.00 197.25 L 0.00 197.25 L 0.00 191.78 L 0.00 191.45 L 0.00 191.21 L 0.00 189.88 L 0.00 189.50 L 0.00 189.14 L 0.00 187.43 L 0.00 185.13 L 0.00 185.04 L 0.00 184.84 L 0.00 184.08 L 0.00 184.07 L 0.00 182.63 L 0.00 181.94 L 0.00 181.58 L 0.00 178.17 L 0.00 177.31 L 0.00 176.53 L 0.00 175.10 L 0.00 174.52 L 0.00 173.75 L 0.00 172.81 L 0.00 172.29 L 0.00 171.11 L 0.00 170.79 L 0.00 170.50 L 0.00 168.88 L 0.00 166.00 L 0.00 165.72 L 0.00 164.73 L 0.00 164.11 L 0.00 163.14 L 0.00 158.83 L 0.00 157.15 L 0.00 156.30 L 0.00 153.02 L 0.00 152.91 L 0.00 150.86 L 0.00 150.08 L 0.00 149.18 L 0.00 148.40 L 0.00 148.25 L 0.00 147.94 L 0.00 147.57 L 0.00 147.35 L 0.00 145.53 L 0.00 144.25 L 0.00 144.25 L 0.00 143.65 L 0.00 142.92 L 0.00 142.21 L 0.00 141.12 L 0.00 140.77 L 0.00 139.63 L 0.00 138.38 L 0.00 138.24 L 0.00 137.57 L 0.00 136.96 L 0.00 136.04 L 0.00 136.00 L 0.00 135.55 L 0.00 135.34 L 0.00 134.49 L 0.00 134.24 L 0.00 131.25 L 0.00 130.57 L 0.00 126.42 L 0.00 125.86 L 0.00 125.47 L 0.00 119.52 L 0.00 118.00 L 0.00 117.20 L 0.00 115.79 L 0.00 115.67 L 0.00 115.53 L 0.00 115.20 L 0.00 112.22 L 0.00 110.73 L 0.00 107.63 L 0.00 106.39 L 0.00 105.91 L 0.00 104.35 L 0.00 104.08 L 0.00 103.25 L 0.00 102.97 L 0.00 102.96 L 0.00 102.31 L 0.00 102.29 L 0.00 99.05 L 0.00 98.89 L 0.00 96.80 L 0.00 95.32 L 0.00 94.87 L 0.00 94.22 L 0.00 90.17 L 0.00 89.25 L 0.00 88.51 L 0.00 85.63 L 0.00 83.52 L 0.00 82.57 L 0.00 81.82 L 0.00 81.38 L 0.00 79.37 L 0.00 79.35 L 0.00 77.27 L 0.00 77.12 L 0.00 77.08 L 0.00 75.47 L 0.00 74.82 L 0.00 74.21 L 0.00 73.86 L 0.00 72.04 L 0.00 71.83 L 0.00 70.85 L 0.00 69.91 L 0.00 69.90 L 0.00 69.40 L 0.00 68.98 L 0.00 68.46 L 0.00 67.90 L 0.00 65.26 L 0.00 63.69 L 0.00 63.37 L 0.00 61.24 L 0.00 60.70 L 0.00 60.09 L 0.00 59.60 L 0.00 57.99 L 0.00 56.43 L 0.00 56.25 L 0.00 55.53 L 0.00 53.62 L 0.00 52.56 L 0.00 50.03 L 0.00 49.32 L 0.00 48.80 L 0.00 44.01 L 0.00 44.00 L 0.00 41.78 L 0.00 41.67 L 0.00 38.80 L 0.00 38.48 L 0.00 38.19 L 0.00 35.40 L 0.00 32.68 L 0.00 32.57 L 0.00 32.25 L 0.00 29.60 L 0.00 29.11 L 0.00 28.66 L 0.00 28.07 L 0.00 26.12 L 0.00 24.96 L 0.00 24.87 L 0.00 24.42 L 0.00 24.17 L 0.00 23.33 L 0.00 20.99 L 0.00 20.98 L 0.00 20.19 L 0.00 20.03 L 0.00 17.90 L 0.00 16.35 L 0.00 16.07 L 0.00 15.65 L 0.00 14.83 L 0.00 14.19 L 0.00 12.77 L 0.00 11.66 L 0.00 11.16 L 0.00 10.29 L 0.00 9.86 L 0.00 9.11 L 0.00 9.03 L 0.00 8.82 L 0.00 7.91 L 0.15 0.15 L 3.18 0.00 L 4.13 0.00 L 4.98 0.00 L 6.83 0.00 L 6.92 0.00 L 6.93 0.00 L 7.60 0.00 L 8.82 0.00 L 10.03 0.00 L 10.34 0.00 L 11.99 0.00 L 12.50 0.00 L 12.52 0.00 L 13.70 0.00 L 14.35 0.00 L 15.67 0.00 L 16.54 0.00 L 16.77 0.00 L 17.13 0.00 L 17.54 0.00 L 18.11 0.00 L 20.21 0.00 L 22.55 0.00 L 23.23 0.00 L 23.37 0.00 L 23.58 0.00 L 24.16 0.00 L 24.36 0.00 L 25.30 0.00 L 25.63 0.00 L 27.29 0.00 L 27.71 0.00 L 30.52 0.00 L 31.02 0.00 L 31.05 0.00 L 32.62 0.00 L 33.68 0.00 L 35.41 0.00 L 36.62 0.00 L 37.35 0.00 L 37.42 0.00 L 38.62 0.00 L 39.29 0.00 L 39.49 0.00 L 42.70 0.00 L 44.02 0.00 L 45.80 0.00 L 47.58 0.00 L 48.37 0.00 L 50.95 0.00 L 50.98 0.00 L 51.28 0.00 L 52.86 0.00 L 53.81 0.00 L 57.24 0.00 L 57.77 0.00 L 57.85 0.00 L 57.98 0.00 L 58.89 0.00 L 60.46 0.00 L 61.10 0.00 L 62.28 0.00 L 62.59 0.00 L 62.93 0.00 L 63.92 0.00 L 64.14 0.00 L 66.16 0.00 L 70.01 0.00 L 70.91 0.00 L 71.44 0.00 L 72.08 0.00 L 73.61 0.00 L 74.45 0.00 L 75.61 0.00 L 75.88 0.00 L 76.64 0.00 L 77.61 0.00 L 78.55 0.00 L 78.73 0.00 L 79.91 0.00 L 80.20 0.00 L 81.16 0.00 L 84.80 0.00 L 86.47 0.00 L 86.60 0.00 L 86.83 0.00 L 89.62 0.00 L 92.12 0.00 L 93.36 0.00 L 93.82 0.00 L 94.07 0.00 L 98.49 0.00 L 99.57 0.00 L 101.38 0.00 L 102.72 0.00 L 102.93 0.00 L 104.34 0.00 L 104.47 0.00 L 106.98 0.00 L 109.51 0.00 L 110.30 0.00 L 110.46 0.00 L 111.05 0.00 L 111.87 0.00 L 113.16 0.00 L 113.32 0.00 L 116.57 0.00 L 119.03 0.00 L 122.17 0.00 L 122.99 0.00 L 123.41 0.00 L 124.20 0.00 L 124.28 0.00 L 124.48 0.00 L 124.68 0.00 L 128.23 0.00 L 132.05 0.00 L 132.36 0.00 L 134.52 0.00 L 135.20 0.00 L 135.85 0.00 L 136.16 0.00 L 136.19 0.00 L 139.46 0.00 L 140.66 0.00 L 141.07 0.00 L 141.73 0.00 L 141.83 0.00 L 141.84 0.00 L 144.68 0.00 L 146.54 0.00 L 146.98 0.00 L 147.31 0.00 L 148.72 0.00 L 149.08 0.00 L 149.40 0.00 L 151.59 0.00 L 152.21 0.00 L 152.26 0.00 L 154.76 0.00 L 155.29 0.00 L 155.62 0.00 L 156.20 0.00 L 156.27 0.00 L 156.47 0.00 L 160.83 0.00 L 163.78 0.00 L 165.13 0.00 L 165.93 0.00 L 165.98 0.00 L 167.54 0.00 L 168.31 0.00 L 169.88 0.00 L 172.06 0.00 L 172.35 0.00 L 172.51 0.00 L 172.86 0.00 L 173.59 0.00 L 177.25 0.00 L 179.20 0.00 L 179.58 0.00 L 182.06 0.00 L 182.27 0.00 L 184.48 0.00 L 185.41 0.00 L 185.54 0.00 L 186.39 0.00 L 186.68 0.00 L 189.32 0.00 L 189.38 0.00 L 189.57 0.00 L 190.00 0.00 L 194.16 0.00 L 194.48 0.00 L 196.75 0.00 L 200.62 0.00 L 204.18 0.35 L 221.36 16.25 L 257.59 11.04 L 284.90 6.40 L 290.63 5.00 L 308.70 8.50 L 326.26 5.00 L 350.41 5.00 L 355.60 5.00 L 368.23 9.40 L 393.48 5.00 L 413.92 5.00 L 427.22 5.00 L 430.06 5.37 L 447.84 6.05 L 478.50 5.00 L 487.68 9.85 L 510.70 7.24 L 510.70 32.52 L 509.93 53.25 L 510.20 84.64 L 510.70 92.42 L 500.94 117.67 L 501.29 127.55 L 510.70 146.49 L 510.70 150.78 L 510.70 174.41 L 510.70 193.52 L 510.70 193.93 L 510.70 193.96 L 510.70 194.10 L 510.70 194.98 L 510.70 195.33 L 510.70 196.23 L 510.70 196.66 L 510.70 196.97 L 510.70 197.33 L 510.70 197.40 L 510.70 197.54 L 510.70 197.67 L 510.70 197.74 L 510.70 198.75 L 510.70 199.03 L 510.70 199.28 L 510.70 199.44 L 510.70 199.57 L 510.70 199.71 L 510.70 200.80 L 510.70 201.06 L 510.70 201.60 L 510.70 201.62 L 510.70 201.93 L 510.70 202.04 L 510.70 202.19 L 510.70 202.54 L 510.70 202.76 L 510.70 203.02 L 510.54 203.15 L 506.28 203.15 L 506.13 203.15 L 504.56 203.15 L 504.36 203.15 L 501.41 203.15 L 499.62 203.15 L 498.69 203.15 L 495.15 203.15 L 493.83 203.15 L 492.71 203.15 L 492.59 203.15 L 491.63 203.15 L 490.74 203.15 L 487.99 203.15 L 486.59 203.15 L 486.02 203.15 L 485.74 203.15 L 484.47 203.15 L 483.53 203.15 L 482.87 203.15 L 482.07 203.15 L 481.79 203.15 L 481.50 203.15 L 481.29 203.15 L 479.77 203.15 L 478.94 203.15 L 478.75 203.15 L 478.48 203.15 L 476.13 203.15 L 475.62 203.15 L 474.11 203.15 L 473.91 203.15 L 472.02 203.15 L 471.66 203.15 L 471.36 203.15 L 471.12 203.15 L 469.21 203.15 L 469.16 203.15 L 467.43 203.15 L 464.22 203.15 L 460.46 203.15 L 459.42 203.15 L 459.05 203.15 L 458.47 203.15 L 456.81 203.15 L 456.47 203.15 L 454.81 203.15 L 454.72 203.15 L 454.07 203.15 L 451.83 203.15 L 451.26 203.15 L 450.97 203.15 L 449.94 203.15 L 449.85 203.15 L 448.10 203.15 L 447.82 203.15 L 445.93 203.15 L 445.22 203.15 L 445.04 203.15 L 444.95 203.15 L 438.37 203.15 L 437.42 203.15 L 437.14 203.15 L 436.01 203.15 L 435.00 203.15 L 434.61 203.15 L 433.34 203.15 L 430.67 203.15 L 430.62 203.15 L 430.60 203.15 L 427.30 203.15 L 426.91 203.15 L 426.00 203.15 L 425.20 203.15 L 425.15 203.15 L 424.95 203.15 L 422.07 203.15 L 420.31 203.15 L 420.12 203.15 L 419.78 203.15 L 417.97 203.15 L 416.17 203.15 L 414.87 203.15 L 414.84 203.15 L 414.55 203.15 L 411.23 203.15 L 405.23 203.15 L 404.28 203.15 L 402.82 203.15 L 402.53 203.15 L 401.57 203.15 L 401.33 203.15 L 401.02 203.15 L 400.90 203.15 L 400.59 203.15 L 400.53 203.15 L 399.92 203.15 L 399.82 203.15 L 398.78 203.15 L 398.42 203.15 L 398.34 203.15 L 396.15 203.15 L 394.97 203.15 L 394.94 203.15 L 394.66 203.15 L 394.26 203.15 L 394.16 203.15 L 394.02 203.15 L 394.02 203.15 L 393.97 203.15 L 393.61 203.15 L 392.82 203.15 L 392.32 203.15 L 390.54 203.15 L 389.23 203.15 L 388.32 203.15 L 387.29 203.15 L 385.54 203.15 L 384.70 203.15 L 384.35 203.15 L 384.18 203.15 L 384.12 203.15 L 383.07 203.15 L 381.57 203.15 L 381.32 203.15 L 380.88 203.15 L 378.08 203.15 L 375.83 203.15 L 375.62 203.15 L 375.47 203.15 L 374.58 203.15 L 374.36 203.15 L 374.31 203.15 L 373.84 203.15 L 373.78 203.15 L 372.07 203.15 L 367.55 203.15 L 366.81 203.15 L 366.44 203.15 L 366.30 203.15 L 366.26 203.15 L 365.81 203.15 L 363.08 203.15 L 362.27 203.15 L 362.20 203.15 L 360.70 203.15 L 360.13 203.15 L 359.79 203.15 L 359.22 203.15 L 356.94 203.15 L 356.74 203.15 L 356.55 203.15 L 356.10 203.15 L 354.80 203.15 L 354.63 203.15 L 354.53 203.15 L 352.93 203.15 L 352.69 203.15 L 351.45 203.15 L 351.07 203.15 L 350.19 203.15 L 347.57 203.15 L 347.32 203.15 L 347.23 203.15 L 346.27 203.15 L 346.19 203.15 L 344.53 203.15 L 342.95 203.15 L 342.77 203.15 L 338.56 203.15 L 337.20 203.15 L 337.08 203.15 L 336.41 203.15 L 336.30 203.15 L 332.66 203.15 L 330.87 203.15 L 329.88 203.15 L 329.10 203.15 L 328.53 203.15 L 328.11 203.15 L 324.55 203.15 L 322.69 203.15 L 322.29 203.15 L 321.47 203.15 L 320.61 203.15 L 320.22 203.15 L 319.46 203.15 L 318.55 203.15 L 318.26 203.15 L 318.19 203.15 L 317.95 203.15 L 317.44 203.15 L 316.82 203.15 L 316.16 203.15 L 313.75 203.15 L 313.41 203.15 L 313.30 203.15 L 312.50 203.15 L 311.83 203.15 L 311.66 203.15 L 309.92 203.15 L 309.50 203.15 L 308.84 203.15 L 308.81 203.15 L 308.51 203.15 L 307.69 203.15 L 307.00 203.15 L 306.81 203.15 L 305.82 203.15 L 305.51 203.15 L 304.26 203.15 L 302.79 203.15 L 302.52 203.15 L 300.63 203.15 L 299.73 203.15 L 299.40 203.15 L 299.17 203.15 L 298.35 203.15 L 298.27 203.15 L 297.17 203.15 L 296.23 203.15 L 294.55 203.15 L 294.10 203.15 L 292.21 203.15 L 291.98 203.15 L 289.89 203.15 L 288.18 203.15 L 288.11 203.15 L 288.08 203.15 L 287.09 203.15 L 285.45 203.15 L 283.83 203.15 L 281.80 203.15 L 280.86 203.15 L 277.90 203.15 L 277.47 203.15 L 276.38 203.15 L 275.54 203.15 L 275.33 203.15 L 274.30 203.15 L 273.26 203.15 L 273.03 203.15 L 271.45 203.15 L 269.51 203.15 L 268.97 203.15 L 268.35 203.15 L 268.35 203.15 L 266.02 203.15 L 265.23 203.15 L 263.35 203.15 L 262.79 203.15 L 260.39 203.15 L 260.02 203.15 L 259.42 203.15 L 257.70 203.15 L 256.91 203.15 L 255.00 203.15 L 252.47 203.15 L 252.04 203.15 L 251.53 203.15 L 251.24 203.15 L 250.85 203.15 L 249.62 203.15 L 249.28 203.15 L 249.22 203.15 L 249.04 203.15 L 247.73 203.15 L 244.96 203.15 L 244.70 203.15 L 244.29 203.15 L 243.54 203.15 L 242.35 203.15 L 241.00 203.15 L 240.69 203.15 L 237.95 203.15 L 236.92 203.15 L 234.96 203.15 L 232.15 203.15 L 231.41 203.15 L 230.17 203.15 L 229.91 203.15 L 229.89 203.15 L 229.79 203.15 L 229.08 203.15 L 228.97 203.15 L 228.69 203.15 L 227.09 203.15 L 226.40 203.15 L 225.71 203.15 L 224.59 203.15 L 224.55 203.15 L 224.38 203.15 L 223.77 203.15 L 223.44 203.15 L 222.93 203.15 L 220.93 203.15 L 219.11 203.15 L 216.68 203.15 L 215.38 203.15 L 214.33 203.15 L 213.38 203.15 L 213.00 203.15 L 209.73 203.15 L 208.34 203.15 L 208.21 203.15 L 207.97 203.15 L 207.59 203.15 L 206.65 203.15 L 205.68 203.15 L 205.46 203.15 L 204.10 203.15 L 203.51 203.15 L 203.39 203.15 L 201.54 203.15 L 200.99 203.15 L 200.89 203.15 L 200.62 203.15 L 197.73 203.15 L 196.65 203.15 L 196.63 203.15 L 196.44 203.15 L 193.42 203.15 L 173.55 224.23 L 173.55 224.57 L 173.55 224.83 L 173.55 227.34 L 173.55 227.75 L 173.55 228.35 L 173.55 230.10 L 173.55 233.40 L 173.55 233.68 L 173.55 234.98 L 173.55 236.15 L 173.55 236.95 L 173.55 237.52 L 173.55 238.24 L 173.55 238.94 L 173.55 239.32 L 173.55 239.55 L 173.55 241.90 L 173.55 242.15 L 173.55 242.94 L 173.55 243.75 L 173.55 246.64 L 173.55 246.90 L 173.55 247.48 L 173.55 247.53 L 173.55 247.75 L 173.55 250.59 L 173.55 250.82 L 173.55 253.18 L 173.55 254.65 L 173.55 254.90 L 173.55 255.01 L 173.55 255.74 L 173.55 256.23 L 173.55 258.09 L 173.55 258.14 L 173.55 260.20 L 173.55 262.67 L 173.55 264.28 L 173.55 264.79 L 173.55 268.47 L 173.55 269.69 L 173.55 269.98 L 173.55 270.10 L 173.55 270.44 L 173.55 270.83 L 173.55 270.89 L 173.55 272.60 L 173.55 273.28 L 173.55 273.99 L 173.55 274.19 L 173.55 277.20 L 173.55 277.38 L 173.55 281.40 L 173.55 282.66 L 173.55 284.28 L 173.55 285.65 L 173.55 286.69 L 173.55 287.01 L 173.55 288.82 L 173.55 289.60 L 173.55 290.38 L 173.55 290.73 L 173.55 291.63 L 173.55 291.68 L 173.55 293.48 L 173.55 293.86 L 173.55 294.92 L 173.55 299.26 L 173.55 300.87 L 173.55 301.53 L 173.55 301.82 L 173.55 303.82 L 173.55 304.12 L 173.55 306.61 L 173.55 308.49 L 173.55 308.96 L 173.55 309.02 L 173.55 309.09 L 173.55 311.51 L 173.55 312.40 L 173.55 312.96 L 173.55 313.00 L 173.55 313.33 L 173.55 314.48 L 173.55 315.11 L 173.55 315.29 L 173.55 315.56 L 173.55 317.26 L 173.55 319.09 L 173.55 319.23 L 173.55 320.44 L 173.55 321.28 L 173.55 321.73 L 173.55 323.03 L 173.55 323.92 L 173.55 324.35 L 173.55 325.50 L 173.55 326.01 L 173.55 326.14 L 173.55 327.66 L 173.55 328.87 L 173.55 330.51 L 173.55 330.73 L 173.55 331.21 L 173.55 331.37 L 173.55 332.62 L 173.55 334.92 L 173.55 335.58 L 173.55 335.70 L 173.55 339.16 L 173.55 339.80 L 173.55 340.48 L 173.55 342.08 L 173.55 343.62 L 173.55 344.35 L 173.55 344.96 L 173.55 345.11 L 173.55 345.61 L 173.55 346.76 L 173.55 346.98 L 173.55 348.38 L 173.55 349.65 L 173.55 350.83 L 173.55 351.43 L 173.55 353.60 L 173.55 356.73 L 173.55 357.33 L 173.55 357.74 L 173.55 357.97 L 173.55 358.53 L 173.55 361.82 L 173.55 362.53 L 173.55 363.60 L 173.55 363.93 L 173.55 365.09 L 173.55 365.24 L 173.55 368.49 L 173.55 368.83 L 173.55 369.58 L 173.55 369.70 L 173.55 371.19 L 173.55 373.75 L 173.55 374.04 L 173.55 374.62 L 173.55 375.10 L 173.55 376.58 L 173.55 376.79 L 173.55 377.83 L 173.55 378.15 L 173.55 378.69 L 173.55 379.21 L 173.55 379.80 L 173.55 380.06 L 173.55 380.46 L 173.55 380.58 L 173.55 383.53 L 173.55 385.08 L 173.55 385.74 L 173.55 385.83 L 173.55 386.27 L 173.55 386.32 L 173.55 386.81 L 173.55 387.06 L 173.55 388.31 L 173.55 390.00 L 173.55 391.63 L 173.55 392.99 L 173.55 393.34 L 173.55 393.63 L 173.55 395.02 L 173.55 397.25 L 173.55 397.82 L 173.55 398.23 L 173.55 398.81 L 173.55 398.93 L 173.55 399.75 L 173.55 400.02 L 173.55 400.19 L 173.55 400.19 L 173.55 400.21 L 173.55 401.68 L 173.55 402.03 L 173.55 402.07 L 173.55 402.28 L 173.55 404.63 L 173.55 404.69 L 173.55 404.82 L 173.55 405.28 L 173.55 405.45 L 173.55 405.49 L 173.55 406.18 L 173.55 407.67 L 173.55 412.20 L 173.55 412.26 L 173.55 413.34 L 173.55 415.78 L 173.55 417.14 L 173.55 417.45 L 173.55 417.57 L 173.55 418.05 L 173.55 420.17 L 173.55 422.12 L 173.55 423.26 L 173.55 423.71 L 173.55 424.40 L 173.55 426.93 L 173.55 427.61 L 173.55 429.46 L 173.55 429.58 L 173.55 431.67 L 173.55 432.43 L 173.55 433.36 L 173.55 434.34 L 173.55 434.76 L 173.55 436.66 L 173.55 436.75 L 173.55 437.18 L 173.55 437.93 L 173.55 438.67 L 173.55 439.29 L 173.55 441.23 L 173.55 443.33 L 173.55 443.98 L 173.55 444.73 L 173.55 447.13 L 173.55 448.08 L 173.55 448.47 L 173.55 448.62 L 173.55 449.48 L 173.55 450.51 L 173.55 450.96 L 173.55 450.98 L 173.55 451.59 L 173.55 455.18 L 173.55 456.12 L 173.55 456.54 L 173.55 459.43 L 173.55 463.13 L 173.55 464.03 L 173.55 464.27 L 173.55 464.28 L 173.55 468.51 L 173.55 470.17 L 173.55 470.42 L 173.55 472.09 L 173.55 472.26 L 173.55 473.72 L 173.55 475.43 L 173.55 484.50 L 173.55 490.24 L 173.55 497.33 L 173.55 497.39 L 173.55 498.45 L 173.55 499.79 L 173.55 502.95 L 173.55 503.26 L 173.55 509.15 L 173.55 509.81 L 173.55 510.49 L 173.55 514.20 L 173.55 520.12 L 173.55 521.25 L 173.55 522.37 L 173.55 522.44 L 173.55 522.56 L 173.55 523.24 L 173.55 523.47 L 173.55 525.66 L 173.55 526.51 L 173.55 526.83 L 173.55 527.32 L 173.55 529.52 L 173.55 530.24 L 173.55 530.48 L 173.55 530.57 L 173.55 531.82 L 173.55 531.83 L 173.55 532.05 L 173.55 533.67 L 173.55 534.42 L 173.55 540.69 L 173.55 541.39 L 173.55 541.42 L 173.55 542.49 L 173.55 542.69 L 173.55 543.41 L 173.55 544.13 L 173.55 545.12 L 173.55 545.60 L 173.55 547.57 L 173.55 548.09 L 173.55 548.46 L 173.55 548.74 L 173.55 550.27 L 173.55 550.30 L 173.55 550.32 L 173.55 553.83 L 173.55 554.36 L 173.55 554.60 L 173.55 556.08 L 173.55 557.88 L 173.55 557.89 L 173.55 558.87 L 173.55 560.07 L 173.55 560.20 L 173.55 560.71 L 173.55 560.88 L 173.55 562.34 L 173.55 562.63 L 173.55 562.81 L 173.55 563.60 L 173.55 566.12 L 173.55 566.33 L 173.55 567.68 L 173.55 568.06 L 173.55 569.68 L 173.55 573.39 L 173.55 574.15 L 173.55 575.16 L 173.55 575.97 L 173.55 578.78 L 173.55 580.97 L 173.55 582.30 L 173.55 585.23 L 173.55 585.70 L 173.55 586.03 L 173.55 589.63 L 173.55 589.82 L 173.55 590.77 L 173.55 591.12 L 173.55 592.51 L 173.55 594.05 L 173.55 599.76 L 173.55 599.81 L 173.55 599.91 L 173.55 602.13 L 173.55 603.66 L 173.55 603.84 L 173.55 604.82 L 173.55 604.88 L 173.55 606.02 L 173.55 606.82 L 173.55 607.84 L 173.55 608.61 L 173.55 608.90 L 173.55 609.27 L 173.55 609.75 L 173.55 609.91 L 173.55 609.93 L 173.55 612.68 L 173.55 614.35 L 173.55 615.31 L 173.55 615.67 L 173.55 616.27 L 173.55 616.87 L 173.55 618.50 L 173.55 618.66 L 173.55 618.76 L 173.55 620.44 L 173.55 621.90 L 173.55 622.36 L 173.55 623.56 L 173.55 623.72 L 173.55 626.63 L 173.55 628.26 L 173.55 629.79 L 173.55 630.53 L 173.55 630.77 L 173.55 631.72 L 173.55 632.74 L 173.55 635.17 L 173.55 635.21 L 173.55 635.50 L 173.55 640.50 L 173.55 640.59 L 173.55 640.82 L 173.55 642.31 L 173.55 643.55 L 173.55 645.42 L 173.55 645.45 L 173.55 646.08 L 173.55 648.42 L 173.55 648.57 L 173.55 650.65 L 173.55 652.09 L 173.55 652.57 L 173.55 653.94 L 173.55 654.04 L 173.55 655.04 L 173.55 655.70 L 173.55 656.42 L 173.55 657.10 L 173.55 657.12 L 173.55 657.77 L 173.55 658.42 L 173.55 658.62 L 173.55 659.70 L 173.55 661.01 L 173.55 662.41 L 173.55 663.93 L 173.55 663.94 L 173.55 664.47 L 173.55 666.25 L 173.55 666.87 L 173.55 667.68 L 173.55 669.37 L 173.55 669.60 L 173.55 672.11 L 173.55 673.02 L 173.55 676.74 L 173.55 678.50 L 173.55 678.97 L 173.55 680.02 L 173.55 680.65 L 173.55 681.09 L 173.55 684.32 L 173.55 687.37 L 173.55 687.37 L 173.55 688.20 L 173.55 688.76 L 173.55 689.59 L 173.55 689.85 L 173.55 690.77 L 173.55 690.80 L 173.55 691.02 L 173.55 692.23 L 173.55 692.24 L 173.55 692.34 L 173.55 692.74 L 173.55 692.79 L 173.55 693.54 L 173.55 694.70 L 173.55 694.88 L 173.55 695.07 L 173.55 695.30 L 173.55 696.49 L 173.55 696.56 L 173.55 697.67 L 173.55 698.44 L 173.55 698.78 L 173.55 699.83 L 173.55 700.65 L 173.55 700.72 L 173.55 701.03 L 173.55 702.16 L 173.55 703.03 L 173.55 705.98 L 173.55 707.95 L 173.55 708.63 L 173.55 709.82 L 173.55 711.65 L 173.55 712.23 L 173.55 712.49 L 173.55 715.16 L 173.55 715.64 L 173.55 716.30 L 173.55 717.27 L 173.55 717.31 L 173.55 717.62 L 173.55 718.58 L 173.55 718.68 L 173.55 719.78 L 173.55 720.66 L 173.55 721.84 L 173.55 722.41 L 173.55 722.63 L 173.55 723.38 L 173.55 724.32 L 173.55 724.49 L 173.55 724.65 L 173.55 724.68 L 173.55 726.88 L 173.55 727.32 L 173.55 727.37 L 173.55 729.16 L 173.55 730.68 L 173.55 730.98 L 173.55 731.15 L 173.55 731.57 L 173.55 733.96 L 173.55 734.31 L 173.55 734.94 L 173.55 736.90 L 173.55 738.28 L 173.55 740.86 L 173.55 740.91 L 173.55 740.95 L 173.55 741.84 L 173.55 742.00 L 173.55 743.60 L 173.55 745.36 L 173.55 745.61 L 173.55 747.17 L 173.55 747.94 L 173.55 748.05 L 173.55 749.77 L 173.55 751.00 L 173.55 751.97 L 173.55 752.99 L 173.55 754.70 L 173.55 755.07 L 173.55 755.17 L 173.55 757.42 L 173.55 759.74 L 173.55 760.38 L 173.55 763.34 L 173.55 763.82 L 173.55 764.87 L 173.55 764.93 L 173.55 765.69 L 173.55 765.98 L 173.55 766.87 L 173.55 767.25 L 173.55 767.46 L 173.55 768.86 L 173.55 769.44 L 173.55 771.46 L 173.55 772.99 L 173.55 773.40 L 173.55 773.74 L 173.55 774.46 Z" fill="none" stroke="black" stroke-width="7" style="stroke-width:7" />
</svg>